G04*
G04 #@! TF.GenerationSoftware,Altium Limited,Altium Designer,24.1.2 (44)*
G04*
G04 Layer_Physical_Order=1*
G04 Layer_Color=255*
%FSLAX44Y44*%
%MOMM*%
G71*
G04*
G04 #@! TF.SameCoordinates,635B94A0-59F8-49C6-AB40-AA6DFF865303*
G04*
G04*
G04 #@! TF.FilePolarity,Positive*
G04*
G01*
G75*
%ADD10C,0.1500*%
%ADD12C,0.2000*%
%ADD14C,0.1524*%
%ADD16R,0.5000X0.6000*%
%ADD17R,0.6000X0.5000*%
%ADD18R,0.9000X0.9500*%
%ADD19R,1.1000X0.6000*%
%ADD20R,0.9500X0.9000*%
%ADD21R,0.6000X1.1000*%
%ADD22R,1.2500X1.4000*%
%ADD23R,1.8000X1.9000*%
%ADD24R,0.4000X1.3500*%
%ADD25R,2.1000X1.6000*%
%ADD26R,1.9000X1.9000*%
%ADD27R,0.6000X1.0500*%
%ADD28R,1.0500X0.6000*%
%ADD29R,0.8000X0.7500*%
%ADD30O,1.4500X0.3000*%
%ADD31O,0.3000X1.4500*%
%ADD32R,1.4000X1.2000*%
%ADD33R,0.3000X0.8500*%
%ADD34R,0.7500X0.8000*%
%ADD35R,0.5000X2.0000*%
%ADD36R,1.5000X1.4000*%
%ADD42C,1.6000*%
%ADD67C,1.0000*%
%ADD68C,0.5000*%
%ADD69C,0.3500*%
%ADD70C,0.2500*%
%ADD71C,0.2540*%
%ADD72C,0.3000*%
%ADD73C,0.8000*%
%ADD74C,0.1520*%
%ADD75R,1.1000X1.8000*%
%ADD76R,1.0000X4.9000*%
G04:AMPARAMS|DCode=77|XSize=1.6mm|YSize=1.6mm|CornerRadius=0.24mm|HoleSize=0mm|Usage=FLASHONLY|Rotation=90.000|XOffset=0mm|YOffset=0mm|HoleType=Round|Shape=RoundedRectangle|*
%AMROUNDEDRECTD77*
21,1,1.6000,1.1200,0,0,90.0*
21,1,1.1200,1.6000,0,0,90.0*
1,1,0.4800,0.5600,0.5600*
1,1,0.4800,0.5600,-0.5600*
1,1,0.4800,-0.5600,-0.5600*
1,1,0.4800,-0.5600,0.5600*
%
%ADD77ROUNDEDRECTD77*%
G04:AMPARAMS|DCode=78|XSize=1.6mm|YSize=1.6mm|CornerRadius=0.24mm|HoleSize=0mm|Usage=FLASHONLY|Rotation=180.000|XOffset=0mm|YOffset=0mm|HoleType=Round|Shape=RoundedRectangle|*
%AMROUNDEDRECTD78*
21,1,1.6000,1.1200,0,0,180.0*
21,1,1.1200,1.6000,0,0,180.0*
1,1,0.4800,-0.5600,0.5600*
1,1,0.4800,0.5600,0.5600*
1,1,0.4800,0.5600,-0.5600*
1,1,0.4800,-0.5600,-0.5600*
%
%ADD78ROUNDEDRECTD78*%
%ADD79C,0.1000*%
%ADD80R,1.6000X1.6000*%
%ADD81C,1.5000*%
G04:AMPARAMS|DCode=82|XSize=1.5mm|YSize=1.5mm|CornerRadius=0.375mm|HoleSize=0mm|Usage=FLASHONLY|Rotation=90.000|XOffset=0mm|YOffset=0mm|HoleType=Round|Shape=RoundedRectangle|*
%AMROUNDEDRECTD82*
21,1,1.5000,0.7500,0,0,90.0*
21,1,0.7500,1.5000,0,0,90.0*
1,1,0.7500,0.3750,0.3750*
1,1,0.7500,0.3750,-0.3750*
1,1,0.7500,-0.3750,-0.3750*
1,1,0.7500,-0.3750,0.3750*
%
%ADD82ROUNDEDRECTD82*%
%ADD83C,0.6000*%
G36*
X186010Y482589D02*
X186040Y482249D01*
X186090Y481950D01*
X186160Y481689D01*
X186250Y481469D01*
X186360Y481289D01*
X186490Y481149D01*
X186640Y481049D01*
X186810Y480989D01*
X187000Y480970D01*
X183000D01*
X183190Y480989D01*
X183360Y481049D01*
X183510Y481149D01*
X183640Y481289D01*
X183750Y481469D01*
X183840Y481689D01*
X183910Y481950D01*
X183960Y482249D01*
X183990Y482589D01*
X184000Y482970D01*
X186000D01*
X186010Y482589D01*
D02*
G37*
G36*
X195462Y477966D02*
X195532Y477610D01*
X195648Y477351D01*
X195811Y477187D01*
X196020Y477121D01*
X196275Y477151D01*
X196577Y477277D01*
X196903Y477486D01*
X197077Y477677D01*
X197099Y477641D01*
X197320Y477820D01*
X197762Y478237D01*
X197830Y476442D01*
X199263Y474091D01*
X199145Y474105D01*
X199013Y474092D01*
X198868Y474052D01*
X198710Y473984D01*
X198538Y473889D01*
X198352Y473766D01*
X198153Y473615D01*
X197742Y473256D01*
X197468Y472969D01*
X197043Y472470D01*
X196667Y471972D01*
X196341Y471475D01*
X196065Y470979D01*
X195840Y470485D01*
X195665Y469992D01*
X195539Y469500D01*
X195464Y469009D01*
X195439Y468520D01*
Y478419D01*
X195462Y477966D01*
D02*
G37*
G36*
X118561Y467000D02*
X118511Y467475D01*
X118360Y467900D01*
X118108Y468275D01*
X117756Y468600D01*
X117303Y468875D01*
X116750Y469100D01*
X116096Y469275D01*
X115342Y469400D01*
X114486Y469475D01*
X113531Y469500D01*
Y474500D01*
X114486Y474525D01*
X115342Y474600D01*
X116096Y474725D01*
X116750Y474900D01*
X117303Y475125D01*
X117756Y475400D01*
X118108Y475725D01*
X118360Y476100D01*
X118511Y476525D01*
X118561Y477000D01*
Y467000D01*
D02*
G37*
G36*
X62236Y476525D02*
X62387Y476100D01*
X62638Y475725D01*
X62990Y475400D01*
X63443Y475125D01*
X63996Y474900D01*
X64650Y474725D01*
X65405Y474600D01*
X66260Y474525D01*
X67216Y474500D01*
Y469500D01*
X66260Y469475D01*
X65405Y469400D01*
X64650Y469275D01*
X63996Y469100D01*
X63443Y468875D01*
X62990Y468600D01*
X62638Y468275D01*
X62387Y467900D01*
X62236Y467475D01*
X62185Y467000D01*
Y477000D01*
X62236Y476525D01*
D02*
G37*
G36*
X34255Y466149D02*
X33656Y465553D01*
X33119Y464943D01*
X32646Y464318D01*
X32236Y463679D01*
X31889Y463025D01*
X31605Y462357D01*
X31384Y461674D01*
X31226Y460976D01*
X31131Y460264D01*
X31100Y459538D01*
X26100Y459669D01*
X26070Y460390D01*
X25978Y461100D01*
X25826Y461800D01*
X25613Y462491D01*
X25340Y463172D01*
X25005Y463843D01*
X24610Y464504D01*
X24154Y465155D01*
X23637Y465797D01*
X23059Y466429D01*
X34255Y466149D01*
D02*
G37*
G36*
X178810Y461041D02*
X178640Y460980D01*
X178490Y460878D01*
X178360Y460736D01*
X178250Y460553D01*
X178160Y460330D01*
X178090Y460066D01*
X178040Y459761D01*
X178010Y459416D01*
X178000Y459030D01*
X176000D01*
X175990Y459416D01*
X175960Y459761D01*
X175910Y460066D01*
X175840Y460330D01*
X175750Y460553D01*
X175640Y460736D01*
X175510Y460878D01*
X175360Y460980D01*
X175190Y461041D01*
X175000Y461061D01*
X179000D01*
X178810Y461041D01*
D02*
G37*
G36*
X170810D02*
X170640Y460980D01*
X170490Y460878D01*
X170360Y460736D01*
X170250Y460553D01*
X170160Y460330D01*
X170090Y460066D01*
X170040Y459761D01*
X170010Y459416D01*
X170000Y459030D01*
X168000D01*
X167990Y459416D01*
X167960Y459761D01*
X167910Y460066D01*
X167840Y460330D01*
X167750Y460553D01*
X167640Y460736D01*
X167510Y460878D01*
X167360Y460980D01*
X167190Y461041D01*
X167000Y461061D01*
X171000D01*
X170810Y461041D01*
D02*
G37*
G36*
X162810D02*
X162640Y460980D01*
X162490Y460878D01*
X162360Y460736D01*
X162250Y460553D01*
X162160Y460330D01*
X162090Y460066D01*
X162040Y459761D01*
X162010Y459416D01*
X162000Y459030D01*
X160000D01*
X159990Y459416D01*
X159960Y459761D01*
X159910Y460066D01*
X159840Y460330D01*
X159750Y460553D01*
X159640Y460736D01*
X159510Y460878D01*
X159360Y460980D01*
X159190Y461041D01*
X159000Y461061D01*
X163000D01*
X162810Y461041D01*
D02*
G37*
G36*
X154810D02*
X154640Y460980D01*
X154490Y460878D01*
X154360Y460736D01*
X154250Y460553D01*
X154160Y460330D01*
X154090Y460066D01*
X154040Y459761D01*
X154010Y459416D01*
X154000Y459030D01*
X152000D01*
X151990Y459416D01*
X151960Y459761D01*
X151910Y460066D01*
X151840Y460330D01*
X151750Y460553D01*
X151640Y460736D01*
X151510Y460878D01*
X151360Y460980D01*
X151190Y461041D01*
X151000Y461061D01*
X155000D01*
X154810Y461041D01*
D02*
G37*
G36*
X146810D02*
X146640Y460980D01*
X146490Y460878D01*
X146360Y460736D01*
X146250Y460553D01*
X146160Y460330D01*
X146090Y460066D01*
X146040Y459761D01*
X146010Y459416D01*
X146000Y459030D01*
X144000D01*
X143990Y459416D01*
X143960Y459761D01*
X143910Y460066D01*
X143840Y460330D01*
X143750Y460553D01*
X143640Y460736D01*
X143510Y460878D01*
X143360Y460980D01*
X143190Y461041D01*
X143000Y461061D01*
X147000D01*
X146810Y461041D01*
D02*
G37*
G36*
X138810D02*
X138640Y460980D01*
X138490Y460878D01*
X138360Y460736D01*
X138250Y460553D01*
X138160Y460330D01*
X138090Y460066D01*
X138040Y459761D01*
X138010Y459416D01*
X138000Y459030D01*
X136000D01*
X135990Y459416D01*
X135960Y459761D01*
X135910Y460066D01*
X135840Y460330D01*
X135750Y460553D01*
X135640Y460736D01*
X135510Y460878D01*
X135360Y460980D01*
X135190Y461041D01*
X135000Y461061D01*
X139000D01*
X138810Y461041D01*
D02*
G37*
G36*
X130810D02*
X130640Y460980D01*
X130490Y460878D01*
X130360Y460736D01*
X130250Y460553D01*
X130160Y460330D01*
X130090Y460066D01*
X130040Y459761D01*
X130010Y459416D01*
X130000Y459030D01*
X128000D01*
X127990Y459416D01*
X127960Y459761D01*
X127910Y460066D01*
X127840Y460330D01*
X127750Y460553D01*
X127640Y460736D01*
X127510Y460878D01*
X127360Y460980D01*
X127190Y461041D01*
X127000Y461061D01*
X131000D01*
X130810Y461041D01*
D02*
G37*
G36*
X194752Y461031D02*
X195469D01*
X195333Y460995D01*
X195210Y460891D01*
X195103Y460715D01*
X195009Y460471D01*
X194930Y460155D01*
X194865Y459771D01*
X194860Y459724D01*
X194876Y459642D01*
X194921Y459475D01*
X194974Y459336D01*
X195033Y459225D01*
X195100Y459142D01*
X194806D01*
X194757Y458195D01*
X194750Y457531D01*
X191250D01*
X191243Y458195D01*
X191178Y459142D01*
X190900D01*
X190966Y459225D01*
X191026Y459336D01*
X191078Y459475D01*
X191124Y459642D01*
X191139Y459716D01*
X191135Y459771D01*
X191070Y460155D01*
X190991Y460471D01*
X190897Y460715D01*
X190790Y460891D01*
X190667Y460995D01*
X190530Y461031D01*
X191245D01*
X191250Y461237D01*
X194750D01*
X194752Y461031D01*
D02*
G37*
G36*
X27469Y452517D02*
X27620Y452425D01*
X27870Y452344D01*
X28219Y452274D01*
X28670Y452215D01*
X29869Y452129D01*
X32420Y452080D01*
Y447080D01*
X31465Y447055D01*
X30612Y446980D01*
X29858Y446855D01*
X29204Y446680D01*
X28651Y446455D01*
X28198Y446180D01*
X27846Y445855D01*
X27593Y445480D01*
X27441Y445055D01*
X27389Y444580D01*
X27420Y452620D01*
X27469Y452517D01*
D02*
G37*
G36*
X251639Y443791D02*
X251854Y443622D01*
X252081Y443474D01*
X252318Y443345D01*
X252566Y443237D01*
X252825Y443149D01*
X253095Y443082D01*
X253376Y443034D01*
X253667Y443007D01*
X253970Y443000D01*
X251000Y440030D01*
X250993Y440333D01*
X250966Y440624D01*
X250918Y440905D01*
X250851Y441175D01*
X250763Y441434D01*
X250655Y441682D01*
X250526Y441919D01*
X250378Y442146D01*
X250209Y442361D01*
X250020Y442566D01*
X251434Y443980D01*
X251639Y443791D01*
D02*
G37*
G36*
X227896Y442525D02*
X228245Y442227D01*
X228405Y442111D01*
X228556Y442017D01*
X228697Y441946D01*
X228829Y441897D01*
X228952Y441870D01*
X229065Y441865D01*
X229168Y441882D01*
X227118Y439832D01*
X227135Y439935D01*
X227130Y440048D01*
X227103Y440171D01*
X227054Y440303D01*
X226983Y440444D01*
X226889Y440595D01*
X226773Y440755D01*
X226635Y440925D01*
X226293Y441293D01*
X227707Y442707D01*
X227896Y442525D01*
D02*
G37*
G36*
X63536Y448534D02*
X65348Y447003D01*
X66155Y446441D01*
X66895Y446017D01*
X67569Y445728D01*
X68177Y445576D01*
X68718Y445561D01*
X69193Y445682D01*
X69601Y445939D01*
X62061Y439398D01*
X62363Y439762D01*
X62519Y440202D01*
X62528Y440719D01*
X62391Y441311D01*
X62108Y441980D01*
X61678Y442725D01*
X61102Y443547D01*
X60379Y444445D01*
X58495Y446469D01*
X62530Y449505D01*
X63536Y448534D01*
D02*
G37*
G36*
X390503Y448376D02*
X390998Y448076D01*
X391587Y447812D01*
X392269Y447586D01*
X393045Y447396D01*
X393913Y447243D01*
X394875Y447127D01*
X397078Y447005D01*
X398320Y447000D01*
X390400Y439080D01*
X390395Y440322D01*
X390157Y443487D01*
X390004Y444355D01*
X389814Y445131D01*
X389588Y445813D01*
X389324Y446402D01*
X389024Y446897D01*
X388686Y447299D01*
X390101Y448714D01*
X390503Y448376D01*
D02*
G37*
G36*
X291103D02*
X291598Y448076D01*
X292187Y447812D01*
X292869Y447586D01*
X293645Y447396D01*
X294513Y447243D01*
X295475Y447127D01*
X297678Y447005D01*
X298920Y447000D01*
X291000Y439080D01*
X290995Y440322D01*
X290757Y443487D01*
X290604Y444355D01*
X290414Y445131D01*
X290188Y445813D01*
X289924Y446402D01*
X289624Y446897D01*
X289286Y447299D01*
X290700Y448714D01*
X291103Y448376D01*
D02*
G37*
G36*
X404995Y443726D02*
X407401Y441656D01*
X408124Y441150D01*
X408806Y440736D01*
X409449Y440414D01*
X410051Y440184D01*
X410614Y440046D01*
X411137Y440000D01*
Y438000D01*
X410614Y437954D01*
X410051Y437816D01*
X409449Y437586D01*
X408806Y437264D01*
X408124Y436850D01*
X407401Y436344D01*
X406639Y435746D01*
X404995Y434274D01*
X404113Y433400D01*
Y444600D01*
X404995Y443726D01*
D02*
G37*
G36*
X50019Y433468D02*
X50360D01*
X50293Y433385D01*
X50234Y433274D01*
X50181Y433135D01*
X50136Y432968D01*
X50097Y432772D01*
X50074Y432606D01*
X50080Y432539D01*
X50167Y432015D01*
X50290Y431559D01*
X50448Y431175D01*
X50640Y430859D01*
X50868Y430615D01*
X51130Y430439D01*
X51427Y430335D01*
X51760Y430299D01*
X44760D01*
X45093Y430335D01*
X45390Y430439D01*
X45652Y430615D01*
X45880Y430859D01*
X46073Y431175D01*
X46230Y431559D01*
X46353Y432015D01*
X46440Y432539D01*
X46441Y432545D01*
X46423Y432772D01*
X46384Y432968D01*
X46339Y433135D01*
X46286Y433274D01*
X46227Y433385D01*
X46160Y433468D01*
X46501D01*
X46510Y433800D01*
X50010D01*
X50019Y433468D01*
D02*
G37*
G36*
X246011Y427350D02*
X246044Y427079D01*
X246099Y426813D01*
X246176Y426555D01*
X246275Y426303D01*
X246396Y426058D01*
X246539Y425819D01*
X246704Y425587D01*
X246891Y425361D01*
X247100Y425142D01*
X242900D01*
X243109Y425361D01*
X243296Y425587D01*
X243461Y425819D01*
X243604Y426058D01*
X243725Y426303D01*
X243824Y426555D01*
X243901Y426813D01*
X243956Y427079D01*
X243989Y427350D01*
X244000Y427628D01*
X246000D01*
X246011Y427350D01*
D02*
G37*
G36*
X16760Y423691D02*
X16590Y423630D01*
X16440Y423528D01*
X16310Y423386D01*
X16200Y423203D01*
X16110Y422980D01*
X16040Y422716D01*
X15990Y422411D01*
X15960Y422066D01*
X15950Y421680D01*
X13950D01*
X13940Y422066D01*
X13910Y422411D01*
X13860Y422716D01*
X13790Y422980D01*
X13700Y423203D01*
X13590Y423386D01*
X13460Y423528D01*
X13310Y423630D01*
X13140Y423691D01*
X12950Y423711D01*
X16950D01*
X16760Y423691D01*
D02*
G37*
G36*
X36498Y423630D02*
X36121Y423480D01*
X35787Y423231D01*
X35499Y422881D01*
X35255Y422430D01*
X35055Y421880D01*
X34900Y421231D01*
X34878Y421085D01*
X34900Y420939D01*
X35055Y420289D01*
X35255Y419739D01*
X35499Y419290D01*
X35788Y418940D01*
X36121Y418689D01*
X36498Y418540D01*
X36920Y418489D01*
X27480D01*
X27902Y418540D01*
X28280Y418689D01*
X28612Y418940D01*
X28901Y419290D01*
X29145Y419739D01*
X29345Y420289D01*
X29500Y420939D01*
X29611Y421689D01*
X29678Y422539D01*
X29700Y423489D01*
X30931D01*
X30981Y423680D01*
X36920D01*
X36498Y423630D01*
D02*
G37*
G36*
X15960Y420104D02*
X15990Y419758D01*
X16040Y419454D01*
X16110Y419190D01*
X16200Y418967D01*
X16310Y418784D01*
X16440Y418642D01*
X16590Y418540D01*
X16760Y418479D01*
X16950Y418459D01*
X12950D01*
X13140Y418479D01*
X13310Y418540D01*
X13460Y418642D01*
X13590Y418784D01*
X13700Y418967D01*
X13790Y419190D01*
X13860Y419454D01*
X13910Y419758D01*
X13940Y420104D01*
X13950Y420490D01*
X15950D01*
X15960Y420104D01*
D02*
G37*
G36*
X390503Y422976D02*
X390998Y422676D01*
X391587Y422412D01*
X392269Y422186D01*
X393045Y421996D01*
X393913Y421843D01*
X394875Y421727D01*
X397078Y421605D01*
X398320Y421600D01*
X390400Y413680D01*
X390395Y414922D01*
X390157Y418087D01*
X390004Y418955D01*
X389814Y419731D01*
X389588Y420413D01*
X389324Y421002D01*
X389024Y421497D01*
X388686Y421899D01*
X390101Y423314D01*
X390503Y422976D01*
D02*
G37*
G36*
X454891Y412639D02*
X454704Y412413D01*
X454539Y412181D01*
X454396Y411942D01*
X454275Y411697D01*
X454176Y411445D01*
X454099Y411187D01*
X454044Y410922D01*
X454011Y410650D01*
X454000Y410372D01*
X452000D01*
X451989Y410650D01*
X451956Y410922D01*
X451901Y411187D01*
X451824Y411445D01*
X451725Y411697D01*
X451604Y411942D01*
X451461Y412181D01*
X451296Y412413D01*
X451109Y412639D01*
X450900Y412858D01*
X455100D01*
X454891Y412639D01*
D02*
G37*
G36*
X305595Y418326D02*
X308001Y416256D01*
X308724Y415750D01*
X309406Y415336D01*
X310049Y415014D01*
X310651Y414784D01*
X311214Y414646D01*
X311737Y414600D01*
Y412600D01*
X311214Y412554D01*
X310651Y412416D01*
X310049Y412186D01*
X309406Y411864D01*
X308724Y411450D01*
X308001Y410944D01*
X307239Y410346D01*
X305595Y408874D01*
X304713Y408000D01*
Y419200D01*
X305595Y418326D01*
D02*
G37*
G36*
X18510Y409561D02*
X18340Y409500D01*
X18190Y409398D01*
X18060Y409256D01*
X17950Y409073D01*
X17860Y408850D01*
X17790Y408586D01*
X17740Y408282D01*
X17710Y407936D01*
X17700Y407551D01*
X15700D01*
X15690Y407936D01*
X15660Y408282D01*
X15610Y408586D01*
X15540Y408850D01*
X15450Y409073D01*
X15340Y409256D01*
X15210Y409398D01*
X15060Y409500D01*
X14890Y409561D01*
X14700Y409581D01*
X18700D01*
X18510Y409561D01*
D02*
G37*
G36*
X267887Y412089D02*
X271402Y405908D01*
X270335Y406186D01*
X269336Y406391D01*
X268406Y406523D01*
X267544Y406582D01*
X266751Y406567D01*
X266026Y406480D01*
X265370Y406319D01*
X264782Y406085D01*
X264263Y405778D01*
X263812Y405398D01*
X262790Y407205D01*
X263028Y407496D01*
X263281Y407910D01*
X263549Y408446D01*
X263834Y409106D01*
X264449Y410794D01*
X264512Y411005D01*
X263876Y411450D01*
X263194Y411864D01*
X262551Y412186D01*
X261949Y412416D01*
X261386Y412554D01*
X260863Y412600D01*
Y414600D01*
X261386Y414646D01*
X261949Y414784D01*
X262551Y415014D01*
X263194Y415336D01*
X263876Y415750D01*
X264599Y416256D01*
X265361Y416854D01*
X267005Y418326D01*
X267887Y419200D01*
Y412089D01*
D02*
G37*
G36*
X36942Y414605D02*
X37095Y414180D01*
X37348Y413805D01*
X37701Y413480D01*
X38154Y413205D01*
X38707Y412980D01*
X39360Y412805D01*
X40113Y412680D01*
X40406Y412654D01*
X40591Y412669D01*
X41340Y412780D01*
X41990Y412935D01*
X42540Y413135D01*
X42990Y413379D01*
X43341Y413668D01*
X43590Y414001D01*
X43741Y414378D01*
X43790Y414799D01*
Y405360D01*
X52730D01*
X52355Y405311D01*
X52021Y405160D01*
X51725Y404911D01*
X51469Y404561D01*
X51252Y404110D01*
X51075Y403560D01*
X50937Y402910D01*
X50839Y402160D01*
X50780Y401311D01*
X50760Y400360D01*
X45760D01*
X45740Y401311D01*
X45583Y402910D01*
X45445Y403560D01*
X45268Y404110D01*
X45051Y404561D01*
X44795Y404911D01*
X44500Y405160D01*
X44165Y405311D01*
X43790Y405360D01*
X43741Y405782D01*
X43590Y406160D01*
X43341Y406492D01*
X42990Y406781D01*
X42540Y407025D01*
X41990Y407225D01*
X41340Y407380D01*
X40591Y407491D01*
X39741Y407558D01*
X38791Y407580D01*
Y408813D01*
X36920Y409551D01*
X36889Y415080D01*
X36942Y414605D01*
D02*
G37*
G36*
X76776Y404950D02*
X76690Y404736D01*
X76681Y404481D01*
X76748Y404184D01*
X76892Y403845D01*
X77113Y403465D01*
X77411Y403044D01*
X77786Y402581D01*
X78766Y401530D01*
X76469Y400234D01*
X75968Y400718D01*
X75060Y401485D01*
X74654Y401768D01*
X74279Y401984D01*
X73935Y402133D01*
X73623Y402215D01*
X73343Y402231D01*
X73095Y402179D01*
X72877Y402061D01*
X76939Y405123D01*
X76776Y404950D01*
D02*
G37*
G36*
X218858Y398900D02*
X218639Y399109D01*
X218413Y399296D01*
X218181Y399461D01*
X217942Y399604D01*
X217697Y399725D01*
X217445Y399824D01*
X217187Y399901D01*
X216922Y399956D01*
X216650Y399989D01*
X216372Y400000D01*
Y402000D01*
X216650Y402011D01*
X216922Y402044D01*
X217187Y402099D01*
X217445Y402176D01*
X217697Y402275D01*
X217942Y402396D01*
X218181Y402539D01*
X218413Y402704D01*
X218639Y402891D01*
X218858Y403100D01*
Y398900D01*
D02*
G37*
G36*
X198757Y401805D02*
X198822Y400858D01*
X199100D01*
X199034Y400775D01*
X198974Y400664D01*
X198922Y400525D01*
X198876Y400358D01*
X198861Y400284D01*
X198865Y400229D01*
X198930Y399845D01*
X199009Y399529D01*
X199102Y399285D01*
X199210Y399109D01*
X199333Y399005D01*
X199470Y398969D01*
X198755D01*
X198750Y398763D01*
X195250D01*
X195248Y398969D01*
X194531D01*
X194667Y399005D01*
X194790Y399109D01*
X194897Y399285D01*
X194991Y399529D01*
X195070Y399845D01*
X195135Y400229D01*
X195140Y400276D01*
X195124Y400358D01*
X195079Y400525D01*
X195026Y400664D01*
X194967Y400775D01*
X194900Y400858D01*
X195194D01*
X195243Y401805D01*
X195250Y402469D01*
X198750D01*
X198757Y401805D01*
D02*
G37*
G36*
X126757Y401424D02*
X126865Y400061D01*
X126904Y399858D01*
X127100D01*
X127034Y399775D01*
X126974Y399664D01*
X126959Y399625D01*
X127009Y399454D01*
X127103Y399242D01*
X127211Y399091D01*
X127333Y399000D01*
X127470Y398969D01*
X126810D01*
X126806Y398939D01*
X126764Y398408D01*
X126750Y397763D01*
X123250D01*
X123246Y398100D01*
X123178Y398969D01*
X122530D01*
X122667Y399000D01*
X122789Y399091D01*
X122897Y399242D01*
X122991Y399454D01*
X123041Y399625D01*
X123026Y399664D01*
X122966Y399775D01*
X122900Y399858D01*
X123096D01*
X123135Y400061D01*
X123185Y400454D01*
X123243Y401424D01*
X123250Y402000D01*
X126750D01*
X126757Y401424D01*
D02*
G37*
G36*
X35858Y395900D02*
X35639Y396109D01*
X35413Y396296D01*
X35181Y396461D01*
X34942Y396604D01*
X34697Y396725D01*
X34445Y396824D01*
X34187Y396901D01*
X33921Y396956D01*
X33650Y396989D01*
X33372Y397000D01*
Y399000D01*
X33650Y399011D01*
X33921Y399044D01*
X34187Y399099D01*
X34445Y399176D01*
X34697Y399275D01*
X34942Y399396D01*
X35181Y399539D01*
X35413Y399704D01*
X35639Y399891D01*
X35858Y400100D01*
Y395900D01*
D02*
G37*
G36*
X291443Y397185D02*
X292182Y396556D01*
X292509Y396327D01*
X292806Y396154D01*
X293074Y396038D01*
X293314Y395979D01*
X293524Y395975D01*
X293706Y396029D01*
X293859Y396139D01*
X291061Y393341D01*
X291171Y393494D01*
X291225Y393676D01*
X291222Y393886D01*
X291162Y394126D01*
X291046Y394394D01*
X290873Y394691D01*
X290644Y395018D01*
X290358Y395373D01*
X289616Y396170D01*
X291031Y397584D01*
X291443Y397185D01*
D02*
G37*
G36*
X83599Y396715D02*
X84596Y395859D01*
X85025Y395554D01*
X85407Y395330D01*
X85743Y395189D01*
X86033Y395129D01*
X86276Y395150D01*
X86472Y395254D01*
X86623Y395439D01*
X84061Y390877D01*
X84157Y391117D01*
X84191Y391383D01*
X84163Y391675D01*
X84073Y391995D01*
X83922Y392341D01*
X83708Y392713D01*
X83433Y393112D01*
X83095Y393538D01*
X82696Y393991D01*
X82234Y394469D01*
X83031Y397266D01*
X83599Y396715D01*
D02*
G37*
G36*
X463653Y386022D02*
X464121Y385734D01*
X464674Y385481D01*
X465312Y385263D01*
X466036Y385081D01*
X466844Y384934D01*
X467737Y384823D01*
X469777Y384705D01*
X470925Y384700D01*
X463500Y377275D01*
X463495Y378423D01*
X463377Y380463D01*
X463266Y381356D01*
X463119Y382164D01*
X462937Y382887D01*
X462719Y383526D01*
X462466Y384079D01*
X462178Y384547D01*
X461855Y384931D01*
X463269Y386345D01*
X463653Y386022D01*
D02*
G37*
G36*
X190810Y379041D02*
X190640Y378980D01*
X190490Y378878D01*
X190360Y378736D01*
X190250Y378553D01*
X190160Y378330D01*
X190090Y378066D01*
X190040Y377761D01*
X190010Y377416D01*
X190000Y377030D01*
X188000D01*
X187990Y377416D01*
X187960Y377761D01*
X187910Y378066D01*
X187840Y378330D01*
X187750Y378553D01*
X187640Y378736D01*
X187510Y378878D01*
X187360Y378980D01*
X187190Y379041D01*
X187000Y379061D01*
X191000D01*
X190810Y379041D01*
D02*
G37*
G36*
X182810D02*
X182640Y378980D01*
X182490Y378878D01*
X182360Y378736D01*
X182250Y378553D01*
X182160Y378330D01*
X182090Y378066D01*
X182040Y377761D01*
X182010Y377416D01*
X182000Y377030D01*
X180000D01*
X179990Y377416D01*
X179960Y377761D01*
X179910Y378066D01*
X179840Y378330D01*
X179750Y378553D01*
X179640Y378736D01*
X179510Y378878D01*
X179360Y378980D01*
X179190Y379041D01*
X179000Y379061D01*
X183000D01*
X182810Y379041D01*
D02*
G37*
G36*
X174810D02*
X174640Y378980D01*
X174490Y378878D01*
X174360Y378736D01*
X174250Y378553D01*
X174160Y378330D01*
X174090Y378066D01*
X174040Y377761D01*
X174010Y377416D01*
X174000Y377030D01*
X172000D01*
X171990Y377416D01*
X171960Y377761D01*
X171910Y378066D01*
X171840Y378330D01*
X171750Y378553D01*
X171640Y378736D01*
X171510Y378878D01*
X171360Y378980D01*
X171190Y379041D01*
X171000Y379061D01*
X175000D01*
X174810Y379041D01*
D02*
G37*
G36*
X198752Y379030D02*
X199470D01*
X199333Y378996D01*
X199210Y378890D01*
X199102Y378716D01*
X199009Y378470D01*
X198930Y378156D01*
X198865Y377771D01*
X198860Y377724D01*
X198876Y377642D01*
X198922Y377475D01*
X198974Y377336D01*
X199034Y377225D01*
X199100Y377142D01*
X198806D01*
X198757Y376195D01*
X198750Y375531D01*
X195250D01*
X195243Y376195D01*
X195178Y377142D01*
X194900D01*
X194967Y377225D01*
X195026Y377336D01*
X195079Y377475D01*
X195124Y377642D01*
X195139Y377716D01*
X195135Y377771D01*
X195070Y378156D01*
X194991Y378470D01*
X194897Y378716D01*
X194790Y378890D01*
X194667Y378996D01*
X194531Y379030D01*
X195245D01*
X195250Y379237D01*
X198750D01*
X198752Y379030D01*
D02*
G37*
G36*
X126752Y379030D02*
X127470D01*
X127333Y378996D01*
X127211Y378890D01*
X127103Y378715D01*
X127009Y378470D01*
X126930Y378156D01*
X126865Y377771D01*
X126860Y377724D01*
X126876Y377642D01*
X126922Y377475D01*
X126974Y377336D01*
X127034Y377225D01*
X127100Y377142D01*
X126806D01*
X126757Y376195D01*
X126750Y375531D01*
X123250D01*
X123243Y376195D01*
X123178Y377142D01*
X122900D01*
X122966Y377225D01*
X123026Y377336D01*
X123078Y377475D01*
X123124Y377642D01*
X123139Y377716D01*
X123135Y377771D01*
X123070Y378156D01*
X122991Y378470D01*
X122897Y378715D01*
X122789Y378890D01*
X122667Y378996D01*
X122530Y379030D01*
X123245D01*
X123250Y379237D01*
X126750D01*
X126752Y379030D01*
D02*
G37*
G36*
X92067Y370495D02*
X91770Y370391D01*
X91508Y370215D01*
X91280Y369971D01*
X91088Y369655D01*
X90930Y369271D01*
X90808Y368815D01*
X90720Y368290D01*
X90667Y367696D01*
X90653Y367151D01*
X90653Y367121D01*
X90737Y366058D01*
X90776Y365862D01*
X90822Y365695D01*
X90874Y365556D01*
X90934Y365445D01*
X91000Y365362D01*
X86800D01*
X86867Y365445D01*
X86926Y365556D01*
X86979Y365695D01*
X87024Y365862D01*
X87063Y366058D01*
X87094Y366281D01*
X87136Y366813D01*
X87145Y367223D01*
X87133Y367696D01*
X87080Y368290D01*
X86993Y368815D01*
X86870Y369271D01*
X86713Y369655D01*
X86520Y369971D01*
X86292Y370215D01*
X86030Y370391D01*
X85732Y370495D01*
X85400Y370531D01*
X92400D01*
X92067Y370495D01*
D02*
G37*
G36*
X91911Y363084D02*
X91948Y362964D01*
X92009Y362829D01*
X92095Y362678D01*
X92206Y362513D01*
X92341Y362332D01*
X92686Y361929D01*
X92817Y361802D01*
X94208Y360606D01*
X94866Y360121D01*
X95497Y359709D01*
X96103Y359372D01*
X96683Y359109D01*
X97238Y358922D01*
X97767Y358808D01*
X98270Y358769D01*
X89451Y358800D01*
X89691Y358824D01*
X89854Y358899D01*
X89939Y359022D01*
X89947Y359196D01*
X89878Y359418D01*
X89731Y359691D01*
X89548Y359954D01*
X89442Y360025D01*
X89291Y360111D01*
X89156Y360172D01*
X89036Y360209D01*
X88930Y360220D01*
X89151Y360442D01*
X88371Y361274D01*
X90791Y362081D01*
X91900Y363190D01*
X91911Y363084D01*
D02*
G37*
G36*
X220891Y359639D02*
X220704Y359413D01*
X220539Y359181D01*
X220396Y358942D01*
X220275Y358697D01*
X220176Y358445D01*
X220099Y358187D01*
X220044Y357921D01*
X220011Y357650D01*
X220000Y357372D01*
X218000D01*
X217989Y357650D01*
X217956Y357921D01*
X217901Y358187D01*
X217824Y358445D01*
X217725Y358697D01*
X217604Y358942D01*
X217461Y359181D01*
X217296Y359413D01*
X217109Y359639D01*
X216900Y359858D01*
X221100D01*
X220891Y359639D01*
D02*
G37*
G36*
X114410Y356140D02*
X114469Y355970D01*
X114570Y355820D01*
X114710Y355690D01*
X114889Y355580D01*
X115110Y355490D01*
X115370Y355420D01*
X115669Y355370D01*
X116010Y355340D01*
X116390Y355330D01*
Y353330D01*
X116010Y353320D01*
X115669Y353290D01*
X115370Y353240D01*
X115110Y353170D01*
X114889Y353080D01*
X114710Y352970D01*
X114570Y352840D01*
X114469Y352690D01*
X114410Y352520D01*
X114389Y352330D01*
Y356330D01*
X114410Y356140D01*
D02*
G37*
G36*
X27327Y360011D02*
X27953Y359484D01*
X28591Y359019D01*
X29241Y358616D01*
X29904Y358275D01*
X30579Y357996D01*
X31266Y357779D01*
X31965Y357624D01*
X32676Y357531D01*
X33399Y357500D01*
Y352500D01*
X32676Y352469D01*
X31965Y352376D01*
X31266Y352221D01*
X30579Y352004D01*
X29904Y351725D01*
X29241Y351384D01*
X28591Y350981D01*
X27953Y350516D01*
X27327Y349989D01*
X26713Y349400D01*
Y360600D01*
X27327Y360011D01*
D02*
G37*
G36*
X76965Y348799D02*
X77042Y348583D01*
X77170Y348392D01*
X77350Y348227D01*
X77582Y348088D01*
X77864Y347973D01*
X78198Y347884D01*
X78584Y347821D01*
X79021Y347783D01*
X79510Y347770D01*
Y345230D01*
X79021Y345217D01*
X78584Y345179D01*
X78198Y345116D01*
X77864Y345027D01*
X77582Y344912D01*
X77350Y344773D01*
X77170Y344608D01*
X77042Y344417D01*
X76965Y344201D01*
X76939Y343960D01*
Y349040D01*
X76965Y348799D01*
D02*
G37*
G36*
X390843Y346385D02*
X391582Y345756D01*
X391909Y345527D01*
X392206Y345354D01*
X392474Y345238D01*
X392714Y345178D01*
X392924Y345175D01*
X393106Y345229D01*
X393259Y345339D01*
X390461Y342541D01*
X390571Y342694D01*
X390625Y342876D01*
X390621Y343086D01*
X390562Y343326D01*
X390446Y343594D01*
X390273Y343891D01*
X390044Y344218D01*
X389758Y344573D01*
X389016Y345369D01*
X390430Y346784D01*
X390843Y346385D01*
D02*
G37*
G36*
X114375Y340512D02*
X114421Y340423D01*
X114499Y340345D01*
X114607Y340277D01*
X114747Y340220D01*
X114917Y340173D01*
X115119Y340137D01*
X115352Y340111D01*
X115910Y340090D01*
Y338090D01*
X115615Y338085D01*
X115119Y338043D01*
X114917Y338007D01*
X114747Y337960D01*
X114607Y337903D01*
X114499Y337835D01*
X114421Y337757D01*
X114375Y337668D01*
X114359Y337570D01*
Y340611D01*
X114375Y340512D01*
D02*
G37*
G36*
X400480Y329411D02*
X400310Y329351D01*
X400160Y329250D01*
X400030Y329110D01*
X399920Y328931D01*
X399830Y328711D01*
X399760Y328451D01*
X399710Y328150D01*
X399680Y327811D01*
X399670Y327430D01*
X397670D01*
X397660Y327811D01*
X397630Y328150D01*
X397580Y328451D01*
X397510Y328711D01*
X397420Y328931D01*
X397310Y329110D01*
X397180Y329250D01*
X397030Y329351D01*
X396860Y329411D01*
X396670Y329431D01*
X400670D01*
X400480Y329411D01*
D02*
G37*
G36*
X323891Y329639D02*
X323704Y329413D01*
X323539Y329181D01*
X323396Y328942D01*
X323275Y328697D01*
X323176Y328445D01*
X323099Y328187D01*
X323044Y327921D01*
X323011Y327650D01*
X323000Y327372D01*
X321000D01*
X320989Y327650D01*
X320956Y327921D01*
X320901Y328187D01*
X320824Y328445D01*
X320725Y328697D01*
X320604Y328942D01*
X320461Y329181D01*
X320296Y329413D01*
X320109Y329639D01*
X319900Y329858D01*
X324100D01*
X323891Y329639D01*
D02*
G37*
G36*
X323010Y323084D02*
X323040Y322738D01*
X323090Y322434D01*
X323160Y322170D01*
X323250Y321947D01*
X323360Y321764D01*
X323490Y321622D01*
X323640Y321520D01*
X323810Y321459D01*
X324000Y321439D01*
X320000D01*
X320190Y321459D01*
X320360Y321520D01*
X320510Y321622D01*
X320640Y321764D01*
X320750Y321947D01*
X320840Y322170D01*
X320910Y322434D01*
X320960Y322738D01*
X320990Y323084D01*
X321000Y323470D01*
X323000D01*
X323010Y323084D01*
D02*
G37*
G36*
X465644Y321150D02*
X464828Y321958D01*
X463302Y323317D01*
X462592Y323870D01*
X461917Y324338D01*
X461277Y324720D01*
X460672Y325018D01*
X460102Y325230D01*
X459567Y325358D01*
X459067Y325400D01*
Y327400D01*
X459567Y327443D01*
X460102Y327570D01*
X460672Y327783D01*
X461277Y328080D01*
X461917Y328462D01*
X462592Y328930D01*
X463302Y329482D01*
X464828Y330843D01*
X465644Y331650D01*
Y321150D01*
D02*
G37*
G36*
X89451Y319809D02*
X89410Y320102D01*
X89289Y320364D01*
X89087Y320595D01*
X88804Y320795D01*
X88440Y320965D01*
X87996Y321104D01*
X87471Y321211D01*
X86865Y321288D01*
X86178Y321335D01*
X85410Y321350D01*
Y326350D01*
X86178Y326365D01*
X87471Y326489D01*
X87996Y326596D01*
X88440Y326735D01*
X88804Y326905D01*
X89087Y327105D01*
X89289Y327336D01*
X89410Y327598D01*
X89451Y327891D01*
Y319809D01*
D02*
G37*
G36*
X114389Y319380D02*
X114177Y319355D01*
X113987Y319279D01*
X113819Y319152D01*
X113673Y318974D01*
X113550Y318745D01*
X113449Y318466D01*
X113371Y318136D01*
X113315Y317755D01*
X113281Y317323D01*
X113270Y316840D01*
X110730D01*
X110717Y317327D01*
X110679Y317763D01*
X110616Y318148D01*
X110527Y318482D01*
X110413Y318764D01*
X110273Y318996D01*
X110108Y319176D01*
X109917Y319306D01*
X109701Y319384D01*
X109460Y319411D01*
X114389Y319380D01*
D02*
G37*
G36*
X302530Y312530D02*
X302506Y312796D01*
X302432Y312980D01*
X302308Y313086D01*
X302134Y313111D01*
X301912Y313056D01*
X301639Y312921D01*
X301318Y312706D01*
X300947Y312411D01*
X300778Y312261D01*
X300306Y311707D01*
X300195Y311542D01*
X300109Y311391D01*
X300048Y311256D01*
X300011Y311136D01*
X300000Y311030D01*
X297030Y314000D01*
X297136Y314011D01*
X297256Y314048D01*
X297391Y314109D01*
X297542Y314195D01*
X297707Y314306D01*
X297887Y314442D01*
X298293Y314788D01*
X298758Y315233D01*
X298878Y315114D01*
X298818Y315293D01*
X299524Y316023D01*
X300711Y317408D01*
X301194Y318063D01*
X301602Y318693D01*
X301936Y319298D01*
X302196Y319879D01*
X302382Y320434D01*
X302493Y320964D01*
X302530Y321469D01*
Y312530D01*
D02*
G37*
G36*
X113283Y315677D02*
X113321Y315245D01*
X113384Y314864D01*
X113473Y314534D01*
X113588Y314254D01*
X113727Y314026D01*
X113892Y313848D01*
X114083Y313721D01*
X114299Y313645D01*
X114540Y313619D01*
X109460D01*
X109701Y313645D01*
X109917Y313721D01*
X110108Y313848D01*
X110273Y314026D01*
X110413Y314254D01*
X110527Y314534D01*
X110616Y314864D01*
X110679Y315245D01*
X110717Y315677D01*
X110730Y316159D01*
X113270D01*
X113283Y315677D01*
D02*
G37*
G36*
X175490Y312640D02*
X175471Y312830D01*
X175410Y313000D01*
X175310Y313150D01*
X175170Y313280D01*
X174991Y313390D01*
X174771Y313480D01*
X174510Y313550D01*
X174210Y313600D01*
X173871Y313630D01*
X173491Y313640D01*
Y315640D01*
X173871Y315650D01*
X174210Y315680D01*
X174510Y315730D01*
X174771Y315800D01*
X174991Y315890D01*
X175170Y316000D01*
X175310Y316130D01*
X175410Y316280D01*
X175471Y316450D01*
X175490Y316640D01*
Y312640D01*
D02*
G37*
G36*
X200434Y317808D02*
X200540Y317510D01*
X200717Y317248D01*
X200964Y317020D01*
X201282Y316828D01*
X201670Y316670D01*
X202029Y316574D01*
X202134Y316614D01*
X202245Y316674D01*
X202328Y316740D01*
Y316515D01*
X202659Y316460D01*
X203259Y316408D01*
X203930Y316390D01*
Y312890D01*
X203259Y312873D01*
X202659Y312820D01*
X202328Y312765D01*
Y312540D01*
X202245Y312607D01*
X202134Y312666D01*
X202029Y312706D01*
X201670Y312610D01*
X201282Y312453D01*
X200964Y312260D01*
X200717Y312033D01*
X200540Y311770D01*
X200434Y311472D01*
X200399Y311140D01*
Y312886D01*
X200233Y312890D01*
Y316390D01*
X200399Y316392D01*
Y318140D01*
X200434Y317808D01*
D02*
G37*
G36*
X327469Y312530D02*
X327380Y312511D01*
X327300Y312451D01*
X327230Y312351D01*
X327169Y312211D01*
X327117Y312031D01*
X327075Y311810D01*
X327042Y311551D01*
X327005Y310910D01*
X327000Y310530D01*
X325000D01*
X324990Y310915D01*
X324960Y311259D01*
X324910Y311562D01*
X324840Y311826D01*
X324750Y312049D01*
X324640Y312232D01*
X324510Y312374D01*
X324360Y312477D01*
X324190Y312539D01*
X324000Y312561D01*
X327469Y312530D01*
D02*
G37*
G36*
X104263Y308686D02*
X104050Y308610D01*
X103862Y308483D01*
X103700Y308306D01*
X103562Y308078D01*
X103450Y307800D01*
X103363Y307471D01*
X103300Y307092D01*
X103263Y306661D01*
X103250Y306180D01*
X100750D01*
X100737Y306661D01*
X100700Y307092D01*
X100638Y307471D01*
X100550Y307800D01*
X100437Y308078D01*
X100300Y308306D01*
X100138Y308483D01*
X99950Y308610D01*
X99738Y308686D01*
X99500Y308711D01*
X104500D01*
X104263Y308686D01*
D02*
G37*
G36*
X114379Y308685D02*
X114163Y308608D01*
X113972Y308480D01*
X113807Y308300D01*
X113667Y308068D01*
X113553Y307786D01*
X113464Y307451D01*
X113401Y307066D01*
X113363Y306629D01*
X113350Y306140D01*
X110810D01*
X110797Y306629D01*
X110759Y307066D01*
X110696Y307451D01*
X110607Y307786D01*
X110492Y308068D01*
X110353Y308300D01*
X110188Y308480D01*
X109997Y308608D01*
X109781Y308685D01*
X109540Y308711D01*
X114620D01*
X114379Y308685D01*
D02*
G37*
G36*
X107411Y302881D02*
X107416Y302649D01*
X107447Y302418D01*
X107504Y302188D01*
X107585Y301960D01*
X107692Y301733D01*
X107825Y301507D01*
X107983Y301283D01*
X108166Y301059D01*
X108375Y300837D01*
X106354Y299322D01*
X106294Y299380D01*
X106404Y297153D01*
X103636D01*
X103661Y297217D01*
X103684Y297326D01*
X103704Y297481D01*
X103736Y297929D01*
X103758Y299142D01*
X103731Y299403D01*
X103682Y299672D01*
X103614Y299922D01*
X103527Y300153D01*
X103420Y300366D01*
X103293Y300561D01*
X103147Y300737D01*
X102982Y300894D01*
X102797Y301033D01*
X105362Y301521D01*
X107431Y303114D01*
X107411Y302881D01*
D02*
G37*
G36*
X175490Y298670D02*
X175471Y298860D01*
X175410Y299030D01*
X175310Y299180D01*
X175170Y299310D01*
X174991Y299420D01*
X174771Y299510D01*
X174510Y299580D01*
X174210Y299630D01*
X173871Y299660D01*
X173491Y299670D01*
Y301670D01*
X173871Y301680D01*
X174210Y301710D01*
X174510Y301760D01*
X174771Y301830D01*
X174991Y301920D01*
X175170Y302030D01*
X175310Y302160D01*
X175410Y302310D01*
X175471Y302480D01*
X175490Y302670D01*
Y298670D01*
D02*
G37*
G36*
X200434Y303838D02*
X200540Y303540D01*
X200717Y303277D01*
X200964Y303050D01*
X201282Y302857D01*
X201670Y302700D01*
X202029Y302604D01*
X202134Y302644D01*
X202245Y302703D01*
X202328Y302770D01*
Y302545D01*
X202659Y302490D01*
X203259Y302437D01*
X203930Y302420D01*
Y298920D01*
X203259Y298902D01*
X202659Y298850D01*
X202328Y298795D01*
Y298570D01*
X202245Y298636D01*
X202134Y298696D01*
X202029Y298736D01*
X201670Y298640D01*
X201282Y298482D01*
X200964Y298290D01*
X200717Y298062D01*
X200540Y297800D01*
X200434Y297502D01*
X200399Y297170D01*
Y298916D01*
X200233Y298920D01*
Y302420D01*
X200399Y302422D01*
Y304170D01*
X200434Y303838D01*
D02*
G37*
G36*
X109118Y300087D02*
X110665Y298311D01*
X110756Y298135D01*
X110775Y298018D01*
X110720Y297962D01*
X110593Y297964D01*
X108552Y295387D01*
X108673Y295596D01*
X108730Y295835D01*
X108721Y296104D01*
X108648Y296403D01*
X108510Y296732D01*
X108308Y297091D01*
X108040Y297480D01*
X107708Y297899D01*
X107311Y298348D01*
X106849Y298827D01*
X108591Y300621D01*
X109118Y300087D01*
D02*
G37*
G36*
X61655Y301962D02*
X61731Y301758D01*
X61858Y301578D01*
X62036Y301422D01*
X62264Y301290D01*
X62544Y301182D01*
X62874Y301098D01*
X63255Y301038D01*
X63687Y301002D01*
X64170Y300990D01*
Y298450D01*
X63687Y298438D01*
X63255Y298402D01*
X62874Y298342D01*
X62544Y298258D01*
X62264Y298150D01*
X62036Y298018D01*
X61858Y297862D01*
X61731Y297682D01*
X61655Y297478D01*
X61630Y297250D01*
Y302190D01*
X61655Y301962D01*
D02*
G37*
G36*
X156024Y299303D02*
X156116Y298072D01*
X156158Y297833D01*
X156208Y297622D01*
X156266Y297438D01*
X156331Y297282D01*
X156404Y297153D01*
X153636D01*
X153709Y297282D01*
X153774Y297438D01*
X153832Y297622D01*
X153882Y297833D01*
X153924Y298072D01*
X153985Y298633D01*
X154016Y299303D01*
X154020Y299679D01*
X156020D01*
X156024Y299303D01*
D02*
G37*
G36*
X151024D02*
X151116Y298072D01*
X151158Y297833D01*
X151208Y297622D01*
X151266Y297438D01*
X151331Y297282D01*
X151404Y297153D01*
X148636D01*
X148709Y297282D01*
X148774Y297438D01*
X148832Y297622D01*
X148882Y297833D01*
X148924Y298072D01*
X148985Y298633D01*
X149016Y299303D01*
X149020Y299679D01*
X151020D01*
X151024Y299303D01*
D02*
G37*
G36*
X146024D02*
X146116Y298072D01*
X146158Y297833D01*
X146208Y297622D01*
X146266Y297438D01*
X146331Y297282D01*
X146404Y297153D01*
X143636D01*
X143709Y297282D01*
X143774Y297438D01*
X143832Y297622D01*
X143882Y297833D01*
X143924Y298072D01*
X143985Y298633D01*
X144016Y299303D01*
X144020Y299679D01*
X146020D01*
X146024Y299303D01*
D02*
G37*
G36*
X141024D02*
X141116Y298072D01*
X141158Y297833D01*
X141208Y297622D01*
X141266Y297438D01*
X141331Y297282D01*
X141404Y297153D01*
X138636D01*
X138709Y297282D01*
X138774Y297438D01*
X138832Y297622D01*
X138882Y297833D01*
X138924Y298072D01*
X138985Y298633D01*
X139016Y299303D01*
X139020Y299679D01*
X141020D01*
X141024Y299303D01*
D02*
G37*
G36*
X136024D02*
X136116Y298072D01*
X136158Y297833D01*
X136208Y297622D01*
X136266Y297438D01*
X136331Y297282D01*
X136404Y297153D01*
X133636D01*
X133709Y297282D01*
X133774Y297438D01*
X133832Y297622D01*
X133882Y297833D01*
X133924Y298072D01*
X133985Y298633D01*
X134016Y299303D01*
X134020Y299679D01*
X136020D01*
X136024Y299303D01*
D02*
G37*
G36*
X131024D02*
X131116Y298072D01*
X131158Y297833D01*
X131208Y297622D01*
X131266Y297438D01*
X131331Y297282D01*
X131404Y297153D01*
X128636D01*
X128709Y297282D01*
X128774Y297438D01*
X128832Y297622D01*
X128882Y297833D01*
X128924Y298072D01*
X128985Y298633D01*
X129016Y299303D01*
X129020Y299679D01*
X131020D01*
X131024Y299303D01*
D02*
G37*
G36*
X126024D02*
X126116Y298072D01*
X126158Y297833D01*
X126208Y297622D01*
X126266Y297438D01*
X126331Y297282D01*
X126404Y297153D01*
X123636D01*
X123709Y297282D01*
X123774Y297438D01*
X123832Y297622D01*
X123882Y297833D01*
X123924Y298072D01*
X123985Y298633D01*
X124016Y299303D01*
X124020Y299679D01*
X126020D01*
X126024Y299303D01*
D02*
G37*
G36*
X121024D02*
X121116Y298072D01*
X121158Y297833D01*
X121208Y297622D01*
X121266Y297438D01*
X121331Y297282D01*
X121404Y297153D01*
X118636D01*
X118709Y297282D01*
X118774Y297438D01*
X118832Y297622D01*
X118882Y297833D01*
X118924Y298072D01*
X118985Y298633D01*
X119016Y299303D01*
X119020Y299679D01*
X121020D01*
X121024Y299303D01*
D02*
G37*
G36*
X116404Y297153D02*
X113636D01*
X113658Y297211D01*
X113677Y297316D01*
X113694Y297469D01*
X113732Y298211D01*
X113750Y299864D01*
X116290D01*
X116404Y297153D01*
D02*
G37*
G36*
X465644Y295750D02*
X464828Y296558D01*
X463302Y297917D01*
X462592Y298470D01*
X461917Y298937D01*
X461277Y299320D01*
X460672Y299618D01*
X460102Y299830D01*
X459567Y299958D01*
X459067Y300000D01*
Y302000D01*
X459567Y302043D01*
X460102Y302170D01*
X460672Y302383D01*
X461277Y302680D01*
X461917Y303062D01*
X462592Y303530D01*
X463302Y304083D01*
X464828Y305443D01*
X465644Y306250D01*
Y295750D01*
D02*
G37*
G36*
X162846Y298431D02*
X162470Y298042D01*
X161878Y297339D01*
X161663Y297027D01*
X161500Y296740D01*
X161391Y296479D01*
X161335Y296243D01*
X161333Y296033D01*
X161384Y295849D01*
X161488Y295690D01*
X159447Y297964D01*
X159485Y297983D01*
X159550Y298030D01*
X159640Y298105D01*
X160257Y298681D01*
X160990Y299404D01*
X162846Y298431D01*
D02*
G37*
G36*
X61655Y291802D02*
X61731Y291598D01*
X61858Y291418D01*
X62036Y291262D01*
X62264Y291130D01*
X62544Y291022D01*
X62874Y290938D01*
X63255Y290878D01*
X63687Y290842D01*
X64170Y290830D01*
Y288290D01*
X63687Y288278D01*
X63255Y288242D01*
X62874Y288182D01*
X62544Y288098D01*
X62264Y287990D01*
X62036Y287858D01*
X61858Y287702D01*
X61731Y287522D01*
X61655Y287318D01*
X61630Y287090D01*
Y292029D01*
X61655Y291802D01*
D02*
G37*
G36*
X220527Y288349D02*
X220580Y287749D01*
X220635Y287418D01*
X220860D01*
X220793Y287335D01*
X220734Y287224D01*
X220694Y287119D01*
X220790Y286760D01*
X220947Y286372D01*
X221140Y286054D01*
X221367Y285807D01*
X221630Y285630D01*
X221928Y285524D01*
X222260Y285489D01*
X220514D01*
X220510Y285323D01*
X217010D01*
X217008Y285489D01*
X215260D01*
X215592Y285524D01*
X215890Y285630D01*
X216152Y285807D01*
X216380Y286054D01*
X216572Y286372D01*
X216730Y286760D01*
X216826Y287119D01*
X216786Y287224D01*
X216726Y287335D01*
X216660Y287418D01*
X216885D01*
X216940Y287749D01*
X216992Y288349D01*
X217010Y289020D01*
X220510D01*
X220527Y288349D01*
D02*
G37*
G36*
X256360Y290326D02*
X256448Y290270D01*
X256551Y290220D01*
X256670Y290178D01*
X256804Y290142D01*
X256953Y290112D01*
X257117Y290089D01*
X257491Y290063D01*
X257701Y290060D01*
X257731Y284731D01*
X257715Y285010D01*
X257671Y285289D01*
X257598Y285570D01*
X257496Y285852D01*
X257366Y286134D01*
X257207Y286417D01*
X257020Y286702D01*
X256804Y286987D01*
X256559Y287273D01*
X256286Y287560D01*
Y290388D01*
X256360Y290326D01*
D02*
G37*
G36*
X263629Y286400D02*
X263690Y286230D01*
X263792Y286080D01*
X263934Y285950D01*
X264117Y285840D01*
X264340Y285750D01*
X264604Y285680D01*
X264909Y285630D01*
X265254Y285600D01*
X265639Y285590D01*
Y283590D01*
X265254Y283580D01*
X264909Y283550D01*
X264604Y283500D01*
X264340Y283430D01*
X264117Y283340D01*
X263934Y283230D01*
X263792Y283100D01*
X263690Y282950D01*
X263629Y282780D01*
X263609Y282590D01*
Y286590D01*
X263629Y286400D01*
D02*
G37*
G36*
X193431Y276780D02*
X193405Y277021D01*
X193329Y277237D01*
X193202Y277428D01*
X193024Y277593D01*
X192796Y277733D01*
X192516Y277847D01*
X192186Y277936D01*
X192155Y277941D01*
X191984Y277890D01*
X191772Y277801D01*
X191584Y277691D01*
X191421Y277561D01*
X191283Y277411D01*
X191169Y277242D01*
X191080Y277052D01*
X189419Y280906D01*
X189581Y280846D01*
X189760Y280792D01*
X189956Y280745D01*
X190398Y280669D01*
X190644Y280641D01*
X191333Y280602D01*
X191373Y280603D01*
X191805Y280641D01*
X192186Y280704D01*
X192516Y280793D01*
X192796Y280907D01*
X193024Y281047D01*
X193202Y281212D01*
X193329Y281403D01*
X193405Y281619D01*
X193431Y281860D01*
Y276780D01*
D02*
G37*
G36*
X187763Y275175D02*
X184290Y274810D01*
X183804Y276555D01*
Y274810D01*
X181093Y274696D01*
Y277464D01*
X181151Y277442D01*
X181257Y277423D01*
X181409Y277406D01*
X182151Y277368D01*
X183648Y277352D01*
X183902Y277358D01*
X184188Y277384D01*
X184441Y277426D01*
X184660Y277486D01*
X184847Y277562D01*
X185000Y277656D01*
X185120Y277766D01*
X185207Y277894D01*
X185260Y278038D01*
X185281Y278199D01*
X187763Y275175D01*
D02*
G37*
G36*
X399680Y277724D02*
X399710Y277379D01*
X399760Y277074D01*
X399830Y276810D01*
X399920Y276587D01*
X400030Y276404D01*
X400160Y276262D01*
X400310Y276160D01*
X400480Y276099D01*
X400670Y276079D01*
X396670D01*
X396860Y276099D01*
X397030Y276160D01*
X397180Y276262D01*
X397310Y276404D01*
X397420Y276587D01*
X397510Y276810D01*
X397580Y277074D01*
X397630Y277379D01*
X397660Y277724D01*
X397670Y278109D01*
X399670D01*
X399680Y277724D01*
D02*
G37*
G36*
X83947Y274696D02*
X83889Y274718D01*
X83784Y274737D01*
X83631Y274754D01*
X82889Y274792D01*
X81236Y274810D01*
Y277350D01*
X83947Y277464D01*
Y274696D01*
D02*
G37*
G36*
X419361Y277891D02*
X419587Y277704D01*
X419819Y277539D01*
X420058Y277396D01*
X420303Y277275D01*
X420555Y277176D01*
X420813Y277099D01*
X421078Y277044D01*
X421350Y277011D01*
X421628Y277000D01*
Y275000D01*
X421350Y274989D01*
X421078Y274956D01*
X420813Y274901D01*
X420555Y274824D01*
X420303Y274725D01*
X420058Y274604D01*
X419819Y274461D01*
X419587Y274296D01*
X419361Y274109D01*
X419142Y273900D01*
Y278100D01*
X419361Y277891D01*
D02*
G37*
G36*
X378481Y270271D02*
X378587Y269890D01*
X378481Y269888D01*
Y268140D01*
X378446Y268472D01*
X378340Y268770D01*
X378163Y269032D01*
X377916Y269260D01*
X377598Y269452D01*
X377210Y269610D01*
X376933Y269684D01*
X376853Y269653D01*
X376720Y269580D01*
X376616Y269498D01*
X376541Y269405D01*
X376459Y269781D01*
X376221Y269820D01*
X375621Y269872D01*
X374950Y269890D01*
Y273390D01*
X375621Y273407D01*
X375666Y273411D01*
X375645Y273509D01*
X375697Y273486D01*
X375782Y273466D01*
X375898Y273448D01*
X375993Y273440D01*
X376221Y273460D01*
X376751Y273547D01*
X377210Y273670D01*
X377598Y273827D01*
X377916Y274020D01*
X378163Y274247D01*
X378340Y274510D01*
X378446Y274807D01*
X378481Y275140D01*
Y270271D01*
D02*
G37*
G36*
X61630Y276931D02*
X61639Y276905D01*
X61648Y276829D01*
X61655Y276702D01*
X61679Y274480D01*
X61680D01*
X61693Y273991D01*
X61731Y273554D01*
X61794Y273169D01*
X61883Y272834D01*
X61997Y272552D01*
X62137Y272320D01*
X62302Y272140D01*
X62493Y272012D01*
X62709Y271935D01*
X62950Y271909D01*
X57870D01*
X58111Y271935D01*
X58327Y272012D01*
X58518Y272140D01*
X58683Y272320D01*
X58822Y272552D01*
X58937Y272834D01*
X59026Y273169D01*
X59089Y273554D01*
X59127Y273991D01*
X59139Y274435D01*
X59127Y274877D01*
X59089Y275313D01*
X59026Y275697D01*
X58937Y276031D01*
X58822Y276313D01*
X58683Y276545D01*
X58518Y276725D01*
X58327Y276855D01*
X58111Y276933D01*
X57870Y276961D01*
X61630Y276931D01*
D02*
G37*
G36*
X465372Y270643D02*
X464617Y271471D01*
X463189Y272865D01*
X462514Y273431D01*
X461866Y273911D01*
X461245Y274303D01*
X460650Y274608D01*
X460081Y274826D01*
X459539Y274956D01*
X459024Y275000D01*
X459132Y277000D01*
X459613Y277041D01*
X460139Y277165D01*
X460709Y277372D01*
X461322Y277661D01*
X461980Y278032D01*
X462682Y278486D01*
X464219Y279642D01*
X465053Y280344D01*
X465932Y281128D01*
X465372Y270643D01*
D02*
G37*
G36*
X193431Y266820D02*
X193405Y267057D01*
X193330Y267270D01*
X193206Y267458D01*
X193030Y267620D01*
X192806Y267757D01*
X192530Y267870D01*
X192206Y267957D01*
X191989Y267994D01*
X191977Y267992D01*
X191718Y267931D01*
X191474Y267852D01*
X191245Y267756D01*
X191031Y267643D01*
X190832Y267512D01*
X190647Y267364D01*
X190478Y267198D01*
X190366Y271396D01*
X190543Y271239D01*
X190735Y271099D01*
X190941Y270975D01*
X191160Y270868D01*
X191394Y270777D01*
X191641Y270702D01*
X191902Y270644D01*
X191941Y270639D01*
X192206Y270683D01*
X192530Y270770D01*
X192806Y270882D01*
X193030Y271020D01*
X193206Y271182D01*
X193330Y271370D01*
X193405Y271583D01*
X193431Y271820D01*
Y266820D01*
D02*
G37*
G36*
X83947Y269696D02*
X83889Y269718D01*
X83784Y269737D01*
X83631Y269754D01*
X82889Y269792D01*
X81236Y269810D01*
Y272350D01*
X83947Y272464D01*
Y269696D01*
D02*
G37*
G36*
X407188Y273054D02*
X406934Y272771D01*
X406736Y272488D01*
X406595Y272206D01*
X406510Y271923D01*
X406481Y271640D01*
X406510Y271357D01*
X406595Y271074D01*
X406736Y270791D01*
X406934Y270509D01*
X407188Y270226D01*
X405360Y269226D01*
X405071Y269494D01*
X404771Y269735D01*
X404459Y269947D01*
X404135Y270131D01*
X403799Y270286D01*
X403452Y270414D01*
X403093Y270513D01*
X402722Y270583D01*
X402340Y270626D01*
X401946Y270640D01*
Y272640D01*
X402340Y272654D01*
X402722Y272696D01*
X403093Y272767D01*
X403452Y272866D01*
X403799Y272994D01*
X404135Y273149D01*
X404459Y273333D01*
X404771Y273545D01*
X405071Y273785D01*
X405360Y274054D01*
X407188Y273054D01*
D02*
G37*
G36*
X181157Y272439D02*
X181266Y272416D01*
X181421Y272396D01*
X181869Y272364D01*
X183794Y272330D01*
Y270948D01*
X184111Y272330D01*
X187593Y272160D01*
X185300Y268895D01*
X185263Y269073D01*
X185195Y269232D01*
X185096Y269372D01*
X184966Y269494D01*
X184806Y269596D01*
X184614Y269681D01*
X184391Y269746D01*
X184138Y269793D01*
X183854Y269821D01*
X183699Y269825D01*
X181093Y269696D01*
Y272464D01*
X181157Y272439D01*
D02*
G37*
G36*
X187751Y266287D02*
X187633Y266294D01*
X187503Y266275D01*
X187360Y266231D01*
X187204Y266160D01*
X187036Y266064D01*
X186855Y265942D01*
X186661Y265794D01*
X186236Y265421D01*
X186004Y265196D01*
X184236Y266964D01*
X184461Y267196D01*
X184982Y267815D01*
X185104Y267996D01*
X185200Y268164D01*
X185271Y268320D01*
X185315Y268463D01*
X185334Y268593D01*
X185327Y268711D01*
X187751Y266287D01*
D02*
G37*
G36*
X64125Y270269D02*
X64202Y270053D01*
X64330Y269862D01*
X64510Y269697D01*
X64742Y269557D01*
X65024Y269443D01*
X65359Y269354D01*
X65399Y269348D01*
X65512Y269373D01*
X65757Y269447D01*
X65987Y269539D01*
X66202Y269647D01*
X66402Y269771D01*
X66587Y269912D01*
X66758Y270070D01*
Y265870D01*
X66587Y266028D01*
X66402Y266169D01*
X66202Y266293D01*
X65987Y266401D01*
X65757Y266493D01*
X65512Y266567D01*
X65399Y266592D01*
X65359Y266586D01*
X65024Y266497D01*
X64742Y266383D01*
X64510Y266243D01*
X64330Y266078D01*
X64202Y265887D01*
X64125Y265671D01*
X64099Y265430D01*
Y270510D01*
X64125Y270269D01*
D02*
G37*
G36*
X71919Y268080D02*
X71984Y267927D01*
X72080Y267792D01*
X72207Y267674D01*
X72366Y267575D01*
X72557Y267494D01*
X72779Y267431D01*
X73033Y267386D01*
X73318Y267359D01*
X73635Y267350D01*
X73030Y264810D01*
X69548Y265041D01*
X71887Y268251D01*
X71919Y268080D01*
D02*
G37*
G36*
X181157Y267439D02*
X181266Y267416D01*
X181421Y267396D01*
X181869Y267363D01*
X183794Y267330D01*
Y264830D01*
X181093Y264696D01*
Y267464D01*
X181157Y267439D01*
D02*
G37*
G36*
X83947Y264696D02*
X83889Y264718D01*
X83784Y264737D01*
X83631Y264754D01*
X82889Y264792D01*
X81236Y264810D01*
Y267350D01*
X83947Y267464D01*
Y264696D01*
D02*
G37*
G36*
X214321Y263300D02*
X214301Y263490D01*
X214240Y263660D01*
X214138Y263810D01*
X213996Y263940D01*
X213813Y264050D01*
X213590Y264140D01*
X213326Y264210D01*
X213021Y264260D01*
X212676Y264290D01*
X212290Y264300D01*
Y266300D01*
X212676Y266310D01*
X213021Y266340D01*
X213326Y266390D01*
X213590Y266460D01*
X213813Y266550D01*
X213996Y266660D01*
X214138Y266790D01*
X214240Y266940D01*
X214301Y267110D01*
X214321Y267300D01*
Y263300D01*
D02*
G37*
G36*
X438459Y265560D02*
X438520Y265390D01*
X438622Y265240D01*
X438764Y265110D01*
X438947Y265000D01*
X439170Y264910D01*
X439434Y264840D01*
X439739Y264790D01*
X440084Y264760D01*
X440470Y264750D01*
Y262750D01*
X440084Y262740D01*
X439739Y262710D01*
X439434Y262660D01*
X439170Y262590D01*
X438947Y262500D01*
X438764Y262390D01*
X438622Y262260D01*
X438520Y262110D01*
X438459Y261940D01*
X438439Y261750D01*
Y265750D01*
X438459Y265560D01*
D02*
G37*
G36*
X427611Y265641D02*
X427837Y265454D01*
X428069Y265289D01*
X428308Y265146D01*
X428553Y265025D01*
X428805Y264926D01*
X428842Y264915D01*
X429053Y265000D01*
X429236Y265110D01*
X429378Y265240D01*
X429480Y265390D01*
X429541Y265560D01*
X429561Y265750D01*
Y264766D01*
X429600Y264761D01*
X429878Y264750D01*
Y262750D01*
X429600Y262739D01*
X429561Y262734D01*
Y261750D01*
X429541Y261940D01*
X429480Y262110D01*
X429378Y262260D01*
X429236Y262390D01*
X429053Y262500D01*
X428842Y262585D01*
X428805Y262574D01*
X428553Y262475D01*
X428308Y262354D01*
X428069Y262211D01*
X427837Y262046D01*
X427611Y261859D01*
X427392Y261650D01*
Y265850D01*
X427611Y265641D01*
D02*
G37*
G36*
X270200Y261151D02*
X270018Y261433D01*
X269766Y261597D01*
X269445Y261642D01*
X269054Y261569D01*
X268594Y261378D01*
X268064Y261068D01*
X267465Y260640D01*
X266796Y260094D01*
X266702Y260005D01*
X266516Y259787D01*
X266405Y259622D01*
X266319Y259471D01*
X266258Y259336D01*
X266221Y259216D01*
X266210Y259110D01*
X265986Y259334D01*
X265250Y258646D01*
X265059Y260261D01*
X263240Y262080D01*
X263346Y262091D01*
X263466Y262128D01*
X263601Y262189D01*
X263752Y262275D01*
X263917Y262386D01*
X264097Y262521D01*
X264503Y262868D01*
X264850Y263200D01*
X265334Y263704D01*
X266313Y264878D01*
X266683Y265419D01*
X266973Y265929D01*
X267184Y266409D01*
X267315Y266858D01*
X267367Y267276D01*
X267339Y267663D01*
X267231Y268020D01*
X270200Y261151D01*
D02*
G37*
G36*
X362970Y262000D02*
X362667Y261993D01*
X362376Y261966D01*
X362095Y261918D01*
X361825Y261851D01*
X361566Y261763D01*
X361318Y261655D01*
X361081Y261526D01*
X360854Y261378D01*
X360639Y261209D01*
X360434Y261020D01*
X359020Y262434D01*
X359209Y262639D01*
X359378Y262854D01*
X359526Y263081D01*
X359655Y263318D01*
X359763Y263566D01*
X359851Y263825D01*
X359918Y264095D01*
X359966Y264376D01*
X359993Y264667D01*
X360000Y264970D01*
X362970Y262000D01*
D02*
G37*
G36*
X181222Y262391D02*
X181378Y262326D01*
X181562Y262268D01*
X181774Y262218D01*
X182012Y262176D01*
X182573Y262115D01*
X183243Y262084D01*
X183619Y262080D01*
Y260080D01*
X183243Y260076D01*
X182012Y259984D01*
X181774Y259942D01*
X181562Y259892D01*
X181378Y259834D01*
X181222Y259769D01*
X181093Y259696D01*
Y262464D01*
X181222Y262391D01*
D02*
G37*
G36*
X83947Y259696D02*
X83883Y259721D01*
X83774Y259744D01*
X83619Y259764D01*
X83171Y259796D01*
X81246Y259830D01*
Y262330D01*
X83947Y262464D01*
Y259696D01*
D02*
G37*
G36*
X254139Y261120D02*
X254098Y261101D01*
X254060Y261040D01*
X254028Y260940D01*
X253999Y260800D01*
X253975Y260620D01*
X253940Y260140D01*
X253920Y259121D01*
X251920D01*
X251910Y259505D01*
X251880Y259848D01*
X251830Y260152D01*
X251760Y260415D01*
X251670Y260639D01*
X251560Y260822D01*
X251430Y260964D01*
X251280Y261067D01*
X251110Y261129D01*
X250920Y261151D01*
X254139Y261120D01*
D02*
G37*
G36*
X327010Y260089D02*
X327040Y259750D01*
X327090Y259450D01*
X327160Y259189D01*
X327250Y258969D01*
X327360Y258790D01*
X327490Y258650D01*
X327640Y258549D01*
X327810Y258489D01*
X328000Y258470D01*
X324000D01*
X324190Y258489D01*
X324360Y258549D01*
X324510Y258650D01*
X324640Y258790D01*
X324750Y258969D01*
X324840Y259189D01*
X324910Y259450D01*
X324960Y259750D01*
X324990Y260089D01*
X325000Y260469D01*
X327000D01*
X327010Y260089D01*
D02*
G37*
G36*
X67642Y258148D02*
X67743Y258073D01*
X67872Y258006D01*
X68028Y257949D01*
X68211Y257900D01*
X68422Y257861D01*
X68661Y257830D01*
X69219Y257794D01*
X69540Y257790D01*
Y255290D01*
X69219Y255286D01*
X68422Y255219D01*
X68211Y255180D01*
X68028Y255131D01*
X67872Y255074D01*
X67743Y255007D01*
X67642Y254932D01*
X67568Y254848D01*
Y258232D01*
X67642Y258148D01*
D02*
G37*
G36*
X168447Y254696D02*
X168318Y254769D01*
X168162Y254834D01*
X167978Y254892D01*
X167766Y254942D01*
X167528Y254984D01*
X166968Y255045D01*
X166297Y255076D01*
X165921Y255080D01*
Y257080D01*
X166297Y257084D01*
X167528Y257176D01*
X167766Y257218D01*
X167978Y257268D01*
X168162Y257326D01*
X168318Y257391D01*
X168447Y257464D01*
Y254696D01*
D02*
G37*
G36*
X83947D02*
X83883Y254721D01*
X83774Y254744D01*
X83619Y254764D01*
X83171Y254796D01*
X82087Y254815D01*
X81869Y254796D01*
X81618Y254753D01*
X81400Y254693D01*
X81215Y254615D01*
X81063Y254521D01*
X80945Y254410D01*
X80860Y254281D01*
X80808Y254135D01*
X80790Y253972D01*
X78282Y256959D01*
X81246Y257276D01*
Y257330D01*
X83947Y257464D01*
Y254696D01*
D02*
G37*
G36*
X266221Y258944D02*
X266258Y258824D01*
X266319Y258689D01*
X266405Y258538D01*
X266516Y258373D01*
X266651Y258193D01*
X266996Y257789D01*
X267127Y257662D01*
X268518Y256467D01*
X269175Y255980D01*
X269807Y255569D01*
X270413Y255232D01*
X270993Y254969D01*
X271548Y254781D01*
X272077Y254668D01*
X272580Y254629D01*
X263701Y254660D01*
X263952Y254684D01*
X264125Y254758D01*
X264220Y254882D01*
X264236Y255056D01*
X264173Y255278D01*
X264032Y255550D01*
X263847Y255822D01*
X263752Y255885D01*
X263601Y255971D01*
X263466Y256032D01*
X263346Y256069D01*
X263240Y256080D01*
X263461Y256302D01*
X263136Y256664D01*
X262681Y257134D01*
X265101Y257941D01*
X266210Y259050D01*
X266221Y258944D01*
D02*
G37*
G36*
X253930Y256274D02*
X253960Y255928D01*
X254010Y255624D01*
X254080Y255360D01*
X254170Y255137D01*
X254280Y254954D01*
X254410Y254812D01*
X254560Y254710D01*
X254730Y254649D01*
X254920Y254629D01*
X250920D01*
X251110Y254649D01*
X251280Y254710D01*
X251430Y254812D01*
X251560Y254954D01*
X251670Y255137D01*
X251760Y255360D01*
X251830Y255624D01*
X251880Y255928D01*
X251910Y256274D01*
X251920Y256660D01*
X253920D01*
X253930Y256274D01*
D02*
G37*
G36*
X61655Y258778D02*
X61729Y258570D01*
X61855Y258388D01*
X62030Y258229D01*
X62213Y258120D01*
X62383Y258207D01*
X62586Y258334D01*
X62774Y258479D01*
X62948Y258640D01*
Y257885D01*
X63229Y257839D01*
X63654Y257802D01*
X64130Y257790D01*
Y255290D01*
X63654Y255278D01*
X63229Y255241D01*
X62948Y255195D01*
Y254440D01*
X62774Y254601D01*
X62586Y254746D01*
X62383Y254874D01*
X62213Y254960D01*
X62030Y254851D01*
X61855Y254692D01*
X61729Y254510D01*
X61655Y254302D01*
X61630Y254070D01*
Y255168D01*
X61429Y255214D01*
X61155Y255256D01*
X60866Y255282D01*
X60563Y255290D01*
Y257790D01*
X60866Y257799D01*
X61155Y257824D01*
X61429Y257866D01*
X61630Y257912D01*
Y259009D01*
X61655Y258778D01*
D02*
G37*
G36*
X330459Y255560D02*
X330520Y255390D01*
X330622Y255240D01*
X330764Y255110D01*
X330947Y255000D01*
X331170Y254910D01*
X331434Y254840D01*
X331739Y254790D01*
X332084Y254760D01*
X332469Y254750D01*
Y252750D01*
X332084Y252740D01*
X331739Y252710D01*
X331434Y252660D01*
X331170Y252590D01*
X330947Y252500D01*
X330764Y252390D01*
X330622Y252260D01*
X330520Y252110D01*
X330459Y251940D01*
X330439Y251750D01*
Y255750D01*
X330459Y255560D01*
D02*
G37*
G36*
X408020Y252750D02*
X408050Y252409D01*
X408100Y252110D01*
X408170Y251849D01*
X408260Y251630D01*
X408370Y251450D01*
X408500Y251310D01*
X408650Y251210D01*
X408820Y251150D01*
X409010Y251129D01*
X405010D01*
X405200Y251150D01*
X405370Y251210D01*
X405520Y251310D01*
X405650Y251450D01*
X405760Y251630D01*
X405850Y251849D01*
X405920Y252110D01*
X405970Y252409D01*
X406000Y252750D01*
X406010Y253130D01*
X408010D01*
X408020Y252750D01*
D02*
G37*
G36*
X234858Y250900D02*
X234639Y251109D01*
X234413Y251296D01*
X234181Y251461D01*
X233942Y251604D01*
X233697Y251725D01*
X233445Y251824D01*
X233187Y251901D01*
X232922Y251956D01*
X232650Y251989D01*
X232372Y252000D01*
Y254000D01*
X232650Y254011D01*
X232922Y254044D01*
X233187Y254099D01*
X233445Y254176D01*
X233697Y254275D01*
X233942Y254396D01*
X234181Y254539D01*
X234413Y254704D01*
X234639Y254891D01*
X234858Y255100D01*
Y250900D01*
D02*
G37*
G36*
X181222Y252391D02*
X181378Y252326D01*
X181562Y252268D01*
X181774Y252218D01*
X182012Y252176D01*
X182573Y252115D01*
X183243Y252084D01*
X183619Y252080D01*
Y250080D01*
X183243Y250076D01*
X182012Y249984D01*
X181774Y249942D01*
X181562Y249892D01*
X181378Y249834D01*
X181222Y249769D01*
X181093Y249696D01*
Y252464D01*
X181222Y252391D01*
D02*
G37*
G36*
X80633Y253003D02*
X80658Y252961D01*
X80704Y252901D01*
X80857Y252725D01*
X81246Y252323D01*
Y252330D01*
X83947Y252464D01*
Y249696D01*
X83883Y249721D01*
X83774Y249744D01*
X83619Y249764D01*
X83171Y249796D01*
X81246Y249830D01*
Y251616D01*
X79826Y250196D01*
X78764Y251162D01*
X80627Y253026D01*
X80633Y253003D01*
D02*
G37*
G36*
X464867Y245883D02*
X464396Y246514D01*
X463917Y247077D01*
X463430Y247575D01*
X462936Y248006D01*
X462433Y248371D01*
X461922Y248669D01*
X461404Y248902D01*
X460877Y249067D01*
X460342Y249167D01*
X459800Y249200D01*
Y251200D01*
X460342Y251233D01*
X460877Y251333D01*
X461404Y251499D01*
X461922Y251731D01*
X462433Y252029D01*
X462936Y252394D01*
X463430Y252825D01*
X463917Y253323D01*
X464396Y253887D01*
X464867Y254517D01*
Y245883D01*
D02*
G37*
G36*
X248200Y245721D02*
X248181Y245599D01*
X248120Y245490D01*
X248020Y245394D01*
X247880Y245311D01*
X247701Y245240D01*
X247481Y245182D01*
X247220Y245138D01*
X246921Y245106D01*
X246201Y245080D01*
Y247080D01*
X246584Y247090D01*
X246927Y247120D01*
X247231Y247170D01*
X247494Y247240D01*
X247717Y247330D01*
X247900Y247440D01*
X248043Y247570D01*
X248146Y247720D01*
X248208Y247890D01*
X248231Y248080D01*
X248200Y245721D01*
D02*
G37*
G36*
X181222Y247391D02*
X181378Y247326D01*
X181562Y247268D01*
X181774Y247218D01*
X182012Y247176D01*
X182573Y247115D01*
X183243Y247084D01*
X183619Y247080D01*
Y245080D01*
X183243Y245076D01*
X182012Y244984D01*
X181774Y244942D01*
X181562Y244892D01*
X181378Y244834D01*
X181222Y244769D01*
X181093Y244696D01*
Y247464D01*
X181222Y247391D01*
D02*
G37*
G36*
X83947Y244696D02*
X83818Y244769D01*
X83662Y244834D01*
X83478Y244892D01*
X83266Y244942D01*
X83028Y244984D01*
X82467Y245045D01*
X81797Y245076D01*
X81421Y245080D01*
Y247080D01*
X81797Y247084D01*
X83028Y247176D01*
X83266Y247218D01*
X83478Y247268D01*
X83662Y247326D01*
X83818Y247391D01*
X83947Y247464D01*
Y244696D01*
D02*
G37*
G36*
X61441Y247971D02*
X61667Y247784D01*
X61899Y247619D01*
X62138Y247476D01*
X62383Y247355D01*
X62635Y247256D01*
X62893Y247179D01*
X63158Y247124D01*
X63430Y247091D01*
X63708Y247080D01*
Y245080D01*
X63430Y245069D01*
X63158Y245036D01*
X62893Y244981D01*
X62635Y244904D01*
X62383Y244805D01*
X62138Y244684D01*
X61899Y244541D01*
X61667Y244376D01*
X61441Y244189D01*
X61222Y243980D01*
Y248180D01*
X61441Y247971D01*
D02*
G37*
G36*
X354060Y243646D02*
X353871Y243441D01*
X353702Y243226D01*
X353554Y242999D01*
X353425Y242762D01*
X353317Y242514D01*
X353229Y242255D01*
X353162Y241985D01*
X353114Y241704D01*
X353087Y241413D01*
X353080Y241110D01*
X350110Y244080D01*
X350413Y244087D01*
X350704Y244114D01*
X350985Y244162D01*
X351255Y244229D01*
X351514Y244317D01*
X351762Y244425D01*
X351999Y244554D01*
X352226Y244702D01*
X352441Y244871D01*
X352646Y245060D01*
X354060Y243646D01*
D02*
G37*
G36*
X385041Y240690D02*
X384991Y241034D01*
X384841Y241342D01*
X384590Y241613D01*
X384240Y241849D01*
X383791Y242048D01*
X383241Y242211D01*
X382590Y242337D01*
X381841Y242428D01*
X380990Y242482D01*
X380041Y242500D01*
Y247500D01*
X380995Y247525D01*
X381849Y247600D01*
X382603Y247725D01*
X383256Y247900D01*
X383809Y248125D01*
X384262Y248400D01*
X384615Y248725D01*
X384867Y249100D01*
X385019Y249525D01*
X385071Y250000D01*
X385041Y240690D01*
D02*
G37*
G36*
X438470Y243531D02*
X438143Y243496D01*
X437850Y243391D01*
X437593Y243216D01*
X437369Y242971D01*
X437180Y242656D01*
X437025Y242271D01*
X436905Y241815D01*
X436876Y241641D01*
X436922Y241475D01*
X436974Y241336D01*
X437034Y241225D01*
X437100Y241142D01*
X436806D01*
X436767Y240695D01*
X436750Y240030D01*
X433250D01*
X433232Y240700D01*
X433194Y241142D01*
X432900D01*
X432966Y241225D01*
X433026Y241336D01*
X433078Y241475D01*
X433124Y241640D01*
X433092Y241828D01*
X432970Y242286D01*
X432812Y242675D01*
X432620Y242992D01*
X432393Y243240D01*
X432130Y243417D01*
X431833Y243524D01*
X431500Y243561D01*
X438470Y243531D01*
D02*
G37*
G36*
X181222Y242391D02*
X181378Y242326D01*
X181562Y242268D01*
X181774Y242218D01*
X182012Y242176D01*
X182573Y242115D01*
X183243Y242084D01*
X183619Y242080D01*
Y240080D01*
X183243Y240076D01*
X182012Y239984D01*
X181774Y239942D01*
X181562Y239892D01*
X181378Y239834D01*
X181222Y239769D01*
X181093Y239696D01*
Y242464D01*
X181222Y242391D01*
D02*
G37*
G36*
X83947Y239696D02*
X83956Y239669D01*
X83901Y239645D01*
X83781Y239625D01*
X83596Y239606D01*
X82652Y239569D01*
X81126Y239556D01*
X81116Y241556D01*
X81492Y241562D01*
X82148Y241609D01*
X82430Y241649D01*
X82680Y241702D01*
X82898Y241766D01*
X83086Y241842D01*
X83242Y241929D01*
X83367Y242029D01*
X83461Y242139D01*
X83947Y239696D01*
D02*
G37*
G36*
X301858Y235900D02*
X301639Y236109D01*
X301413Y236296D01*
X301181Y236461D01*
X300942Y236604D01*
X300697Y236725D01*
X300445Y236824D01*
X300187Y236901D01*
X299921Y236956D01*
X299650Y236989D01*
X299372Y237000D01*
Y239000D01*
X299650Y239011D01*
X299921Y239044D01*
X300187Y239099D01*
X300445Y239176D01*
X300697Y239275D01*
X300942Y239396D01*
X301181Y239539D01*
X301413Y239704D01*
X301639Y239891D01*
X301858Y240100D01*
Y235900D01*
D02*
G37*
G36*
X181222Y237391D02*
X181378Y237326D01*
X181562Y237268D01*
X181774Y237218D01*
X182012Y237176D01*
X182573Y237115D01*
X183243Y237084D01*
X183619Y237080D01*
Y235080D01*
X183243Y235076D01*
X182012Y234984D01*
X181774Y234942D01*
X181562Y234892D01*
X181378Y234834D01*
X181222Y234769D01*
X181093Y234696D01*
Y237464D01*
X181222Y237391D01*
D02*
G37*
G36*
X83947Y234696D02*
X83818Y234769D01*
X83662Y234834D01*
X83478Y234892D01*
X83266Y234942D01*
X83028Y234984D01*
X82467Y235045D01*
X81797Y235076D01*
X81421Y235080D01*
Y237080D01*
X81797Y237084D01*
X83028Y237176D01*
X83266Y237218D01*
X83478Y237268D01*
X83662Y237326D01*
X83818Y237391D01*
X83947Y237464D01*
Y234696D01*
D02*
G37*
G36*
X379385Y239879D02*
X378713Y239189D01*
X377122Y237312D01*
X376733Y236752D01*
X376415Y236224D01*
X376168Y235729D01*
X375991Y235267D01*
X375885Y234837D01*
X375849Y234440D01*
X370910Y240380D01*
X371307Y240415D01*
X371737Y240521D01*
X372200Y240698D01*
X372694Y240945D01*
X373222Y241263D01*
X373782Y241652D01*
X374375Y242112D01*
X375659Y243243D01*
X376349Y243915D01*
X379385Y239879D01*
D02*
G37*
G36*
X327810Y233541D02*
X327640Y233480D01*
X327490Y233378D01*
X327360Y233236D01*
X327250Y233053D01*
X327160Y232830D01*
X327090Y232566D01*
X327040Y232261D01*
X327010Y231916D01*
X327000Y231530D01*
X325000D01*
X324990Y231916D01*
X324960Y232261D01*
X324910Y232566D01*
X324840Y232830D01*
X324750Y233053D01*
X324640Y233236D01*
X324510Y233378D01*
X324360Y233480D01*
X324190Y233541D01*
X324000Y233561D01*
X328000D01*
X327810Y233541D01*
D02*
G37*
G36*
X181222Y232391D02*
X181378Y232326D01*
X181562Y232268D01*
X181774Y232218D01*
X182012Y232176D01*
X182573Y232115D01*
X183243Y232084D01*
X183619Y232080D01*
Y230080D01*
X183243Y230076D01*
X182012Y229984D01*
X181774Y229942D01*
X181562Y229892D01*
X181378Y229834D01*
X181222Y229769D01*
X181093Y229696D01*
Y232464D01*
X181222Y232391D01*
D02*
G37*
G36*
X79073Y232594D02*
X79248Y232542D01*
X79440Y232497D01*
X79878Y232425D01*
X80123Y232398D01*
X80963Y232353D01*
X81243Y232350D01*
X83947Y232464D01*
Y229696D01*
X83889Y229717D01*
X83784Y229737D01*
X83631Y229754D01*
X82889Y229792D01*
X82265Y229799D01*
X81993Y229770D01*
X81731Y229720D01*
X81495Y229650D01*
X81283Y229561D01*
X81096Y229451D01*
X80934Y229321D01*
X80797Y229172D01*
X80685Y229002D01*
X80597Y228813D01*
X78916Y232651D01*
X79073Y232594D01*
D02*
G37*
G36*
X327004Y229890D02*
X327069Y228990D01*
X327107Y228769D01*
X327155Y228589D01*
X327210Y228449D01*
X327275Y228349D01*
X327348Y228290D01*
X327430Y228270D01*
X324000D01*
X324190Y228290D01*
X324360Y228349D01*
X324510Y228449D01*
X324640Y228589D01*
X324750Y228769D01*
X324840Y228990D01*
X324910Y229249D01*
X324960Y229550D01*
X324990Y229890D01*
X325000Y230270D01*
X327000D01*
X327004Y229890D01*
D02*
G37*
G36*
X402774Y229581D02*
X400434Y227020D01*
X398553Y227967D01*
X398759Y228188D01*
X398927Y228403D01*
X399057Y228610D01*
X399149Y228810D01*
X399203Y229003D01*
X399218Y229188D01*
X399196Y229366D01*
X399136Y229538D01*
X399037Y229701D01*
X398900Y229858D01*
X402774Y229581D01*
D02*
G37*
G36*
X39505Y228091D02*
X39316Y227886D01*
X39147Y227671D01*
X38999Y227444D01*
X38870Y227207D01*
X38762Y226959D01*
X38674Y226700D01*
X38607Y226430D01*
X38559Y226149D01*
X38532Y225858D01*
X38525Y225555D01*
X35555Y228525D01*
X35858Y228532D01*
X36149Y228559D01*
X36430Y228607D01*
X36700Y228674D01*
X36959Y228762D01*
X37207Y228870D01*
X37444Y228999D01*
X37671Y229147D01*
X37886Y229316D01*
X38091Y229505D01*
X39505Y228091D01*
D02*
G37*
G36*
X72635Y229541D02*
X72712Y229327D01*
X72839Y229138D01*
X73019Y228974D01*
X73249Y228835D01*
X73531Y228722D01*
X73864Y228633D01*
X74248Y228570D01*
X74683Y228533D01*
X75170Y228520D01*
Y225980D01*
X74683Y225967D01*
X74248Y225930D01*
X73864Y225867D01*
X73531Y225778D01*
X73249Y225665D01*
X73019Y225526D01*
X72839Y225362D01*
X72712Y225173D01*
X72635Y224959D01*
X72609Y224720D01*
Y229781D01*
X72635Y229541D01*
D02*
G37*
G36*
X181222Y227391D02*
X181378Y227326D01*
X181562Y227268D01*
X181774Y227218D01*
X182012Y227176D01*
X182573Y227115D01*
X183243Y227084D01*
X183619Y227080D01*
Y225080D01*
X183243Y225076D01*
X182012Y224984D01*
X181774Y224942D01*
X181562Y224892D01*
X181378Y224834D01*
X181222Y224769D01*
X181093Y224696D01*
Y227464D01*
X181222Y227391D01*
D02*
G37*
G36*
X86197Y224612D02*
X85974Y224719D01*
X85723Y224763D01*
X85443Y224744D01*
X85134Y224660D01*
X84796Y224514D01*
X84430Y224304D01*
X84034Y224030D01*
X83611Y223693D01*
X83158Y223293D01*
X82677Y222829D01*
X80665Y224352D01*
X83136Y226653D01*
X86197Y224612D01*
D02*
G37*
G36*
X398514Y225248D02*
X398544Y224806D01*
X398571Y224627D01*
X398605Y224475D01*
X398647Y224350D01*
X398696Y224254D01*
X398754Y224185D01*
X398818Y224143D01*
X398890Y224130D01*
X396129D01*
X396202Y224143D01*
X396267Y224185D01*
X396324Y224254D01*
X396373Y224350D01*
X396415Y224475D01*
X396449Y224627D01*
X396476Y224806D01*
X396495Y225013D01*
X396510Y225510D01*
X398510D01*
X398514Y225248D01*
D02*
G37*
G36*
X35495Y222525D02*
X35192Y222518D01*
X34901Y222491D01*
X34620Y222443D01*
X34350Y222376D01*
X34091Y222288D01*
X33843Y222180D01*
X33606Y222051D01*
X33379Y221903D01*
X33164Y221734D01*
X32959Y221545D01*
X31545Y222959D01*
X31734Y223164D01*
X31903Y223379D01*
X32051Y223606D01*
X32180Y223843D01*
X32288Y224091D01*
X32376Y224350D01*
X32443Y224620D01*
X32491Y224901D01*
X32518Y225192D01*
X32525Y225495D01*
X35495Y222525D01*
D02*
G37*
G36*
X385071Y215410D02*
X385036Y215742D01*
X384930Y216040D01*
X384753Y216303D01*
X384506Y216530D01*
X384188Y216723D01*
X383800Y216880D01*
X383341Y217003D01*
X382812Y217090D01*
X382211Y217143D01*
X381540Y217160D01*
Y217224D01*
X380233Y217265D01*
X381540Y220618D01*
Y220660D01*
X381557Y220660D01*
X381759Y221178D01*
X381819Y221080D01*
X381908Y220992D01*
X382029Y220914D01*
X382180Y220847D01*
X382361Y220790D01*
X382574Y220743D01*
X382716Y220722D01*
X382812Y220730D01*
X383341Y220818D01*
X383800Y220940D01*
X384188Y221098D01*
X384506Y221290D01*
X384753Y221518D01*
X384930Y221780D01*
X385036Y222078D01*
X385071Y222410D01*
Y215410D01*
D02*
G37*
G36*
X375592Y227863D02*
X375471Y227568D01*
X375456Y227216D01*
X375548Y226807D01*
X375745Y226341D01*
X376049Y225817D01*
X376459Y225236D01*
X376974Y224598D01*
X377738Y223779D01*
X378293Y223306D01*
X378458Y223195D01*
X378609Y223109D01*
X378744Y223048D01*
X378865Y223011D01*
X378970Y223000D01*
X376000Y220030D01*
X375989Y220135D01*
X375952Y220256D01*
X375891Y220391D01*
X375805Y220542D01*
X375694Y220707D01*
X375559Y220887D01*
X375212Y221293D01*
X375067Y221445D01*
X372719Y223512D01*
X372256Y223846D01*
X371843Y224106D01*
X371482Y224292D01*
X371171Y224403D01*
X370910Y224440D01*
X375819Y228100D01*
X375592Y227863D01*
D02*
G37*
G36*
X81557Y222346D02*
X83947Y222464D01*
Y219696D01*
X83883Y219721D01*
X83774Y219744D01*
X83619Y219764D01*
X83171Y219796D01*
X82213Y219813D01*
X81992Y219790D01*
X81734Y219739D01*
X81501Y219668D01*
X81295Y219578D01*
X81115Y219466D01*
X80961Y219335D01*
X80833Y219184D01*
X80731Y219012D01*
X80655Y218820D01*
X79614Y220916D01*
X77820Y222710D01*
X78057Y222719D01*
X78292Y222749D01*
X78526Y222803D01*
X78757Y222878D01*
X78987Y222975D01*
X79215Y223095D01*
X79441Y223237D01*
X79665Y223401D01*
X79887Y223587D01*
X80107Y223795D01*
X81557Y222346D01*
D02*
G37*
G36*
X176055Y219598D02*
X175995Y219557D01*
X175942Y219488D01*
X175897Y219391D01*
X175858Y219267D01*
X175826Y219115D01*
X175802Y218935D01*
X175774Y218493D01*
X175770Y218230D01*
X173770D01*
X173766Y218493D01*
X173714Y219115D01*
X173682Y219267D01*
X173643Y219391D01*
X173598Y219488D01*
X173545Y219557D01*
X173485Y219598D01*
X173418Y219612D01*
X176122D01*
X176055Y219598D01*
D02*
G37*
G36*
X75648Y217610D02*
X75474Y217771D01*
X75286Y217916D01*
X75083Y218043D01*
X74866Y218154D01*
X74635Y218248D01*
X74389Y218324D01*
X74129Y218384D01*
X74100Y218388D01*
X73854Y218347D01*
X73526Y218260D01*
X73248Y218148D01*
X73020Y218010D01*
X72842Y217847D01*
X72714Y217660D01*
X72637Y217447D01*
X72609Y217210D01*
X72639Y220219D01*
X72664Y220360D01*
X72740Y220486D01*
X72864Y220597D01*
X73039Y220693D01*
X73263Y220774D01*
Y220960D01*
X73566Y220968D01*
X73855Y220994D01*
X74129Y221036D01*
X74389Y221096D01*
X74635Y221173D01*
X74866Y221266D01*
X75083Y221376D01*
X75286Y221504D01*
X75474Y221649D01*
X75648Y221810D01*
Y217610D01*
D02*
G37*
G36*
X273891Y219639D02*
X273704Y219413D01*
X273539Y219181D01*
X273396Y218942D01*
X273275Y218697D01*
X273176Y218445D01*
X273099Y218187D01*
X273044Y217922D01*
X273011Y217650D01*
X273000Y217372D01*
X271000D01*
X270989Y217650D01*
X270956Y217922D01*
X270901Y218187D01*
X270824Y218445D01*
X270725Y218697D01*
X270604Y218942D01*
X270461Y219181D01*
X270296Y219413D01*
X270109Y219639D01*
X269900Y219858D01*
X274100D01*
X273891Y219639D01*
D02*
G37*
G36*
X409984Y221168D02*
X410090Y220870D01*
X410267Y220607D01*
X410514Y220380D01*
X410832Y220187D01*
X411220Y220030D01*
X411679Y219907D01*
X412122Y219834D01*
X412163Y219837D01*
X412358Y219876D01*
X412525Y219921D01*
X412664Y219974D01*
X412775Y220033D01*
X412858Y220100D01*
Y219766D01*
X413479Y219750D01*
Y216250D01*
X412858Y216234D01*
Y215900D01*
X412775Y215966D01*
X412664Y216026D01*
X412525Y216078D01*
X412358Y216124D01*
X412163Y216162D01*
X412130Y216167D01*
X411679Y216092D01*
X411220Y215970D01*
X410832Y215812D01*
X410514Y215620D01*
X410267Y215392D01*
X410090Y215130D01*
X409984Y214832D01*
X409949Y214500D01*
Y221500D01*
X409984Y221168D01*
D02*
G37*
G36*
X478505Y223577D02*
X478623Y221537D01*
X478734Y220644D01*
X478881Y219836D01*
X479063Y219112D01*
X479281Y218474D01*
X479534Y217921D01*
X479822Y217453D01*
X480145Y217069D01*
X478731Y215655D01*
X478347Y215978D01*
X477879Y216266D01*
X477326Y216519D01*
X476688Y216737D01*
X475964Y216919D01*
X475156Y217066D01*
X474263Y217177D01*
X472223Y217295D01*
X471075Y217300D01*
X478500Y224725D01*
X478505Y223577D01*
D02*
G37*
G36*
X177639Y216791D02*
X177854Y216622D01*
X178081Y216474D01*
X178318Y216345D01*
X178566Y216237D01*
X178825Y216149D01*
X179095Y216082D01*
X179376Y216034D01*
X179667Y216007D01*
X179970Y216000D01*
X177000Y213030D01*
X176993Y213333D01*
X176966Y213624D01*
X176918Y213905D01*
X176851Y214175D01*
X176763Y214434D01*
X176655Y214682D01*
X176526Y214919D01*
X176378Y215146D01*
X176209Y215361D01*
X176020Y215566D01*
X177434Y216980D01*
X177639Y216791D01*
D02*
G37*
G36*
X72639Y214280D02*
X72649Y214256D01*
X72658Y214181D01*
X72664Y214077D01*
X72690D01*
X72698Y213774D01*
X72724Y213485D01*
X72766Y213211D01*
X72826Y212951D01*
X72902Y212705D01*
X72996Y212474D01*
X73106Y212257D01*
X73234Y212054D01*
X73379Y211866D01*
X73540Y211692D01*
X69340D01*
X69502Y211866D01*
X69646Y212054D01*
X69774Y212257D01*
X69884Y212474D01*
X69977Y212705D01*
X70054Y212951D01*
X70079Y213059D01*
X70078Y213067D01*
X69990Y213395D01*
X69878Y213673D01*
X69740Y213901D01*
X69577Y214079D01*
X69390Y214206D01*
X69177Y214284D01*
X68940Y214311D01*
X72639Y214280D01*
D02*
G37*
G36*
X399320Y213701D02*
X399150Y213640D01*
X399000Y213538D01*
X398870Y213396D01*
X398760Y213213D01*
X398670Y212990D01*
X398600Y212726D01*
X398550Y212421D01*
X398520Y212076D01*
X398510Y211691D01*
X396510D01*
X396500Y212076D01*
X396470Y212421D01*
X396420Y212726D01*
X396350Y212990D01*
X396260Y213213D01*
X396150Y213396D01*
X396020Y213538D01*
X395870Y213640D01*
X395700Y213701D01*
X395510Y213721D01*
X399510D01*
X399320Y213701D01*
D02*
G37*
G36*
X423011Y213350D02*
X423044Y213078D01*
X423099Y212813D01*
X423176Y212555D01*
X423275Y212303D01*
X423396Y212058D01*
X423539Y211819D01*
X423704Y211587D01*
X423891Y211361D01*
X424100Y211142D01*
X419900D01*
X420109Y211361D01*
X420296Y211587D01*
X420461Y211819D01*
X420604Y212058D01*
X420725Y212303D01*
X420824Y212555D01*
X420901Y212813D01*
X420956Y213078D01*
X420989Y213350D01*
X421000Y213628D01*
X423000D01*
X423011Y213350D01*
D02*
G37*
G36*
X317241Y205098D02*
X317121Y205116D01*
X316993Y205112D01*
X316857Y205085D01*
X316712Y205035D01*
X316558Y204962D01*
X316397Y204866D01*
X316227Y204747D01*
X316049Y204605D01*
X315667Y204253D01*
X314253Y205667D01*
X314441Y205862D01*
X314747Y206227D01*
X314866Y206397D01*
X314962Y206558D01*
X315035Y206712D01*
X315085Y206857D01*
X315112Y206993D01*
X315116Y207121D01*
X315098Y207241D01*
X317241Y205098D01*
D02*
G37*
G36*
X69041Y208280D02*
X71420D01*
X71430Y207856D01*
X71459Y207477D01*
X71508Y207146D01*
X72436Y206720D01*
X72243Y206636D01*
X72070Y206527D01*
X71918Y206393D01*
X71850Y206312D01*
X71900Y206250D01*
X72048Y206139D01*
X72214Y206072D01*
X72400Y206049D01*
X71674D01*
X71674Y206049D01*
X71582Y205839D01*
X71511Y205605D01*
X71461Y205345D01*
X71430Y205060D01*
X71420Y204750D01*
X69053Y206049D01*
X67940D01*
X68126Y206072D01*
X68292Y206139D01*
X68440Y206250D01*
X68567Y206406D01*
X68675Y206607D01*
X68763Y206852D01*
X68832Y207143D01*
X68854Y207295D01*
X68821Y207747D01*
X68785Y207954D01*
X68696Y208311D01*
X68644Y208462D01*
X69041Y208280D01*
D02*
G37*
G36*
X103552Y204330D02*
X103532Y204520D01*
X103471Y204690D01*
X103369Y204840D01*
X103227Y204970D01*
X103045Y205080D01*
X102821Y205170D01*
X102557Y205240D01*
X102253Y205290D01*
X101908Y205320D01*
X101522Y205330D01*
Y207330D01*
X101908Y207340D01*
X102253Y207370D01*
X102557Y207420D01*
X102821Y207490D01*
X103045Y207580D01*
X103227Y207690D01*
X103369Y207820D01*
X103471Y207970D01*
X103532Y208140D01*
X103552Y208330D01*
Y204330D01*
D02*
G37*
G36*
X398520Y202934D02*
X398550Y202589D01*
X398600Y202284D01*
X398670Y202020D01*
X398760Y201797D01*
X398870Y201614D01*
X399000Y201472D01*
X399150Y201370D01*
X399320Y201309D01*
X399510Y201289D01*
X395510D01*
X395700Y201309D01*
X395870Y201370D01*
X396020Y201472D01*
X396150Y201614D01*
X396260Y201797D01*
X396350Y202020D01*
X396420Y202284D01*
X396470Y202589D01*
X396500Y202934D01*
X396510Y203319D01*
X398510D01*
X398520Y202934D01*
D02*
G37*
G36*
X315970Y202889D02*
X316000Y202549D01*
X316050Y202250D01*
X316120Y201989D01*
X316210Y201770D01*
X316320Y201590D01*
X316450Y201450D01*
X316600Y201350D01*
X316770Y201290D01*
X316960Y201269D01*
X312960D01*
X313150Y201290D01*
X313320Y201350D01*
X313470Y201450D01*
X313600Y201590D01*
X313710Y201770D01*
X313800Y201989D01*
X313870Y202250D01*
X313920Y202549D01*
X313950Y202889D01*
X313960Y203270D01*
X315960D01*
X315970Y202889D01*
D02*
G37*
G36*
X306470D02*
X306500Y202549D01*
X306550Y202250D01*
X306620Y201989D01*
X306710Y201770D01*
X306820Y201590D01*
X306950Y201450D01*
X307100Y201350D01*
X307270Y201290D01*
X307460Y201269D01*
X303460D01*
X303650Y201290D01*
X303820Y201350D01*
X303970Y201450D01*
X304100Y201590D01*
X304210Y201770D01*
X304300Y201989D01*
X304370Y202250D01*
X304420Y202549D01*
X304450Y202889D01*
X304460Y203270D01*
X306460D01*
X306470Y202889D01*
D02*
G37*
G36*
X91980Y201566D02*
X91791Y201361D01*
X91622Y201146D01*
X91474Y200919D01*
X91345Y200682D01*
X91237Y200434D01*
X91149Y200175D01*
X91082Y199905D01*
X91034Y199624D01*
X91007Y199333D01*
X91000Y199030D01*
X88030Y202000D01*
X88333Y202007D01*
X88624Y202034D01*
X88905Y202082D01*
X89175Y202149D01*
X89434Y202237D01*
X89682Y202345D01*
X89919Y202474D01*
X90146Y202622D01*
X90361Y202791D01*
X90566Y202980D01*
X91980Y201566D01*
D02*
G37*
G36*
X293300Y201581D02*
X293575Y201546D01*
X293822Y201441D01*
X294039Y201266D01*
X294228Y201021D01*
X294387Y200706D01*
X294518Y200320D01*
X294537Y200237D01*
X294750D01*
X294753Y199900D01*
X294837Y198838D01*
X294876Y198642D01*
X294921Y198475D01*
X294974Y198336D01*
X295033Y198225D01*
X295100Y198142D01*
X294749D01*
X294750Y198081D01*
X291250D01*
X291248Y198142D01*
X290900D01*
X290966Y198225D01*
X291026Y198336D01*
X291078Y198475D01*
X291124Y198642D01*
X291162Y198838D01*
X291194Y199061D01*
X291199Y199128D01*
X291180Y199347D01*
X291092Y199875D01*
X290970Y200333D01*
X290812Y200721D01*
X290620Y201039D01*
X290392Y201287D01*
X290130Y201465D01*
X289832Y201573D01*
X289500Y201611D01*
X293300Y201581D01*
D02*
G37*
G36*
X136286Y199816D02*
X136180Y199619D01*
X136086Y199416D01*
X136005Y199205D01*
X135936Y198988D01*
X135880Y198764D01*
X135836Y198533D01*
X135805Y198296D01*
X135786Y198051D01*
X135780Y197800D01*
X134260D01*
X134254Y198051D01*
X134204Y198533D01*
X134160Y198764D01*
X134104Y198988D01*
X134035Y199205D01*
X133954Y199416D01*
X133861Y199619D01*
X133754Y199816D01*
X133636Y200007D01*
X136404D01*
X136286Y199816D01*
D02*
G37*
G36*
X131286D02*
X131180Y199619D01*
X131086Y199416D01*
X131005Y199205D01*
X130936Y198988D01*
X130880Y198764D01*
X130836Y198533D01*
X130805Y198296D01*
X130786Y198051D01*
X130780Y197800D01*
X129260D01*
X129254Y198051D01*
X129204Y198533D01*
X129160Y198764D01*
X129104Y198988D01*
X129035Y199205D01*
X128954Y199416D01*
X128861Y199619D01*
X128754Y199816D01*
X128636Y200007D01*
X131404D01*
X131286Y199816D01*
D02*
G37*
G36*
X161437Y204059D02*
X161438Y203758D01*
X161490Y203441D01*
X161595Y203106D01*
X161752Y202756D01*
X161961Y202388D01*
X162221Y202004D01*
X162534Y201603D01*
X162898Y201186D01*
X163314Y200752D01*
X162800Y197674D01*
X162478Y197982D01*
X161863Y198487D01*
X161570Y198684D01*
X161287Y198844D01*
X161014Y198966D01*
X160751Y199051D01*
X160497Y199098D01*
X160254Y199109D01*
X160020Y199082D01*
X161488Y204344D01*
X161437Y204059D01*
D02*
G37*
G36*
X126331Y199878D02*
X126266Y199722D01*
X126208Y199538D01*
X126158Y199326D01*
X126116Y199088D01*
X126055Y198527D01*
X126024Y197857D01*
X126020Y197481D01*
X124020D01*
X124016Y197857D01*
X123924Y199088D01*
X123882Y199326D01*
X123832Y199538D01*
X123774Y199722D01*
X123709Y199878D01*
X123636Y200007D01*
X126404D01*
X126331Y199878D01*
D02*
G37*
G36*
X111331D02*
X111266Y199722D01*
X111208Y199538D01*
X111158Y199326D01*
X111116Y199088D01*
X111055Y198527D01*
X111024Y197857D01*
X111020Y197481D01*
X109020D01*
X109016Y197857D01*
X108924Y199088D01*
X108882Y199326D01*
X108832Y199538D01*
X108774Y199722D01*
X108709Y199878D01*
X108636Y200007D01*
X111404D01*
X111331Y199878D01*
D02*
G37*
G36*
X141379Y199943D02*
X141356Y199834D01*
X141336Y199679D01*
X141304Y199231D01*
X141270Y197306D01*
X138770D01*
X138636Y200007D01*
X141404D01*
X141379Y199943D01*
D02*
G37*
G36*
X121379D02*
X121356Y199834D01*
X121336Y199679D01*
X121304Y199231D01*
X121270Y197306D01*
X118770D01*
X118636Y200007D01*
X121404D01*
X121379Y199943D01*
D02*
G37*
G36*
X116379D02*
X116356Y199834D01*
X116336Y199679D01*
X116304Y199231D01*
X116270Y197306D01*
X113770D01*
X113636Y200007D01*
X116404D01*
X116379Y199943D01*
D02*
G37*
G36*
X151379D02*
X151356Y199834D01*
X151336Y199679D01*
X151304Y199231D01*
X151270Y197306D01*
X149404D01*
X150904Y195806D01*
X150619Y195519D01*
X149395Y194135D01*
X149374Y194076D01*
X147626Y195824D01*
X145903Y194100D01*
X145880Y194156D01*
X145824Y194243D01*
X145733Y194361D01*
X145449Y194689D01*
X144136Y196046D01*
X145396Y197306D01*
X143770D01*
X143636Y200007D01*
X146404D01*
X146379Y199943D01*
X146356Y199834D01*
X146336Y199679D01*
X146304Y199231D01*
X146273Y197479D01*
X147674Y196207D01*
X147954Y196442D01*
X148587Y197033D01*
X148864Y197306D01*
X148770D01*
X148636Y200007D01*
X151404D01*
X151379Y199943D01*
D02*
G37*
G36*
X42992Y198479D02*
X43059Y197630D01*
X43170Y196880D01*
X43325Y196229D01*
X43525Y195679D01*
X43769Y195229D01*
X44057Y194879D01*
X44391Y194629D01*
X44768Y194480D01*
X45189Y194429D01*
X35750D01*
X36172Y194480D01*
X36549Y194629D01*
X36882Y194879D01*
X37171Y195229D01*
X37415Y195679D01*
X37615Y196229D01*
X37770Y196880D01*
X37881Y197630D01*
X37948Y198479D01*
X37970Y199429D01*
X42970D01*
X42992Y198479D01*
D02*
G37*
G36*
X350225Y198034D02*
X350336Y197974D01*
X350475Y197922D01*
X350642Y197876D01*
X350672Y197870D01*
X351131Y197897D01*
X351303Y197942D01*
X351406Y197993D01*
X351441Y198050D01*
Y197776D01*
X351592Y197764D01*
X352237Y197750D01*
Y194250D01*
X351900Y194247D01*
X351441Y194210D01*
Y193111D01*
X351406Y193327D01*
X351303Y193521D01*
X351131Y193692D01*
X350890Y193840D01*
X350580Y193965D01*
X350344Y194029D01*
X350336Y194026D01*
X350225Y193967D01*
X350142Y193900D01*
Y194078D01*
X349755Y194147D01*
X349239Y194204D01*
X348000Y194250D01*
Y197750D01*
X348654Y197753D01*
X350142Y197839D01*
Y198100D01*
X350225Y198034D01*
D02*
G37*
G36*
X167155Y196923D02*
X167377Y196735D01*
X167601Y196570D01*
X167826Y196428D01*
X168052Y196307D01*
X168279Y196209D01*
X168508Y196133D01*
X168737Y196080D01*
X168968Y196049D01*
X169200Y196040D01*
X166230Y193070D01*
X166221Y193302D01*
X166190Y193533D01*
X166137Y193762D01*
X166061Y193990D01*
X165963Y194218D01*
X165842Y194444D01*
X165700Y194669D01*
X165534Y194893D01*
X165347Y195115D01*
X165137Y195337D01*
X166933Y197133D01*
X167155Y196923D01*
D02*
G37*
G36*
X327434Y198167D02*
X327540Y197870D01*
X327717Y197607D01*
X327964Y197380D01*
X328282Y197188D01*
X328670Y197030D01*
X329129Y196908D01*
X329340Y196873D01*
X329358Y196876D01*
X329525Y196922D01*
X329664Y196974D01*
X329775Y197034D01*
X329858Y197100D01*
Y196803D01*
X330259Y196768D01*
X330929Y196750D01*
Y193250D01*
X330259Y193232D01*
X329858Y193197D01*
Y192900D01*
X329775Y192966D01*
X329664Y193026D01*
X329525Y193078D01*
X329358Y193124D01*
X329340Y193127D01*
X329129Y193092D01*
X328670Y192970D01*
X328282Y192812D01*
X327964Y192620D01*
X327717Y192393D01*
X327540Y192130D01*
X327434Y191833D01*
X327399Y191500D01*
Y198500D01*
X327434Y198167D01*
D02*
G37*
G36*
X156379Y199943D02*
X156356Y199834D01*
X156336Y199679D01*
X156304Y199231D01*
X156276Y197644D01*
X156280Y197517D01*
X156310Y197232D01*
X156360Y196976D01*
X156429Y196746D01*
X156519Y196544D01*
X156629Y196370D01*
X156758Y196223D01*
X156908Y196104D01*
X157077Y196012D01*
X157266Y195948D01*
X156060Y195283D01*
X156500Y194894D01*
X156567Y194847D01*
X156625Y194812D01*
X156673Y194790D01*
X156713Y194780D01*
X154790Y192857D01*
X154780Y192897D01*
X154758Y192945D01*
X154723Y193003D01*
X154676Y193070D01*
X154546Y193232D01*
X154366Y193431D01*
X154136Y193666D01*
X155374Y194904D01*
X153677Y193968D01*
X153695Y194054D01*
X153710Y194198D01*
X153736Y194659D01*
X153769Y197330D01*
X153636Y200007D01*
X156404D01*
X156379Y199943D01*
D02*
G37*
G36*
X465374Y192401D02*
X465183Y192486D01*
X464844Y192563D01*
X464356Y192630D01*
X462935Y192738D01*
X458315Y192845D01*
X456789Y192850D01*
X455498Y200850D01*
X457187Y200890D01*
X458689Y201010D01*
X460003Y201209D01*
X461130Y201488D01*
X462069Y201847D01*
X462821Y202286D01*
X463386Y202804D01*
X463764Y203403D01*
X463954Y204081D01*
X463956Y204838D01*
X465374Y192401D01*
D02*
G37*
G36*
X420219Y201230D02*
X420460Y201150D01*
X420859Y201080D01*
X421419Y201019D01*
X424059Y200892D01*
X428139Y200850D01*
Y192850D01*
X426619Y192845D01*
X420219Y192470D01*
X420140Y192381D01*
Y201320D01*
X420219Y201230D01*
D02*
G37*
G36*
X121280Y194977D02*
X121311Y194691D01*
X121361Y194428D01*
X121432Y194186D01*
X121523Y193966D01*
X121635Y193768D01*
X121767Y193592D01*
X121919Y193439D01*
X122091Y193307D01*
X122283Y193197D01*
X118300Y191867D01*
X118389Y192057D01*
X118469Y192260D01*
X118539Y192476D01*
X118601Y192704D01*
X118695Y193198D01*
X118728Y193465D01*
X118765Y194035D01*
X118770Y194340D01*
X121270Y195285D01*
X121280Y194977D01*
D02*
G37*
G36*
X279641Y193978D02*
X279980D01*
X279914Y193895D01*
X279854Y193784D01*
X279802Y193645D01*
X279756Y193478D01*
X279718Y193283D01*
X279698Y193143D01*
X279700Y193118D01*
X279788Y192589D01*
X279910Y192130D01*
X280068Y191742D01*
X280260Y191424D01*
X280487Y191177D01*
X280750Y191000D01*
X281047Y190894D01*
X281380Y190859D01*
X274380D01*
X274713Y190894D01*
X275010Y191000D01*
X275273Y191177D01*
X275500Y191424D01*
X275693Y191742D01*
X275850Y192130D01*
X275972Y192589D01*
X276057Y193100D01*
X276042Y193283D01*
X276004Y193478D01*
X275958Y193645D01*
X275906Y193784D01*
X275847Y193895D01*
X275780Y193978D01*
X276119D01*
X276130Y194389D01*
X279630D01*
X279641Y193978D01*
D02*
G37*
G36*
X400590Y192391D02*
X400420Y192330D01*
X400270Y192228D01*
X400140Y192086D01*
X400030Y191903D01*
X399940Y191680D01*
X399870Y191416D01*
X399820Y191112D01*
X399790Y190766D01*
X399780Y190380D01*
X397780D01*
X397770Y190766D01*
X397740Y191112D01*
X397690Y191416D01*
X397620Y191680D01*
X397530Y191903D01*
X397420Y192086D01*
X397290Y192228D01*
X397140Y192330D01*
X396970Y192391D01*
X396780Y192411D01*
X400780D01*
X400590Y192391D01*
D02*
G37*
G36*
X149397Y192414D02*
X149414Y192168D01*
X149740D01*
X149674Y192085D01*
X149614Y191974D01*
X149562Y191835D01*
X149516Y191668D01*
X149478Y191472D01*
X149467Y191397D01*
X149505Y190840D01*
X149570Y190455D01*
X149649Y190140D01*
X149743Y189895D01*
X149851Y189720D01*
X149973Y189615D01*
X150110Y189580D01*
X145170D01*
X145307Y189615D01*
X145429Y189720D01*
X145537Y189895D01*
X145631Y190140D01*
X145710Y190455D01*
X145775Y190840D01*
X145820Y191249D01*
X145802Y191472D01*
X145764Y191668D01*
X145718Y191835D01*
X145666Y191974D01*
X145606Y192085D01*
X145540Y192168D01*
X145870D01*
X145883Y192414D01*
X145890Y193079D01*
X149390D01*
X149397Y192414D01*
D02*
G37*
G36*
X367415Y197652D02*
X367521Y197223D01*
X367698Y196761D01*
X367945Y196266D01*
X368263Y195738D01*
X368652Y195178D01*
X369112Y194585D01*
X370243Y193301D01*
X370915Y192610D01*
X366880Y189575D01*
X366189Y190247D01*
X364312Y191838D01*
X363752Y192227D01*
X363224Y192545D01*
X362729Y192792D01*
X362267Y192969D01*
X361838Y193075D01*
X361441Y193111D01*
X367379Y198050D01*
X367415Y197652D01*
D02*
G37*
G36*
X225721Y188894D02*
X226100Y188875D01*
X226026Y188792D01*
X225960Y188681D01*
X225901Y188542D01*
X225851Y188374D01*
X225807Y188179D01*
X225783Y188022D01*
X225868Y187509D01*
X225990Y187050D01*
X226147Y186662D01*
X226340Y186344D01*
X226567Y186097D01*
X226830Y185920D01*
X227127Y185814D01*
X227460Y185779D01*
X220460D01*
X220793Y185814D01*
X221090Y185920D01*
X221353Y186097D01*
X221580Y186344D01*
X221772Y186662D01*
X221930Y187050D01*
X222052Y187509D01*
X222140Y188039D01*
X222150Y188158D01*
X222134Y188399D01*
X222100Y188593D01*
X222061Y188759D01*
X222015Y188896D01*
X221963Y189005D01*
X221905Y189085D01*
X222204Y189070D01*
X222210Y189310D01*
X225710D01*
X225721Y188894D01*
D02*
G37*
G36*
X105980Y191566D02*
X105791Y191361D01*
X105622Y191146D01*
X105474Y190919D01*
X105345Y190682D01*
X105237Y190434D01*
X105149Y190175D01*
X105082Y189905D01*
X105034Y189624D01*
X105007Y189333D01*
X105000Y189030D01*
X102030Y192000D01*
X102333Y192007D01*
X102624Y192034D01*
X102905Y192082D01*
X103175Y192149D01*
X103434Y192237D01*
X103682Y192345D01*
X103919Y192474D01*
X104146Y192622D01*
X104361Y192791D01*
X104566Y192980D01*
X105980Y191566D01*
D02*
G37*
G36*
X19105Y194322D02*
X19345Y194119D01*
X19557Y193971D01*
X19741Y193875D01*
X19897Y193834D01*
X20024Y193846D01*
X20123Y193911D01*
X20194Y194030D01*
X20236Y194203D01*
X20250Y194429D01*
Y188921D01*
X20236Y189204D01*
X20194Y189487D01*
X20123Y189770D01*
X20024Y190053D01*
X19897Y190335D01*
X19741Y190618D01*
X19557Y190901D01*
X19345Y191184D01*
X19105Y191467D01*
X18836Y191749D01*
Y194578D01*
X19105Y194322D01*
D02*
G37*
G36*
X316770Y190841D02*
X316600Y190780D01*
X316450Y190678D01*
X316320Y190536D01*
X316210Y190353D01*
X316120Y190130D01*
X316050Y189866D01*
X316000Y189561D01*
X315970Y189216D01*
X315960Y188831D01*
X313960D01*
X313950Y189216D01*
X313920Y189561D01*
X313870Y189866D01*
X313800Y190130D01*
X313710Y190353D01*
X313600Y190536D01*
X313470Y190678D01*
X313320Y190780D01*
X313150Y190841D01*
X312960Y190861D01*
X316960D01*
X316770Y190841D01*
D02*
G37*
G36*
X307270D02*
X307100Y190780D01*
X306950Y190678D01*
X306820Y190536D01*
X306710Y190353D01*
X306620Y190130D01*
X306550Y189866D01*
X306500Y189561D01*
X306470Y189216D01*
X306460Y188831D01*
X304460D01*
X304450Y189216D01*
X304420Y189561D01*
X304370Y189866D01*
X304300Y190130D01*
X304210Y190353D01*
X304100Y190536D01*
X303970Y190678D01*
X303820Y190780D01*
X303650Y190841D01*
X303460Y190861D01*
X307460D01*
X307270Y190841D01*
D02*
G37*
G36*
X122650Y188312D02*
X123012Y188302D01*
X122941Y188219D01*
X122878Y188108D01*
X122822Y187969D01*
X122774Y187801D01*
X122733Y187606D01*
X122714Y187477D01*
X122750Y187064D01*
X122835Y186609D01*
X122945Y186224D01*
X123079Y185910D01*
X123238Y185665D01*
X123420Y185490D01*
X123628Y185385D01*
X123860Y185350D01*
X117921D01*
X118152Y185385D01*
X118359Y185490D01*
X118542Y185665D01*
X118701Y185910D01*
X118835Y186224D01*
X118945Y186609D01*
X119030Y187064D01*
X119077Y187468D01*
X119058Y187723D01*
X119023Y187918D01*
X118980Y188084D01*
X118931Y188223D01*
X118876Y188333D01*
X118814Y188414D01*
X119132Y188406D01*
X119140Y188850D01*
X122640D01*
X122650Y188312D01*
D02*
G37*
G36*
X171172Y190727D02*
X171031Y190542D01*
X170907Y190342D01*
X170799Y190127D01*
X170707Y189897D01*
X170633Y189652D01*
X170575Y189392D01*
X170573Y189381D01*
X170614Y189134D01*
X170703Y188804D01*
X170818Y188524D01*
X170957Y188296D01*
X171122Y188118D01*
X171313Y187991D01*
X171529Y187915D01*
X171770Y187889D01*
X166690D01*
X166931Y187915D01*
X167147Y187991D01*
X167338Y188118D01*
X167503Y188296D01*
X167642Y188524D01*
X167757Y188804D01*
X167846Y189134D01*
X167887Y189381D01*
X167885Y189392D01*
X167827Y189652D01*
X167752Y189897D01*
X167661Y190127D01*
X167553Y190342D01*
X167429Y190542D01*
X167288Y190727D01*
X167130Y190898D01*
X171330D01*
X171172Y190727D01*
D02*
G37*
G36*
X160908Y189939D02*
X160970Y189130D01*
X161025Y188801D01*
X161095Y188522D01*
X161181Y188294D01*
X161282Y188117D01*
X161399Y187991D01*
X161532Y187915D01*
X161681Y187889D01*
X156620D01*
X156768Y187915D01*
X156900Y187991D01*
X157017Y188117D01*
X157119Y188294D01*
X157205Y188522D01*
X157275Y188801D01*
X157330Y189130D01*
X157369Y189509D01*
X157400Y190420D01*
X160900D01*
X160908Y189939D01*
D02*
G37*
G36*
X399790Y188699D02*
X399820Y188360D01*
X399870Y188060D01*
X399940Y187799D01*
X400030Y187579D01*
X400140Y187400D01*
X400270Y187260D01*
X400420Y187160D01*
X400590Y187099D01*
X400780Y187080D01*
X396780D01*
X396970Y187099D01*
X397140Y187160D01*
X397290Y187260D01*
X397420Y187400D01*
X397530Y187579D01*
X397620Y187799D01*
X397690Y188060D01*
X397740Y188360D01*
X397770Y188699D01*
X397780Y189079D01*
X399780D01*
X399790Y188699D01*
D02*
G37*
G36*
X74134Y191092D02*
X74210Y190880D01*
X74337Y190693D01*
X74514Y190530D01*
X74742Y190392D01*
X75020Y190280D01*
X75349Y190193D01*
X75729Y190130D01*
X76159Y190093D01*
X76639Y190080D01*
Y187580D01*
X76159Y187568D01*
X75729Y187530D01*
X75349Y187467D01*
X75020Y187380D01*
X74742Y187267D01*
X74514Y187130D01*
X74337Y186968D01*
X74210Y186780D01*
X74134Y186567D01*
X74109Y186330D01*
Y191330D01*
X74134Y191092D01*
D02*
G37*
G36*
X197970Y187424D02*
X198000Y187078D01*
X198050Y186774D01*
X198120Y186510D01*
X198210Y186287D01*
X198320Y186104D01*
X198450Y185962D01*
X198600Y185860D01*
X198770Y185799D01*
X198960Y185779D01*
X194960D01*
X195150Y185799D01*
X195320Y185860D01*
X195470Y185962D01*
X195600Y186104D01*
X195710Y186287D01*
X195800Y186510D01*
X195870Y186774D01*
X195920Y187078D01*
X195950Y187424D01*
X195960Y187810D01*
X197960D01*
X197970Y187424D01*
D02*
G37*
G36*
X66231Y185330D02*
X66206Y185567D01*
X66130Y185780D01*
X66003Y185968D01*
X65826Y186130D01*
X65598Y186268D01*
X65320Y186380D01*
X64991Y186467D01*
X64612Y186530D01*
X64181Y186567D01*
X63700Y186580D01*
Y189080D01*
X64181Y189093D01*
X64612Y189130D01*
X64991Y189193D01*
X65320Y189280D01*
X65598Y189393D01*
X65826Y189530D01*
X66003Y189692D01*
X66130Y189880D01*
X66206Y190093D01*
X66231Y190330D01*
Y185330D01*
D02*
G37*
G36*
X60664Y190093D02*
X60740Y189880D01*
X60867Y189692D01*
X61044Y189530D01*
X61272Y189393D01*
X61550Y189280D01*
X61879Y189193D01*
X62259Y189130D01*
X62689Y189093D01*
X63169Y189080D01*
Y186580D01*
X62689Y186567D01*
X62259Y186530D01*
X61879Y186467D01*
X61550Y186380D01*
X61272Y186268D01*
X61044Y186130D01*
X60867Y185968D01*
X60740Y185780D01*
X60664Y185567D01*
X60639Y185330D01*
Y190330D01*
X60664Y190093D01*
D02*
G37*
G36*
X112153Y187369D02*
X112190Y186938D01*
X112253Y186559D01*
X112340Y186230D01*
X112452Y185952D01*
X112590Y185724D01*
X112753Y185547D01*
X112940Y185420D01*
X113153Y185344D01*
X113390Y185319D01*
X108390D01*
X108628Y185344D01*
X108840Y185420D01*
X109028Y185547D01*
X109190Y185724D01*
X109327Y185952D01*
X109440Y186230D01*
X109528Y186559D01*
X109590Y186938D01*
X109628Y187369D01*
X109640Y187850D01*
X112140D01*
X112153Y187369D01*
D02*
G37*
G36*
X26780Y185501D02*
X26610Y185440D01*
X26460Y185338D01*
X26330Y185196D01*
X26220Y185013D01*
X26130Y184790D01*
X26060Y184526D01*
X26010Y184221D01*
X25980Y183876D01*
X25970Y183491D01*
X23970D01*
X23960Y183876D01*
X23930Y184221D01*
X23880Y184526D01*
X23810Y184790D01*
X23720Y185013D01*
X23610Y185196D01*
X23480Y185338D01*
X23330Y185440D01*
X23160Y185501D01*
X22970Y185521D01*
X26970D01*
X26780Y185501D01*
D02*
G37*
G36*
X260890Y183004D02*
X260920Y182659D01*
X260970Y182354D01*
X261040Y182090D01*
X261130Y181867D01*
X261240Y181684D01*
X261370Y181542D01*
X261520Y181440D01*
X261690Y181379D01*
X261880Y181359D01*
X257880D01*
X258070Y181379D01*
X258240Y181440D01*
X258390Y181542D01*
X258520Y181684D01*
X258630Y181867D01*
X258720Y182090D01*
X258790Y182354D01*
X258840Y182659D01*
X258870Y183004D01*
X258880Y183389D01*
X260880D01*
X260890Y183004D01*
D02*
G37*
G36*
X107921Y180410D02*
X107895Y180642D01*
X107821Y180849D01*
X107696Y181032D01*
X107521Y181191D01*
X107296Y181325D01*
X107021Y181435D01*
X106695Y181520D01*
X106320Y181581D01*
X105896Y181618D01*
X105421Y181630D01*
Y184130D01*
X105896Y184142D01*
X106320Y184179D01*
X106695Y184240D01*
X107021Y184325D01*
X107296Y184435D01*
X107521Y184569D01*
X107696Y184728D01*
X107821Y184911D01*
X107895Y185118D01*
X107921Y185350D01*
Y180410D01*
D02*
G37*
G36*
X339431Y180220D02*
X339411Y180410D01*
X339350Y180580D01*
X339248Y180730D01*
X339106Y180860D01*
X338923Y180970D01*
X338700Y181060D01*
X338436Y181130D01*
X338131Y181180D01*
X337786Y181210D01*
X337401Y181220D01*
Y183220D01*
X337786Y183230D01*
X338131Y183260D01*
X338436Y183310D01*
X338700Y183380D01*
X338923Y183470D01*
X339106Y183580D01*
X339248Y183710D01*
X339350Y183860D01*
X339411Y184030D01*
X339431Y184220D01*
Y180220D01*
D02*
G37*
G36*
X161873Y182915D02*
X161652Y182810D01*
X161457Y182635D01*
X161288Y182390D01*
X161145Y182076D01*
X161028Y181691D01*
X160937Y181236D01*
X160890Y180857D01*
X160907Y180637D01*
X160946Y180442D01*
X160991Y180275D01*
X161044Y180136D01*
X161103Y180025D01*
X161170Y179942D01*
X160830D01*
X160820Y179450D01*
X157320D01*
X157312Y179942D01*
X156970D01*
X157037Y180025D01*
X157096Y180136D01*
X157149Y180275D01*
X157194Y180442D01*
X157233Y180637D01*
X157254Y180789D01*
X157217Y181236D01*
X157138Y181691D01*
X157035Y182076D01*
X156910Y182390D01*
X156762Y182635D01*
X156591Y182810D01*
X156397Y182915D01*
X156180Y182950D01*
X162120D01*
X161873Y182915D01*
D02*
G37*
G36*
X436891Y177639D02*
X436704Y177413D01*
X436539Y177181D01*
X436396Y176942D01*
X436275Y176697D01*
X436176Y176445D01*
X436099Y176187D01*
X436044Y175921D01*
X436011Y175650D01*
X436000Y175372D01*
X434000D01*
X433989Y175650D01*
X433956Y175921D01*
X433901Y176187D01*
X433824Y176445D01*
X433725Y176697D01*
X433604Y176942D01*
X433461Y177181D01*
X433296Y177413D01*
X433109Y177639D01*
X432900Y177858D01*
X437100D01*
X436891Y177639D01*
D02*
G37*
G36*
X178682Y176928D02*
X178950D01*
X178883Y176845D01*
X178824Y176734D01*
X178771Y176595D01*
X178726Y176428D01*
X178712Y176355D01*
X178780Y175030D01*
X178604Y175028D01*
X178600Y174833D01*
X175100D01*
X175098Y175009D01*
X173350Y174999D01*
X173682Y175036D01*
X173980Y175143D01*
X174242Y175321D01*
X174470Y175569D01*
X174662Y175887D01*
X174820Y176275D01*
X174915Y176630D01*
X174876Y176734D01*
X174816Y176845D01*
X174750Y176928D01*
X174975D01*
X175030Y177262D01*
X175082Y177861D01*
X175100Y178529D01*
X178600D01*
X178682Y176928D01*
D02*
G37*
G36*
X145201Y174110D02*
X145176Y174347D01*
X145100Y174560D01*
X144973Y174748D01*
X144796Y174910D01*
X144568Y175047D01*
X144290Y175160D01*
X143961Y175247D01*
X143581Y175310D01*
X143151Y175347D01*
X142670Y175360D01*
Y177860D01*
X143151Y177873D01*
X143581Y177910D01*
X143961Y177973D01*
X144290Y178060D01*
X144568Y178172D01*
X144796Y178310D01*
X144973Y178472D01*
X145100Y178660D01*
X145176Y178873D01*
X145201Y179110D01*
Y174110D01*
D02*
G37*
G36*
X258743Y175466D02*
X258615Y175423D01*
X258468Y175351D01*
X258303Y175250D01*
X258118Y175120D01*
X257692Y174773D01*
X257190Y174311D01*
X256910Y174036D01*
X255233Y175187D01*
X255283Y175243D01*
X255316Y175293D01*
X255333Y175337D01*
X255332Y175375D01*
X255314Y175408D01*
X255279Y175434D01*
X255227Y175455D01*
X255158Y175469D01*
X255072Y175478D01*
X254970Y175481D01*
X258852D01*
X258743Y175466D01*
D02*
G37*
G36*
X95891Y175639D02*
X95704Y175413D01*
X95539Y175181D01*
X95396Y174942D01*
X95275Y174697D01*
X95176Y174445D01*
X95099Y174187D01*
X95044Y173922D01*
X95011Y173650D01*
X95000Y173372D01*
X93000D01*
X92989Y173650D01*
X92956Y173922D01*
X92901Y174187D01*
X92824Y174445D01*
X92725Y174697D01*
X92604Y174942D01*
X92461Y175181D01*
X92296Y175413D01*
X92109Y175639D01*
X91900Y175858D01*
X96100D01*
X95891Y175639D01*
D02*
G37*
G36*
X161878Y176530D02*
X162090D01*
X162108Y175865D01*
X162160Y175270D01*
X162248Y174744D01*
X162370Y174289D01*
X162528Y173904D01*
X162720Y173589D01*
X162948Y173344D01*
X163210Y173169D01*
X163507Y173064D01*
X163840Y173029D01*
X156840D01*
X157172Y173064D01*
X157470Y173169D01*
X157732Y173344D01*
X157960Y173589D01*
X158153Y173904D01*
X158310Y174289D01*
X158393Y174598D01*
X158337Y174720D01*
X158260Y174835D01*
X158172Y174918D01*
X158074Y174970D01*
X158503Y175167D01*
X158520Y175270D01*
X158573Y175865D01*
X158590Y176530D01*
X161468D01*
X161866Y176712D01*
X161878Y176530D01*
D02*
G37*
G36*
X247939Y176290D02*
X248000Y176120D01*
X248102Y175970D01*
X248244Y175840D01*
X248427Y175730D01*
X248650Y175640D01*
X248914Y175570D01*
X249219Y175520D01*
X249564Y175490D01*
X249949Y175480D01*
Y173480D01*
X249564Y173470D01*
X249219Y173440D01*
X248914Y173390D01*
X248650Y173320D01*
X248427Y173230D01*
X248244Y173120D01*
X248102Y172990D01*
X248000Y172840D01*
X247939Y172670D01*
X247919Y172480D01*
Y176480D01*
X247939Y176290D01*
D02*
G37*
G36*
X323970Y173000D02*
X323667Y172993D01*
X323376Y172966D01*
X323095Y172918D01*
X322825Y172851D01*
X322566Y172763D01*
X322318Y172655D01*
X322081Y172526D01*
X321854Y172378D01*
X321639Y172209D01*
X321434Y172020D01*
X320020Y173434D01*
X320209Y173639D01*
X320378Y173854D01*
X320526Y174081D01*
X320655Y174318D01*
X320763Y174566D01*
X320851Y174825D01*
X320918Y175095D01*
X320966Y175376D01*
X320993Y175667D01*
X321000Y175970D01*
X323970Y173000D01*
D02*
G37*
G36*
X239041Y171340D02*
X239021Y171530D01*
X238960Y171700D01*
X238858Y171850D01*
X238716Y171980D01*
X238533Y172090D01*
X238310Y172180D01*
X238046Y172250D01*
X237741Y172300D01*
X237396Y172330D01*
X237010Y172340D01*
Y174340D01*
X237396Y174350D01*
X237741Y174380D01*
X238046Y174430D01*
X238310Y174500D01*
X238533Y174590D01*
X238716Y174700D01*
X238858Y174830D01*
X238960Y174980D01*
X239021Y175150D01*
X239041Y175340D01*
Y171340D01*
D02*
G37*
G36*
X229169Y175150D02*
X229230Y174980D01*
X229332Y174830D01*
X229474Y174700D01*
X229657Y174590D01*
X229880Y174500D01*
X230144Y174430D01*
X230448Y174380D01*
X230794Y174350D01*
X231180Y174340D01*
Y172340D01*
X230794Y172330D01*
X230448Y172300D01*
X230144Y172250D01*
X229880Y172180D01*
X229657Y172090D01*
X229474Y171980D01*
X229332Y171850D01*
X229230Y171700D01*
X229169Y171530D01*
X229149Y171340D01*
Y175340D01*
X229169Y175150D01*
D02*
G37*
G36*
X149878Y173615D02*
X149670Y173540D01*
X149488Y173416D01*
X149329Y173241D01*
X149195Y173015D01*
X149085Y172740D01*
X149000Y172416D01*
X148939Y172041D01*
X148902Y171616D01*
X148890Y171140D01*
X146390D01*
X146378Y171616D01*
X146341Y172041D01*
X146280Y172416D01*
X146195Y172740D01*
X146085Y173015D01*
X145951Y173241D01*
X145792Y173416D01*
X145610Y173540D01*
X145402Y173615D01*
X145170Y173640D01*
X150110D01*
X149878Y173615D01*
D02*
G37*
G36*
X339431Y170720D02*
X339411Y170910D01*
X339350Y171080D01*
X339248Y171230D01*
X339106Y171360D01*
X338923Y171470D01*
X338700Y171560D01*
X338436Y171630D01*
X338131Y171680D01*
X337786Y171710D01*
X337401Y171720D01*
Y173720D01*
X337786Y173730D01*
X338131Y173760D01*
X338436Y173810D01*
X338700Y173880D01*
X338923Y173970D01*
X339106Y174080D01*
X339248Y174210D01*
X339350Y174360D01*
X339411Y174530D01*
X339431Y174720D01*
Y170720D01*
D02*
G37*
G36*
X177069Y171114D02*
X177018Y171093D01*
X176936Y171038D01*
X176825Y170951D01*
X176513Y170677D01*
X175208Y169412D01*
X173412Y171208D01*
X175114Y173069D01*
X177069Y171114D01*
D02*
G37*
G36*
X294011Y170350D02*
X294044Y170079D01*
X294099Y169813D01*
X294176Y169555D01*
X294275Y169303D01*
X294396Y169058D01*
X294539Y168819D01*
X294704Y168587D01*
X294891Y168361D01*
X295100Y168142D01*
X290900D01*
X291109Y168361D01*
X291296Y168587D01*
X291461Y168819D01*
X291604Y169058D01*
X291725Y169303D01*
X291824Y169555D01*
X291901Y169813D01*
X291956Y170079D01*
X291989Y170350D01*
X292000Y170628D01*
X294000D01*
X294011Y170350D01*
D02*
G37*
G36*
X95010Y167984D02*
X95040Y167639D01*
X95090Y167334D01*
X95160Y167070D01*
X95250Y166847D01*
X95360Y166664D01*
X95490Y166522D01*
X95640Y166420D01*
X95810Y166359D01*
X96000Y166339D01*
X92000D01*
X92190Y166359D01*
X92360Y166420D01*
X92510Y166522D01*
X92640Y166664D01*
X92750Y166847D01*
X92840Y167070D01*
X92910Y167334D01*
X92960Y167639D01*
X92990Y167984D01*
X93000Y168370D01*
X95000D01*
X95010Y167984D01*
D02*
G37*
G36*
X69398Y169750D02*
X69810D01*
X69826Y169102D01*
X69875Y168522D01*
X69957Y168010D01*
X70071Y167567D01*
X70218Y167192D01*
X70397Y166885D01*
X70609Y166646D01*
X70854Y166476D01*
X71131Y166373D01*
X71441Y166339D01*
X64679D01*
X64989Y166373D01*
X65266Y166476D01*
X65511Y166646D01*
X65723Y166885D01*
X65902Y167192D01*
X66049Y167567D01*
X66163Y168010D01*
X66172Y168064D01*
X66142Y168161D01*
X66082Y168295D01*
X66012Y168395D01*
X65932Y168462D01*
X65844Y168495D01*
X66265Y168762D01*
X66294Y169102D01*
X66310Y169750D01*
X67823D01*
X69253Y170657D01*
X69398Y169750D01*
D02*
G37*
G36*
X51388Y168910D02*
X51600D01*
X51610Y168378D01*
X51692Y167481D01*
X51763Y167117D01*
X51855Y166809D01*
X51967Y166557D01*
X52100Y166361D01*
X52253Y166221D01*
X52427Y166137D01*
X52621Y166109D01*
X51571D01*
X51600Y165662D01*
X48100Y165419D01*
X48095Y165753D01*
X48069Y166109D01*
X47080D01*
X47273Y166137D01*
X47447Y166221D01*
X47600Y166361D01*
X47733Y166557D01*
X47845Y166809D01*
X47898Y166989D01*
X47847Y167100D01*
X47770Y167215D01*
X47682Y167298D01*
X47584Y167350D01*
X48016Y167549D01*
X48059Y167902D01*
X48090Y168378D01*
X48100Y168910D01*
X50979D01*
X51376Y169092D01*
X51388Y168910D01*
D02*
G37*
G36*
X124520Y166490D02*
X124550Y166150D01*
X124600Y165849D01*
X124670Y165590D01*
X124760Y165369D01*
X124870Y165189D01*
X125000Y165049D01*
X125150Y164949D01*
X125320Y164890D01*
X125510Y164869D01*
X121510D01*
X121700Y164890D01*
X121870Y164949D01*
X122020Y165049D01*
X122150Y165189D01*
X122260Y165369D01*
X122350Y165590D01*
X122420Y165849D01*
X122470Y166150D01*
X122500Y166490D01*
X122510Y166870D01*
X124510D01*
X124520Y166490D01*
D02*
G37*
G36*
X279690Y165961D02*
X279520Y165900D01*
X279370Y165798D01*
X279240Y165656D01*
X279130Y165473D01*
X279040Y165250D01*
X278970Y164986D01*
X278920Y164681D01*
X278890Y164336D01*
X278880Y163951D01*
X276880D01*
X276870Y164336D01*
X276840Y164681D01*
X276790Y164986D01*
X276720Y165250D01*
X276630Y165473D01*
X276520Y165656D01*
X276390Y165798D01*
X276240Y165900D01*
X276070Y165961D01*
X275880Y165981D01*
X279880D01*
X279690Y165961D01*
D02*
G37*
G36*
X38891Y164639D02*
X38704Y164413D01*
X38539Y164181D01*
X38396Y163942D01*
X38275Y163697D01*
X38176Y163445D01*
X38099Y163187D01*
X38044Y162922D01*
X38011Y162650D01*
X38000Y162372D01*
X36000D01*
X35989Y162650D01*
X35956Y162922D01*
X35901Y163187D01*
X35824Y163445D01*
X35725Y163697D01*
X35604Y163942D01*
X35461Y164181D01*
X35296Y164413D01*
X35109Y164639D01*
X34900Y164858D01*
X39100D01*
X38891Y164639D01*
D02*
G37*
G36*
X20891D02*
X20704Y164413D01*
X20539Y164181D01*
X20396Y163942D01*
X20275Y163697D01*
X20176Y163445D01*
X20099Y163187D01*
X20044Y162922D01*
X20011Y162650D01*
X20000Y162372D01*
X18000D01*
X17989Y162650D01*
X17956Y162922D01*
X17901Y163187D01*
X17824Y163445D01*
X17725Y163697D01*
X17604Y163942D01*
X17461Y164181D01*
X17296Y164413D01*
X17109Y164639D01*
X16900Y164858D01*
X21100D01*
X20891Y164639D01*
D02*
G37*
G36*
X386341Y161220D02*
X386321Y161410D01*
X386260Y161580D01*
X386158Y161730D01*
X386016Y161860D01*
X385833Y161970D01*
X385610Y162060D01*
X385346Y162130D01*
X385041Y162180D01*
X384696Y162210D01*
X384310Y162220D01*
Y164220D01*
X384696Y164230D01*
X385041Y164260D01*
X385346Y164310D01*
X385610Y164380D01*
X385833Y164470D01*
X386016Y164580D01*
X386158Y164710D01*
X386260Y164860D01*
X386321Y165030D01*
X386341Y165220D01*
Y161220D01*
D02*
G37*
G36*
X374360Y165030D02*
X374420Y164860D01*
X374520Y164710D01*
X374660Y164580D01*
X374840Y164470D01*
X375060Y164380D01*
X375320Y164310D01*
X375620Y164260D01*
X375960Y164230D01*
X376339Y164220D01*
Y162220D01*
X375960Y162210D01*
X375620Y162180D01*
X375320Y162130D01*
X375060Y162060D01*
X374840Y161970D01*
X374660Y161860D01*
X374520Y161730D01*
X374420Y161580D01*
X374360Y161410D01*
X374339Y161220D01*
Y165220D01*
X374360Y165030D01*
D02*
G37*
G36*
X414482Y163998D02*
X415293Y163306D01*
X415458Y163195D01*
X415609Y163109D01*
X415744Y163048D01*
X415864Y163011D01*
X415970Y163000D01*
X413000Y160030D01*
X412989Y160135D01*
X412952Y160256D01*
X412891Y160391D01*
X412805Y160542D01*
X412694Y160707D01*
X412559Y160888D01*
X412212Y161293D01*
X411767Y161758D01*
X414242Y164233D01*
X414482Y163998D01*
D02*
G37*
G36*
X103831Y158400D02*
X103811Y158590D01*
X103750Y158760D01*
X103648Y158910D01*
X103506Y159040D01*
X103323Y159150D01*
X103100Y159240D01*
X102836Y159310D01*
X102531Y159360D01*
X102186Y159390D01*
X101800Y159400D01*
Y161400D01*
X102186Y161410D01*
X102531Y161440D01*
X102836Y161490D01*
X103100Y161560D01*
X103323Y161650D01*
X103506Y161760D01*
X103648Y161890D01*
X103750Y162040D01*
X103811Y162210D01*
X103831Y162400D01*
Y158400D01*
D02*
G37*
G36*
X97019Y162210D02*
X97080Y162040D01*
X97182Y161890D01*
X97324Y161760D01*
X97507Y161650D01*
X97730Y161560D01*
X97994Y161490D01*
X98299Y161440D01*
X98644Y161410D01*
X99030Y161400D01*
Y159400D01*
X98644Y159390D01*
X98299Y159360D01*
X97994Y159310D01*
X97730Y159240D01*
X97507Y159150D01*
X97324Y159040D01*
X97182Y158910D01*
X97080Y158760D01*
X97019Y158590D01*
X96999Y158400D01*
Y162400D01*
X97019Y162210D01*
D02*
G37*
G36*
X347168Y160246D02*
X346870Y160140D01*
X346608Y159963D01*
X346380Y159716D01*
X346188Y159398D01*
X346030Y159010D01*
X345908Y158551D01*
X345822Y158034D01*
X345838Y157837D01*
X345876Y157642D01*
X345922Y157475D01*
X345974Y157336D01*
X346034Y157225D01*
X346100Y157142D01*
X345760D01*
X345750Y156750D01*
X342250D01*
X342240Y157142D01*
X341900D01*
X341967Y157225D01*
X342026Y157336D01*
X342079Y157475D01*
X342124Y157642D01*
X342163Y157837D01*
X342183Y157985D01*
X342180Y158021D01*
X342093Y158551D01*
X341970Y159010D01*
X341813Y159398D01*
X341620Y159716D01*
X341393Y159963D01*
X341130Y160140D01*
X340832Y160246D01*
X340500Y160281D01*
X347500D01*
X347168Y160246D01*
D02*
G37*
G36*
X201348Y160852D02*
X200951Y160707D01*
X200602Y160464D01*
X200299Y160123D01*
X200043Y159686D01*
X199833Y159151D01*
X199670Y158519D01*
X199553Y157790D01*
X199483Y156964D01*
X199460Y156040D01*
X194460D01*
X194437Y156964D01*
X194367Y157790D01*
X194250Y158519D01*
X194087Y159151D01*
X193877Y159686D01*
X193621Y160123D01*
X193318Y160464D01*
X192969Y160707D01*
X192572Y160852D01*
X192129Y160901D01*
X201791D01*
X201348Y160852D01*
D02*
G37*
G36*
X227127Y160866D02*
X226830Y160760D01*
X226567Y160583D01*
X226340Y160336D01*
X226147Y160018D01*
X225990Y159630D01*
X225868Y159171D01*
X225780Y158641D01*
X225728Y158041D01*
X225710Y157371D01*
X225656D01*
X225588Y155493D01*
X221692Y157062D01*
X221790Y157120D01*
X221878Y157209D01*
X221956Y157328D01*
X222023Y157479D01*
X222080Y157659D01*
X222127Y157871D01*
X222163Y158113D01*
X222175Y158238D01*
X222140Y158641D01*
X222052Y159171D01*
X221930Y159630D01*
X221772Y160018D01*
X221580Y160336D01*
X221353Y160583D01*
X221090Y160760D01*
X220793Y160866D01*
X220460Y160901D01*
X227460D01*
X227127Y160866D01*
D02*
G37*
G36*
X169871Y152310D02*
X169846Y152548D01*
X169770Y152760D01*
X169643Y152948D01*
X169466Y153110D01*
X169238Y153247D01*
X168960Y153360D01*
X168631Y153448D01*
X168251Y153510D01*
X167821Y153547D01*
X167341Y153560D01*
Y156060D01*
X167821Y156073D01*
X168251Y156110D01*
X168631Y156173D01*
X168960Y156260D01*
X169238Y156372D01*
X169466Y156510D01*
X169643Y156672D01*
X169770Y156860D01*
X169846Y157072D01*
X169871Y157310D01*
Y152310D01*
D02*
G37*
G36*
X164304Y157072D02*
X164380Y156860D01*
X164507Y156672D01*
X164684Y156510D01*
X164912Y156372D01*
X165190Y156260D01*
X165519Y156173D01*
X165898Y156110D01*
X166329Y156073D01*
X166810Y156060D01*
Y153560D01*
X166329Y153547D01*
X165898Y153510D01*
X165519Y153448D01*
X165190Y153360D01*
X164912Y153247D01*
X164684Y153110D01*
X164507Y152948D01*
X164380Y152760D01*
X164304Y152548D01*
X164279Y152310D01*
Y157310D01*
X164304Y157072D01*
D02*
G37*
G36*
X222810Y151290D02*
X222705Y151279D01*
X222584Y151242D01*
X222449Y151181D01*
X222298Y151095D01*
X222133Y150984D01*
X221952Y150849D01*
X221547Y150502D01*
X221082Y150057D01*
X219634Y151505D01*
X220584Y149559D01*
X220114Y149073D01*
X219322Y148152D01*
X219000Y147717D01*
X218728Y147300D01*
X218505Y146899D01*
X218332Y146516D01*
X218209Y146151D01*
X218134Y145802D01*
X218109Y145471D01*
X214010Y150379D01*
X214259Y150164D01*
X214564Y150053D01*
X214923Y150045D01*
X215336Y150140D01*
X215803Y150339D01*
X216326Y150642D01*
X216902Y151047D01*
X217534Y151556D01*
X218855Y152787D01*
X219534Y153583D01*
X219645Y153748D01*
X219731Y153899D01*
X219792Y154034D01*
X219829Y154155D01*
X219840Y154260D01*
X222810Y151290D01*
D02*
G37*
G36*
X203361Y153273D02*
X205238Y151682D01*
X205798Y151293D01*
X206326Y150975D01*
X206821Y150728D01*
X207283Y150551D01*
X207712Y150445D01*
X208109Y150409D01*
X202171Y145471D01*
X202135Y145868D01*
X202029Y146297D01*
X201852Y146759D01*
X201605Y147254D01*
X201287Y147782D01*
X200898Y148342D01*
X200438Y148935D01*
X199307Y150219D01*
X198635Y150910D01*
X202670Y153945D01*
X203361Y153273D01*
D02*
G37*
G36*
X269980Y145566D02*
X269791Y145361D01*
X269622Y145146D01*
X269474Y144919D01*
X269345Y144682D01*
X269237Y144434D01*
X269149Y144175D01*
X269082Y143905D01*
X269034Y143624D01*
X269007Y143333D01*
X269000Y143030D01*
X266030Y146000D01*
X266333Y146007D01*
X266624Y146034D01*
X266905Y146082D01*
X267175Y146149D01*
X267434Y146237D01*
X267682Y146345D01*
X267919Y146474D01*
X268146Y146622D01*
X268361Y146791D01*
X268566Y146980D01*
X269980Y145566D01*
D02*
G37*
G36*
X61121Y142400D02*
X61101Y142590D01*
X61040Y142760D01*
X60938Y142910D01*
X60796Y143040D01*
X60613Y143150D01*
X60390Y143240D01*
X60126Y143310D01*
X59821Y143360D01*
X59476Y143390D01*
X59090Y143400D01*
Y145400D01*
X59476Y145410D01*
X59821Y145440D01*
X60126Y145490D01*
X60390Y145560D01*
X60613Y145650D01*
X60796Y145760D01*
X60938Y145890D01*
X61040Y146040D01*
X61101Y146210D01*
X61121Y146400D01*
Y142400D01*
D02*
G37*
G36*
X54309Y146210D02*
X54370Y146040D01*
X54472Y145890D01*
X54614Y145760D01*
X54797Y145650D01*
X55020Y145560D01*
X55284Y145490D01*
X55588Y145440D01*
X55934Y145410D01*
X56319Y145400D01*
Y143400D01*
X55934Y143390D01*
X55588Y143360D01*
X55284Y143310D01*
X55020Y143240D01*
X54797Y143150D01*
X54614Y143040D01*
X54472Y142910D01*
X54370Y142760D01*
X54309Y142590D01*
X54289Y142400D01*
Y146400D01*
X54309Y146210D01*
D02*
G37*
G36*
X51660Y141180D02*
X51490Y141121D01*
X51340Y141020D01*
X51210Y140880D01*
X51100Y140701D01*
X51010Y140480D01*
X50940Y140220D01*
X50890Y139921D01*
X50860Y139580D01*
X50859Y139547D01*
X50861Y139500D01*
X50894Y139228D01*
X50949Y138963D01*
X51026Y138705D01*
X51125Y138453D01*
X51246Y138208D01*
X51389Y137969D01*
X51554Y137737D01*
X51741Y137511D01*
X51950Y137292D01*
X47750D01*
X47959Y137511D01*
X48146Y137737D01*
X48311Y137969D01*
X48454Y138208D01*
X48575Y138453D01*
X48674Y138705D01*
X48751Y138963D01*
X48806Y139228D01*
X48839Y139500D01*
X48841Y139547D01*
X48840Y139580D01*
X48810Y139921D01*
X48760Y140220D01*
X48690Y140480D01*
X48600Y140701D01*
X48490Y140880D01*
X48360Y141020D01*
X48210Y141121D01*
X48040Y141180D01*
X47850Y141201D01*
X51850D01*
X51660Y141180D01*
D02*
G37*
G36*
X125262Y139961D02*
X127010D01*
X126678Y139926D01*
X126380Y139820D01*
X126117Y139643D01*
X125890Y139396D01*
X125697Y139078D01*
X125540Y138690D01*
X125444Y138331D01*
X125484Y138226D01*
X125543Y138115D01*
X125610Y138032D01*
X125385D01*
X125330Y137702D01*
X125278Y137101D01*
X125260Y136431D01*
X121760D01*
X121742Y137101D01*
X121690Y137702D01*
X121635Y138032D01*
X121410D01*
X121476Y138115D01*
X121536Y138226D01*
X121576Y138331D01*
X121480Y138690D01*
X121322Y139078D01*
X121130Y139396D01*
X120903Y139643D01*
X120640Y139820D01*
X120343Y139926D01*
X120010Y139961D01*
X121756D01*
X121760Y140127D01*
X125260D01*
X125262Y139961D01*
D02*
G37*
G36*
X110022D02*
X111770D01*
X111438Y139926D01*
X111140Y139820D01*
X110878Y139643D01*
X110650Y139396D01*
X110457Y139078D01*
X110300Y138690D01*
X110204Y138331D01*
X110244Y138226D01*
X110303Y138115D01*
X110370Y138032D01*
X110145D01*
X110090Y137702D01*
X110037Y137101D01*
X110020Y136431D01*
X106520D01*
X106503Y137101D01*
X106450Y137702D01*
X106395Y138032D01*
X106170D01*
X106236Y138115D01*
X106296Y138226D01*
X106336Y138331D01*
X106240Y138690D01*
X106082Y139078D01*
X105890Y139396D01*
X105662Y139643D01*
X105400Y139820D01*
X105103Y139926D01*
X104770Y139961D01*
X106516D01*
X106520Y140127D01*
X110020D01*
X110022Y139961D01*
D02*
G37*
G36*
X94928Y138396D02*
X94630Y138291D01*
X94368Y138116D01*
X94140Y137871D01*
X93947Y137556D01*
X93790Y137170D01*
X93667Y136715D01*
X93592Y136261D01*
X93597Y136187D01*
X93636Y135992D01*
X93681Y135825D01*
X93734Y135686D01*
X93793Y135575D01*
X93860Y135492D01*
X93525D01*
X93510Y134930D01*
X90010D01*
X89995Y135492D01*
X89660D01*
X89726Y135575D01*
X89786Y135686D01*
X89838Y135825D01*
X89884Y135992D01*
X89923Y136187D01*
X89931Y136246D01*
X89853Y136715D01*
X89730Y137170D01*
X89572Y137556D01*
X89380Y137871D01*
X89152Y138116D01*
X88890Y138291D01*
X88593Y138396D01*
X88260Y138431D01*
X95260D01*
X94928Y138396D01*
D02*
G37*
G36*
X190891Y134639D02*
X190704Y134413D01*
X190539Y134181D01*
X190396Y133942D01*
X190275Y133697D01*
X190176Y133445D01*
X190099Y133187D01*
X190044Y132921D01*
X190011Y132650D01*
X190000Y132372D01*
X188000D01*
X187989Y132650D01*
X187956Y132921D01*
X187901Y133187D01*
X187824Y133445D01*
X187725Y133697D01*
X187604Y133942D01*
X187461Y134181D01*
X187296Y134413D01*
X187109Y134639D01*
X186900Y134858D01*
X191100D01*
X190891Y134639D01*
D02*
G37*
G36*
X256220Y131960D02*
X256280Y131790D01*
X256380Y131640D01*
X256520Y131510D01*
X256700Y131400D01*
X256919Y131310D01*
X257180Y131240D01*
X257479Y131190D01*
X257819Y131160D01*
X258200Y131150D01*
Y129150D01*
X257819Y129140D01*
X257479Y129110D01*
X257180Y129060D01*
X256919Y128990D01*
X256700Y128900D01*
X256520Y128790D01*
X256380Y128660D01*
X256280Y128510D01*
X256220Y128340D01*
X256199Y128150D01*
Y132150D01*
X256220Y131960D01*
D02*
G37*
G36*
X344401Y130129D02*
X344214Y129903D01*
X344049Y129671D01*
X343906Y129432D01*
X343785Y129187D01*
X343686Y128935D01*
X343609Y128677D01*
X343554Y128412D01*
X343521Y128140D01*
X343510Y127862D01*
X341510D01*
X341499Y128140D01*
X341466Y128412D01*
X341411Y128677D01*
X341334Y128935D01*
X341235Y129187D01*
X341114Y129432D01*
X340971Y129671D01*
X340806Y129903D01*
X340619Y130129D01*
X340410Y130348D01*
X344610D01*
X344401Y130129D01*
D02*
G37*
G36*
X265564Y131150D02*
X265296Y130861D01*
X265055Y130561D01*
X264843Y130249D01*
X264659Y129925D01*
X264503Y129589D01*
X264376Y129242D01*
X264277Y128883D01*
X264207Y128512D01*
X264164Y128130D01*
X264150Y127736D01*
X262150Y127150D01*
X262130Y127530D01*
X262070Y127870D01*
X261970Y128170D01*
X261830Y128430D01*
X261650Y128650D01*
X261430Y128830D01*
X261170Y128970D01*
X260870Y129070D01*
X260530Y129130D01*
X260150Y129150D01*
X260736Y131150D01*
X261130Y131164D01*
X261512Y131207D01*
X261883Y131277D01*
X262242Y131376D01*
X262589Y131503D01*
X262925Y131659D01*
X263249Y131843D01*
X263561Y132055D01*
X263861Y132296D01*
X264150Y132564D01*
X265564Y131150D01*
D02*
G37*
G36*
X220380Y125764D02*
X220410Y125419D01*
X220460Y125114D01*
X220530Y124850D01*
X220620Y124627D01*
X220730Y124444D01*
X220860Y124302D01*
X221010Y124200D01*
X221180Y124139D01*
X221370Y124119D01*
X217370D01*
X217560Y124139D01*
X217730Y124200D01*
X217880Y124302D01*
X218010Y124444D01*
X218120Y124627D01*
X218210Y124850D01*
X218280Y125114D01*
X218330Y125419D01*
X218360Y125764D01*
X218370Y126150D01*
X220370D01*
X220380Y125764D01*
D02*
G37*
G36*
X210880D02*
X210910Y125419D01*
X210960Y125114D01*
X211030Y124850D01*
X211120Y124627D01*
X211230Y124444D01*
X211360Y124302D01*
X211510Y124200D01*
X211680Y124139D01*
X211870Y124119D01*
X207870D01*
X208060Y124139D01*
X208230Y124200D01*
X208380Y124302D01*
X208510Y124444D01*
X208620Y124627D01*
X208710Y124850D01*
X208780Y125114D01*
X208830Y125419D01*
X208860Y125764D01*
X208870Y126150D01*
X210870D01*
X210880Y125764D01*
D02*
G37*
G36*
X202132Y126693D02*
X202230Y125688D01*
X202315Y125280D01*
X202425Y124935D01*
X202559Y124652D01*
X202718Y124432D01*
X202901Y124275D01*
X203108Y124181D01*
X203340Y124150D01*
X199844D01*
X198620Y123570D01*
X198615Y123904D01*
X198597Y124150D01*
X197400D01*
X197632Y124181D01*
X197840Y124275D01*
X198022Y124432D01*
X198181Y124652D01*
X198315Y124935D01*
X198400Y125203D01*
X198368Y125278D01*
X198291Y125401D01*
X198203Y125495D01*
X198105Y125559D01*
X198512Y125700D01*
X198571Y126159D01*
X198608Y126693D01*
X198620Y127290D01*
X202120D01*
X202132Y126693D01*
D02*
G37*
G36*
X324011Y125350D02*
X324044Y125078D01*
X324099Y124813D01*
X324176Y124555D01*
X324275Y124303D01*
X324396Y124058D01*
X324539Y123819D01*
X324704Y123587D01*
X324891Y123361D01*
X325100Y123142D01*
X320900D01*
X321109Y123361D01*
X321296Y123587D01*
X321461Y123819D01*
X321604Y124058D01*
X321725Y124303D01*
X321824Y124555D01*
X321901Y124813D01*
X321956Y125078D01*
X321989Y125350D01*
X322000Y125628D01*
X324000D01*
X324011Y125350D01*
D02*
G37*
G36*
X406440Y122704D02*
X406470Y122359D01*
X406520Y122054D01*
X406590Y121790D01*
X406680Y121567D01*
X406790Y121384D01*
X406920Y121242D01*
X407070Y121140D01*
X407240Y121079D01*
X407430Y121059D01*
X403430D01*
X403620Y121079D01*
X403790Y121140D01*
X403940Y121242D01*
X404070Y121384D01*
X404180Y121567D01*
X404270Y121790D01*
X404340Y122054D01*
X404390Y122359D01*
X404420Y122704D01*
X404430Y123090D01*
X406430D01*
X406440Y122704D01*
D02*
G37*
G36*
X435233Y122758D02*
X434998Y122518D01*
X434306Y121707D01*
X434195Y121542D01*
X434109Y121391D01*
X434048Y121256D01*
X434011Y121136D01*
X434000Y121030D01*
X431030Y124000D01*
X431135Y124011D01*
X431256Y124048D01*
X431391Y124109D01*
X431542Y124195D01*
X431707Y124306D01*
X431888Y124441D01*
X432293Y124788D01*
X432758Y125233D01*
X435233Y122758D01*
D02*
G37*
G36*
X428605Y127850D02*
X428455Y127584D01*
X428419Y127253D01*
X428498Y126856D01*
X428692Y126394D01*
X428999Y125866D01*
X429422Y125273D01*
X429958Y124614D01*
X430065Y124500D01*
X430293Y124306D01*
X430458Y124195D01*
X430609Y124109D01*
X430744Y124048D01*
X430864Y124011D01*
X430970Y124000D01*
X430744Y123774D01*
X431374Y123101D01*
X429682Y122711D01*
X428000Y121030D01*
X427989Y121136D01*
X427952Y121256D01*
X427891Y121391D01*
X427805Y121542D01*
X427694Y121707D01*
X427559Y121888D01*
X427212Y122293D01*
X427034Y122480D01*
X426698Y122802D01*
X425500Y123805D01*
X424953Y124181D01*
X424441Y124473D01*
X423963Y124682D01*
X423520Y124807D01*
X423112Y124849D01*
X422739Y124807D01*
X422400Y124681D01*
X428869Y128050D01*
X428605Y127850D01*
D02*
G37*
G36*
X343520Y122044D02*
X343550Y121699D01*
X343600Y121394D01*
X343670Y121130D01*
X343760Y120907D01*
X343870Y120724D01*
X344000Y120582D01*
X344150Y120480D01*
X344320Y120419D01*
X344510Y120399D01*
X340510D01*
X340700Y120419D01*
X340870Y120480D01*
X341020Y120582D01*
X341150Y120724D01*
X341260Y120907D01*
X341350Y121130D01*
X341420Y121394D01*
X341470Y121699D01*
X341500Y122044D01*
X341510Y122430D01*
X343510D01*
X343520Y122044D01*
D02*
G37*
G36*
X370921Y123490D02*
X371260D01*
X371273Y122903D01*
X371312Y122377D01*
X371378Y121914D01*
X371470Y121512D01*
X371588Y121172D01*
X371732Y120894D01*
X371902Y120677D01*
X372099Y120523D01*
X372322Y120430D01*
X372570Y120399D01*
X369425D01*
X367760Y120210D01*
X367757Y120399D01*
X366450D01*
X366698Y120430D01*
X366921Y120523D01*
X367118Y120677D01*
X367288Y120894D01*
X367432Y121172D01*
X367550Y121512D01*
X367592Y121696D01*
X367581Y121730D01*
X367517Y121870D01*
X367442Y121976D01*
X367358Y122050D01*
X367264Y122092D01*
X367701Y122333D01*
X367708Y122377D01*
X367747Y122903D01*
X367760Y123490D01*
X369798D01*
X370853Y124072D01*
X370921Y123490D01*
D02*
G37*
G36*
X245791Y118650D02*
X245771Y118840D01*
X245710Y119010D01*
X245608Y119160D01*
X245466Y119290D01*
X245283Y119400D01*
X245060Y119490D01*
X244796Y119560D01*
X244491Y119610D01*
X244146Y119640D01*
X243761Y119650D01*
Y121650D01*
X244146Y121660D01*
X244491Y121690D01*
X244796Y121740D01*
X245060Y121810D01*
X245283Y121900D01*
X245466Y122010D01*
X245608Y122140D01*
X245710Y122290D01*
X245771Y122460D01*
X245791Y122650D01*
Y118650D01*
D02*
G37*
G36*
X222329Y122460D02*
X222390Y122290D01*
X222492Y122140D01*
X222634Y122010D01*
X222817Y121900D01*
X223040Y121810D01*
X223304Y121740D01*
X223608Y121690D01*
X223954Y121660D01*
X224340Y121650D01*
Y119650D01*
X223954Y119640D01*
X223608Y119610D01*
X223304Y119560D01*
X223040Y119490D01*
X222817Y119400D01*
X222634Y119290D01*
X222492Y119160D01*
X222390Y119010D01*
X222329Y118840D01*
X222309Y118650D01*
Y122650D01*
X222329Y122460D01*
D02*
G37*
G36*
X45620Y119414D02*
X45650Y119068D01*
X45700Y118764D01*
X45770Y118500D01*
X45860Y118277D01*
X45970Y118094D01*
X46100Y117952D01*
X46250Y117850D01*
X46420Y117789D01*
X46610Y117769D01*
X42610D01*
X42800Y117789D01*
X42970Y117850D01*
X43120Y117952D01*
X43250Y118094D01*
X43360Y118277D01*
X43450Y118500D01*
X43520Y118764D01*
X43570Y119068D01*
X43600Y119414D01*
X43610Y119799D01*
X45610D01*
X45620Y119414D01*
D02*
G37*
G36*
X25677Y118483D02*
X25558Y118353D01*
X25475Y118237D01*
X25426Y118134D01*
X25413Y118046D01*
X25436Y117970D01*
X25494Y117909D01*
X25587Y117861D01*
X25716Y117827D01*
X25880Y117806D01*
X26079Y117800D01*
X20799Y117769D01*
X21068Y117785D01*
X21340Y117829D01*
X21613Y117902D01*
X21889Y118004D01*
X22166Y118134D01*
X22445Y118293D01*
X22726Y118480D01*
X23008Y118696D01*
X23293Y118941D01*
X23579Y119214D01*
X25677Y118483D01*
D02*
G37*
G36*
X399961Y116120D02*
X399940Y116310D01*
X399880Y116480D01*
X399781Y116630D01*
X399641Y116760D01*
X399460Y116870D01*
X399240Y116960D01*
X398980Y117030D01*
X398680Y117080D01*
X398340Y117110D01*
X397961Y117120D01*
Y119120D01*
X398340Y119130D01*
X398680Y119160D01*
X398980Y119210D01*
X399240Y119280D01*
X399460Y119370D01*
X399641Y119480D01*
X399781Y119610D01*
X399880Y119760D01*
X399940Y119930D01*
X399961Y120120D01*
Y116120D01*
D02*
G37*
G36*
X393489Y119930D02*
X393550Y119760D01*
X393652Y119610D01*
X393794Y119480D01*
X393977Y119370D01*
X394200Y119280D01*
X394464Y119210D01*
X394769Y119160D01*
X395114Y119130D01*
X395499Y119120D01*
Y117120D01*
X395114Y117110D01*
X394769Y117080D01*
X394464Y117030D01*
X394200Y116960D01*
X393977Y116870D01*
X393794Y116760D01*
X393652Y116630D01*
X393550Y116480D01*
X393489Y116310D01*
X393469Y116120D01*
Y120120D01*
X393489Y119930D01*
D02*
G37*
G36*
X310760Y117084D02*
X310790Y116739D01*
X310840Y116434D01*
X310910Y116170D01*
X311000Y115947D01*
X311110Y115764D01*
X311240Y115622D01*
X311390Y115520D01*
X311560Y115459D01*
X311750Y115439D01*
X307750D01*
X307940Y115459D01*
X308110Y115520D01*
X308260Y115622D01*
X308390Y115764D01*
X308500Y115947D01*
X308590Y116170D01*
X308660Y116434D01*
X308710Y116739D01*
X308740Y117084D01*
X308750Y117470D01*
X310750D01*
X310760Y117084D01*
D02*
G37*
G36*
X384591Y113732D02*
X384576Y113992D01*
X384533Y114194D01*
X384461Y114339D01*
X384360Y114425D01*
X384230Y114454D01*
X384071Y114425D01*
X383883Y114339D01*
X383666Y114194D01*
X383421Y113992D01*
X383146Y113732D01*
X382439Y115853D01*
X382848Y116276D01*
X383537Y117075D01*
X383816Y117452D01*
X384053Y117813D01*
X384247Y118159D01*
X384397Y118490D01*
X384505Y118805D01*
X384570Y119104D01*
X384591Y119389D01*
Y113732D01*
D02*
G37*
G36*
X50069Y116640D02*
X50130Y116470D01*
X50232Y116320D01*
X50374Y116190D01*
X50557Y116080D01*
X50780Y115990D01*
X51044Y115920D01*
X51349Y115870D01*
X51694Y115840D01*
X52080Y115830D01*
Y113830D01*
X51694Y113820D01*
X51349Y113790D01*
X51044Y113740D01*
X50780Y113670D01*
X50557Y113580D01*
X50374Y113470D01*
X50232Y113340D01*
X50130Y113190D01*
X50069Y113020D01*
X50049Y112830D01*
Y116830D01*
X50069Y116640D01*
D02*
G37*
G36*
X102530Y106470D02*
X102480Y106666D01*
X102331Y106841D01*
X102080Y106995D01*
X101730Y107129D01*
X101280Y107243D01*
X100730Y107335D01*
X100080Y107407D01*
X99223Y107451D01*
X97529Y107335D01*
X96980Y107243D01*
X96530Y107129D01*
X96180Y106995D01*
X95929Y106841D01*
X95779Y106666D01*
X95730Y106470D01*
Y113910D01*
X95779Y113642D01*
X95929Y113402D01*
X96180Y113191D01*
X96530Y113007D01*
X96980Y112852D01*
X97529Y112725D01*
X98180Y112627D01*
X98887Y112560D01*
X99339Y112600D01*
X100092Y112725D01*
X100746Y112900D01*
X101299Y113125D01*
X101752Y113400D01*
X102105Y113725D01*
X102357Y114100D01*
X102509Y114525D01*
X102561Y115000D01*
X102530Y106470D01*
D02*
G37*
G36*
X136977Y113231D02*
X136998Y112972D01*
X137034Y112744D01*
X137084Y112547D01*
X137147Y112380D01*
X137225Y112243D01*
X137318Y112136D01*
X137424Y112060D01*
X137545Y112015D01*
X137680Y112000D01*
X134740D01*
X134875Y112015D01*
X134996Y112060D01*
X135102Y112136D01*
X135195Y112243D01*
X135273Y112380D01*
X135337Y112547D01*
X135386Y112744D01*
X135422Y112972D01*
X135443Y113231D01*
X135450Y113519D01*
X136970D01*
X136977Y113231D01*
D02*
G37*
G36*
X126977D02*
X126998Y112972D01*
X127034Y112744D01*
X127084Y112547D01*
X127147Y112380D01*
X127225Y112243D01*
X127318Y112136D01*
X127424Y112060D01*
X127545Y112015D01*
X127680Y112000D01*
X124740D01*
X124875Y112015D01*
X124996Y112060D01*
X125102Y112136D01*
X125195Y112243D01*
X125273Y112380D01*
X125337Y112547D01*
X125386Y112744D01*
X125422Y112972D01*
X125443Y113231D01*
X125450Y113519D01*
X126970D01*
X126977Y113231D01*
D02*
G37*
G36*
X132462Y114024D02*
X132464Y113998D01*
X133310D01*
X133148Y113824D01*
X133004Y113636D01*
X132877Y113433D01*
X132766Y113216D01*
X132673Y112985D01*
X132596Y112739D01*
X132549Y112535D01*
X132568Y112225D01*
X132600Y112100D01*
X132638Y112024D01*
X132680Y112000D01*
X132476D01*
X132469Y111916D01*
X132460Y111613D01*
X129960D01*
X129951Y111916D01*
X129944Y112000D01*
X129740D01*
X129782Y112024D01*
X129819Y112100D01*
X129852Y112225D01*
X129881Y112400D01*
X129887Y112456D01*
X129883Y112479D01*
X129824Y112739D01*
X129747Y112985D01*
X129654Y113216D01*
X129544Y113433D01*
X129416Y113636D01*
X129271Y113824D01*
X129110Y113998D01*
X129955D01*
X129960Y114500D01*
X132460D01*
X132462Y114024D01*
D02*
G37*
G36*
X211680Y113190D02*
X211510Y113131D01*
X211360Y113031D01*
X211230Y112891D01*
X211120Y112711D01*
X211030Y112491D01*
X210960Y112231D01*
X210910Y111931D01*
X210880Y111590D01*
X210879Y111539D01*
X210881Y111480D01*
X210914Y111208D01*
X210969Y110943D01*
X211046Y110685D01*
X211145Y110433D01*
X211266Y110188D01*
X211409Y109949D01*
X211574Y109717D01*
X211761Y109491D01*
X211970Y109272D01*
X207770D01*
X207979Y109491D01*
X208166Y109717D01*
X208331Y109949D01*
X208474Y110188D01*
X208595Y110433D01*
X208694Y110685D01*
X208771Y110943D01*
X208826Y111208D01*
X208859Y111480D01*
X208861Y111539D01*
X208860Y111590D01*
X208830Y111931D01*
X208780Y112231D01*
X208710Y112491D01*
X208620Y112711D01*
X208510Y112891D01*
X208380Y113031D01*
X208230Y113131D01*
X208060Y113190D01*
X207870Y113210D01*
X211870D01*
X211680Y113190D01*
D02*
G37*
G36*
X289561Y109000D02*
X289541Y109190D01*
X289480Y109360D01*
X289378Y109510D01*
X289236Y109640D01*
X289053Y109750D01*
X288830Y109840D01*
X288566Y109910D01*
X288262Y109960D01*
X287916Y109990D01*
X287530Y110000D01*
Y112000D01*
X287916Y112010D01*
X288262Y112040D01*
X288566Y112090D01*
X288830Y112160D01*
X289053Y112250D01*
X289236Y112360D01*
X289378Y112490D01*
X289480Y112640D01*
X289541Y112810D01*
X289561Y113000D01*
Y109000D01*
D02*
G37*
G36*
X283220Y112810D02*
X283279Y112640D01*
X283379Y112490D01*
X283519Y112360D01*
X283699Y112250D01*
X283920Y112160D01*
X284179Y112090D01*
X284480Y112040D01*
X284820Y112010D01*
X285200Y112000D01*
Y110000D01*
X284820Y109990D01*
X284480Y109960D01*
X284179Y109910D01*
X283920Y109840D01*
X283699Y109750D01*
X283519Y109640D01*
X283379Y109510D01*
X283279Y109360D01*
X283220Y109190D01*
X283200Y109000D01*
Y113000D01*
X283220Y112810D01*
D02*
G37*
G36*
X56746Y113022D02*
X57514Y112364D01*
X57848Y112128D01*
X58148Y111952D01*
X58414Y111839D01*
X58646Y111787D01*
X58844Y111796D01*
X59008Y111867D01*
X59139Y111999D01*
X56841Y108701D01*
X56929Y108876D01*
X56965Y109075D01*
X56950Y109298D01*
X56883Y109545D01*
X56764Y109816D01*
X56594Y110111D01*
X56372Y110430D01*
X56098Y110772D01*
X55396Y111530D01*
X56311Y113444D01*
X56746Y113022D01*
D02*
G37*
G36*
X234487Y112113D02*
X234564Y111106D01*
X234727Y111124D01*
X234680Y111049D01*
X234638Y110945D01*
X234601Y110812D01*
X234590Y110760D01*
X234595Y110700D01*
X234660Y110355D01*
X234739Y110072D01*
X234833Y109852D01*
X234940Y109695D01*
X235063Y109601D01*
X235200Y109570D01*
X234492D01*
X234480Y109059D01*
X230980Y108593D01*
X230976Y108927D01*
X230926Y109570D01*
X230261D01*
X230397Y109601D01*
X230520Y109695D01*
X230627Y109852D01*
X230721Y110072D01*
X230785Y110300D01*
X230770Y110346D01*
X230705Y110484D01*
X230632Y110594D01*
X230550Y110676D01*
X230866Y110710D01*
X230915Y111108D01*
X230973Y112113D01*
X230980Y112710D01*
X234480D01*
X234487Y112113D01*
D02*
G37*
G36*
X39141Y107085D02*
X39387Y107080D01*
Y103580D01*
X39141Y103577D01*
Y102360D01*
X39106Y102592D01*
X39000Y102800D01*
X38826Y102982D01*
X38581Y103141D01*
X38266Y103275D01*
X37880Y103385D01*
X37678Y103423D01*
X37625Y103408D01*
X37486Y103356D01*
X37375Y103296D01*
X37292Y103230D01*
Y103486D01*
X36900Y103531D01*
X36305Y103568D01*
X35640Y103580D01*
Y107080D01*
X36305Y107092D01*
X37292Y107178D01*
Y107430D01*
X37375Y107364D01*
X37486Y107304D01*
X37625Y107252D01*
X37678Y107237D01*
X37880Y107275D01*
X38266Y107385D01*
X38581Y107519D01*
X38826Y107678D01*
X39000Y107860D01*
X39106Y108068D01*
X39141Y108300D01*
Y107085D01*
D02*
G37*
G36*
X374712Y109147D02*
X374749Y109108D01*
X374813Y109073D01*
X374901Y109043D01*
X375014Y109018D01*
X375153Y108997D01*
X375506Y108969D01*
X375960Y108960D01*
Y106960D01*
X375720Y106958D01*
X375014Y106902D01*
X374901Y106877D01*
X374813Y106847D01*
X374749Y106812D01*
X374712Y106773D01*
X374699Y106729D01*
Y109191D01*
X374712Y109147D01*
D02*
G37*
G36*
X435391Y106620D02*
X435371Y106810D01*
X435310Y106980D01*
X435208Y107130D01*
X435066Y107260D01*
X434883Y107370D01*
X434660Y107460D01*
X434396Y107530D01*
X434091Y107580D01*
X433746Y107610D01*
X433360Y107620D01*
Y109620D01*
X433746Y109630D01*
X434091Y109660D01*
X434396Y109710D01*
X434660Y109780D01*
X434883Y109870D01*
X435066Y109980D01*
X435208Y110110D01*
X435310Y110260D01*
X435371Y110430D01*
X435391Y110620D01*
Y106620D01*
D02*
G37*
G36*
X428889Y110430D02*
X428950Y110260D01*
X429052Y110110D01*
X429194Y109980D01*
X429377Y109870D01*
X429600Y109780D01*
X429864Y109710D01*
X430169Y109660D01*
X430514Y109630D01*
X430900Y109620D01*
Y107620D01*
X430514Y107610D01*
X430169Y107580D01*
X429864Y107530D01*
X429600Y107460D01*
X429377Y107370D01*
X429194Y107260D01*
X429052Y107130D01*
X428950Y106980D01*
X428889Y106810D01*
X428869Y106620D01*
Y110620D01*
X428889Y110430D01*
D02*
G37*
G36*
X78785Y113310D02*
X79035Y113140D01*
X79321Y112990D01*
X79643Y112860D01*
X80001Y112750D01*
X80395Y112660D01*
X80824Y112590D01*
X81290Y112540D01*
X82330Y112500D01*
Y107500D01*
X81792Y107490D01*
X80824Y107410D01*
X80395Y107340D01*
X80001Y107250D01*
X79643Y107140D01*
X79321Y107010D01*
X79035Y106860D01*
X78785Y106690D01*
X78571Y106500D01*
Y113500D01*
X78785Y113310D01*
D02*
G37*
G36*
X87790Y106470D02*
X87740Y106666D01*
X87591Y106841D01*
X87340Y106995D01*
X86990Y107129D01*
X86540Y107243D01*
X85990Y107335D01*
X85340Y107407D01*
X83741Y107490D01*
X82790Y107500D01*
Y112500D01*
X83741Y112514D01*
X85340Y112627D01*
X85990Y112725D01*
X86540Y112852D01*
X86990Y113007D01*
X87340Y113191D01*
X87591Y113402D01*
X87740Y113642D01*
X87790Y113910D01*
Y106470D01*
D02*
G37*
G36*
X417961Y105651D02*
X417940Y105717D01*
X417881Y105776D01*
X417780Y105829D01*
X417640Y105874D01*
X417461Y105913D01*
X417240Y105944D01*
X416680Y105986D01*
X415961Y106000D01*
Y108000D01*
X416340Y108010D01*
X416680Y108040D01*
X416981Y108090D01*
X417240Y108160D01*
X417461Y108250D01*
X417640Y108360D01*
X417780Y108490D01*
X417881Y108640D01*
X417940Y108810D01*
X417961Y109000D01*
Y105651D01*
D02*
G37*
G36*
X405361Y108891D02*
X405587Y108704D01*
X405819Y108539D01*
X406058Y108396D01*
X406303Y108275D01*
X406555Y108176D01*
X406813Y108099D01*
X407079Y108044D01*
X407350Y108011D01*
X407628Y108000D01*
Y106000D01*
X407350Y105989D01*
X407079Y105956D01*
X406813Y105901D01*
X406555Y105824D01*
X406303Y105725D01*
X406058Y105604D01*
X405819Y105461D01*
X405587Y105296D01*
X405361Y105109D01*
X405142Y104900D01*
Y109100D01*
X405361Y108891D01*
D02*
G37*
G36*
X254147Y108176D02*
X253850Y108070D01*
X253587Y107893D01*
X253360Y107646D01*
X253167Y107328D01*
X253010Y106940D01*
X252887Y106481D01*
X252800Y105951D01*
X252753Y105411D01*
X252780Y104384D01*
X251693Y104681D01*
X249230D01*
X249212Y105351D01*
X249212Y105358D01*
X248728Y105490D01*
X248824Y105560D01*
X248909Y105660D01*
X248984Y105789D01*
X249049Y105948D01*
X249105Y106135D01*
X249118Y106202D01*
X249072Y106481D01*
X248950Y106940D01*
X248792Y107328D01*
X248600Y107646D01*
X248372Y107893D01*
X248110Y108070D01*
X247812Y108176D01*
X247480Y108211D01*
X254480D01*
X254147Y108176D01*
D02*
G37*
G36*
X423010Y105665D02*
X422730Y105621D01*
X422450Y105548D01*
X422168Y105446D01*
X421886Y105316D01*
X421603Y105157D01*
X421319Y104970D01*
X421033Y104754D01*
X420747Y104509D01*
X420461Y104236D01*
X417632D01*
X417695Y104310D01*
X417750Y104398D01*
X417800Y104501D01*
X417842Y104620D01*
X417878Y104754D01*
X417908Y104903D01*
X417931Y105067D01*
X417957Y105441D01*
X417961Y105651D01*
X423289Y105681D01*
X423010Y105665D01*
D02*
G37*
G36*
X15141Y103330D02*
X15121Y103520D01*
X15060Y103690D01*
X14961Y103840D01*
X14820Y103970D01*
X14641Y104080D01*
X14420Y104170D01*
X14160Y104240D01*
X13860Y104290D01*
X13520Y104320D01*
X13140Y104330D01*
Y106330D01*
X13520Y106340D01*
X13860Y106370D01*
X14160Y106420D01*
X14420Y106490D01*
X14641Y106580D01*
X14820Y106690D01*
X14961Y106820D01*
X15060Y106970D01*
X15121Y107140D01*
X15141Y107330D01*
Y103330D01*
D02*
G37*
G36*
X57832Y96121D02*
X57816Y96120D01*
X57780Y96097D01*
X57724Y96053D01*
X57550Y95897D01*
X56757Y95123D01*
X55396Y96590D01*
X56841Y98111D01*
X57832Y96121D01*
D02*
G37*
G36*
X196060Y100415D02*
X196148Y100360D01*
X196252Y100310D01*
X196370Y100268D01*
X196504Y100232D01*
X196653Y100202D01*
X196817Y100179D01*
X197191Y100153D01*
X197400Y100149D01*
X197431Y94821D01*
X197415Y95100D01*
X197371Y95380D01*
X197298Y95660D01*
X197196Y95942D01*
X197066Y96224D01*
X196907Y96507D01*
X196720Y96791D01*
X196504Y97077D01*
X196259Y97363D01*
X195986Y97649D01*
Y100478D01*
X196060Y100415D01*
D02*
G37*
G36*
X253201Y102734D02*
X253238Y102614D01*
X253299Y102479D01*
X253385Y102328D01*
X253496Y102163D01*
X253631Y101982D01*
X253978Y101577D01*
X254268Y101273D01*
X254784Y100776D01*
X256065Y99693D01*
X256632Y99298D01*
X257152Y99002D01*
X257622Y98804D01*
X258044Y98703D01*
X258418Y98701D01*
X258743Y98796D01*
X259020Y98989D01*
X253971Y94140D01*
X254173Y94408D01*
X254275Y94726D01*
X254278Y95094D01*
X254180Y95514D01*
X253983Y95983D01*
X253685Y96504D01*
X253288Y97074D01*
X252791Y97696D01*
X251658Y98915D01*
X250897Y99564D01*
X250732Y99675D01*
X250581Y99761D01*
X250446Y99822D01*
X250326Y99859D01*
X250220Y99870D01*
X253190Y102840D01*
X253201Y102734D01*
D02*
G37*
G36*
X159420Y93921D02*
X159139Y94105D01*
X158811Y94192D01*
X158435Y94183D01*
X158012Y94077D01*
X157541Y93875D01*
X157022Y93576D01*
X156455Y93181D01*
X155841Y92689D01*
X155136Y92033D01*
X154875Y91735D01*
X154741Y91553D01*
X154632Y91386D01*
X154548Y91233D01*
X154489Y91095D01*
X154456Y90971D01*
X154447Y90862D01*
X151388Y93739D01*
X151489Y93754D01*
X151606Y93792D01*
X151737Y93856D01*
X151885Y93944D01*
X152048Y94057D01*
X152420Y94356D01*
X152506Y94435D01*
X153563Y95678D01*
X153966Y96251D01*
X154267Y96773D01*
X154467Y97241D01*
X154565Y97657D01*
X154562Y98021D01*
X154457Y98332D01*
X154251Y98590D01*
X159420Y93921D01*
D02*
G37*
G36*
X50069Y97640D02*
X50130Y97470D01*
X50232Y97320D01*
X50374Y97190D01*
X50557Y97080D01*
X50780Y96990D01*
X51044Y96920D01*
X51349Y96870D01*
X51694Y96840D01*
X52080Y96830D01*
Y94830D01*
X51694Y94820D01*
X51349Y94790D01*
X51044Y94740D01*
X50780Y94670D01*
X50557Y94580D01*
X50374Y94470D01*
X50232Y94340D01*
X50130Y94190D01*
X50069Y94020D01*
X50049Y93830D01*
Y97830D01*
X50069Y97640D01*
D02*
G37*
G36*
X393405Y96713D02*
X393320Y96570D01*
X393245Y96332D01*
X393180Y95999D01*
X393125Y95570D01*
X393045Y94428D01*
X393000Y92000D01*
X385000D01*
X384996Y92905D01*
X384785Y96332D01*
X384719Y96570D01*
X384644Y96713D01*
X384561Y96761D01*
X393499D01*
X393405Y96713D01*
D02*
G37*
G36*
X50079Y92860D02*
X49887Y92846D01*
X49745Y92804D01*
X49653Y92733D01*
X49611Y92634D01*
X49619Y92507D01*
X49677Y92351D01*
X49784Y92168D01*
X49942Y91955D01*
X50150Y91715D01*
X50408Y91446D01*
X47579D01*
X47293Y91719D01*
X47007Y91964D01*
X46722Y92180D01*
X46437Y92367D01*
X46154Y92526D01*
X45872Y92656D01*
X45590Y92758D01*
X45310Y92831D01*
X45030Y92875D01*
X44751Y92891D01*
X50079Y92860D01*
D02*
G37*
G36*
X176702Y93896D02*
X176490Y93820D01*
X176303Y93693D01*
X176140Y93516D01*
X176003Y93288D01*
X175890Y93010D01*
X175802Y92681D01*
X175740Y92302D01*
X175702Y91871D01*
X175690Y91390D01*
X173190D01*
X173178Y91871D01*
X173140Y92302D01*
X173078Y92681D01*
X172990Y93010D01*
X172878Y93288D01*
X172740Y93516D01*
X172577Y93693D01*
X172390Y93820D01*
X172178Y93896D01*
X171940Y93921D01*
X176940D01*
X176702Y93896D01*
D02*
G37*
G36*
X346525Y95469D02*
X346100Y95317D01*
X345725Y95065D01*
X345400Y94712D01*
X345125Y94259D01*
X344900Y93706D01*
X344725Y93053D01*
X344600Y92299D01*
X344525Y91445D01*
X344500Y90491D01*
X339500D01*
X339478Y91440D01*
X339412Y92290D01*
X339301Y93041D01*
X339146Y93691D01*
X338948Y94241D01*
X338705Y94691D01*
X338417Y95041D01*
X338086Y95290D01*
X337710Y95441D01*
X337290Y95491D01*
X347000Y95521D01*
X346525Y95469D01*
D02*
G37*
G36*
X235200Y93631D02*
X234778Y93595D01*
X234326Y93489D01*
X233844Y93312D01*
X233332Y93065D01*
X232791Y92747D01*
X232219Y92358D01*
X231617Y91898D01*
X230323Y90767D01*
X229631Y90095D01*
X226725Y94261D01*
X227397Y94950D01*
X228988Y96807D01*
X229377Y97355D01*
X229695Y97869D01*
X229942Y98347D01*
X230119Y98790D01*
X230225Y99197D01*
X230261Y99570D01*
X235200Y93631D01*
D02*
G37*
G36*
X372677Y95486D02*
X372380Y95380D01*
X372118Y95203D01*
X371890Y94956D01*
X371698Y94638D01*
X371540Y94250D01*
X371418Y93791D01*
X371330Y93261D01*
X371278Y92661D01*
X371260Y91990D01*
X371095D01*
X370853Y89928D01*
X367264Y91908D01*
X367358Y91950D01*
X367442Y92024D01*
X367517Y92130D01*
X367581Y92270D01*
X367636Y92442D01*
X367681Y92646D01*
X367715Y92883D01*
X367719Y92927D01*
X367690Y93261D01*
X367603Y93791D01*
X367480Y94250D01*
X367323Y94638D01*
X367130Y94956D01*
X366903Y95203D01*
X366640Y95380D01*
X366343Y95486D01*
X366010Y95521D01*
X373010D01*
X372677Y95486D01*
D02*
G37*
G36*
X93513Y93371D02*
X93545Y92971D01*
X95260D01*
X94928Y92935D01*
X94630Y92830D01*
X94368Y92655D01*
X94140Y92410D01*
X93947Y92095D01*
X93790Y91711D01*
X93788Y91705D01*
X93793Y91695D01*
X93860Y91612D01*
X93764D01*
X93667Y91256D01*
X93580Y90730D01*
X93527Y90135D01*
X93510Y89471D01*
X90010D01*
X89993Y90135D01*
X89940Y90730D01*
X89853Y91256D01*
X89756Y91612D01*
X89660D01*
X89726Y91695D01*
X89732Y91705D01*
X89730Y91711D01*
X89572Y92095D01*
X89380Y92410D01*
X89152Y92655D01*
X88890Y92830D01*
X88593Y92935D01*
X88260Y92971D01*
X89989D01*
X89996Y93062D01*
X90010Y93707D01*
X93510D01*
X93513Y93371D01*
D02*
G37*
G36*
X24435Y92839D02*
X24010Y92687D01*
X23635Y92435D01*
X23310Y92082D01*
X23035Y91629D01*
X22810Y91076D01*
X22635Y90423D01*
X22510Y89669D01*
X22435Y88815D01*
X22410Y87860D01*
X17410D01*
X17387Y88811D01*
X17319Y89661D01*
X17206Y90410D01*
X17047Y91060D01*
X16843Y91610D01*
X16593Y92060D01*
X16298Y92410D01*
X15957Y92661D01*
X15572Y92810D01*
X15141Y92860D01*
X24910Y92891D01*
X24435Y92839D01*
D02*
G37*
G36*
X137680Y89060D02*
X137599Y89045D01*
X137528Y89000D01*
X137465Y88923D01*
X137410Y88817D01*
X137363Y88680D01*
X137325Y88512D01*
X137296Y88314D01*
X137275Y88085D01*
X137258Y87536D01*
X135734D01*
X135726Y87830D01*
X135703Y88093D01*
X135665Y88326D01*
X135612Y88527D01*
X135543Y88698D01*
X135460Y88838D01*
X135361Y88947D01*
X135246Y89026D01*
X135117Y89074D01*
X134972Y89091D01*
X137680Y89060D01*
D02*
G37*
G36*
X127545Y89045D02*
X127425Y89000D01*
X127319Y88923D01*
X127227Y88817D01*
X127149Y88680D01*
X127085Y88512D01*
X127036Y88314D01*
X127000Y88085D01*
X126979Y87826D01*
X126972Y87536D01*
X125448D01*
X125441Y87826D01*
X125420Y88085D01*
X125384Y88314D01*
X125335Y88512D01*
X125271Y88680D01*
X125193Y88817D01*
X125101Y88923D01*
X124995Y89000D01*
X124875Y89045D01*
X124740Y89060D01*
X127680D01*
X127545Y89045D01*
D02*
G37*
G36*
X132638Y89036D02*
X132600Y88961D01*
X132568Y88835D01*
X132539Y88660D01*
X132515Y88435D01*
X132506Y88248D01*
X132536Y88051D01*
X132596Y87791D01*
X132673Y87545D01*
X132766Y87314D01*
X132877Y87097D01*
X133004Y86894D01*
X133148Y86706D01*
X133310Y86532D01*
X129110D01*
X129271Y86706D01*
X129416Y86894D01*
X129544Y87097D01*
X129654Y87314D01*
X129747Y87545D01*
X129824Y87791D01*
X129883Y88051D01*
X129894Y88120D01*
X129852Y88835D01*
X129819Y88961D01*
X129782Y89036D01*
X129740Y89060D01*
X132680D01*
X132638Y89036D01*
D02*
G37*
G36*
X154464Y90701D02*
X154502Y90584D01*
X154566Y90453D01*
X154654Y90305D01*
X154767Y90142D01*
X155066Y89770D01*
X155464Y89336D01*
X155700Y89095D01*
X153318Y86527D01*
X153078Y86762D01*
X152445Y87315D01*
X152263Y87449D01*
X152096Y87558D01*
X151943Y87642D01*
X151805Y87701D01*
X151681Y87734D01*
X151572Y87743D01*
X154449Y90802D01*
X154464Y90701D01*
D02*
G37*
G36*
X175702Y88299D02*
X175740Y87868D01*
X175802Y87489D01*
X175890Y87160D01*
X176003Y86882D01*
X176140Y86654D01*
X176303Y86477D01*
X176490Y86350D01*
X176702Y86274D01*
X176940Y86249D01*
X171940D01*
X172178Y86274D01*
X172390Y86350D01*
X172577Y86477D01*
X172740Y86654D01*
X172878Y86882D01*
X172990Y87160D01*
X173078Y87489D01*
X173140Y87868D01*
X173178Y88299D01*
X173190Y88779D01*
X175690D01*
X175702Y88299D01*
D02*
G37*
G36*
X113455Y87434D02*
X113500Y86918D01*
X113575Y86464D01*
X113680Y86070D01*
X113815Y85737D01*
X113980Y85464D01*
X114175Y85252D01*
X114400Y85100D01*
X114655Y85009D01*
X114940Y84979D01*
X108940D01*
X109225Y85009D01*
X109480Y85100D01*
X109705Y85252D01*
X109900Y85464D01*
X110065Y85737D01*
X110200Y86070D01*
X110305Y86464D01*
X110380Y86918D01*
X110425Y87434D01*
X110440Y88010D01*
X113440D01*
X113455Y87434D01*
D02*
G37*
G36*
X93527Y87839D02*
X93572Y87328D01*
X93860D01*
X93793Y87245D01*
X93734Y87134D01*
X93681Y86995D01*
X93643Y86855D01*
X93667Y86709D01*
X93790Y86250D01*
X93947Y85862D01*
X94140Y85544D01*
X94368Y85297D01*
X94630Y85120D01*
X94928Y85014D01*
X95260Y84979D01*
X88260D01*
X88593Y85014D01*
X88890Y85120D01*
X89152Y85297D01*
X89380Y85544D01*
X89572Y85862D01*
X89730Y86250D01*
X89853Y86709D01*
X89877Y86855D01*
X89838Y86995D01*
X89786Y87134D01*
X89726Y87245D01*
X89660Y87328D01*
X89948D01*
X89993Y87839D01*
X90010Y88510D01*
X93510D01*
X93527Y87839D01*
D02*
G37*
G36*
X367970Y86000D02*
X367864Y85989D01*
X367744Y85952D01*
X367609Y85891D01*
X367458Y85805D01*
X367293Y85694D01*
X367113Y85559D01*
X366707Y85212D01*
X366242Y84767D01*
X363767Y87242D01*
X364002Y87482D01*
X364694Y88293D01*
X364805Y88458D01*
X364891Y88609D01*
X364952Y88744D01*
X364989Y88864D01*
X365000Y88970D01*
X367970Y86000D01*
D02*
G37*
G36*
X347961Y89163D02*
X349838Y87572D01*
X350398Y87183D01*
X350926Y86865D01*
X351421Y86618D01*
X351883Y86441D01*
X352313Y86335D01*
X352710Y86299D01*
X346771Y81361D01*
X346735Y81757D01*
X346629Y82187D01*
X346452Y82649D01*
X346205Y83144D01*
X345887Y83672D01*
X345498Y84232D01*
X345038Y84825D01*
X343907Y86109D01*
X343235Y86799D01*
X347271Y89835D01*
X347961Y89163D01*
D02*
G37*
G36*
X88221Y79793D02*
X88377Y79790D01*
Y76290D01*
X88221Y76288D01*
Y74540D01*
X88186Y74872D01*
X88081Y75170D01*
X87906Y75433D01*
X87661Y75660D01*
X87346Y75852D01*
X86960Y76010D01*
X86591Y76109D01*
X86476Y76066D01*
X86365Y76006D01*
X86282Y75940D01*
Y76170D01*
X85981Y76220D01*
X85386Y76273D01*
X84720Y76290D01*
Y79790D01*
X85386Y79808D01*
X85981Y79860D01*
X86282Y79910D01*
Y80140D01*
X86365Y80073D01*
X86476Y80014D01*
X86591Y79970D01*
X86960Y80070D01*
X87346Y80227D01*
X87661Y80420D01*
X87906Y80647D01*
X88081Y80910D01*
X88186Y81208D01*
X88221Y81540D01*
Y79793D01*
D02*
G37*
G36*
X39344Y82263D02*
X39448Y82141D01*
X39621Y82033D01*
X39863Y81939D01*
X40175Y81860D01*
X40268Y81844D01*
X40295Y81852D01*
X40434Y81904D01*
X40545Y81964D01*
X40628Y82030D01*
Y81787D01*
X41005Y81745D01*
X42112Y81687D01*
X42770Y81680D01*
Y78180D01*
X42112Y78173D01*
X40628Y78070D01*
Y77830D01*
X40545Y77896D01*
X40434Y77956D01*
X40295Y78008D01*
X40268Y78016D01*
X40175Y78000D01*
X39863Y77921D01*
X39621Y77828D01*
X39448Y77719D01*
X39344Y77597D01*
X39309Y77460D01*
Y78156D01*
X39177Y78166D01*
X38533Y78180D01*
Y81680D01*
X38870Y81684D01*
X39309Y81718D01*
Y82400D01*
X39344Y82263D01*
D02*
G37*
G36*
X24482Y85263D02*
X26371Y83672D01*
X26938Y83283D01*
X27474Y82965D01*
X27980Y82718D01*
X28454Y82541D01*
X28897Y82435D01*
X29309Y82400D01*
X23370Y77460D01*
X23335Y77842D01*
X23229Y78258D01*
X23052Y78709D01*
X22805Y79193D01*
X22487Y79712D01*
X22098Y80265D01*
X21108Y81474D01*
X20507Y82129D01*
X19835Y82819D01*
X23791Y85935D01*
X24482Y85263D01*
D02*
G37*
G36*
X398060Y75574D02*
X398090Y75229D01*
X398140Y74924D01*
X398210Y74660D01*
X398300Y74437D01*
X398410Y74254D01*
X398540Y74112D01*
X398690Y74010D01*
X398860Y73949D01*
X399050Y73929D01*
X395050D01*
X395240Y73949D01*
X395410Y74010D01*
X395560Y74112D01*
X395690Y74254D01*
X395800Y74437D01*
X395890Y74660D01*
X395960Y74924D01*
X396010Y75229D01*
X396040Y75574D01*
X396050Y75960D01*
X398050D01*
X398060Y75574D01*
D02*
G37*
G36*
X153380Y72340D02*
X153142Y72572D01*
X152846Y72698D01*
X152494Y72716D01*
X152084Y72628D01*
X151618Y72434D01*
X151094Y72133D01*
X150514Y71726D01*
X149876Y71213D01*
X149654Y71005D01*
X149564Y70885D01*
X149443Y70700D01*
X149349Y70528D01*
X149284Y70370D01*
X149246Y70226D01*
X149236Y70095D01*
X149254Y69978D01*
X148817Y70226D01*
X148431Y69866D01*
X147986Y70697D01*
X145600Y72049D01*
X145629Y72067D01*
X145682Y72109D01*
X145860Y72268D01*
X146797Y73185D01*
X147365Y73774D01*
X148409Y75016D01*
X148793Y75574D01*
X149087Y76090D01*
X149289Y76564D01*
X149399Y76996D01*
X149417Y77386D01*
X149345Y77734D01*
X149180Y78040D01*
X153380Y72340D01*
D02*
G37*
G36*
X49034Y71950D02*
X48624Y71526D01*
X47980Y70772D01*
X47747Y70442D01*
X47573Y70143D01*
X47458Y69876D01*
X47403Y69640D01*
X47406Y69436D01*
X47468Y69263D01*
X47589Y69121D01*
X44541Y71669D01*
X44705Y71570D01*
X44895Y71525D01*
X45112Y71535D01*
X45355Y71598D01*
X45625Y71715D01*
X45921Y71887D01*
X46244Y72112D01*
X46592Y72392D01*
X47369Y73114D01*
X49034Y71950D01*
D02*
G37*
G36*
X384611Y65240D02*
X384576Y65573D01*
X384470Y65870D01*
X384293Y66132D01*
X384046Y66360D01*
X383728Y66553D01*
X383340Y66710D01*
X382881Y66832D01*
X382351Y66920D01*
X382074Y66944D01*
X381347Y66897D01*
X381220Y66869D01*
X381123Y66836D01*
X381057Y66800D01*
X381087Y66990D01*
X381081Y66990D01*
Y70490D01*
X381645Y70505D01*
X381715Y70948D01*
X381794Y70861D01*
X381902Y70783D01*
X382038Y70715D01*
X382202Y70655D01*
X382395Y70605D01*
X382501Y70585D01*
X382881Y70648D01*
X383340Y70770D01*
X383728Y70928D01*
X384046Y71120D01*
X384293Y71347D01*
X384470Y71610D01*
X384576Y71908D01*
X384611Y72240D01*
Y65240D01*
D02*
G37*
G36*
X175199Y72345D02*
X174983Y72268D01*
X174792Y72140D01*
X174627Y71960D01*
X174487Y71728D01*
X174373Y71446D01*
X174284Y71111D01*
X174221Y70726D01*
X174183Y70289D01*
X174170Y69801D01*
X171630D01*
X171617Y70289D01*
X171579Y70726D01*
X171516Y71111D01*
X171427Y71446D01*
X171313Y71728D01*
X171173Y71960D01*
X171008Y72140D01*
X170817Y72268D01*
X170601Y72345D01*
X170360Y72371D01*
X175440D01*
X175199Y72345D01*
D02*
G37*
G36*
X22711Y64460D02*
X22683Y64511D01*
X22599Y64557D01*
X22459Y64598D01*
X22263Y64633D01*
X22011Y64662D01*
X21339Y64706D01*
X19910Y64730D01*
Y69730D01*
X20442Y69733D01*
X22459Y69862D01*
X22599Y69903D01*
X22683Y69949D01*
X22711Y70001D01*
Y64460D01*
D02*
G37*
G36*
X147260Y66285D02*
X147163Y66237D01*
X147076Y66158D01*
X147000Y66047D01*
X146934Y65903D01*
X146877Y65728D01*
X146832Y65521D01*
X146796Y65282D01*
X146770Y65011D01*
X146750Y64374D01*
X143250Y64681D01*
X143549Y68128D01*
X147260Y66285D01*
D02*
G37*
G36*
X422718Y66670D02*
X422930D01*
X422937Y66013D01*
X423045Y64455D01*
X423110Y64075D01*
X423189Y63763D01*
X423283Y63521D01*
X423391Y63348D01*
X423513Y63244D01*
X423649Y63210D01*
X419874D01*
X419430Y63179D01*
X419430Y63210D01*
X418711D01*
X418847Y63244D01*
X418969Y63348D01*
X419077Y63521D01*
X419171Y63763D01*
X419250Y64075D01*
X419315Y64455D01*
X419316Y64468D01*
X419301Y64536D01*
X419244Y64714D01*
X419177Y64860D01*
X419100Y64975D01*
X419012Y65058D01*
X418914Y65110D01*
X419387Y65327D01*
X419423Y66013D01*
X419430Y66670D01*
X422309D01*
X422706Y66852D01*
X422718Y66670D01*
D02*
G37*
G36*
X408336Y63501D02*
X408171Y63442D01*
X408026Y63343D01*
X407899Y63205D01*
X407793Y63028D01*
X407705Y62811D01*
X407637Y62555D01*
X407589Y62259D01*
X407560Y61924D01*
X407550Y61550D01*
X405550D01*
X405540Y61924D01*
X405511Y62259D01*
X405463Y62555D01*
X405395Y62811D01*
X405307Y63028D01*
X405201Y63205D01*
X405075Y63343D01*
X404929Y63442D01*
X404764Y63501D01*
X404580Y63520D01*
X408521D01*
X408336Y63501D01*
D02*
G37*
G36*
X325011Y62350D02*
X325044Y62078D01*
X325099Y61813D01*
X325176Y61555D01*
X325275Y61303D01*
X325396Y61058D01*
X325539Y60819D01*
X325704Y60587D01*
X325891Y60361D01*
X326100Y60142D01*
X321900D01*
X322109Y60361D01*
X322296Y60587D01*
X322461Y60819D01*
X322604Y61058D01*
X322725Y61303D01*
X322824Y61555D01*
X322901Y61813D01*
X322956Y62078D01*
X322989Y62350D01*
X323000Y62628D01*
X325000D01*
X325011Y62350D01*
D02*
G37*
G36*
X355361Y59891D02*
X355587Y59704D01*
X355819Y59539D01*
X356058Y59396D01*
X356303Y59275D01*
X356555Y59176D01*
X356813Y59099D01*
X357079Y59044D01*
X357350Y59011D01*
X357628Y59000D01*
Y57000D01*
X357350Y56989D01*
X357079Y56956D01*
X356813Y56901D01*
X356555Y56824D01*
X356303Y56725D01*
X356058Y56604D01*
X355819Y56461D01*
X355587Y56296D01*
X355361Y56109D01*
X355142Y55900D01*
Y60100D01*
X355361Y59891D01*
D02*
G37*
G36*
X146752Y52305D02*
X146928Y49504D01*
X146969Y49469D01*
X143031D01*
X143072Y49504D01*
X143110Y49609D01*
X143142Y49784D01*
X143171Y50030D01*
X143215Y50729D01*
X143250Y52969D01*
X146750D01*
X146752Y52305D01*
D02*
G37*
G36*
X120505Y51899D02*
X120617Y50219D01*
X120669Y49949D01*
X120730Y49739D01*
X120801Y49590D01*
X120880Y49500D01*
X120969Y49469D01*
X117030D01*
X117120Y49500D01*
X117199Y49590D01*
X117270Y49739D01*
X117331Y49949D01*
X117383Y50219D01*
X117425Y50550D01*
X117481Y51389D01*
X117500Y52470D01*
X120500D01*
X120505Y51899D01*
D02*
G37*
G36*
X132770Y50698D02*
X132793Y50434D01*
X132831Y50201D01*
X132884Y49999D01*
X132952Y49828D01*
X133036Y49688D01*
X133135Y49579D01*
X133250Y49501D01*
X133379Y49455D01*
X133524Y49439D01*
X130476D01*
X130621Y49455D01*
X130750Y49501D01*
X130865Y49579D01*
X130964Y49688D01*
X131047Y49828D01*
X131116Y49999D01*
X131169Y50201D01*
X131208Y50434D01*
X131230Y50698D01*
X131238Y50993D01*
X132762D01*
X132770Y50698D01*
D02*
G37*
G36*
X126270D02*
X126292Y50434D01*
X126331Y50201D01*
X126384Y49999D01*
X126453Y49828D01*
X126536Y49688D01*
X126635Y49579D01*
X126750Y49501D01*
X126879Y49455D01*
X127024Y49439D01*
X123976D01*
X124121Y49455D01*
X124250Y49501D01*
X124365Y49579D01*
X124464Y49688D01*
X124548Y49828D01*
X124616Y49999D01*
X124669Y50201D01*
X124707Y50434D01*
X124730Y50698D01*
X124738Y50993D01*
X126262D01*
X126270Y50698D01*
D02*
G37*
G36*
X164283Y51521D02*
X164321Y51084D01*
X164384Y50699D01*
X164473Y50364D01*
X164587Y50082D01*
X164727Y49850D01*
X164892Y49670D01*
X165083Y49542D01*
X165299Y49465D01*
X165540Y49439D01*
X160460D01*
X160701Y49465D01*
X160917Y49542D01*
X161108Y49670D01*
X161273Y49850D01*
X161413Y50082D01*
X161527Y50364D01*
X161616Y50699D01*
X161679Y51084D01*
X161717Y51521D01*
X161730Y52010D01*
X164270D01*
X164283Y51521D01*
D02*
G37*
G36*
X352182Y44496D02*
X352906Y43882D01*
X353229Y43657D01*
X353525Y43485D01*
X353795Y43368D01*
X354038Y43304D01*
X354255Y43295D01*
X354445Y43340D01*
X354609Y43439D01*
X351561Y40891D01*
X351682Y41033D01*
X351744Y41206D01*
X351748Y41410D01*
X351692Y41646D01*
X351577Y41913D01*
X351403Y42212D01*
X351170Y42542D01*
X350878Y42903D01*
X350116Y43720D01*
X351781Y44884D01*
X352182Y44496D01*
D02*
G37*
G36*
X384611Y37000D02*
X384591Y37190D01*
X384530Y37360D01*
X384428Y37510D01*
X384286Y37640D01*
X384103Y37750D01*
X383880Y37840D01*
X383616Y37910D01*
X383312Y37960D01*
X382966Y37990D01*
X382580Y38000D01*
Y40000D01*
X382966Y40010D01*
X383312Y40040D01*
X383616Y40090D01*
X383880Y40160D01*
X384103Y40250D01*
X384286Y40360D01*
X384428Y40490D01*
X384530Y40640D01*
X384591Y40810D01*
X384611Y41000D01*
Y37000D01*
D02*
G37*
G36*
X376459Y40810D02*
X376520Y40640D01*
X376622Y40490D01*
X376764Y40360D01*
X376947Y40250D01*
X377170Y40160D01*
X377434Y40090D01*
X377739Y40040D01*
X378084Y40010D01*
X378470Y40000D01*
Y38000D01*
X378084Y37990D01*
X377739Y37960D01*
X377434Y37910D01*
X377170Y37840D01*
X376947Y37750D01*
X376764Y37640D01*
X376622Y37510D01*
X376520Y37360D01*
X376459Y37190D01*
X376439Y37000D01*
Y41000D01*
X376459Y40810D01*
D02*
G37*
G36*
X409590Y46728D02*
X409802Y46521D01*
X410154Y46338D01*
X410648Y46179D01*
X411282Y46045D01*
X412058Y45935D01*
X414032Y45789D01*
X416570Y45740D01*
Y37740D01*
X415230Y37728D01*
X411282Y37435D01*
X410648Y37301D01*
X410154Y37142D01*
X409802Y36960D01*
X409590Y36752D01*
X409520Y36521D01*
Y46960D01*
X409590Y46728D01*
D02*
G37*
G36*
X167799Y33505D02*
X167583Y33429D01*
X167392Y33302D01*
X167227Y33124D01*
X167087Y32896D01*
X166973Y32616D01*
X166884Y32286D01*
X166821Y31905D01*
X166783Y31473D01*
X166770Y30991D01*
X164230D01*
X164217Y31473D01*
X164179Y31905D01*
X164116Y32286D01*
X164027Y32616D01*
X163913Y32896D01*
X163773Y33124D01*
X163608Y33302D01*
X163417Y33429D01*
X163201Y33505D01*
X162960Y33530D01*
X168040D01*
X167799Y33505D01*
D02*
G37*
G36*
X103299D02*
X103083Y33429D01*
X102892Y33302D01*
X102727Y33124D01*
X102587Y32896D01*
X102473Y32616D01*
X102384Y32286D01*
X102321Y31905D01*
X102283Y31473D01*
X102270Y30991D01*
X99730D01*
X99717Y31473D01*
X99679Y31905D01*
X99616Y32286D01*
X99527Y32616D01*
X99412Y32896D01*
X99273Y33124D01*
X99108Y33302D01*
X98917Y33429D01*
X98701Y33505D01*
X98460Y33530D01*
X103540D01*
X103299Y33505D01*
D02*
G37*
G36*
X166783Y27521D02*
X166821Y27084D01*
X166884Y26699D01*
X166973Y26364D01*
X167087Y26082D01*
X167227Y25850D01*
X167392Y25670D01*
X167583Y25542D01*
X167799Y25465D01*
X168040Y25439D01*
X162960D01*
X163201Y25465D01*
X163417Y25542D01*
X163608Y25670D01*
X163773Y25850D01*
X163913Y26082D01*
X164027Y26364D01*
X164116Y26699D01*
X164179Y27084D01*
X164217Y27521D01*
X164230Y28010D01*
X166770D01*
X166783Y27521D01*
D02*
G37*
G36*
X102277Y27527D02*
X102333Y26714D01*
X102382Y26384D01*
X102445Y26105D01*
X102522Y25876D01*
X102613Y25698D01*
X102718Y25571D01*
X102837Y25495D01*
X102970Y25470D01*
X98460Y25439D01*
X98701Y25466D01*
X98917Y25545D01*
X99108Y25674D01*
X99273Y25854D01*
X99412Y26086D01*
X99527Y26369D01*
X99616Y26702D01*
X99679Y27087D01*
X99717Y27523D01*
X99730Y28010D01*
X102270D01*
X102277Y27527D01*
D02*
G37*
G36*
X134561Y17960D02*
X134535Y18201D01*
X134458Y18417D01*
X134330Y18608D01*
X134150Y18773D01*
X133918Y18913D01*
X133636Y19027D01*
X133301Y19116D01*
X132916Y19179D01*
X132479Y19217D01*
X132000Y19230D01*
X131521Y19217D01*
X131084Y19179D01*
X130698Y19116D01*
X130364Y19027D01*
X130082Y18913D01*
X129850Y18773D01*
X129670Y18608D01*
X129542Y18417D01*
X129465Y18201D01*
X129439Y17960D01*
Y23040D01*
X129465Y22799D01*
X129542Y22583D01*
X129670Y22392D01*
X129850Y22227D01*
X130082Y22088D01*
X130364Y21973D01*
X130698Y21884D01*
X131084Y21821D01*
X131521Y21783D01*
X132000Y21770D01*
X132479Y21783D01*
X132916Y21821D01*
X133301Y21884D01*
X133636Y21973D01*
X133918Y22088D01*
X134150Y22227D01*
X134330Y22392D01*
X134458Y22583D01*
X134535Y22799D01*
X134561Y23040D01*
Y17960D01*
D02*
G37*
G36*
X161061D02*
X161035Y18201D01*
X160958Y18417D01*
X160830Y18608D01*
X160650Y18773D01*
X160418Y18913D01*
X160136Y19027D01*
X159801Y19116D01*
X159416Y19179D01*
X158979Y19217D01*
X158490Y19230D01*
Y21770D01*
X158979Y21783D01*
X159416Y21821D01*
X159801Y21884D01*
X160136Y21973D01*
X160418Y22088D01*
X160650Y22227D01*
X160830Y22392D01*
X160958Y22583D01*
X161035Y22799D01*
X161061Y23040D01*
Y17960D01*
D02*
G37*
G36*
X153465Y22799D02*
X153542Y22583D01*
X153670Y22392D01*
X153850Y22227D01*
X154082Y22088D01*
X154364Y21973D01*
X154698Y21884D01*
X155084Y21821D01*
X155521Y21783D01*
X156010Y21770D01*
Y19230D01*
X155521Y19217D01*
X155084Y19179D01*
X154698Y19116D01*
X154364Y19027D01*
X154082Y18913D01*
X153850Y18773D01*
X153670Y18608D01*
X153542Y18417D01*
X153465Y18201D01*
X153439Y17960D01*
Y23040D01*
X153465Y22799D01*
D02*
G37*
G36*
X110561Y17960D02*
X110535Y18201D01*
X110458Y18417D01*
X110330Y18608D01*
X110150Y18773D01*
X109918Y18913D01*
X109636Y19027D01*
X109301Y19116D01*
X108916Y19179D01*
X108479Y19217D01*
X107991Y19230D01*
Y21770D01*
X108479Y21783D01*
X108916Y21821D01*
X109301Y21884D01*
X109636Y21973D01*
X109918Y22088D01*
X110150Y22227D01*
X110330Y22392D01*
X110458Y22583D01*
X110535Y22799D01*
X110561Y23040D01*
Y17960D01*
D02*
G37*
G36*
X102965Y22799D02*
X103042Y22583D01*
X103170Y22392D01*
X103350Y22227D01*
X103582Y22088D01*
X103864Y21973D01*
X104199Y21884D01*
X104584Y21821D01*
X105021Y21783D01*
X105510Y21770D01*
Y19230D01*
X105021Y19217D01*
X104584Y19179D01*
X104199Y19116D01*
X103864Y19027D01*
X103582Y18913D01*
X103350Y18773D01*
X103170Y18608D01*
X103042Y18417D01*
X102965Y18201D01*
X102939Y17960D01*
Y23040D01*
X102965Y22799D01*
D02*
G37*
D10*
X488497Y140000D02*
X476500D01*
Y133144D01*
X486212Y131830D02*
X486783Y130688D01*
X488497Y128974D01*
X476500D01*
D12*
X24970Y210000D02*
Y214970D01*
X397510Y196980D02*
X398780Y195710D01*
X268524Y103976D02*
X285024D01*
X263150Y109350D02*
X268524Y103976D01*
X263150Y109350D02*
Y130150D01*
X324000Y58000D02*
Y65000D01*
X285024Y103976D02*
X324000Y65000D01*
X309750Y161750D02*
X324000Y176000D01*
X309750Y111000D02*
Y161750D01*
X198080Y251080D02*
X200000Y253000D01*
X237000D01*
X174770Y246080D02*
X248810D01*
X252920Y250190D01*
X174770Y251080D02*
X198080D01*
X388890Y163220D02*
X389280Y163610D01*
X368870Y163220D02*
X388890D01*
X422000Y209000D02*
Y229000D01*
X419000Y232000D02*
X422000Y229000D01*
X419000Y232000D02*
Y257000D01*
X404360Y271640D02*
X419000Y257000D01*
X397510Y196980D02*
Y218910D01*
X398780Y181610D02*
Y195710D01*
X285476Y195524D02*
Y198524D01*
X283000Y201000D02*
X285476Y198524D01*
X283000Y201000D02*
Y223000D01*
X293000Y166000D02*
Y188000D01*
X285476Y195524D02*
X293000Y188000D01*
X421810Y107000D02*
X423430Y108620D01*
X397050Y82240D02*
X421810Y107000D01*
X403000D02*
X421810D01*
X305460Y163460D02*
Y196050D01*
X300000Y158000D02*
X305460Y163460D01*
X291000Y158000D02*
X300000D01*
X263150Y130150D02*
X291000Y158000D01*
X275000Y231000D02*
X283000Y223000D01*
X222000Y231000D02*
X275000D01*
X216920Y236080D02*
X222000Y231000D01*
X174770Y236080D02*
X216920D01*
X272000Y212000D02*
Y222000D01*
X259880Y199880D02*
X272000Y212000D01*
X259880Y178420D02*
Y199880D01*
X342510Y117460D02*
Y132490D01*
X314960Y204960D02*
X318000Y208000D01*
X314960Y196050D02*
Y204960D01*
X315000Y217000D02*
Y265000D01*
X305460Y207460D02*
X315000Y217000D01*
X305460Y196050D02*
Y207460D01*
X208400Y413600D02*
X270600D01*
X385800Y350000D02*
X398400Y337400D01*
X273000Y350000D02*
X385800D01*
X257000Y366000D02*
X273000Y350000D01*
X257000Y366000D02*
Y400000D01*
X270600Y413600D01*
X273600D01*
X188000Y424000D02*
X211000Y401000D01*
X221000D01*
X322000Y317750D02*
Y332000D01*
Y317750D02*
X322750Y317000D01*
X453000Y395200D02*
Y415000D01*
Y395200D02*
X471000Y377200D01*
X227000Y442000D02*
X230000Y439000D01*
X169000Y442000D02*
X227000D01*
X161000Y450000D02*
X169000Y442000D01*
X245000Y423000D02*
Y436000D01*
X234000Y447000D02*
X245000Y436000D01*
X175000Y447000D02*
X234000D01*
X242524Y451476D02*
X254000Y440000D01*
X181524Y451476D02*
X242524D01*
X161000Y450000D02*
Y471000D01*
X169000Y453000D02*
X175000Y447000D01*
X169000Y453000D02*
Y471000D01*
X177000Y456000D02*
X181524Y451476D01*
X177000Y456000D02*
Y471000D01*
X145000Y438000D02*
Y471000D01*
Y438000D02*
X159000Y424000D01*
X188000D01*
X153000Y443000D02*
Y471000D01*
Y443000D02*
X165000Y431000D01*
X191000D01*
X208400Y413600D01*
X253000Y485000D02*
X299000Y439000D01*
X187000Y485000D02*
X253000D01*
X185000Y483000D02*
X187000Y485000D01*
X185000Y471000D02*
Y483000D01*
X425250Y263750D02*
X434000D01*
X417000Y276000D02*
X470600D01*
X433720Y301000D02*
X471000D01*
X404360Y271640D02*
X433720Y301000D01*
X470600Y276000D02*
X471000Y275600D01*
X220000Y238000D02*
X304000D01*
X216920Y241080D02*
X220000Y238000D01*
X174770Y241080D02*
X216920D01*
X260670Y284590D02*
X295410D01*
X315000Y265000D01*
X255940Y174480D02*
X259880Y178420D01*
X243480Y174480D02*
X255940D01*
X242340Y173340D02*
X243480Y174480D01*
X223960Y173340D02*
X242340D01*
X385400Y452000D02*
X398400Y439000D01*
X357000Y452000D02*
X385400D01*
X332000Y427000D02*
X357000Y452000D01*
X293000Y427000D02*
X332000D01*
X286000Y420000D02*
X293000Y427000D01*
X286000Y401200D02*
Y420000D01*
Y401200D02*
X299000Y388200D01*
X398400Y439000D02*
X416000D01*
X427000Y428000D01*
Y357000D02*
Y428000D01*
Y357000D02*
X457600Y326400D01*
X471000D01*
X299000Y413600D02*
X336600D01*
X350000Y427000D01*
X385000D01*
X398400Y413600D01*
X405430Y118120D02*
Y129430D01*
X414000Y138000D01*
X444000D01*
X484000Y178000D01*
Y211800D01*
X471000Y224800D02*
X484000Y211800D01*
X326000Y253750D02*
X351750D01*
X363000Y265000D01*
X322750Y317000D02*
X326000Y313750D01*
Y253750D02*
Y313750D01*
X324460Y223050D02*
X326000Y224590D01*
Y238250D01*
X277980Y111150D02*
X278130Y111000D01*
X294250D01*
X384810Y39000D02*
X387550Y41740D01*
X371750Y39000D02*
X384810D01*
X406550Y61550D02*
Y68740D01*
X403000Y58000D02*
X406550Y61550D01*
X353000Y58000D02*
X403000D01*
X330000Y65250D02*
Y133000D01*
Y65250D02*
X356250Y39000D01*
X330000Y133000D02*
X342000Y145000D01*
X423000D01*
X250980Y130150D02*
X263150D01*
X319780Y182220D02*
X344870D01*
X314960Y187040D02*
X319780Y182220D01*
X314960Y187040D02*
Y196050D01*
X397510Y225510D02*
X401000Y229000D01*
Y232000D01*
X398670Y271640D02*
X404360D01*
X398400Y337400D02*
X398670Y337130D01*
Y271640D02*
Y337130D01*
X407010Y245910D02*
Y254990D01*
X402000Y260000D02*
X407010Y254990D01*
X369000Y260000D02*
X402000D01*
X350080Y241080D02*
X369000Y260000D01*
X397510Y218910D02*
Y225510D01*
X434000Y263750D02*
X446250D01*
X459800Y250200D01*
X471000D01*
X435000Y157000D02*
Y180000D01*
X423000Y145000D02*
X435000Y157000D01*
X369510Y107960D02*
X375960D01*
X384980Y116980D01*
X389030D01*
X390170Y118120D01*
X405430D01*
X439350Y108620D02*
X439830Y109100D01*
X423430Y108620D02*
X439350D01*
X397050Y68740D02*
Y82240D01*
X332720Y172720D02*
X344870D01*
X323000Y163000D02*
X332720Y172720D01*
X323000Y121000D02*
Y163000D01*
X209870Y107130D02*
Y118680D01*
X277880Y154880D02*
Y168920D01*
X266000Y143000D02*
X277880Y154880D01*
X189000Y106050D02*
Y137000D01*
Y106050D02*
X200370Y94680D01*
X219370Y118680D02*
X221340Y120650D01*
X250980D01*
X174770Y218230D02*
X180000Y213000D01*
X174770Y218230D02*
Y221080D01*
Y226080D02*
X184920D01*
X187000Y224000D01*
Y155000D02*
Y224000D01*
Y155000D02*
X204000Y138000D01*
X208000D01*
X209870Y118680D02*
Y127130D01*
X183000Y154000D02*
X209870Y127130D01*
X183000Y154000D02*
Y199000D01*
X161000Y221000D02*
X183000Y199000D01*
X208000Y138000D02*
X219370Y126630D01*
X161000Y221000D02*
Y253000D01*
X164080Y256080D01*
X174770D01*
X219370Y118680D02*
Y126630D01*
X196960Y182840D02*
Y228040D01*
X193920Y231080D02*
X196960Y228040D01*
X174770Y231080D02*
X193920D01*
X16700Y405300D02*
Y414020D01*
Y405300D02*
X24000Y398000D01*
X38000D01*
X219000Y326260D02*
Y362000D01*
Y326260D02*
X260670Y284590D01*
X251170Y266590D02*
X252920Y264840D01*
Y250190D02*
Y264840D01*
X174770Y261080D02*
X203080D01*
X207300Y265300D01*
X218760D01*
X14950Y415770D02*
X16700Y414020D01*
X14950Y415770D02*
Y429150D01*
X160020Y290830D02*
Y297020D01*
X163670Y300670D01*
X180210D01*
X155020Y290830D02*
Y305020D01*
X164640Y314640D01*
X180210D01*
X189000Y346000D02*
Y389000D01*
X170000Y327000D02*
X189000Y346000D01*
X157000Y327000D02*
X170000D01*
X150020Y320020D02*
X157000Y327000D01*
X150020Y290830D02*
Y320020D01*
X181000Y347000D02*
Y389000D01*
X167000Y333000D02*
X181000Y347000D01*
X154000Y333000D02*
X167000D01*
X145020Y324020D02*
X154000Y333000D01*
X145020Y290830D02*
Y324020D01*
X173000Y347000D02*
Y389000D01*
X164000Y338000D02*
X173000Y347000D01*
X148000Y338000D02*
X164000D01*
X140020Y330020D02*
X148000Y338000D01*
X140020Y290830D02*
Y330020D01*
X137000Y425000D02*
Y471000D01*
X116000Y404000D02*
X137000Y425000D01*
X116000Y376000D02*
Y404000D01*
Y376000D02*
X135020Y356980D01*
Y290830D02*
Y356980D01*
X129000Y426000D02*
Y471000D01*
X111000Y408000D02*
X129000Y426000D01*
X111000Y374000D02*
Y408000D01*
Y374000D02*
X130020Y354980D01*
Y290830D02*
Y354980D01*
X109670Y354330D02*
X117670D01*
X125020Y346980D01*
Y290830D02*
Y346980D01*
X109670Y339090D02*
X115910D01*
X120020Y334980D01*
Y290830D02*
Y334980D01*
X44610Y114830D02*
Y128390D01*
X37000Y136000D02*
X44610Y128390D01*
X37000Y136000D02*
Y167000D01*
X125020Y195980D02*
X127000Y194000D01*
Y174000D02*
Y194000D01*
X123510Y170510D02*
X127000Y174000D01*
X125020Y195980D02*
Y206330D01*
X123510Y160150D02*
Y170510D01*
X108020Y160400D02*
X108270Y160150D01*
X90060Y160400D02*
X108020D01*
X110020Y197020D02*
Y206330D01*
X102000Y189000D02*
X110020Y197020D01*
X94000Y164340D02*
Y178000D01*
X90060Y160400D02*
X94000Y164340D01*
X95330Y206330D02*
X105020D01*
X88000Y199000D02*
X95330Y206330D01*
X49850Y135150D02*
Y145920D01*
X51370Y144400D01*
X68060D01*
X59080Y246080D02*
X90270D01*
X42556Y240556D02*
X89746D01*
X90270Y241080D01*
X17000Y215000D02*
X42556Y240556D01*
X44610Y114830D02*
X53510D01*
X59280Y109060D01*
X12670Y105330D02*
X20610D01*
X11000Y107000D02*
X12670Y105330D01*
X11000Y107000D02*
Y126000D01*
X19000Y134000D01*
Y167000D01*
X24970Y119190D02*
Y189960D01*
X20610Y114830D02*
X24970Y119190D01*
X35525Y225525D02*
X46080Y236080D01*
X24970Y214970D02*
X35525Y225525D01*
X17000Y195000D02*
Y215000D01*
Y195000D02*
X22040Y189960D01*
X24970D01*
X46080Y236080D02*
X90270D01*
X44610Y95830D02*
X56050D01*
X59280Y99060D01*
X44610Y95830D02*
X51000Y89440D01*
Y75330D02*
Y89440D01*
X42900Y67230D02*
X51000Y75330D01*
D14*
X125500Y42750D02*
Y86500D01*
Y42500D02*
Y42750D01*
X132000D02*
Y71000D01*
Y42000D02*
Y42750D01*
X125500Y86500D02*
X126210Y87210D01*
Y93280D01*
X132000Y71000D02*
X136496Y75496D01*
Y92994D01*
X136210Y93280D02*
X136496Y92994D01*
D16*
X290830Y204550D02*
D03*
Y214550D02*
D03*
X421180Y60240D02*
D03*
Y50240D02*
D03*
X373380Y227410D02*
D03*
Y237410D02*
D03*
X232730Y106600D02*
D03*
Y96600D02*
D03*
X147640Y186610D02*
D03*
Y176610D02*
D03*
X59280Y109060D02*
D03*
Y99060D02*
D03*
X70170Y217250D02*
D03*
Y227250D02*
D03*
X195900Y269320D02*
D03*
Y279320D02*
D03*
D17*
X354410Y195580D02*
D03*
X364410D02*
D03*
X359740Y83830D02*
D03*
X349740D02*
D03*
X120890Y182880D02*
D03*
X110890D02*
D03*
X36340Y79930D02*
D03*
X26340D02*
D03*
X215140Y147940D02*
D03*
X205140D02*
D03*
X256940Y96520D02*
D03*
X266940D02*
D03*
X159150Y185420D02*
D03*
X169150D02*
D03*
X48660Y299720D02*
D03*
X58660D02*
D03*
X48660Y289560D02*
D03*
X58660D02*
D03*
X48660Y256540D02*
D03*
X58660D02*
D03*
X48660Y279400D02*
D03*
X58660D02*
D03*
X102000Y311150D02*
D03*
X112000D02*
D03*
D18*
X389030Y116980D02*
D03*
Y101480D02*
D03*
X439830Y124600D02*
D03*
Y109100D02*
D03*
X434000Y263750D02*
D03*
Y248250D02*
D03*
X326000Y253750D02*
D03*
Y238250D02*
D03*
X88500Y375250D02*
D03*
Y390750D02*
D03*
X107000Y95690D02*
D03*
Y111190D02*
D03*
X56200Y187830D02*
D03*
Y203330D02*
D03*
X243480Y189980D02*
D03*
Y174480D02*
D03*
X48260Y425580D02*
D03*
Y410080D02*
D03*
X218760Y265300D02*
D03*
Y280800D02*
D03*
X174310Y154810D02*
D03*
Y170310D02*
D03*
X123510Y160150D02*
D03*
Y144650D02*
D03*
X49850Y145920D02*
D03*
Y161420D02*
D03*
X108270Y160150D02*
D03*
Y144650D02*
D03*
D19*
X423430Y108620D02*
D03*
Y127620D02*
D03*
X405430Y118120D02*
D03*
X277880Y168920D02*
D03*
Y187920D02*
D03*
X259880Y178420D02*
D03*
X368870Y182220D02*
D03*
Y163220D02*
D03*
X344870D02*
D03*
Y172720D02*
D03*
Y182220D02*
D03*
X44610Y95830D02*
D03*
Y105330D02*
D03*
Y114830D02*
D03*
X20610D02*
D03*
Y105330D02*
D03*
Y95830D02*
D03*
D20*
X356250Y39000D02*
D03*
X371750D02*
D03*
X399920Y196850D02*
D03*
X415420D02*
D03*
X309750Y111000D02*
D03*
X294250D02*
D03*
X322750Y317000D02*
D03*
X307250D02*
D03*
X16700Y414020D02*
D03*
X32200D02*
D03*
X268420Y250190D02*
D03*
X252920D02*
D03*
X24970Y189960D02*
D03*
X40470D02*
D03*
X25250Y210000D02*
D03*
X40750D02*
D03*
X398670Y271640D02*
D03*
X383170D02*
D03*
X42900Y67230D02*
D03*
X27400D02*
D03*
X180210Y300670D02*
D03*
X195710D02*
D03*
X94170Y339090D02*
D03*
X109670D02*
D03*
X180210Y314640D02*
D03*
X195710D02*
D03*
X109670Y354330D02*
D03*
X94170D02*
D03*
Y323850D02*
D03*
X109670D02*
D03*
X158940Y98360D02*
D03*
X174440D02*
D03*
D21*
X219370Y94680D02*
D03*
X200370D02*
D03*
Y118680D02*
D03*
X209870D02*
D03*
X219370D02*
D03*
X389280Y163610D02*
D03*
X408280D02*
D03*
X398780Y181610D02*
D03*
X14950Y429150D02*
D03*
X33950D02*
D03*
X24450Y447150D02*
D03*
X251170Y266590D02*
D03*
X270170D02*
D03*
X260670Y284590D02*
D03*
D22*
X94440Y78040D02*
D03*
X111940D02*
D03*
X155400Y79310D02*
D03*
X172900D02*
D03*
D23*
X170000Y16000D02*
D03*
X94000D02*
D03*
D24*
X145000Y42750D02*
D03*
X138500D02*
D03*
X132000D02*
D03*
X125500D02*
D03*
X119000D02*
D03*
D25*
X163000Y41500D02*
D03*
X101000D02*
D03*
D26*
X144000Y16000D02*
D03*
X120000D02*
D03*
D27*
X388010Y245910D02*
D03*
X407010D02*
D03*
Y218910D02*
D03*
X397510D02*
D03*
X388010D02*
D03*
X305460Y223050D02*
D03*
X324460D02*
D03*
Y196050D02*
D03*
X314960D02*
D03*
X305460D02*
D03*
X406550Y41740D02*
D03*
X387550D02*
D03*
Y68740D02*
D03*
X397050D02*
D03*
X406550D02*
D03*
D28*
X196960Y163840D02*
D03*
Y182840D02*
D03*
X223960D02*
D03*
Y173340D02*
D03*
Y163840D02*
D03*
X342510Y98460D02*
D03*
Y117460D02*
D03*
X369510D02*
D03*
Y107960D02*
D03*
Y98460D02*
D03*
X277980Y130150D02*
D03*
Y111150D02*
D03*
X250980D02*
D03*
Y120650D02*
D03*
Y130150D02*
D03*
D29*
X160340Y155810D02*
D03*
Y169310D02*
D03*
X70170Y188830D02*
D03*
Y202330D02*
D03*
X91760Y110190D02*
D03*
Y96690D02*
D03*
D30*
X90270Y221080D02*
D03*
Y226080D02*
D03*
Y231080D02*
D03*
Y236080D02*
D03*
Y241080D02*
D03*
Y246080D02*
D03*
Y251080D02*
D03*
Y256080D02*
D03*
Y261080D02*
D03*
Y266080D02*
D03*
Y271080D02*
D03*
Y276080D02*
D03*
X174770D02*
D03*
Y271080D02*
D03*
Y266080D02*
D03*
Y261080D02*
D03*
Y256080D02*
D03*
Y251080D02*
D03*
Y246080D02*
D03*
Y241080D02*
D03*
Y236080D02*
D03*
Y231080D02*
D03*
Y226080D02*
D03*
Y221080D02*
D03*
D31*
X105020Y290830D02*
D03*
X110020D02*
D03*
X115020D02*
D03*
X120020D02*
D03*
X125020D02*
D03*
X130020D02*
D03*
X135020D02*
D03*
X140020D02*
D03*
X145020D02*
D03*
X150020D02*
D03*
X155020D02*
D03*
X160020D02*
D03*
Y206330D02*
D03*
X155020D02*
D03*
X150020D02*
D03*
X145020D02*
D03*
X140020D02*
D03*
X135020D02*
D03*
X130020D02*
D03*
X125020D02*
D03*
X120020D02*
D03*
X115020D02*
D03*
X110020D02*
D03*
X105020D02*
D03*
D32*
X68060Y144400D02*
D03*
X90060D02*
D03*
Y160400D02*
D03*
X68060D02*
D03*
D33*
X126210Y93280D02*
D03*
X131210D02*
D03*
X136210D02*
D03*
Y107780D02*
D03*
X131210D02*
D03*
X126210D02*
D03*
D34*
X60410Y267970D02*
D03*
X46910D02*
D03*
D35*
X165000Y389000D02*
D03*
X157000D02*
D03*
X149000D02*
D03*
X141000D02*
D03*
X133000D02*
D03*
X125000D02*
D03*
X145000Y471000D02*
D03*
X153000D02*
D03*
X161000D02*
D03*
X169000D02*
D03*
X177000D02*
D03*
X185000D02*
D03*
X193000D02*
D03*
X173000Y389000D02*
D03*
X181000D02*
D03*
X189000D02*
D03*
X197000D02*
D03*
X121000Y471000D02*
D03*
X129000D02*
D03*
X137000D02*
D03*
D36*
X69500Y409000D02*
D03*
Y439000D02*
D03*
Y346500D02*
D03*
Y316500D02*
D03*
D42*
X21000Y380400D02*
D03*
Y355000D02*
D03*
X28800Y472000D02*
D03*
X373000Y337400D02*
D03*
X398400Y362800D02*
D03*
X373000D02*
D03*
X398400Y388200D02*
D03*
X373000D02*
D03*
X398400Y413600D02*
D03*
Y439000D02*
D03*
X373000Y413600D02*
D03*
Y439000D02*
D03*
X273600D02*
D03*
X299000D02*
D03*
X273600Y413600D02*
D03*
X299000D02*
D03*
X273600Y388200D02*
D03*
D67*
X445000Y50000D02*
D03*
Y445000D02*
D03*
X50000Y50000D02*
D03*
X281500Y94000D02*
D03*
X161500Y128000D02*
D03*
X75000Y110000D02*
D03*
D68*
X42200Y205200D02*
X49000Y212000D01*
X40470Y205200D02*
X42200D01*
X75000Y110000D02*
X107000D01*
X28600Y451300D02*
Y472000D01*
X54200D02*
X120000D01*
X54000D02*
X54200D01*
X49000Y212000D02*
X56200Y204800D01*
Y203330D02*
Y204800D01*
X40470Y189960D02*
Y205200D01*
X19910Y95130D02*
X20610Y95830D01*
X19910Y86280D02*
Y95130D01*
Y86280D02*
X26260Y79930D01*
X26340D01*
X18640Y68500D02*
X19910Y67230D01*
X27400D01*
X198790Y154290D02*
X205140Y147940D01*
X198710Y154290D02*
X198790D01*
X196960Y156040D02*
X198710Y154290D01*
X196960Y156040D02*
Y163840D01*
X223320Y94680D02*
X227000Y91000D01*
X219370Y94680D02*
X223320D01*
X227000Y91000D02*
X232600Y96600D01*
X232730D01*
X343570Y90000D02*
X349740Y83830D01*
X342000Y90000D02*
X343570D01*
X342000Y97950D02*
X342510Y98460D01*
X342000Y90000D02*
Y97950D01*
X368870Y182220D02*
X372000Y185350D01*
Y190000D01*
X364410Y195580D02*
X369990Y190000D01*
X372000D01*
X373380Y237410D02*
X379000Y243030D01*
Y245000D01*
X387100D02*
X388010Y245910D01*
X379000Y245000D02*
X387100D01*
X79280Y317720D02*
X85410Y323850D01*
X94170D01*
X21000Y355000D02*
X35000D01*
X32200Y427400D02*
X33950Y429150D01*
X32200Y414020D02*
Y427400D01*
Y414020D02*
X36140Y410080D01*
X48260D01*
Y368260D02*
Y410080D01*
X35000Y355000D02*
X48260Y368260D01*
X120000Y472000D02*
X121000Y471000D01*
X26880Y449580D02*
X28600Y451300D01*
X24450Y447150D02*
X26880Y449580D01*
X58920D01*
X69500Y439000D01*
X70720Y317720D02*
X79280D01*
X69500Y316500D02*
X70720Y317720D01*
D69*
X197000Y375000D02*
Y403000D01*
X88900Y363220D02*
Y375430D01*
X151450Y90870D02*
X155400Y86920D01*
X290830Y204550D02*
X293000Y202380D01*
Y196000D02*
Y202380D01*
X277880Y187920D02*
Y196120D01*
X193000Y471000D02*
X198999Y476999D01*
X200000D01*
X125000Y375000D02*
Y389000D01*
X123510Y135890D02*
Y144650D01*
X125000Y389000D02*
Y402000D01*
X91760Y80720D02*
X94440Y78040D01*
X91760Y80720D02*
Y89470D01*
X84140Y78040D02*
X94440D01*
X91760Y89470D02*
Y96690D01*
X145000Y67780D02*
X146370Y69150D01*
X145000Y43000D02*
Y67780D01*
X146370Y70280D02*
X155400Y79310D01*
X146370Y69150D02*
Y70280D01*
X155400Y79310D02*
Y86920D01*
X151450Y90870D02*
X158940Y98360D01*
X232410Y113030D02*
X232730Y112710D01*
Y106600D02*
Y112710D01*
X250190Y102870D02*
X250980Y103660D01*
Y111150D01*
X250190Y102870D02*
X256540Y96520D01*
X256940D01*
X222840Y154290D02*
X223960Y155410D01*
Y163840D01*
X216490Y147940D02*
X222840Y154290D01*
X215140Y147940D02*
X216490D01*
X223960Y190970D02*
X224110Y191120D01*
X223960Y182840D02*
Y190970D01*
X379270Y69210D02*
X379740Y68740D01*
X387550D01*
X419910Y67940D02*
X421180Y66670D01*
Y60240D02*
Y66670D01*
X424380Y127620D02*
X431000Y121000D01*
X423430Y127620D02*
X424380D01*
X431000Y121000D02*
X434600Y124600D01*
X439830D01*
X368000Y89000D02*
X369510Y90510D01*
Y98460D01*
X362830Y83830D02*
X368000Y89000D01*
X359740Y83830D02*
X362830D01*
X368000Y125000D02*
X369510Y123490D01*
Y117460D02*
Y123490D01*
X344000Y162350D02*
X344870Y163220D01*
X344000Y155000D02*
Y162350D01*
X412390Y163610D02*
X416000Y160000D01*
X408280Y163610D02*
X412390D01*
X373380Y225620D02*
X379000Y220000D01*
X373380Y225620D02*
Y227410D01*
X379000Y220000D02*
X380090Y218910D01*
X388010D01*
X407010D02*
X407920Y218000D01*
X415000D01*
X434000Y248250D02*
X435000Y247250D01*
Y239000D02*
Y247250D01*
X374000Y271000D02*
X374640Y271640D01*
X383170D01*
X353990Y196000D02*
X354410Y195580D01*
X348000Y196000D02*
X353990D01*
X324460Y196050D02*
X325510Y195000D01*
X332000D01*
X263210Y259080D02*
X268420Y253870D01*
Y250190D02*
Y253870D01*
X263210Y259080D02*
X270170Y266040D01*
Y266590D01*
X36340Y79930D02*
X42770D01*
X35150Y105330D02*
X44610D01*
X199390Y128270D02*
X200370Y127290D01*
Y118680D02*
Y127290D01*
X159070Y185340D02*
X159150Y185420D01*
X159070Y177800D02*
Y185340D01*
Y177800D02*
X160340Y176530D01*
Y169310D02*
Y176530D01*
X156530Y193040D02*
X159150Y190420D01*
Y185420D02*
Y190420D01*
X147640Y186610D02*
Y194310D01*
X120890Y182880D02*
Y190420D01*
X108270Y135890D02*
Y144650D01*
X90060Y144400D02*
X91760Y142700D01*
Y133350D02*
Y142700D01*
X66360Y171450D02*
X68060Y169750D01*
Y160400D02*
Y169750D01*
X48580Y170180D02*
X49850Y168910D01*
Y161420D02*
Y168910D01*
X297000Y311000D02*
X303000Y317000D01*
X307250D01*
X218760Y280800D02*
Y289560D01*
X195710Y300670D02*
X204470D01*
X195710Y314640D02*
X204470D01*
X48260Y425580D02*
Y435610D01*
X88900Y363220D02*
X94170Y357950D01*
Y354330D02*
Y357950D01*
X193000Y457000D02*
Y471000D01*
X176850Y172850D02*
Y179070D01*
D70*
X109688Y297756D02*
X110020D01*
X120020Y191290D02*
X120890Y190420D01*
X155190Y154810D02*
X174310D01*
X174440Y80850D02*
Y98360D01*
X131210Y107780D02*
Y116140D01*
X131210Y107780D02*
X131210Y107780D01*
X115020Y194020D02*
Y206330D01*
X110890Y189890D02*
X115020Y194020D01*
X140020Y178980D02*
X142390Y176610D01*
X140020Y178980D02*
Y206330D01*
X145020Y196930D02*
Y206330D01*
Y196930D02*
X147640Y194310D01*
X142390Y176610D02*
X147640D01*
X99954Y182880D02*
X110890D01*
X94004Y188830D02*
X99954Y182880D01*
X70170Y188830D02*
X94004D01*
X155020Y194550D02*
X156530Y193040D01*
X155020Y194550D02*
Y206330D01*
X147640Y194310D02*
X150020Y196690D01*
Y206330D01*
X120020Y191290D02*
Y206330D01*
X70170Y217250D02*
X72630Y219710D01*
X77790D01*
X70170Y217250D02*
X71440Y215980D01*
Y209550D02*
Y215980D01*
X70170Y208280D02*
X71440Y209550D01*
X70170Y202330D02*
Y208280D01*
X79160Y221080D02*
X84160Y226080D01*
X77790Y219710D02*
X79160Y221080D01*
X84160Y226080D02*
X90270D01*
X79160Y221080D02*
X90270D01*
X77790Y254000D02*
X80710Y251080D01*
X90270D01*
X77790Y254000D02*
X79870Y256080D01*
X90270D01*
X188280Y269240D02*
X188360Y269320D01*
X195900D01*
X185120Y266080D02*
X188280Y269240D01*
X174770Y266080D02*
X185120D01*
X186440Y271080D02*
X188280Y269240D01*
X174770Y271080D02*
X186440D01*
X102000Y305990D02*
Y311150D01*
Y305990D02*
X104460Y303530D01*
Y302984D02*
Y303530D01*
Y302984D02*
X105020Y302424D01*
Y290830D02*
Y302424D01*
X109688Y297756D01*
X110020Y290830D02*
Y297756D01*
X131210Y93280D02*
X131210Y93280D01*
Y84390D02*
Y93280D01*
X58660Y256540D02*
X65090D01*
X74080Y261080D02*
X90270D01*
X69540Y256540D02*
X74080Y261080D01*
X65090Y256540D02*
X69540D01*
X147640Y162360D02*
Y176610D01*
Y162360D02*
X155190Y154810D01*
X69170Y187830D02*
X70170Y188830D01*
X56200Y187830D02*
X69170D01*
X110890Y182880D02*
Y189890D01*
D71*
X165500Y20500D02*
Y42000D01*
X97000Y20500D02*
X165500D01*
Y42000D02*
X170000Y46500D01*
X163000Y41500D02*
Y53500D01*
X101000Y24500D02*
Y41500D01*
X97000Y20500D02*
X101000Y24500D01*
X109670Y323850D02*
X112000Y321520D01*
Y311150D02*
Y321520D01*
Y311150D02*
X112080Y311070D01*
Y303530D02*
Y311070D01*
Y303530D02*
X115020Y300590D01*
Y290830D02*
Y300590D01*
X88440Y339090D02*
X94170D01*
X58660Y289560D02*
X65090D01*
X69000Y285650D01*
Y278000D02*
Y285650D01*
Y278000D02*
X75920Y271080D01*
X90270D01*
X58660Y299720D02*
X71280D01*
X76000Y295000D01*
Y280000D02*
Y295000D01*
Y280000D02*
X79920Y276080D01*
X90270D01*
X172900Y79310D02*
X174440Y80850D01*
X163000Y53500D02*
X172900Y63400D01*
Y79310D01*
X174310Y170310D02*
X176850Y172850D01*
X160020Y202250D02*
Y206330D01*
Y202250D02*
X169230Y193040D01*
X169150Y185420D02*
X169230Y185500D01*
Y193040D01*
X188280Y278130D02*
X189470Y279320D01*
X195900D01*
X186230Y276080D02*
X188280Y278130D01*
X174770Y276080D02*
X186230D01*
X75170Y227250D02*
X77790Y229870D01*
X70170Y227250D02*
X75170D01*
X77790Y229870D02*
X79000Y231080D01*
X90270D01*
X58660Y279400D02*
X60410Y277650D01*
Y267970D02*
Y277650D01*
Y267970D02*
X68900D01*
X70790Y266080D01*
X90270D01*
X69500Y409000D02*
X87750Y390750D01*
X88500D01*
X81030Y346500D02*
X88440Y339090D01*
X69500Y346500D02*
X81030D01*
D72*
X119000Y42750D02*
Y70980D01*
Y42000D02*
Y42750D01*
X107000Y95690D02*
X111940Y90750D01*
Y78040D02*
Y90750D01*
Y78040D02*
X119000Y70980D01*
D73*
X282500Y133000D02*
Y138500D01*
X280670Y131170D02*
X282500Y133000D01*
X266940Y96520D02*
X269460Y94000D01*
X281500D01*
X415420Y196850D02*
X468450D01*
X471000Y199400D01*
X298000Y220000D02*
X301050Y223050D01*
X305460D01*
X292550Y214550D02*
X298000Y220000D01*
X290830Y214550D02*
X292550D01*
X277980Y130150D02*
X280670Y132840D01*
Y131170D02*
Y132840D01*
X243480Y189980D02*
X248240Y194740D01*
Y196200D01*
X416570Y41740D02*
X417370Y42540D01*
X406550Y41740D02*
X416570D01*
X417370Y42540D02*
X421180Y46350D01*
Y50240D01*
X389000Y101450D02*
X389030Y101480D01*
X389000Y92000D02*
Y101450D01*
D74*
X130020Y195624D02*
X130284Y195360D01*
Y174716D02*
Y195360D01*
Y174716D02*
X135000Y170000D01*
X136494Y128494D02*
X138890Y130890D01*
X136494Y113951D02*
Y128494D01*
X135000Y133000D02*
Y170000D01*
X125926Y123926D02*
X135000Y133000D01*
X125926Y113951D02*
Y123926D01*
X138890Y130890D02*
Y171409D01*
X135020Y175279D02*
X138000Y172299D01*
X130020Y195624D02*
Y206330D01*
X135020Y175279D02*
Y206330D01*
X138000Y172299D02*
Y172299D01*
Y172299D02*
X138890Y171409D01*
X125926Y113951D02*
X126210Y113667D01*
Y107780D02*
Y113667D01*
X136210Y113667D02*
X136494Y113951D01*
X136210Y107780D02*
Y113667D01*
D75*
X86000Y86000D02*
D03*
D76*
X43000Y279500D02*
D03*
D77*
X21000Y329600D02*
D03*
D78*
X54200Y472000D02*
D03*
D79*
X25000Y25000D02*
D03*
X470000Y470000D02*
D03*
Y25000D02*
D03*
X111000Y430000D02*
D03*
X207000D02*
D03*
D80*
X398400Y337400D02*
D03*
X299000Y388200D02*
D03*
D81*
X471000Y428000D02*
D03*
Y402600D02*
D03*
Y377200D02*
D03*
Y351800D02*
D03*
Y326400D02*
D03*
Y301000D02*
D03*
Y275600D02*
D03*
Y224800D02*
D03*
Y250200D02*
D03*
D82*
Y199400D02*
D03*
D83*
X82500Y87500D02*
D03*
X282500Y138500D02*
D03*
X324000Y176000D02*
D03*
X237000Y253000D02*
D03*
X422000Y209000D02*
D03*
X293000Y196000D02*
D03*
X277880Y196120D02*
D03*
X403000Y107000D02*
D03*
X293000Y166000D02*
D03*
X272000Y222000D02*
D03*
X342510Y132490D02*
D03*
X318000Y208000D02*
D03*
X221000Y401000D02*
D03*
X322000Y332000D02*
D03*
X453000Y415000D02*
D03*
X230000Y439000D02*
D03*
X254000Y440000D02*
D03*
X245000Y423000D02*
D03*
X200000Y476999D02*
D03*
X425250Y263750D02*
D03*
X417000Y276000D02*
D03*
X304000Y238000D02*
D03*
X363000Y265000D02*
D03*
X353000Y58000D02*
D03*
X324000D02*
D03*
X401000Y232000D02*
D03*
X350080Y241080D02*
D03*
X435000Y180000D02*
D03*
X323000Y121000D02*
D03*
X209870Y107130D02*
D03*
X266000Y143000D02*
D03*
X189000Y137000D02*
D03*
X180000Y213000D02*
D03*
X38000Y398000D02*
D03*
X219000Y362000D02*
D03*
X125000Y375000D02*
D03*
X131210Y116140D02*
D03*
X123510Y135890D02*
D03*
X120970Y190500D02*
D03*
X102000Y189000D02*
D03*
X94000Y178000D02*
D03*
X88000Y199000D02*
D03*
X49850Y135150D02*
D03*
X37000Y167000D02*
D03*
X59080Y246080D02*
D03*
X19000Y167000D02*
D03*
X35525Y225525D02*
D03*
X125000Y402000D02*
D03*
X104460Y303530D02*
D03*
X193000Y457000D02*
D03*
X197000Y403000D02*
D03*
Y375000D02*
D03*
X198710Y154290D02*
D03*
X227000Y91000D02*
D03*
X49000Y212000D02*
D03*
X298000Y220000D02*
D03*
X332000Y195000D02*
D03*
X416000Y160000D02*
D03*
X344000Y155000D02*
D03*
X348000Y196000D02*
D03*
X372000Y190000D02*
D03*
X415000Y218000D02*
D03*
X379000Y245000D02*
D03*
Y220000D02*
D03*
X374000Y271000D02*
D03*
X435000Y239000D02*
D03*
X342000Y90000D02*
D03*
X368000Y89000D02*
D03*
Y125000D02*
D03*
X431000Y121000D02*
D03*
X389000Y92000D02*
D03*
X379270Y69210D02*
D03*
X419910Y67940D02*
D03*
X417370Y42540D02*
D03*
X248240Y196200D02*
D03*
X48260Y435610D02*
D03*
X224110Y191120D02*
D03*
X222840Y154290D02*
D03*
X297000Y311000D02*
D03*
X199390Y128270D02*
D03*
X232410Y113030D02*
D03*
X250190Y102870D02*
D03*
X263210Y259080D02*
D03*
X218760Y289560D02*
D03*
X188280Y269240D02*
D03*
Y278130D02*
D03*
X146370Y69150D02*
D03*
X151450Y90740D02*
D03*
X84140Y78040D02*
D03*
X131210Y84390D02*
D03*
X42770Y79930D02*
D03*
X18640Y68500D02*
D03*
X19910Y86280D02*
D03*
X35150Y105330D02*
D03*
X66360Y171450D02*
D03*
X48580Y170180D02*
D03*
X108270Y135890D02*
D03*
X91760Y133350D02*
D03*
X159070Y177800D02*
D03*
X176850Y179070D02*
D03*
X169230Y193040D02*
D03*
X156530D02*
D03*
X147640Y194310D02*
D03*
X88900Y363220D02*
D03*
X204470Y300670D02*
D03*
Y314640D02*
D03*
X85410Y323850D02*
D03*
X71440Y209550D02*
D03*
X77790Y219710D02*
D03*
Y229870D02*
D03*
X91760Y89470D02*
D03*
X39690Y267970D02*
D03*
X77790Y254000D02*
D03*
X65090Y256540D02*
D03*
X68900Y267970D02*
D03*
X42230Y299720D02*
D03*
Y289560D02*
D03*
Y279400D02*
D03*
Y256540D02*
D03*
M02*
