G04 Layer_Color=8421504*
%FSLAX44Y44*%
%MOMM*%
G71*
G01*
G75*
%ADD10R,1.5000X1.4000*%
%ADD11R,0.5000X2.0000*%
%ADD12R,0.7500X0.8000*%
%ADD13R,0.8000X0.7500*%
%ADD14R,1.0500X0.6000*%
%ADD15R,0.3000X0.8500*%
%ADD16R,1.2500X1.4000*%
%ADD17R,0.9500X0.9000*%
%ADD18R,0.9000X0.9500*%
%ADD19R,1.4000X1.2000*%
%ADD20O,0.3000X1.4500*%
%ADD21O,1.4500X0.3000*%
%ADD22R,0.6000X0.5000*%
%ADD23R,0.5000X0.6000*%
%ADD24R,1.1000X0.6000*%
%ADD25R,0.6000X1.1000*%
%ADD26R,0.6000X1.0500*%
%ADD27R,2.1000X1.6000*%
%ADD28R,1.9000X1.9000*%
%ADD29R,0.4000X1.3500*%
%ADD30R,1.8000X1.9000*%
D10*
X69500Y316500D02*
D03*
Y346500D02*
D03*
Y439000D02*
D03*
Y409000D02*
D03*
D11*
X137000Y471000D02*
D03*
X129000D02*
D03*
X121000D02*
D03*
X197000Y389000D02*
D03*
X189000D02*
D03*
X181000D02*
D03*
X173000D02*
D03*
X193000Y471000D02*
D03*
X185000D02*
D03*
X177000D02*
D03*
X169000D02*
D03*
X161000D02*
D03*
X153000D02*
D03*
X145000D02*
D03*
X125000Y389000D02*
D03*
X133000D02*
D03*
X141000D02*
D03*
X149000D02*
D03*
X157000D02*
D03*
X165000D02*
D03*
D12*
X46910Y267970D02*
D03*
X60410D02*
D03*
D13*
X91760Y96690D02*
D03*
Y110190D02*
D03*
X70170Y202330D02*
D03*
Y188830D02*
D03*
X160340Y169310D02*
D03*
Y155810D02*
D03*
D14*
X250980Y130150D02*
D03*
Y120650D02*
D03*
Y111150D02*
D03*
X277980D02*
D03*
Y130150D02*
D03*
X369510Y98460D02*
D03*
Y107960D02*
D03*
Y117460D02*
D03*
X342510D02*
D03*
Y98460D02*
D03*
X223960Y163840D02*
D03*
Y173340D02*
D03*
Y182840D02*
D03*
X196960D02*
D03*
Y163840D02*
D03*
D15*
X126210Y107780D02*
D03*
X131210D02*
D03*
X136210D02*
D03*
Y93280D02*
D03*
X131210D02*
D03*
X126210D02*
D03*
D16*
X172900Y79310D02*
D03*
X155400D02*
D03*
X111940Y78040D02*
D03*
X94440D02*
D03*
D17*
X174440Y98360D02*
D03*
X158940D02*
D03*
X109670Y323850D02*
D03*
X94170D02*
D03*
Y354330D02*
D03*
X109670D02*
D03*
X195710Y314640D02*
D03*
X180210D02*
D03*
X109670Y339090D02*
D03*
X94170D02*
D03*
X195710Y300670D02*
D03*
X180210D02*
D03*
X27400Y67230D02*
D03*
X42900D02*
D03*
X383170Y271640D02*
D03*
X398670D02*
D03*
X40750Y210000D02*
D03*
X25250D02*
D03*
X40470Y189960D02*
D03*
X24970D02*
D03*
X252920Y250190D02*
D03*
X268420D02*
D03*
X32200Y414020D02*
D03*
X16700D02*
D03*
X307250Y317000D02*
D03*
X322750D02*
D03*
X294250Y111000D02*
D03*
X309750D02*
D03*
X415420Y196850D02*
D03*
X399920D02*
D03*
X371750Y39000D02*
D03*
X356250D02*
D03*
D18*
X108270Y144650D02*
D03*
Y160150D02*
D03*
X49850Y161420D02*
D03*
Y145920D02*
D03*
X123510Y144650D02*
D03*
Y160150D02*
D03*
X174310Y170310D02*
D03*
Y154810D02*
D03*
X218760Y280800D02*
D03*
Y265300D02*
D03*
X48260Y410080D02*
D03*
Y425580D02*
D03*
X243480Y174480D02*
D03*
Y189980D02*
D03*
X56200Y203330D02*
D03*
Y187830D02*
D03*
X107000Y111190D02*
D03*
Y95690D02*
D03*
X88500Y390750D02*
D03*
Y375250D02*
D03*
X326000Y238250D02*
D03*
Y253750D02*
D03*
X434000Y248250D02*
D03*
Y263750D02*
D03*
X439830Y109100D02*
D03*
Y124600D02*
D03*
X389030Y101480D02*
D03*
Y116980D02*
D03*
D19*
X68060Y160400D02*
D03*
X90060D02*
D03*
Y144400D02*
D03*
X68060D02*
D03*
D20*
X105020Y206330D02*
D03*
X110020D02*
D03*
X115020D02*
D03*
X120020D02*
D03*
X125020D02*
D03*
X130020D02*
D03*
X135020D02*
D03*
X140020D02*
D03*
X145020D02*
D03*
X150020D02*
D03*
X155020D02*
D03*
X160020D02*
D03*
Y290830D02*
D03*
X155020D02*
D03*
X150020D02*
D03*
X145020D02*
D03*
X140020D02*
D03*
X135020D02*
D03*
X130020D02*
D03*
X125020D02*
D03*
X120020D02*
D03*
X115020D02*
D03*
X110020D02*
D03*
X105020D02*
D03*
D21*
X174770Y221080D02*
D03*
Y226080D02*
D03*
Y231080D02*
D03*
Y236080D02*
D03*
Y241080D02*
D03*
Y246080D02*
D03*
Y251080D02*
D03*
Y256080D02*
D03*
Y261080D02*
D03*
Y266080D02*
D03*
Y271080D02*
D03*
Y276080D02*
D03*
X90270D02*
D03*
Y271080D02*
D03*
Y266080D02*
D03*
Y261080D02*
D03*
Y256080D02*
D03*
Y251080D02*
D03*
Y246080D02*
D03*
Y241080D02*
D03*
Y236080D02*
D03*
Y231080D02*
D03*
Y226080D02*
D03*
Y221080D02*
D03*
D22*
X112000Y311150D02*
D03*
X102000D02*
D03*
X58660Y279400D02*
D03*
X48660D02*
D03*
X58660Y256540D02*
D03*
X48660D02*
D03*
X58660Y289560D02*
D03*
X48660D02*
D03*
X58660Y299720D02*
D03*
X48660D02*
D03*
X169150Y185420D02*
D03*
X159150D02*
D03*
X266940Y96520D02*
D03*
X256940D02*
D03*
X205140Y147940D02*
D03*
X215140D02*
D03*
X26340Y79930D02*
D03*
X36340D02*
D03*
X110890Y182880D02*
D03*
X120890D02*
D03*
X349740Y83830D02*
D03*
X359740D02*
D03*
X364410Y195580D02*
D03*
X354410D02*
D03*
D23*
X195900Y279320D02*
D03*
Y269320D02*
D03*
X70170Y227250D02*
D03*
Y217250D02*
D03*
X59280Y99060D02*
D03*
Y109060D02*
D03*
X147640Y176610D02*
D03*
Y186610D02*
D03*
X232730Y96600D02*
D03*
Y106600D02*
D03*
X373380Y237410D02*
D03*
Y227410D02*
D03*
X421180Y50240D02*
D03*
Y60240D02*
D03*
X290830Y214550D02*
D03*
Y204550D02*
D03*
D24*
X20610Y95830D02*
D03*
Y105330D02*
D03*
Y114830D02*
D03*
X44610D02*
D03*
Y105330D02*
D03*
Y95830D02*
D03*
X344870Y182220D02*
D03*
Y172720D02*
D03*
Y163220D02*
D03*
X368870D02*
D03*
Y182220D02*
D03*
X259880Y178420D02*
D03*
X277880Y187920D02*
D03*
Y168920D02*
D03*
X405430Y118120D02*
D03*
X423430Y127620D02*
D03*
Y108620D02*
D03*
D25*
X260670Y284590D02*
D03*
X270170Y266590D02*
D03*
X251170D02*
D03*
X24450Y447150D02*
D03*
X33950Y429150D02*
D03*
X14950D02*
D03*
X398780Y181610D02*
D03*
X408280Y163610D02*
D03*
X389280D02*
D03*
X219370Y118680D02*
D03*
X209870D02*
D03*
X200370D02*
D03*
Y94680D02*
D03*
X219370D02*
D03*
D26*
X406550Y68740D02*
D03*
X397050D02*
D03*
X387550D02*
D03*
Y41740D02*
D03*
X406550D02*
D03*
X305460Y196050D02*
D03*
X314960D02*
D03*
X324460D02*
D03*
Y223050D02*
D03*
X305460D02*
D03*
X388010Y218910D02*
D03*
X397510D02*
D03*
X407010D02*
D03*
Y245910D02*
D03*
X388010D02*
D03*
D27*
X101000Y41500D02*
D03*
X163000D02*
D03*
D28*
X120000Y16000D02*
D03*
X144000D02*
D03*
D29*
X119000Y42750D02*
D03*
X125500D02*
D03*
X132000D02*
D03*
X138500D02*
D03*
X145000D02*
D03*
D30*
X94000Y16000D02*
D03*
X170000D02*
D03*
M02*
