G04*
G04 #@! TF.GenerationSoftware,Altium Limited,Altium Designer,24.1.2 (44)*
G04*
G04 Layer_Physical_Order=4*
G04 Layer_Color=16711680*
%FSLAX44Y44*%
%MOMM*%
G71*
G04*
G04 #@! TF.SameCoordinates,635B94A0-59F8-49C6-AB40-AA6DFF865303*
G04*
G04*
G04 #@! TF.FilePolarity,Positive*
G04*
G01*
G75*
%ADD10C,0.1500*%
%ADD12C,0.2000*%
%ADD42C,1.6000*%
%ADD67C,1.0000*%
%ADD68C,0.5000*%
G04:AMPARAMS|DCode=77|XSize=1.6mm|YSize=1.6mm|CornerRadius=0.24mm|HoleSize=0mm|Usage=FLASHONLY|Rotation=90.000|XOffset=0mm|YOffset=0mm|HoleType=Round|Shape=RoundedRectangle|*
%AMROUNDEDRECTD77*
21,1,1.6000,1.1200,0,0,90.0*
21,1,1.1200,1.6000,0,0,90.0*
1,1,0.4800,0.5600,0.5600*
1,1,0.4800,0.5600,-0.5600*
1,1,0.4800,-0.5600,-0.5600*
1,1,0.4800,-0.5600,0.5600*
%
%ADD77ROUNDEDRECTD77*%
G04:AMPARAMS|DCode=78|XSize=1.6mm|YSize=1.6mm|CornerRadius=0.24mm|HoleSize=0mm|Usage=FLASHONLY|Rotation=180.000|XOffset=0mm|YOffset=0mm|HoleType=Round|Shape=RoundedRectangle|*
%AMROUNDEDRECTD78*
21,1,1.6000,1.1200,0,0,180.0*
21,1,1.1200,1.6000,0,0,180.0*
1,1,0.4800,-0.5600,0.5600*
1,1,0.4800,0.5600,0.5600*
1,1,0.4800,0.5600,-0.5600*
1,1,0.4800,-0.5600,-0.5600*
%
%ADD78ROUNDEDRECTD78*%
%ADD79C,0.1000*%
%ADD80R,1.6000X1.6000*%
%ADD81C,1.5000*%
G04:AMPARAMS|DCode=82|XSize=1.5mm|YSize=1.5mm|CornerRadius=0.375mm|HoleSize=0mm|Usage=FLASHONLY|Rotation=90.000|XOffset=0mm|YOffset=0mm|HoleType=Round|Shape=RoundedRectangle|*
%AMROUNDEDRECTD82*
21,1,1.5000,0.7500,0,0,90.0*
21,1,0.7500,1.5000,0,0,90.0*
1,1,0.7500,0.3750,0.3750*
1,1,0.7500,0.3750,-0.3750*
1,1,0.7500,-0.3750,-0.3750*
1,1,0.7500,-0.3750,0.3750*
%
%ADD82ROUNDEDRECTD82*%
%ADD83C,0.6000*%
%ADD85C,1.0000*%
%ADD86R,0.7500X0.9000*%
G36*
X449091Y488632D02*
X447277Y486509D01*
X444975Y482751D01*
X443288Y478679D01*
X442259Y474394D01*
X441913Y470000D01*
X442259Y465606D01*
X443288Y461321D01*
X444975Y457249D01*
X447277Y453491D01*
X450140Y450140D01*
X453491Y447277D01*
X457249Y444975D01*
X461321Y443288D01*
X465606Y442259D01*
X470000Y441913D01*
X474394Y442259D01*
X478679Y443288D01*
X482751Y444975D01*
X486509Y447277D01*
X488632Y449091D01*
X489902Y448506D01*
Y148064D01*
X472500D01*
X471232Y147811D01*
X470157Y147093D01*
X469439Y146018D01*
X469186Y144750D01*
X469211Y144625D01*
X469186Y144500D01*
Y53023D01*
X465606Y52741D01*
X461321Y51712D01*
X457249Y50025D01*
X453491Y47723D01*
X450140Y44860D01*
X447277Y41509D01*
X444975Y37751D01*
X443288Y33679D01*
X442259Y29394D01*
X441913Y25000D01*
X442259Y20606D01*
X443288Y16321D01*
X444975Y12249D01*
X447277Y8491D01*
X449091Y6368D01*
X448506Y5098D01*
X46494D01*
X45909Y6368D01*
X47723Y8491D01*
X50025Y12249D01*
X51712Y16321D01*
X52741Y20606D01*
X53087Y25000D01*
X52741Y29394D01*
X51712Y33679D01*
X50025Y37751D01*
X47723Y41509D01*
X44860Y44860D01*
X41509Y47723D01*
X37751Y50025D01*
X33679Y51712D01*
X29394Y52741D01*
X25000Y53087D01*
X20606Y52741D01*
X16321Y51712D01*
X12249Y50025D01*
X8491Y47723D01*
X6368Y45909D01*
X5098Y46494D01*
Y489902D01*
X448506D01*
X449091Y488632D01*
D02*
G37*
%LPC*%
G36*
X201750Y482259D02*
Y478749D01*
X205259D01*
X205180Y479145D01*
X203965Y480964D01*
X202146Y482180D01*
X201750Y482259D01*
D02*
G37*
G36*
X198250D02*
X197854Y482180D01*
X196034Y480964D01*
X194819Y479145D01*
X194740Y478749D01*
X198250D01*
Y482259D01*
D02*
G37*
G36*
X205259Y475249D02*
X201750D01*
Y471739D01*
X202146Y471818D01*
X203965Y473034D01*
X205180Y474853D01*
X205259Y475249D01*
D02*
G37*
G36*
X198250D02*
X194740D01*
X194819Y474853D01*
X196034Y473034D01*
X197854Y471818D01*
X198250Y471739D01*
Y475249D01*
D02*
G37*
G36*
X28800Y483095D02*
X25928Y482717D01*
X23252Y481609D01*
X20955Y479845D01*
X19191Y477547D01*
X18083Y474872D01*
X17705Y472000D01*
X18083Y469128D01*
X19191Y466453D01*
X20955Y464155D01*
X23252Y462392D01*
X25928Y461283D01*
X28800Y460905D01*
X31672Y461283D01*
X34348Y462392D01*
X36645Y464155D01*
X38409Y466453D01*
X39517Y469128D01*
X39895Y472000D01*
X39517Y474872D01*
X38409Y477547D01*
X36645Y479845D01*
X34348Y481609D01*
X31672Y482717D01*
X28800Y483095D01*
D02*
G37*
G36*
X59800Y483106D02*
X48600D01*
X46493Y482687D01*
X44707Y481493D01*
X43513Y479707D01*
X43094Y477600D01*
Y466400D01*
X43513Y464293D01*
X44707Y462507D01*
X46493Y461313D01*
X48600Y460894D01*
X59800D01*
X61907Y461313D01*
X63693Y462507D01*
X64887Y464293D01*
X65306Y466400D01*
Y477600D01*
X64887Y479707D01*
X63693Y481493D01*
X61907Y482687D01*
X59800Y483106D01*
D02*
G37*
G36*
X194750Y462260D02*
Y458750D01*
X198260D01*
X198181Y459146D01*
X196965Y460965D01*
X195146Y462181D01*
X194750Y462260D01*
D02*
G37*
G36*
X191250D02*
X190854Y462181D01*
X189035Y460965D01*
X187819Y459146D01*
X187740Y458750D01*
X191250D01*
Y462260D01*
D02*
G37*
G36*
X198260Y455250D02*
X194750D01*
Y451740D01*
X195146Y451819D01*
X196965Y453035D01*
X198181Y454854D01*
X198260Y455250D01*
D02*
G37*
G36*
X191250D02*
X187740D01*
X187819Y454854D01*
X189035Y453035D01*
X190854Y451819D01*
X191250Y451740D01*
Y455250D01*
D02*
G37*
G36*
X275350Y449360D02*
Y440750D01*
X283960D01*
X283830Y441741D01*
X282772Y444295D01*
X281089Y446489D01*
X278895Y448172D01*
X276341Y449230D01*
X275350Y449360D01*
D02*
G37*
G36*
X271850Y449360D02*
X270859Y449230D01*
X268305Y448172D01*
X266111Y446489D01*
X264428Y444295D01*
X263370Y441741D01*
X263240Y440750D01*
X271850D01*
Y449360D01*
D02*
G37*
G36*
X374750Y449360D02*
Y440750D01*
X383360D01*
X383230Y441741D01*
X382172Y444295D01*
X380489Y446489D01*
X378295Y448172D01*
X375741Y449230D01*
X374750Y449360D01*
D02*
G37*
G36*
X371250D02*
X370259Y449230D01*
X367705Y448172D01*
X365511Y446489D01*
X363828Y444295D01*
X362770Y441741D01*
X362640Y440750D01*
X371250D01*
Y449360D01*
D02*
G37*
G36*
X50010Y440870D02*
Y437360D01*
X53520D01*
X53441Y437756D01*
X52225Y439575D01*
X50406Y440791D01*
X50010Y440870D01*
D02*
G37*
G36*
X46510D02*
X46114Y440791D01*
X44295Y439575D01*
X43079Y437756D01*
X43000Y437360D01*
X46510D01*
Y440870D01*
D02*
G37*
G36*
X299000Y450095D02*
X296128Y449717D01*
X293453Y448609D01*
X291155Y446845D01*
X289391Y444548D01*
X288283Y441872D01*
X287905Y439000D01*
X288283Y436128D01*
X289391Y433452D01*
X290630Y431839D01*
X290004Y430569D01*
X281803D01*
X281340Y431839D01*
X282772Y433705D01*
X283830Y436259D01*
X283960Y437250D01*
X273600D01*
X262362D01*
X261983Y437063D01*
X259675Y439371D01*
X259664Y439389D01*
X259639Y439436D01*
X259617Y439486D01*
X259596Y439546D01*
X259578Y439618D01*
X259563Y439707D01*
X259559Y439754D01*
X259608Y440000D01*
X259181Y442146D01*
X257965Y443965D01*
X256146Y445181D01*
X254000Y445608D01*
X251854Y445181D01*
X250035Y443965D01*
X248819Y442146D01*
X248392Y440000D01*
X248819Y437854D01*
X250035Y436035D01*
X251854Y434819D01*
X254000Y434392D01*
X254246Y434441D01*
X254293Y434437D01*
X254382Y434422D01*
X254454Y434404D01*
X254514Y434383D01*
X254565Y434361D01*
X254611Y434336D01*
X254629Y434325D01*
X264477Y424477D01*
X265634Y423703D01*
X266410Y423549D01*
X266726Y422191D01*
X265755Y421445D01*
X263992Y419147D01*
X262883Y416472D01*
X262505Y413600D01*
X262696Y412146D01*
X261494Y411553D01*
X250675Y422371D01*
X250664Y422389D01*
X250639Y422435D01*
X250617Y422486D01*
X250596Y422546D01*
X250578Y422618D01*
X250563Y422707D01*
X250559Y422754D01*
X250608Y423000D01*
X250181Y425146D01*
X248965Y426965D01*
X247146Y428181D01*
X245000Y428608D01*
X242854Y428181D01*
X241035Y426965D01*
X239819Y425146D01*
X239392Y423000D01*
X239819Y420854D01*
X241035Y419035D01*
X242854Y417819D01*
X245000Y417392D01*
X245246Y417441D01*
X245293Y417437D01*
X245382Y417422D01*
X245454Y417404D01*
X245514Y417383D01*
X245565Y417361D01*
X245611Y417336D01*
X245629Y417325D01*
X264477Y398477D01*
X265634Y397703D01*
X265789Y397672D01*
X266105Y396315D01*
X265755Y396045D01*
X263992Y393747D01*
X262883Y391072D01*
X262505Y388200D01*
X262883Y385328D01*
X263992Y382653D01*
X265755Y380355D01*
X268053Y378591D01*
X270728Y377483D01*
X273600Y377105D01*
X276472Y377483D01*
X279147Y378591D01*
X281445Y380355D01*
X283209Y382653D01*
X284317Y385328D01*
X284695Y388200D01*
X284317Y391072D01*
X283209Y393747D01*
X281445Y396045D01*
X281206Y396229D01*
X281614Y397431D01*
X286000D01*
X286730Y397577D01*
X288000Y396716D01*
Y382247D01*
X281322Y375569D01*
X251478D01*
X226675Y400371D01*
X226664Y400389D01*
X226639Y400435D01*
X226617Y400486D01*
X226596Y400546D01*
X226578Y400618D01*
X226563Y400707D01*
X226559Y400754D01*
X226608Y401000D01*
X226181Y403146D01*
X224965Y404965D01*
X223146Y406181D01*
X221000Y406608D01*
X218854Y406181D01*
X217035Y404965D01*
X215819Y403146D01*
X215392Y401000D01*
X215819Y398854D01*
X217035Y397035D01*
X218854Y395819D01*
X221000Y395392D01*
X221246Y395441D01*
X221293Y395437D01*
X221382Y395422D01*
X221454Y395404D01*
X221514Y395383D01*
X221565Y395361D01*
X221611Y395336D01*
X221629Y395325D01*
X247477Y369477D01*
X248634Y368703D01*
X250000Y368431D01*
X282800D01*
X284166Y368703D01*
X285323Y369477D01*
X293047Y377200D01*
X295431D01*
Y369478D01*
X269477Y343523D01*
X268703Y342366D01*
X268431Y341000D01*
Y263451D01*
X267175Y263045D01*
X265356Y264261D01*
X264960Y264340D01*
Y259080D01*
Y253820D01*
X265356Y253899D01*
X267175Y255115D01*
X268431Y254709D01*
Y226458D01*
X268427Y226437D01*
X268412Y226387D01*
X268392Y226335D01*
X268364Y226278D01*
X268326Y226215D01*
X268273Y226141D01*
X268243Y226105D01*
X268035Y225965D01*
X266819Y224146D01*
X266392Y222000D01*
X266819Y219854D01*
X268035Y218035D01*
X268328Y217839D01*
X267943Y216569D01*
X260478D01*
X240569Y236478D01*
Y248542D01*
X240573Y248563D01*
X240588Y248613D01*
X240608Y248665D01*
X240636Y248722D01*
X240674Y248785D01*
X240727Y248859D01*
X240757Y248895D01*
X240965Y249035D01*
X242181Y250854D01*
X242608Y253000D01*
X242181Y255146D01*
X240965Y256965D01*
X239146Y258181D01*
X237000Y258608D01*
X234854Y258181D01*
X233035Y256965D01*
X231819Y255146D01*
X231392Y253000D01*
X231819Y250854D01*
X233035Y249035D01*
X233243Y248895D01*
X233274Y248859D01*
X233326Y248786D01*
X233364Y248721D01*
X233392Y248665D01*
X233412Y248613D01*
X233427Y248563D01*
X233431Y248542D01*
Y235000D01*
X233703Y233634D01*
X234477Y232477D01*
X254211Y212742D01*
X253725Y211569D01*
X186478D01*
X185675Y212371D01*
X185664Y212389D01*
X185639Y212435D01*
X185617Y212486D01*
X185596Y212546D01*
X185578Y212618D01*
X185563Y212707D01*
X185559Y212754D01*
X185608Y213000D01*
X185181Y215146D01*
X183965Y216965D01*
X182146Y218181D01*
X180000Y218608D01*
X177854Y218181D01*
X176035Y216965D01*
X174819Y215146D01*
X174392Y213000D01*
X174819Y210854D01*
X176035Y209035D01*
X177854Y207819D01*
X180000Y207392D01*
X180246Y207441D01*
X180293Y207437D01*
X180382Y207422D01*
X180454Y207404D01*
X180514Y207383D01*
X180565Y207361D01*
X180611Y207336D01*
X180629Y207325D01*
X182477Y205477D01*
X183634Y204703D01*
X185000Y204431D01*
X245195D01*
X245448Y203161D01*
X244458Y202751D01*
X242891Y201549D01*
X241689Y199982D01*
X240933Y198158D01*
X240675Y196200D01*
Y190760D01*
X240933Y188802D01*
X241689Y186978D01*
X242891Y185411D01*
X275435Y152867D01*
Y107916D01*
X274949Y107282D01*
X274193Y105458D01*
X273935Y103500D01*
Y96642D01*
X273706Y96088D01*
X273431Y94000D01*
X273706Y91912D01*
X274512Y89965D01*
X275794Y88294D01*
X277465Y87012D01*
X279091Y86339D01*
X278839Y85069D01*
X251978D01*
X230549Y106497D01*
X230660Y106705D01*
Y111280D01*
X227065D01*
X226630Y110833D01*
X226106Y110453D01*
X224870Y110699D01*
X214328D01*
X214307Y110703D01*
X214256Y110718D01*
X214205Y110738D01*
X214148Y110766D01*
X214084Y110804D01*
X214011Y110857D01*
X213974Y110887D01*
X213835Y111095D01*
X212016Y112311D01*
X209870Y112738D01*
X207724Y112311D01*
X205905Y111095D01*
X204689Y109276D01*
X204262Y107130D01*
X204689Y104984D01*
X205905Y103165D01*
X207724Y101949D01*
X209870Y101522D01*
X212016Y101949D01*
X213835Y103165D01*
X213974Y103373D01*
X214011Y103404D01*
X214084Y103455D01*
X214149Y103494D01*
X214205Y103522D01*
X214256Y103542D01*
X214307Y103557D01*
X214328Y103561D01*
X223392D01*
X229683Y97270D01*
X229435Y96768D01*
X228934Y96223D01*
X227000Y96608D01*
X224854Y96181D01*
X223035Y94965D01*
X221819Y93146D01*
X221392Y91000D01*
X221819Y88854D01*
X223035Y87035D01*
X224854Y85819D01*
X227000Y85392D01*
X229146Y85819D01*
X230965Y87035D01*
X232181Y88854D01*
X232608Y91000D01*
X232223Y92934D01*
X232768Y93435D01*
X233270Y93683D01*
X247977Y78977D01*
X249134Y78203D01*
X250500Y77931D01*
X283500D01*
X284866Y78203D01*
X286023Y78977D01*
X322371Y115325D01*
X322389Y115336D01*
X322435Y115361D01*
X322486Y115383D01*
X322546Y115404D01*
X322618Y115422D01*
X322707Y115437D01*
X322754Y115441D01*
X323000Y115392D01*
X325146Y115819D01*
X326965Y117035D01*
X328181Y118854D01*
X328608Y121000D01*
X328181Y123146D01*
X326965Y124965D01*
X325146Y126181D01*
X323000Y126608D01*
X320854Y126181D01*
X319035Y124965D01*
X317819Y123146D01*
X317392Y121000D01*
X317441Y120754D01*
X317437Y120707D01*
X317422Y120618D01*
X317404Y120546D01*
X317383Y120486D01*
X317361Y120435D01*
X317336Y120389D01*
X317325Y120371D01*
X290722Y93768D01*
X289521Y94364D01*
X289294Y96088D01*
X289065Y96642D01*
Y100584D01*
X289551Y101218D01*
X290307Y103042D01*
X290565Y105000D01*
Y156000D01*
X290565Y156000D01*
X290436Y156979D01*
X290307Y157958D01*
X289551Y159782D01*
X288953Y160562D01*
X289833Y161501D01*
X290854Y160819D01*
X293000Y160392D01*
X293246Y160441D01*
X293293Y160437D01*
X293382Y160422D01*
X293454Y160404D01*
X293514Y160383D01*
X293565Y160361D01*
X293611Y160336D01*
X293629Y160325D01*
X349477Y104477D01*
X350634Y103703D01*
X352000Y103431D01*
X398542D01*
X398563Y103427D01*
X398614Y103412D01*
X398665Y103392D01*
X398722Y103364D01*
X398786Y103326D01*
X398859Y103273D01*
X398895Y103243D01*
X399035Y103035D01*
X400854Y101819D01*
X403000Y101392D01*
X405146Y101819D01*
X406965Y103035D01*
X408181Y104854D01*
X408608Y107000D01*
X408181Y109146D01*
X406965Y110965D01*
X405146Y112181D01*
X403000Y112608D01*
X400854Y112181D01*
X399035Y110965D01*
X398895Y110757D01*
X398859Y110726D01*
X398786Y110674D01*
X398721Y110636D01*
X398665Y110608D01*
X398614Y110588D01*
X398563Y110573D01*
X398542Y110569D01*
X353478D01*
X298675Y165371D01*
X298664Y165389D01*
X298639Y165436D01*
X298617Y165486D01*
X298596Y165546D01*
X298578Y165618D01*
X298563Y165707D01*
X298559Y165754D01*
X298608Y166000D01*
X298181Y168146D01*
X296965Y169965D01*
X295146Y171181D01*
X293000Y171608D01*
X290854Y171181D01*
X289035Y169965D01*
X287819Y168146D01*
X287392Y166000D01*
X287819Y163854D01*
X288179Y163315D01*
X287193Y162505D01*
X255805Y193893D01*
Y196200D01*
X255547Y198158D01*
X254791Y199982D01*
X253589Y201549D01*
X252022Y202751D01*
X251032Y203161D01*
X251285Y204431D01*
X313542D01*
X313563Y204427D01*
X313613Y204412D01*
X313665Y204392D01*
X313722Y204364D01*
X313785Y204326D01*
X313859Y204273D01*
X313895Y204243D01*
X314035Y204035D01*
X315854Y202819D01*
X318000Y202392D01*
X320146Y202819D01*
X320311Y202930D01*
X321431Y202331D01*
Y194478D01*
X314477Y187523D01*
X313703Y186366D01*
X313431Y185000D01*
Y158000D01*
X313703Y156634D01*
X314477Y155477D01*
X336835Y133119D01*
X336846Y133101D01*
X336871Y133055D01*
X336893Y133004D01*
X336914Y132944D01*
X336932Y132872D01*
X336947Y132783D01*
X336951Y132736D01*
X336902Y132490D01*
X337329Y130344D01*
X338545Y128525D01*
X340364Y127309D01*
X342510Y126882D01*
X344656Y127309D01*
X346475Y128525D01*
X347691Y130344D01*
X348118Y132490D01*
X347691Y134636D01*
X346475Y136455D01*
X344656Y137671D01*
X342510Y138098D01*
X342264Y138049D01*
X342217Y138053D01*
X342128Y138068D01*
X342056Y138086D01*
X341996Y138107D01*
X341945Y138129D01*
X341899Y138154D01*
X341881Y138165D01*
X320569Y159478D01*
Y170331D01*
X321689Y170930D01*
X321854Y170819D01*
X324000Y170392D01*
X326146Y170819D01*
X327965Y172035D01*
X328105Y172243D01*
X328141Y172274D01*
X328214Y172325D01*
X328279Y172364D01*
X328335Y172392D01*
X328386Y172412D01*
X328437Y172427D01*
X328458Y172431D01*
X389000D01*
X390366Y172703D01*
X391523Y173477D01*
X421371Y203325D01*
X421389Y203336D01*
X421436Y203361D01*
X421486Y203383D01*
X421546Y203404D01*
X421618Y203422D01*
X421707Y203437D01*
X421754Y203441D01*
X422000Y203392D01*
X424146Y203819D01*
X425965Y205035D01*
X427181Y206854D01*
X427608Y209000D01*
X427181Y211146D01*
X425965Y212965D01*
X424146Y214181D01*
X422000Y214608D01*
X420703Y214350D01*
X419939Y215493D01*
X420181Y215854D01*
X420260Y216250D01*
X416750D01*
Y211972D01*
X417061Y211507D01*
X416819Y211146D01*
X416392Y209000D01*
X416441Y208754D01*
X416437Y208707D01*
X416422Y208618D01*
X416404Y208546D01*
X416383Y208486D01*
X416361Y208435D01*
X416336Y208389D01*
X416325Y208371D01*
X387522Y179569D01*
X328458D01*
X328437Y179573D01*
X328386Y179588D01*
X328335Y179608D01*
X328279Y179636D01*
X328214Y179674D01*
X328141Y179727D01*
X328105Y179757D01*
X327965Y179965D01*
X326146Y181181D01*
X324000Y181608D01*
X321854Y181181D01*
X321689Y181070D01*
X320569Y181669D01*
Y183522D01*
X327523Y190477D01*
X328964Y190411D01*
X328995Y190393D01*
X329854Y189819D01*
X330250Y189740D01*
Y195000D01*
Y200260D01*
X329854Y200181D01*
X329689Y200070D01*
X328569Y200669D01*
Y212000D01*
X328297Y213366D01*
X327523Y214523D01*
X324523Y217523D01*
X323366Y218297D01*
X322000Y218569D01*
X313000D01*
X311634Y218297D01*
X310477Y217523D01*
X309522Y216569D01*
X303669D01*
X303070Y217689D01*
X303181Y217854D01*
X303608Y220000D01*
X303181Y222146D01*
X301965Y223965D01*
X300146Y225181D01*
X298000Y225608D01*
X295854Y225181D01*
X294035Y223965D01*
X292819Y222146D01*
X292392Y220000D01*
X292819Y217854D01*
X292930Y217689D01*
X292331Y216569D01*
X276057D01*
X275672Y217839D01*
X275965Y218035D01*
X277181Y219854D01*
X277608Y222000D01*
X277181Y224146D01*
X275965Y225965D01*
X275757Y226105D01*
X275727Y226141D01*
X275674Y226214D01*
X275636Y226279D01*
X275608Y226335D01*
X275588Y226387D01*
X275573Y226437D01*
X275569Y226458D01*
Y339522D01*
X301523Y365477D01*
X302297Y366634D01*
X302569Y368000D01*
Y377200D01*
X310000D01*
Y399200D01*
X290906D01*
X290420Y400373D01*
X292375Y402328D01*
X292377Y402330D01*
X292568Y402446D01*
X292887Y402586D01*
X293336Y402729D01*
X293912Y402861D01*
X294611Y402969D01*
X295399Y403044D01*
X295721Y403052D01*
X296128Y402883D01*
X299000Y402505D01*
X301872Y402883D01*
X304547Y403992D01*
X306845Y405755D01*
X307955Y407202D01*
X309628Y407325D01*
X318431Y398522D01*
Y336458D01*
X318427Y336437D01*
X318412Y336387D01*
X318392Y336335D01*
X318364Y336278D01*
X318326Y336214D01*
X318273Y336141D01*
X318243Y336105D01*
X318035Y335965D01*
X316819Y334146D01*
X316392Y332000D01*
X316819Y329854D01*
X318035Y328035D01*
X319854Y326819D01*
X322000Y326392D01*
X324146Y326819D01*
X325965Y328035D01*
X327181Y329854D01*
X327608Y332000D01*
X327181Y334146D01*
X325965Y335965D01*
X325757Y336105D01*
X325727Y336141D01*
X325675Y336214D01*
X325636Y336279D01*
X325608Y336335D01*
X325588Y336387D01*
X325573Y336437D01*
X325569Y336458D01*
Y397873D01*
X326839Y398501D01*
X327431Y398048D01*
Y343000D01*
X327703Y341634D01*
X328477Y340477D01*
X363477Y305477D01*
X364634Y304703D01*
X366000Y304431D01*
X405522D01*
X421681Y288272D01*
Y281005D01*
X420411Y280335D01*
X419146Y281181D01*
X417000Y281608D01*
X414854Y281181D01*
X413035Y279965D01*
X412896Y279757D01*
X412859Y279727D01*
X412786Y279674D01*
X412721Y279636D01*
X412665Y279608D01*
X412613Y279588D01*
X412563Y279573D01*
X412542Y279569D01*
X400000D01*
X398634Y279297D01*
X397477Y278523D01*
X387522Y268569D01*
X380401D01*
X379852Y269250D01*
X367996D01*
X366965Y268965D01*
X365146Y270181D01*
X363000Y270608D01*
X360854Y270181D01*
X359035Y268965D01*
X357819Y267146D01*
X357392Y265000D01*
X357819Y262854D01*
X359035Y261035D01*
X360854Y259819D01*
X363000Y259392D01*
X365146Y259819D01*
X366965Y261035D01*
X367104Y261243D01*
X367141Y261273D01*
X367214Y261325D01*
X367279Y261364D01*
X367335Y261392D01*
X367387Y261412D01*
X367437Y261427D01*
X367458Y261431D01*
X389000D01*
X390366Y261703D01*
X391523Y262477D01*
X401478Y272431D01*
X412542D01*
X412563Y272427D01*
X412613Y272412D01*
X412665Y272392D01*
X412722Y272364D01*
X412785Y272326D01*
X412859Y272273D01*
X412896Y272243D01*
X413035Y272035D01*
X414854Y270819D01*
X417000Y270392D01*
X419146Y270819D01*
X420411Y271665D01*
X421681Y270995D01*
Y268208D01*
X421677Y268187D01*
X421662Y268137D01*
X421642Y268085D01*
X421614Y268029D01*
X421576Y267964D01*
X421523Y267891D01*
X421493Y267855D01*
X421285Y267715D01*
X420069Y265896D01*
X419642Y263750D01*
X420069Y261604D01*
X421285Y259785D01*
X423104Y258569D01*
X425250Y258142D01*
X427396Y258569D01*
X429215Y259785D01*
X430431Y261604D01*
X430858Y263750D01*
X430431Y265896D01*
X429215Y267715D01*
X429007Y267855D01*
X428977Y267891D01*
X428924Y267964D01*
X428886Y268029D01*
X428858Y268085D01*
X428838Y268137D01*
X428823Y268187D01*
X428819Y268208D01*
Y289750D01*
X428547Y291116D01*
X427773Y292273D01*
X409523Y310523D01*
X408366Y311297D01*
X407000Y311569D01*
X367478D01*
X334569Y344478D01*
Y397047D01*
X335839Y397663D01*
X337000Y397431D01*
X365696D01*
X366127Y396161D01*
X365511Y395689D01*
X363828Y393495D01*
X362770Y390941D01*
X362640Y389950D01*
X373000D01*
X383360D01*
X383230Y390941D01*
X382172Y393495D01*
X380555Y395602D01*
X381512Y396441D01*
X385440Y392513D01*
X387376Y387663D01*
X387683Y385328D01*
X388792Y382653D01*
X390555Y380355D01*
X392853Y378591D01*
X395528Y377483D01*
X398400Y377105D01*
X401272Y377483D01*
X403947Y378591D01*
X406245Y380355D01*
X408008Y382653D01*
X408073Y382809D01*
X408278Y382992D01*
X408920Y383496D01*
X409517Y383914D01*
X410040Y384231D01*
X410477Y384450D01*
X410812Y384578D01*
X411030Y384631D01*
X462032D01*
X462593Y383492D01*
X461828Y382495D01*
X461755Y382318D01*
X461670Y382242D01*
X461083Y381785D01*
X460536Y381407D01*
X460059Y381121D01*
X459661Y380926D01*
X459358Y380813D01*
X459171Y380769D01*
X457200D01*
X455834Y380497D01*
X454677Y379723D01*
X450477Y375523D01*
X449703Y374366D01*
X449431Y373000D01*
Y247478D01*
X441745Y239792D01*
X440367Y240210D01*
X440181Y241146D01*
X438965Y242965D01*
X437146Y244181D01*
X436750Y244260D01*
Y239000D01*
X435000D01*
Y237250D01*
X429740D01*
X429819Y236854D01*
X429930Y236689D01*
X429331Y235569D01*
X405458D01*
X405437Y235573D01*
X405387Y235588D01*
X405335Y235608D01*
X405279Y235636D01*
X405215Y235674D01*
X405141Y235727D01*
X405104Y235757D01*
X404965Y235965D01*
X403146Y237181D01*
X401000Y237608D01*
X398854Y237181D01*
X397035Y235965D01*
X395819Y234146D01*
X395392Y232000D01*
X395819Y229854D01*
X397035Y228035D01*
X398854Y226819D01*
X401000Y226392D01*
X403146Y226819D01*
X404965Y228035D01*
X405104Y228243D01*
X405141Y228274D01*
X405214Y228326D01*
X405279Y228364D01*
X405335Y228392D01*
X405387Y228412D01*
X405437Y228427D01*
X405458Y228431D01*
X434725D01*
X435211Y227258D01*
X432477Y224523D01*
X431703Y223366D01*
X431431Y222000D01*
Y184458D01*
X431427Y184437D01*
X431412Y184387D01*
X431392Y184335D01*
X431364Y184278D01*
X431326Y184214D01*
X431273Y184141D01*
X431243Y184104D01*
X431035Y183965D01*
X429819Y182146D01*
X429392Y180000D01*
X429819Y177854D01*
X431035Y176035D01*
X432854Y174819D01*
X435000Y174392D01*
X437146Y174819D01*
X438965Y176035D01*
X440181Y177854D01*
X440608Y180000D01*
X440181Y182146D01*
X438965Y183965D01*
X438757Y184104D01*
X438727Y184141D01*
X438675Y184214D01*
X438636Y184279D01*
X438608Y184335D01*
X438588Y184387D01*
X438573Y184437D01*
X438569Y184458D01*
Y220522D01*
X461635Y243588D01*
X462902Y243505D01*
X463511Y242711D01*
X465705Y241028D01*
X468259Y239970D01*
X471000Y239609D01*
X473741Y239970D01*
X476295Y241028D01*
X478489Y242711D01*
X479161Y243588D01*
X480431Y243157D01*
Y239278D01*
X476841Y235688D01*
X476677Y235587D01*
X476383Y235452D01*
X475964Y235310D01*
X475424Y235174D01*
X474770Y235055D01*
X474032Y234963D01*
X473919Y234956D01*
X473741Y235030D01*
X471000Y235391D01*
X468259Y235030D01*
X465705Y233972D01*
X463511Y232289D01*
X461828Y230095D01*
X460770Y227541D01*
X460409Y224800D01*
X460770Y222059D01*
X461828Y219505D01*
X463511Y217311D01*
X465705Y215628D01*
X468259Y214570D01*
X471000Y214209D01*
X473741Y214570D01*
X476295Y215628D01*
X478489Y217311D01*
X480172Y219505D01*
X481230Y222059D01*
X481591Y224800D01*
X481230Y227541D01*
X481156Y227719D01*
X481163Y227832D01*
X481255Y228570D01*
X481374Y229224D01*
X481510Y229764D01*
X481652Y230183D01*
X481787Y230477D01*
X481888Y230641D01*
X486523Y235277D01*
X487297Y236434D01*
X487569Y237800D01*
Y382000D01*
X487297Y383366D01*
X486523Y384523D01*
X480323Y390723D01*
X479166Y391497D01*
X477800Y391769D01*
X475607D01*
X475354Y393039D01*
X476295Y393428D01*
X478489Y395111D01*
X480172Y397305D01*
X481230Y399859D01*
X481591Y402600D01*
X481230Y405341D01*
X480172Y407895D01*
X478489Y410089D01*
X476295Y411772D01*
X473741Y412830D01*
X471000Y413191D01*
X468259Y412830D01*
X465705Y411772D01*
X463511Y410089D01*
X461828Y407895D01*
X460770Y405341D01*
X460409Y402600D01*
X460770Y399859D01*
X461828Y397305D01*
X463511Y395111D01*
X465705Y393428D01*
X466646Y393039D01*
X466393Y391769D01*
X411030D01*
X410812Y391822D01*
X410477Y391950D01*
X410040Y392169D01*
X409518Y392486D01*
X408968Y392871D01*
X408042Y393668D01*
X408008Y393747D01*
X406245Y396045D01*
X403947Y397808D01*
X401272Y398917D01*
X398400Y399295D01*
X395528Y398917D01*
X392853Y397808D01*
X392497Y397536D01*
X391900Y397472D01*
X391387Y397465D01*
X390980Y397505D01*
X390675Y397575D01*
X390457Y397659D01*
X390299Y397752D01*
X390267Y397780D01*
X384523Y403523D01*
X383366Y404297D01*
X382000Y404569D01*
X380454D01*
X380045Y405771D01*
X380489Y406111D01*
X382172Y408305D01*
X383230Y410859D01*
X383360Y411850D01*
X373000D01*
X362640D01*
X362770Y410859D01*
X363828Y408305D01*
X365511Y406111D01*
X365955Y405771D01*
X365546Y404569D01*
X338478D01*
X310454Y432593D01*
X310338Y432784D01*
X310191Y433112D01*
X310037Y433575D01*
X309892Y434169D01*
X309775Y434831D01*
X309684Y436049D01*
X309717Y436128D01*
X310095Y439000D01*
X309717Y441872D01*
X308608Y444548D01*
X306845Y446845D01*
X304547Y448609D01*
X301872Y449717D01*
X299000Y450095D01*
D02*
G37*
G36*
X53520Y433860D02*
X50010D01*
Y430350D01*
X50406Y430429D01*
X52225Y431645D01*
X53441Y433464D01*
X53520Y433860D01*
D02*
G37*
G36*
X46510D02*
X43000D01*
X43079Y433464D01*
X44295Y431645D01*
X46114Y430429D01*
X46510Y430350D01*
Y433860D01*
D02*
G37*
G36*
X472750Y437856D02*
Y429750D01*
X480856D01*
X480743Y430611D01*
X479735Y433043D01*
X478132Y435132D01*
X476043Y436735D01*
X473610Y437743D01*
X472750Y437856D01*
D02*
G37*
G36*
X469250Y437856D02*
X468390Y437743D01*
X465957Y436735D01*
X463868Y435132D01*
X462265Y433043D01*
X461257Y430611D01*
X461144Y429750D01*
X469250D01*
Y437856D01*
D02*
G37*
G36*
X383360Y437250D02*
X374750D01*
Y428640D01*
X375741Y428770D01*
X378295Y429828D01*
X380489Y431511D01*
X382172Y433705D01*
X383230Y436259D01*
X383360Y437250D01*
D02*
G37*
G36*
X371250D02*
X362640D01*
X362770Y436259D01*
X363828Y433705D01*
X365511Y431511D01*
X367705Y429828D01*
X370259Y428770D01*
X371250Y428640D01*
Y437250D01*
D02*
G37*
G36*
X398400Y450095D02*
X395528Y449717D01*
X392853Y448609D01*
X390555Y446845D01*
X388792Y444547D01*
X387683Y441872D01*
X387305Y439000D01*
X387683Y436128D01*
X388792Y433453D01*
X390555Y431155D01*
X392853Y429392D01*
X395528Y428283D01*
X398400Y427905D01*
X401272Y428283D01*
X403947Y429392D01*
X406245Y431155D01*
X408008Y433453D01*
X409117Y436128D01*
X409495Y439000D01*
X409117Y441872D01*
X408008Y444547D01*
X406245Y446845D01*
X403947Y448609D01*
X401272Y449717D01*
X398400Y450095D01*
D02*
G37*
G36*
X207000Y441095D02*
X204128Y440717D01*
X201453Y439608D01*
X199155Y437845D01*
X197391Y435547D01*
X196283Y432872D01*
X195905Y430000D01*
X196283Y427128D01*
X197391Y424453D01*
X199155Y422155D01*
X201453Y420392D01*
X204128Y419283D01*
X207000Y418905D01*
X209872Y419283D01*
X212547Y420392D01*
X214845Y422155D01*
X216609Y424453D01*
X217717Y427128D01*
X218095Y430000D01*
X217717Y432872D01*
X216609Y435547D01*
X214845Y437845D01*
X212547Y439608D01*
X209872Y440717D01*
X207000Y441095D01*
D02*
G37*
G36*
X111000D02*
X108128Y440717D01*
X105453Y439608D01*
X103155Y437845D01*
X101391Y435547D01*
X100283Y432872D01*
X99905Y430000D01*
X100283Y427128D01*
X101391Y424453D01*
X103155Y422155D01*
X105453Y420392D01*
X108128Y419283D01*
X111000Y418905D01*
X113872Y419283D01*
X116547Y420392D01*
X118845Y422155D01*
X120609Y424453D01*
X121717Y427128D01*
X122095Y430000D01*
X121717Y432872D01*
X120609Y435547D01*
X118845Y437845D01*
X116547Y439608D01*
X113872Y440717D01*
X111000Y441095D01*
D02*
G37*
G36*
X480856Y426250D02*
X472750D01*
Y418144D01*
X473610Y418257D01*
X476043Y419265D01*
X478132Y420868D01*
X479735Y422957D01*
X480743Y425390D01*
X480856Y426250D01*
D02*
G37*
G36*
X469250D02*
X461144D01*
X461257Y425390D01*
X462265Y422957D01*
X463868Y420868D01*
X465957Y419265D01*
X468390Y418257D01*
X469250Y418144D01*
Y426250D01*
D02*
G37*
G36*
X374750Y423960D02*
Y415350D01*
X383360D01*
X383230Y416341D01*
X382172Y418895D01*
X380489Y421089D01*
X378295Y422772D01*
X375741Y423830D01*
X374750Y423960D01*
D02*
G37*
G36*
X371250D02*
X370259Y423830D01*
X367705Y422772D01*
X365511Y421089D01*
X363828Y418895D01*
X362770Y416341D01*
X362640Y415350D01*
X371250D01*
Y423960D01*
D02*
G37*
G36*
X402000Y469569D02*
X257000D01*
X255634Y469297D01*
X254477Y468523D01*
X230629Y444675D01*
X230611Y444664D01*
X230564Y444639D01*
X230514Y444617D01*
X230454Y444596D01*
X230382Y444578D01*
X230293Y444563D01*
X230246Y444559D01*
X230000Y444608D01*
X227854Y444181D01*
X226035Y442965D01*
X224819Y441146D01*
X224392Y439000D01*
X224819Y436854D01*
X226035Y435035D01*
X227854Y433819D01*
X230000Y433392D01*
X232146Y433819D01*
X233965Y435035D01*
X235181Y436854D01*
X235608Y439000D01*
X235559Y439246D01*
X235563Y439293D01*
X235578Y439382D01*
X235596Y439454D01*
X235617Y439514D01*
X235639Y439565D01*
X235664Y439611D01*
X235675Y439629D01*
X258478Y462431D01*
X400522D01*
X447325Y415629D01*
X447336Y415611D01*
X447361Y415564D01*
X447383Y415514D01*
X447404Y415454D01*
X447422Y415382D01*
X447437Y415293D01*
X447441Y415246D01*
X447392Y415000D01*
X447819Y412854D01*
X449035Y411035D01*
X450854Y409819D01*
X453000Y409392D01*
X455146Y409819D01*
X456965Y411035D01*
X458181Y412854D01*
X458608Y415000D01*
X458181Y417146D01*
X456965Y418965D01*
X455146Y420181D01*
X453000Y420608D01*
X452754Y420559D01*
X452707Y420563D01*
X452618Y420578D01*
X452546Y420596D01*
X452486Y420617D01*
X452435Y420639D01*
X452389Y420664D01*
X452371Y420675D01*
X404523Y468523D01*
X403366Y469297D01*
X402000Y469569D01*
D02*
G37*
G36*
X198750Y408260D02*
Y404750D01*
X202260D01*
X202181Y405146D01*
X200965Y406965D01*
X199146Y408181D01*
X198750Y408260D01*
D02*
G37*
G36*
X195250D02*
X194854Y408181D01*
X193035Y406965D01*
X191819Y405146D01*
X191740Y404750D01*
X195250D01*
Y408260D01*
D02*
G37*
G36*
X398400Y424695D02*
X395528Y424317D01*
X392853Y423209D01*
X390555Y421445D01*
X388792Y419147D01*
X387683Y416472D01*
X387305Y413600D01*
X387683Y410728D01*
X388792Y408053D01*
X390555Y405755D01*
X392853Y403992D01*
X395528Y402883D01*
X398400Y402505D01*
X401272Y402883D01*
X403947Y403992D01*
X406245Y405755D01*
X408008Y408053D01*
X409117Y410728D01*
X409495Y413600D01*
X409117Y416472D01*
X408008Y419147D01*
X406245Y421445D01*
X403947Y423209D01*
X401272Y424317D01*
X398400Y424695D01*
D02*
G37*
G36*
X202260Y401250D02*
X198750D01*
Y397740D01*
X199146Y397819D01*
X200965Y399035D01*
X202181Y400854D01*
X202260Y401250D01*
D02*
G37*
G36*
X195250D02*
X191740D01*
X191819Y400854D01*
X193035Y399035D01*
X194854Y397819D01*
X195250Y397740D01*
Y401250D01*
D02*
G37*
G36*
X125000Y407608D02*
X122854Y407181D01*
X121035Y405965D01*
X119819Y404146D01*
X119392Y402000D01*
X119819Y399854D01*
X121035Y398035D01*
X122854Y396819D01*
X125000Y396392D01*
X127146Y396819D01*
X128965Y398035D01*
X130181Y399854D01*
X130608Y402000D01*
X130181Y404146D01*
X128965Y405965D01*
X127146Y407181D01*
X125000Y407608D01*
D02*
G37*
G36*
X383360Y386450D02*
X374750D01*
Y377840D01*
X375741Y377970D01*
X378295Y379028D01*
X380489Y380711D01*
X382172Y382905D01*
X383230Y385459D01*
X383360Y386450D01*
D02*
G37*
G36*
X371250D02*
X362640D01*
X362770Y385459D01*
X363828Y382905D01*
X365511Y380711D01*
X367705Y379028D01*
X370259Y377970D01*
X371250Y377840D01*
Y386450D01*
D02*
G37*
G36*
X198750Y380260D02*
Y376750D01*
X202260D01*
X202181Y377146D01*
X200965Y378965D01*
X199146Y380181D01*
X198750Y380260D01*
D02*
G37*
G36*
X195250D02*
X194854Y380181D01*
X193035Y378965D01*
X191819Y377146D01*
X191740Y376750D01*
X195250D01*
Y380260D01*
D02*
G37*
G36*
X202260Y373250D02*
X198750D01*
Y369740D01*
X199146Y369819D01*
X200965Y371035D01*
X202181Y372854D01*
X202260Y373250D01*
D02*
G37*
G36*
X195250D02*
X191740D01*
X191819Y372854D01*
X193035Y371035D01*
X194854Y369819D01*
X195250Y369740D01*
Y373250D01*
D02*
G37*
G36*
X125000Y380608D02*
X122854Y380181D01*
X121035Y378965D01*
X119819Y377146D01*
X119392Y375000D01*
X119819Y372854D01*
X121035Y371035D01*
X122854Y369819D01*
X125000Y369392D01*
X127146Y369819D01*
X128965Y371035D01*
X130181Y372854D01*
X130608Y375000D01*
X130181Y377146D01*
X128965Y378965D01*
X127146Y380181D01*
X125000Y380608D01*
D02*
G37*
G36*
X21000Y391495D02*
X18128Y391117D01*
X15453Y390009D01*
X13155Y388245D01*
X11392Y385947D01*
X10283Y383272D01*
X9905Y380400D01*
X10283Y377528D01*
X11392Y374852D01*
X13155Y372555D01*
X15453Y370792D01*
X18128Y369683D01*
X21000Y369305D01*
X23872Y369683D01*
X26548Y370792D01*
X28845Y372555D01*
X30608Y374852D01*
X31717Y377528D01*
X32095Y380400D01*
X31717Y383272D01*
X30608Y385947D01*
X28845Y388245D01*
X26548Y390009D01*
X23872Y391117D01*
X21000Y391495D01*
D02*
G37*
G36*
X90650Y368480D02*
Y364970D01*
X94160D01*
X94081Y365366D01*
X92865Y367185D01*
X91046Y368401D01*
X90650Y368480D01*
D02*
G37*
G36*
X87150D02*
X86754Y368401D01*
X84935Y367185D01*
X83719Y365366D01*
X83640Y364970D01*
X87150D01*
Y368480D01*
D02*
G37*
G36*
X374750Y373160D02*
Y364550D01*
X383360D01*
X383230Y365541D01*
X382172Y368095D01*
X380489Y370289D01*
X378295Y371972D01*
X375741Y373030D01*
X374750Y373160D01*
D02*
G37*
G36*
X371250D02*
X370259Y373030D01*
X367705Y371972D01*
X365511Y370289D01*
X363828Y368095D01*
X362770Y365541D01*
X362640Y364550D01*
X371250D01*
Y373160D01*
D02*
G37*
G36*
X94160Y361470D02*
X90650D01*
Y357960D01*
X91046Y358039D01*
X92865Y359255D01*
X94081Y361074D01*
X94160Y361470D01*
D02*
G37*
G36*
X87150D02*
X83640D01*
X83719Y361074D01*
X84935Y359255D01*
X86754Y358039D01*
X87150Y357960D01*
Y361470D01*
D02*
G37*
G36*
X38000Y403608D02*
X35854Y403181D01*
X34035Y401965D01*
X32819Y400146D01*
X32392Y398000D01*
X32819Y395854D01*
X34035Y394035D01*
X35854Y392819D01*
X38000Y392392D01*
X38246Y392441D01*
X38293Y392437D01*
X38382Y392422D01*
X38454Y392404D01*
X38514Y392383D01*
X38565Y392361D01*
X38611Y392336D01*
X38629Y392325D01*
X58477Y372477D01*
X59634Y371703D01*
X61000Y371431D01*
X92522D01*
X104477Y359477D01*
X105634Y358703D01*
X107000Y358431D01*
X214542D01*
X214563Y358427D01*
X214613Y358412D01*
X214665Y358392D01*
X214722Y358364D01*
X214785Y358326D01*
X214859Y358274D01*
X214895Y358243D01*
X215035Y358035D01*
X216854Y356819D01*
X219000Y356392D01*
X221146Y356819D01*
X222965Y358035D01*
X224181Y359854D01*
X224608Y362000D01*
X224181Y364146D01*
X222965Y365965D01*
X221146Y367181D01*
X219000Y367608D01*
X216854Y367181D01*
X215035Y365965D01*
X214895Y365757D01*
X214859Y365727D01*
X214786Y365675D01*
X214721Y365636D01*
X214665Y365608D01*
X214613Y365588D01*
X214563Y365573D01*
X214542Y365569D01*
X108478D01*
X96523Y377523D01*
X95366Y378297D01*
X94000Y378569D01*
X62478D01*
X43675Y397371D01*
X43664Y397389D01*
X43639Y397435D01*
X43617Y397486D01*
X43596Y397546D01*
X43578Y397618D01*
X43563Y397707D01*
X43559Y397754D01*
X43608Y398000D01*
X43181Y400146D01*
X41965Y401965D01*
X40146Y403181D01*
X38000Y403608D01*
D02*
G37*
G36*
X383360Y361050D02*
X374750D01*
Y352440D01*
X375741Y352570D01*
X378295Y353628D01*
X380489Y355311D01*
X382172Y357505D01*
X383230Y360059D01*
X383360Y361050D01*
D02*
G37*
G36*
X371250D02*
X362640D01*
X362770Y360059D01*
X363828Y357505D01*
X365511Y355311D01*
X367705Y353628D01*
X370259Y352570D01*
X371250Y352440D01*
Y361050D01*
D02*
G37*
G36*
X398400Y373895D02*
X395528Y373517D01*
X392853Y372408D01*
X390555Y370645D01*
X388792Y368347D01*
X387683Y365672D01*
X387305Y362800D01*
X387683Y359928D01*
X388792Y357253D01*
X390555Y354955D01*
X392853Y353191D01*
X395528Y352083D01*
X398400Y351705D01*
X401272Y352083D01*
X403947Y353191D01*
X406245Y354955D01*
X408008Y357253D01*
X409117Y359928D01*
X409495Y362800D01*
X409117Y365672D01*
X408008Y368347D01*
X406245Y370645D01*
X403947Y372408D01*
X401272Y373517D01*
X398400Y373895D01*
D02*
G37*
G36*
X21000Y366095D02*
X18128Y365717D01*
X15453Y364608D01*
X13155Y362845D01*
X11392Y360547D01*
X10283Y357872D01*
X9905Y355000D01*
X10283Y352128D01*
X11392Y349453D01*
X13155Y347155D01*
X15453Y345392D01*
X18128Y344283D01*
X21000Y343905D01*
X23872Y344283D01*
X26548Y345392D01*
X28845Y347155D01*
X30608Y349453D01*
X31717Y352128D01*
X32095Y355000D01*
X31717Y357872D01*
X30608Y360547D01*
X28845Y362845D01*
X26548Y364608D01*
X23872Y365717D01*
X21000Y366095D01*
D02*
G37*
G36*
X409400Y348400D02*
X387400D01*
Y326400D01*
X409400D01*
Y348400D01*
D02*
G37*
G36*
X373000Y348495D02*
X370128Y348117D01*
X367453Y347009D01*
X365155Y345245D01*
X363391Y342947D01*
X362283Y340272D01*
X361905Y337400D01*
X362283Y334528D01*
X363391Y331853D01*
X365155Y329555D01*
X367453Y327791D01*
X370128Y326683D01*
X373000Y326305D01*
X375872Y326683D01*
X378547Y327791D01*
X380845Y329555D01*
X382608Y331853D01*
X383717Y334528D01*
X384095Y337400D01*
X383717Y340272D01*
X382608Y342947D01*
X380845Y345245D01*
X378547Y347009D01*
X375872Y348117D01*
X373000Y348495D01*
D02*
G37*
G36*
X85410Y329458D02*
X83264Y329031D01*
X81445Y327815D01*
X80229Y325996D01*
X79802Y323850D01*
X80229Y321704D01*
X81445Y319885D01*
X83264Y318669D01*
X85410Y318242D01*
X87556Y318669D01*
X89375Y319885D01*
X90591Y321704D01*
X91018Y323850D01*
X90591Y325996D01*
X89375Y327815D01*
X87556Y329031D01*
X85410Y329458D01*
D02*
G37*
G36*
X206220Y319900D02*
Y316390D01*
X209730D01*
X209651Y316786D01*
X208435Y318605D01*
X206616Y319821D01*
X206220Y319900D01*
D02*
G37*
G36*
X202720D02*
X202324Y319821D01*
X200505Y318605D01*
X199289Y316786D01*
X199210Y316390D01*
X202720D01*
Y319900D01*
D02*
G37*
G36*
X298750Y316260D02*
Y312750D01*
X302260D01*
X302181Y313146D01*
X300965Y314965D01*
X299146Y316181D01*
X298750Y316260D01*
D02*
G37*
G36*
X295250D02*
X294854Y316181D01*
X293035Y314965D01*
X291819Y313146D01*
X291740Y312750D01*
X295250D01*
Y316260D01*
D02*
G37*
G36*
X209730Y312890D02*
X206220D01*
Y309380D01*
X206616Y309459D01*
X208435Y310675D01*
X209651Y312494D01*
X209730Y312890D01*
D02*
G37*
G36*
X202720D02*
X199210D01*
X199289Y312494D01*
X200505Y310675D01*
X202324Y309459D01*
X202720Y309380D01*
Y312890D01*
D02*
G37*
G36*
X302260Y309250D02*
X298750D01*
Y305740D01*
X299146Y305819D01*
X300965Y307035D01*
X302181Y308854D01*
X302260Y309250D01*
D02*
G37*
G36*
X295250D02*
X291740D01*
X291819Y308854D01*
X293035Y307035D01*
X294854Y305819D01*
X295250Y305740D01*
Y309250D01*
D02*
G37*
G36*
X106210Y308790D02*
Y305280D01*
X109720D01*
X109641Y305676D01*
X108425Y307495D01*
X106606Y308711D01*
X106210Y308790D01*
D02*
G37*
G36*
X102710D02*
X102314Y308711D01*
X100495Y307495D01*
X99279Y305676D01*
X99200Y305280D01*
X102710D01*
Y308790D01*
D02*
G37*
G36*
X206220Y305930D02*
Y302420D01*
X209730D01*
X209651Y302816D01*
X208435Y304635D01*
X206616Y305851D01*
X206220Y305930D01*
D02*
G37*
G36*
X202720D02*
X202324Y305851D01*
X200505Y304635D01*
X199289Y302816D01*
X199210Y302420D01*
X202720D01*
Y305930D01*
D02*
G37*
G36*
X43980Y304980D02*
Y301470D01*
X47490D01*
X47411Y301866D01*
X46195Y303685D01*
X44376Y304901D01*
X43980Y304980D01*
D02*
G37*
G36*
X40480D02*
X40084Y304901D01*
X38265Y303685D01*
X37049Y301866D01*
X36970Y301470D01*
X40480D01*
Y304980D01*
D02*
G37*
G36*
X109720Y301780D02*
X106210D01*
Y298270D01*
X106606Y298349D01*
X108425Y299565D01*
X109641Y301384D01*
X109720Y301780D01*
D02*
G37*
G36*
X102710D02*
X99200D01*
X99279Y301384D01*
X100495Y299565D01*
X102314Y298349D01*
X102710Y298270D01*
Y301780D01*
D02*
G37*
G36*
X209730Y298920D02*
X206220D01*
Y295410D01*
X206616Y295489D01*
X208435Y296705D01*
X209651Y298524D01*
X209730Y298920D01*
D02*
G37*
G36*
X202720D02*
X199210D01*
X199289Y298524D01*
X200505Y296705D01*
X202324Y295489D01*
X202720Y295410D01*
Y298920D01*
D02*
G37*
G36*
X220510Y294820D02*
Y291310D01*
X224020D01*
X223941Y291706D01*
X222725Y293525D01*
X220906Y294741D01*
X220510Y294820D01*
D02*
G37*
G36*
X217010D02*
X216614Y294741D01*
X214795Y293525D01*
X213579Y291706D01*
X213500Y291310D01*
X217010D01*
Y294820D01*
D02*
G37*
G36*
X47490Y297970D02*
X36970D01*
X37049Y297574D01*
X38265Y295755D01*
X38983Y295275D01*
Y294005D01*
X38265Y293525D01*
X37049Y291706D01*
X36970Y291310D01*
X47490D01*
X47411Y291706D01*
X46195Y293525D01*
X45477Y294005D01*
Y295275D01*
X46195Y295755D01*
X47411Y297574D01*
X47490Y297970D01*
D02*
G37*
G36*
X224020Y287810D02*
X220510D01*
Y284300D01*
X220906Y284379D01*
X222725Y285595D01*
X223941Y287414D01*
X224020Y287810D01*
D02*
G37*
G36*
X217010D02*
X213500D01*
X213579Y287414D01*
X214795Y285595D01*
X216614Y284379D01*
X217010Y284300D01*
Y287810D01*
D02*
G37*
G36*
X47490D02*
X36970D01*
X37049Y287414D01*
X38265Y285595D01*
X38983Y285115D01*
Y283845D01*
X38265Y283365D01*
X37049Y281546D01*
X36970Y281150D01*
X47490D01*
X47411Y281546D01*
X46195Y283365D01*
X45477Y283845D01*
Y285115D01*
X46195Y285595D01*
X47411Y287414D01*
X47490Y287810D01*
D02*
G37*
G36*
X375750Y276260D02*
Y272750D01*
X379260D01*
X379181Y273146D01*
X377965Y274965D01*
X376146Y276181D01*
X375750Y276260D01*
D02*
G37*
G36*
X372250D02*
X371854Y276181D01*
X370035Y274965D01*
X368819Y273146D01*
X368740Y272750D01*
X372250D01*
Y276260D01*
D02*
G37*
G36*
X188280Y283738D02*
X186134Y283311D01*
X184315Y282095D01*
X183099Y280276D01*
X182672Y278130D01*
X183099Y275984D01*
X184052Y274557D01*
X184222Y273685D01*
X184052Y272813D01*
X183099Y271386D01*
X183020Y270990D01*
X193540D01*
X193461Y271386D01*
X192508Y272813D01*
X192338Y273685D01*
X192508Y274557D01*
X193461Y275984D01*
X193888Y278130D01*
X193461Y280276D01*
X192245Y282095D01*
X190426Y283311D01*
X188280Y283738D01*
D02*
G37*
G36*
X47490Y277650D02*
X36970D01*
X37049Y277254D01*
X38265Y275435D01*
X39240Y274783D01*
X38972Y273435D01*
X37544Y273151D01*
X35725Y271935D01*
X34509Y270116D01*
X34430Y269720D01*
X44950D01*
X44871Y270116D01*
X43655Y271935D01*
X42680Y272587D01*
X42948Y273935D01*
X44376Y274219D01*
X46195Y275435D01*
X47411Y277254D01*
X47490Y277650D01*
D02*
G37*
G36*
X193540Y267490D02*
X190030D01*
Y263980D01*
X190426Y264059D01*
X192245Y265275D01*
X193461Y267094D01*
X193540Y267490D01*
D02*
G37*
G36*
X186530D02*
X183020D01*
X183099Y267094D01*
X184315Y265275D01*
X186134Y264059D01*
X186530Y263980D01*
Y267490D01*
D02*
G37*
G36*
X26600Y340706D02*
X15400D01*
X13293Y340287D01*
X11507Y339093D01*
X10313Y337307D01*
X9894Y335200D01*
Y325704D01*
X8395Y324205D01*
X7290Y322551D01*
X6902Y320600D01*
Y247097D01*
X6878Y246976D01*
Y138437D01*
X7266Y136487D01*
X8371Y134833D01*
X32110Y111094D01*
X31985Y109830D01*
X31185Y109295D01*
X29969Y107476D01*
X29890Y107080D01*
X35150D01*
Y105330D01*
X36900D01*
Y100070D01*
X37296Y100149D01*
X39115Y101365D01*
X40331Y103184D01*
X40673Y104902D01*
X68657D01*
X68834Y104883D01*
X68844Y104881D01*
X69294Y104294D01*
X70965Y103012D01*
X72912Y102206D01*
X75000Y101931D01*
X77088Y102206D01*
X79035Y103012D01*
X80706Y104294D01*
X81988Y105965D01*
X82794Y107912D01*
X83069Y110000D01*
X84148Y111042D01*
X128940D01*
X129064Y110959D01*
X131210Y110532D01*
X133356Y110959D01*
X135175Y112175D01*
X136391Y113994D01*
X136818Y116140D01*
X136391Y118286D01*
X135175Y120105D01*
X133356Y121321D01*
X131210Y121748D01*
X129064Y121321D01*
X128940Y121238D01*
X81140D01*
X79189Y120850D01*
X77535Y119745D01*
X75880Y118090D01*
X75741Y117978D01*
X75734Y117972D01*
X75000Y118069D01*
X72912Y117794D01*
X70965Y116988D01*
X69294Y115706D01*
X68845Y115120D01*
X68574Y115098D01*
X42525D01*
X17074Y140549D01*
Y160774D01*
X18056Y161580D01*
X19000Y161392D01*
X21146Y161819D01*
X22965Y163035D01*
X24181Y164854D01*
X24608Y167000D01*
X24559Y167246D01*
X24563Y167293D01*
X24578Y167382D01*
X24596Y167454D01*
X24617Y167514D01*
X24639Y167565D01*
X24664Y167611D01*
X24675Y167629D01*
X38048Y181002D01*
X38161Y181171D01*
X39431Y180786D01*
Y174478D01*
X37629Y172675D01*
X37611Y172664D01*
X37564Y172639D01*
X37514Y172617D01*
X37454Y172596D01*
X37382Y172578D01*
X37293Y172563D01*
X37246Y172559D01*
X37000Y172608D01*
X34854Y172181D01*
X33035Y170965D01*
X31819Y169146D01*
X31392Y167000D01*
X31819Y164854D01*
X33035Y163035D01*
X34854Y161819D01*
X37000Y161392D01*
X39146Y161819D01*
X40965Y163035D01*
X42181Y164854D01*
X42537Y166646D01*
X43735Y167242D01*
X43991Y167148D01*
X44615Y166215D01*
X46434Y164999D01*
X46830Y164920D01*
Y170180D01*
Y176174D01*
X46569Y176389D01*
Y205599D01*
X47839Y206623D01*
X49000Y206392D01*
X51146Y206819D01*
X52965Y208035D01*
X54181Y209854D01*
X54608Y212000D01*
X54181Y214146D01*
X52965Y215965D01*
X51146Y217181D01*
X49000Y217608D01*
X47839Y217377D01*
X46569Y218401D01*
Y228522D01*
X58451Y240405D01*
X58469Y240416D01*
X58516Y240441D01*
X58566Y240463D01*
X58626Y240484D01*
X58698Y240502D01*
X58787Y240517D01*
X58834Y240521D01*
X59080Y240472D01*
X61226Y240899D01*
X63045Y242115D01*
X64261Y243934D01*
X64688Y246080D01*
X64261Y248226D01*
X63046Y250044D01*
X63047Y250051D01*
X63543Y251240D01*
X65090Y250932D01*
X67236Y251359D01*
X69055Y252575D01*
X70271Y254394D01*
X70698Y256540D01*
X70271Y258686D01*
X69055Y260505D01*
X67923Y261262D01*
X68419Y262458D01*
X68900Y262362D01*
X71046Y262789D01*
X72865Y264005D01*
X74081Y265824D01*
X74508Y267970D01*
X74081Y270116D01*
X72865Y271935D01*
X71046Y273151D01*
X68900Y273578D01*
X66754Y273151D01*
X64935Y271935D01*
X63719Y270116D01*
X63292Y267970D01*
X63719Y265824D01*
X64935Y264005D01*
X66067Y263248D01*
X65571Y262052D01*
X65090Y262148D01*
X62944Y261721D01*
X62820Y261638D01*
X57540D01*
X55589Y261250D01*
X53935Y260145D01*
X48835Y255045D01*
X47665Y255670D01*
X47838Y256540D01*
X47411Y258686D01*
X46195Y260505D01*
X44376Y261721D01*
X42948Y262005D01*
X42680Y263353D01*
X43655Y264005D01*
X44871Y265824D01*
X44950Y266220D01*
X34430D01*
X34509Y265824D01*
X35725Y264005D01*
X37544Y262789D01*
X38972Y262505D01*
X39240Y261157D01*
X38265Y260505D01*
X37049Y258686D01*
X36970Y258290D01*
X42230D01*
Y254790D01*
X36970D01*
X37049Y254394D01*
X37735Y253368D01*
X37056Y252098D01*
X17098D01*
Y318488D01*
X17104Y318494D01*
X26600D01*
X28707Y318913D01*
X30493Y320107D01*
X31687Y321893D01*
X32106Y324000D01*
Y335200D01*
X31687Y337307D01*
X30493Y339093D01*
X28707Y340287D01*
X26600Y340706D01*
D02*
G37*
G36*
X261460Y264340D02*
X261064Y264261D01*
X259245Y263045D01*
X258029Y261226D01*
X257950Y260830D01*
X261460D01*
Y264340D01*
D02*
G37*
G36*
X79540Y259260D02*
Y255750D01*
X83050D01*
X82971Y256146D01*
X81755Y257965D01*
X79936Y259181D01*
X79540Y259260D01*
D02*
G37*
G36*
X76040D02*
X75644Y259181D01*
X73825Y257965D01*
X72609Y256146D01*
X72530Y255750D01*
X76040D01*
Y259260D01*
D02*
G37*
G36*
X261460Y257330D02*
X257950D01*
X258029Y256934D01*
X259245Y255115D01*
X261064Y253899D01*
X261460Y253820D01*
Y257330D01*
D02*
G37*
G36*
X83050Y252250D02*
X79540D01*
Y248740D01*
X79936Y248819D01*
X81755Y250035D01*
X82971Y251854D01*
X83050Y252250D01*
D02*
G37*
G36*
X76040D02*
X72530D01*
X72609Y251854D01*
X73825Y250035D01*
X75644Y248819D01*
X76040Y248740D01*
Y252250D01*
D02*
G37*
G36*
X350080Y246688D02*
X347934Y246261D01*
X346115Y245045D01*
X344899Y243226D01*
X344569Y241569D01*
X308458D01*
X308437Y241573D01*
X308386Y241588D01*
X308335Y241608D01*
X308279Y241636D01*
X308214Y241674D01*
X308141Y241727D01*
X308104Y241757D01*
X307965Y241965D01*
X306146Y243181D01*
X304000Y243608D01*
X301854Y243181D01*
X300035Y241965D01*
X298819Y240146D01*
X298392Y238000D01*
X298819Y235854D01*
X300035Y234035D01*
X301854Y232819D01*
X304000Y232392D01*
X306146Y232819D01*
X307965Y234035D01*
X308104Y234243D01*
X308141Y234273D01*
X308214Y234326D01*
X308279Y234364D01*
X308335Y234392D01*
X308386Y234412D01*
X308437Y234427D01*
X308458Y234431D01*
X347000D01*
X348366Y234703D01*
X349523Y235477D01*
X349612Y235565D01*
X350080Y235472D01*
X352226Y235899D01*
X354045Y237115D01*
X355261Y238934D01*
X355688Y241080D01*
X355261Y243226D01*
X354045Y245045D01*
X352226Y246261D01*
X350080Y246688D01*
D02*
G37*
G36*
X433250Y244260D02*
X432854Y244181D01*
X431035Y242965D01*
X429819Y241146D01*
X429740Y240750D01*
X433250D01*
Y244260D01*
D02*
G37*
G36*
X379000Y250608D02*
X376854Y250181D01*
X375035Y248965D01*
X373819Y247146D01*
X373392Y245000D01*
X373819Y242854D01*
X375035Y241035D01*
X376854Y239819D01*
X379000Y239392D01*
X381146Y239819D01*
X382965Y241035D01*
X384181Y242854D01*
X384608Y245000D01*
X384181Y247146D01*
X382965Y248965D01*
X381146Y250181D01*
X379000Y250608D01*
D02*
G37*
G36*
X380750Y225260D02*
Y221750D01*
X384260D01*
X384181Y222146D01*
X382965Y223965D01*
X381146Y225181D01*
X380750Y225260D01*
D02*
G37*
G36*
X377250D02*
X376854Y225181D01*
X375035Y223965D01*
X373819Y222146D01*
X373740Y221750D01*
X377250D01*
Y225260D01*
D02*
G37*
G36*
X77790Y235478D02*
X75644Y235051D01*
X73825Y233835D01*
X72609Y232016D01*
X72182Y229870D01*
X72609Y227724D01*
X73825Y225905D01*
X74543Y225425D01*
Y224155D01*
X73825Y223675D01*
X72609Y221856D01*
X72530Y221460D01*
X83050D01*
X82971Y221856D01*
X81755Y223675D01*
X81037Y224155D01*
Y225425D01*
X81755Y225905D01*
X82971Y227724D01*
X83398Y229870D01*
X82971Y232016D01*
X81755Y233835D01*
X79936Y235051D01*
X77790Y235478D01*
D02*
G37*
G36*
X416750Y223260D02*
Y219750D01*
X420260D01*
X420181Y220146D01*
X418965Y221965D01*
X417146Y223181D01*
X416750Y223260D01*
D02*
G37*
G36*
X413250D02*
X412854Y223181D01*
X411035Y221965D01*
X409819Y220146D01*
X409740Y219750D01*
X413250D01*
Y223260D01*
D02*
G37*
G36*
X384260Y218250D02*
X380750D01*
Y214740D01*
X381146Y214819D01*
X382965Y216035D01*
X384181Y217854D01*
X384260Y218250D01*
D02*
G37*
G36*
X377250D02*
X373740D01*
X373819Y217854D01*
X375035Y216035D01*
X376854Y214819D01*
X377250Y214740D01*
Y218250D01*
D02*
G37*
G36*
X83050Y217960D02*
X79540D01*
Y214450D01*
X79936Y214529D01*
X81755Y215745D01*
X82971Y217564D01*
X83050Y217960D01*
D02*
G37*
G36*
X413250Y216250D02*
X409740D01*
X409819Y215854D01*
X411035Y214035D01*
X412854Y212819D01*
X413250Y212740D01*
Y216250D01*
D02*
G37*
G36*
X76040Y217960D02*
X72530D01*
X72609Y217564D01*
X73645Y216014D01*
X73190Y215063D01*
Y211300D01*
X76700D01*
X76621Y211696D01*
X75585Y213246D01*
X76040Y214197D01*
Y217960D01*
D02*
G37*
G36*
X69690Y214810D02*
X69294Y214731D01*
X67475Y213515D01*
X66259Y211696D01*
X66180Y211300D01*
X69690D01*
Y214810D01*
D02*
G37*
G36*
X76700Y207800D02*
X73190D01*
Y204290D01*
X73586Y204369D01*
X75405Y205585D01*
X76621Y207404D01*
X76700Y207800D01*
D02*
G37*
G36*
X69690D02*
X66180D01*
X66259Y207404D01*
X67475Y205585D01*
X69294Y204369D01*
X69690Y204290D01*
Y207800D01*
D02*
G37*
G36*
X279630Y201380D02*
Y197870D01*
X283140D01*
X283061Y198266D01*
X281845Y200085D01*
X280026Y201301D01*
X279630Y201380D01*
D02*
G37*
G36*
X276130D02*
X275734Y201301D01*
X273915Y200085D01*
X272699Y198266D01*
X272620Y197870D01*
X276130D01*
Y201380D01*
D02*
G37*
G36*
X349750Y201260D02*
Y197750D01*
X353260D01*
X353181Y198146D01*
X351965Y199965D01*
X350146Y201181D01*
X349750Y201260D01*
D02*
G37*
G36*
X346250D02*
X345854Y201181D01*
X344035Y199965D01*
X342819Y198146D01*
X342740Y197750D01*
X346250D01*
Y201260D01*
D02*
G37*
G36*
X294750D02*
Y197750D01*
X298260D01*
X298181Y198146D01*
X296965Y199965D01*
X295146Y201181D01*
X294750Y201260D01*
D02*
G37*
G36*
X291250D02*
X290854Y201181D01*
X289035Y199965D01*
X287819Y198146D01*
X287740Y197750D01*
X291250D01*
Y201260D01*
D02*
G37*
G36*
X333750Y200260D02*
Y196750D01*
X337260D01*
X337181Y197146D01*
X335965Y198965D01*
X334146Y200181D01*
X333750Y200260D01*
D02*
G37*
G36*
X145890Y199570D02*
X145494Y199491D01*
X143675Y198275D01*
X142459Y196456D01*
X142380Y196060D01*
X145890D01*
Y199570D01*
D02*
G37*
G36*
X158280Y198300D02*
Y194790D01*
X161790D01*
X161711Y195186D01*
X160495Y197005D01*
X158676Y198221D01*
X158280Y198300D01*
D02*
G37*
G36*
X88000Y204608D02*
X85854Y204181D01*
X84035Y202965D01*
X82819Y201146D01*
X82392Y199000D01*
X82441Y198754D01*
X82437Y198707D01*
X82422Y198618D01*
X82404Y198546D01*
X82383Y198486D01*
X82361Y198435D01*
X82336Y198389D01*
X82325Y198371D01*
X77477Y193523D01*
X76703Y192366D01*
X76431Y191000D01*
Y166778D01*
X50479Y140825D01*
X50461Y140814D01*
X50415Y140789D01*
X50364Y140767D01*
X50304Y140746D01*
X50232Y140728D01*
X50143Y140713D01*
X50096Y140709D01*
X49850Y140758D01*
X47704Y140331D01*
X45885Y139115D01*
X44669Y137296D01*
X44242Y135150D01*
X44669Y133004D01*
X45885Y131185D01*
X47704Y129969D01*
X49850Y129542D01*
X51996Y129969D01*
X53815Y131185D01*
X55031Y133004D01*
X55458Y135150D01*
X55409Y135396D01*
X55413Y135443D01*
X55428Y135532D01*
X55446Y135604D01*
X55467Y135664D01*
X55489Y135715D01*
X55514Y135761D01*
X55525Y135779D01*
X82523Y162777D01*
X83297Y163934D01*
X83569Y165300D01*
Y189522D01*
X87371Y193325D01*
X87389Y193336D01*
X87436Y193361D01*
X87486Y193383D01*
X87546Y193404D01*
X87618Y193422D01*
X87707Y193437D01*
X87754Y193441D01*
X88000Y193392D01*
X90146Y193819D01*
X91965Y195035D01*
X93181Y196854D01*
X93608Y199000D01*
X93181Y201146D01*
X91965Y202965D01*
X90146Y204181D01*
X88000Y204608D01*
D02*
G37*
G36*
X225860Y196380D02*
Y192870D01*
X229370D01*
X229291Y193266D01*
X228075Y195085D01*
X226256Y196301D01*
X225860Y196380D01*
D02*
G37*
G36*
X222360D02*
X221964Y196301D01*
X220145Y195085D01*
X218929Y193266D01*
X218850Y192870D01*
X222360D01*
Y196380D01*
D02*
G37*
G36*
X122720Y195760D02*
Y192250D01*
X126230D01*
X126151Y192646D01*
X124935Y194465D01*
X123116Y195681D01*
X122720Y195760D01*
D02*
G37*
G36*
X119220D02*
X118824Y195681D01*
X117005Y194465D01*
X115789Y192646D01*
X115710Y192250D01*
X119220D01*
Y195760D01*
D02*
G37*
G36*
X283140Y194370D02*
X279630D01*
Y190860D01*
X280026Y190939D01*
X281845Y192155D01*
X283061Y193974D01*
X283140Y194370D01*
D02*
G37*
G36*
X276130D02*
X272620D01*
X272699Y193974D01*
X273915Y192155D01*
X275734Y190939D01*
X276130Y190860D01*
Y194370D01*
D02*
G37*
G36*
X353260Y194250D02*
X349750D01*
Y190740D01*
X350146Y190819D01*
X351965Y192035D01*
X353181Y193854D01*
X353260Y194250D01*
D02*
G37*
G36*
X346250D02*
X342740D01*
X342819Y193854D01*
X344035Y192035D01*
X345854Y190819D01*
X346250Y190740D01*
Y194250D01*
D02*
G37*
G36*
X298260D02*
X294750D01*
Y190740D01*
X295146Y190819D01*
X296965Y192035D01*
X298181Y193854D01*
X298260Y194250D01*
D02*
G37*
G36*
X291250D02*
X287740D01*
X287819Y193854D01*
X289035Y192035D01*
X290854Y190819D01*
X291250Y190740D01*
Y194250D01*
D02*
G37*
G36*
X337260Y193250D02*
X333750D01*
Y189740D01*
X334146Y189819D01*
X335965Y191035D01*
X337181Y192854D01*
X337260Y193250D01*
D02*
G37*
G36*
X145890Y192560D02*
X142380D01*
X142459Y192164D01*
X143675Y190345D01*
X145494Y189129D01*
X145890Y189050D01*
Y192560D01*
D02*
G37*
G36*
X474750Y209958D02*
X467250D01*
X465488Y209726D01*
X463846Y209046D01*
X462436Y207964D01*
X461354Y206554D01*
X460674Y204912D01*
X460442Y203150D01*
Y195650D01*
X460674Y193888D01*
X461354Y192246D01*
X462436Y190836D01*
X463846Y189754D01*
X465488Y189074D01*
X467250Y188842D01*
X474750D01*
X476512Y189074D01*
X478154Y189754D01*
X479564Y190836D01*
X480646Y192246D01*
X481326Y193888D01*
X481558Y195650D01*
Y203150D01*
X481326Y204912D01*
X480646Y206554D01*
X479564Y207964D01*
X478154Y209046D01*
X476512Y209726D01*
X474750Y209958D01*
D02*
G37*
G36*
X161790Y191290D02*
X158280D01*
Y187780D01*
X158676Y187859D01*
X160495Y189075D01*
X161711Y190894D01*
X161790Y191290D01*
D02*
G37*
G36*
X149390Y199570D02*
Y194310D01*
Y189050D01*
X149786Y189129D01*
X150626Y189690D01*
X152366Y189372D01*
X152565Y189075D01*
X154384Y187859D01*
X154780Y187780D01*
Y193040D01*
Y198300D01*
X154384Y198221D01*
X152565Y197005D01*
X152454D01*
X151605Y198275D01*
X149786Y199491D01*
X149390Y199570D01*
D02*
G37*
G36*
X169230Y198648D02*
X167084Y198221D01*
X165265Y197005D01*
X164049Y195186D01*
X163622Y193040D01*
X164049Y190894D01*
X165265Y189075D01*
X167084Y187859D01*
X169230Y187432D01*
X171376Y187859D01*
X173195Y189075D01*
X174411Y190894D01*
X174838Y193040D01*
X174411Y195186D01*
X173195Y197005D01*
X171376Y198221D01*
X169230Y198648D01*
D02*
G37*
G36*
X229370Y189370D02*
X225860D01*
Y185860D01*
X226256Y185939D01*
X228075Y187155D01*
X229291Y188974D01*
X229370Y189370D01*
D02*
G37*
G36*
X222360D02*
X218850D01*
X218929Y188974D01*
X220145Y187155D01*
X221964Y185939D01*
X222360Y185860D01*
Y189370D01*
D02*
G37*
G36*
X126230Y188750D02*
X122720D01*
Y185240D01*
X123116Y185319D01*
X124935Y186535D01*
X126151Y188354D01*
X126230Y188750D01*
D02*
G37*
G36*
X119220D02*
X115710D01*
X115789Y188354D01*
X117005Y186535D01*
X118824Y185319D01*
X119220Y185240D01*
Y188750D01*
D02*
G37*
G36*
X372000Y195608D02*
X369854Y195181D01*
X368035Y193965D01*
X366819Y192146D01*
X366392Y190000D01*
X366819Y187854D01*
X368035Y186035D01*
X369854Y184819D01*
X372000Y184392D01*
X374146Y184819D01*
X375965Y186035D01*
X377181Y187854D01*
X377608Y190000D01*
X377181Y192146D01*
X375965Y193965D01*
X374146Y195181D01*
X372000Y195608D01*
D02*
G37*
G36*
X102000Y194608D02*
X99854Y194181D01*
X98035Y192965D01*
X96819Y191146D01*
X96392Y189000D01*
X96819Y186854D01*
X97215Y186262D01*
X94629Y183675D01*
X94611Y183664D01*
X94565Y183639D01*
X94514Y183617D01*
X94454Y183596D01*
X94382Y183578D01*
X94293Y183563D01*
X94246Y183559D01*
X94000Y183608D01*
X91854Y183181D01*
X90035Y181965D01*
X88819Y180146D01*
X88392Y178000D01*
X88819Y175854D01*
X90035Y174035D01*
X91854Y172819D01*
X94000Y172392D01*
X96146Y172819D01*
X97965Y174035D01*
X99181Y175854D01*
X99608Y178000D01*
X99559Y178246D01*
X99563Y178293D01*
X99578Y178382D01*
X99596Y178454D01*
X99617Y178514D01*
X99639Y178565D01*
X99664Y178611D01*
X99675Y178629D01*
X104523Y183477D01*
X104885Y184017D01*
X105578Y184776D01*
X105965Y185035D01*
X107181Y186854D01*
X107608Y189000D01*
X107181Y191146D01*
X105965Y192965D01*
X104146Y194181D01*
X102000Y194608D01*
D02*
G37*
G36*
X160820Y183060D02*
Y179550D01*
X164330D01*
X164251Y179946D01*
X163035Y181765D01*
X161216Y182981D01*
X160820Y183060D01*
D02*
G37*
G36*
X157320D02*
X156924Y182981D01*
X155105Y181765D01*
X153889Y179946D01*
X153810Y179550D01*
X157320D01*
Y183060D01*
D02*
G37*
G36*
X176850Y184678D02*
X174704Y184251D01*
X172885Y183035D01*
X171669Y181216D01*
X171242Y179070D01*
X171669Y176924D01*
X172885Y175105D01*
X174704Y173889D01*
X176850Y173462D01*
X178996Y173889D01*
X180815Y175105D01*
X182031Y176924D01*
X182458Y179070D01*
X182031Y181216D01*
X180815Y183035D01*
X178996Y184251D01*
X176850Y184678D01*
D02*
G37*
G36*
X68110Y176710D02*
Y173200D01*
X71620D01*
X71541Y173596D01*
X70325Y175415D01*
X68506Y176631D01*
X68110Y176710D01*
D02*
G37*
G36*
X64610D02*
X64214Y176631D01*
X62395Y175415D01*
X61179Y173596D01*
X61100Y173200D01*
X64610D01*
Y176710D01*
D02*
G37*
G36*
X164330Y176050D02*
X160820D01*
Y172540D01*
X161216Y172619D01*
X163035Y173835D01*
X164251Y175654D01*
X164330Y176050D01*
D02*
G37*
G36*
X157320D02*
X153810D01*
X153889Y175654D01*
X155105Y173835D01*
X156924Y172619D01*
X157320Y172540D01*
Y176050D01*
D02*
G37*
G36*
X50330Y175440D02*
Y171930D01*
X53840D01*
X53761Y172326D01*
X52545Y174145D01*
X50726Y175361D01*
X50330Y175440D01*
D02*
G37*
G36*
X71620Y169700D02*
X68110D01*
Y166190D01*
X68506Y166269D01*
X70325Y167485D01*
X71541Y169304D01*
X71620Y169700D01*
D02*
G37*
G36*
X64610D02*
X61100D01*
X61179Y169304D01*
X62395Y167485D01*
X64214Y166269D01*
X64610Y166190D01*
Y169700D01*
D02*
G37*
G36*
X53840Y168430D02*
X50330D01*
Y164920D01*
X50726Y164999D01*
X52545Y166215D01*
X53761Y168034D01*
X53840Y168430D01*
D02*
G37*
G36*
X417750Y165260D02*
Y161750D01*
X421260D01*
X421181Y162146D01*
X419965Y163965D01*
X418146Y165181D01*
X417750Y165260D01*
D02*
G37*
G36*
X414250D02*
X413854Y165181D01*
X412035Y163965D01*
X410819Y162146D01*
X410740Y161750D01*
X414250D01*
Y165260D01*
D02*
G37*
G36*
X345750Y160260D02*
Y156750D01*
X349260D01*
X349181Y157146D01*
X347965Y158965D01*
X346146Y160181D01*
X345750Y160260D01*
D02*
G37*
G36*
X342250D02*
X341854Y160181D01*
X340035Y158965D01*
X338819Y157146D01*
X338740Y156750D01*
X342250D01*
Y160260D01*
D02*
G37*
G36*
X224590Y159550D02*
Y156040D01*
X228100D01*
X228021Y156436D01*
X226805Y158255D01*
X224986Y159471D01*
X224590Y159550D01*
D02*
G37*
G36*
X221090D02*
X220694Y159471D01*
X218875Y158255D01*
X217659Y156436D01*
X217580Y156040D01*
X221090D01*
Y159550D01*
D02*
G37*
G36*
X421260Y158250D02*
X417750D01*
Y154740D01*
X418146Y154819D01*
X419965Y156035D01*
X421181Y157854D01*
X421260Y158250D01*
D02*
G37*
G36*
X414250D02*
X410740D01*
X410819Y157854D01*
X412035Y156035D01*
X413854Y154819D01*
X414250Y154740D01*
Y158250D01*
D02*
G37*
G36*
X349260Y153250D02*
X345750D01*
Y149740D01*
X346146Y149819D01*
X347965Y151035D01*
X349181Y152854D01*
X349260Y153250D01*
D02*
G37*
G36*
X342250D02*
X338740D01*
X338819Y152854D01*
X340035Y151035D01*
X341854Y149819D01*
X342250Y149740D01*
Y153250D01*
D02*
G37*
G36*
X228100Y152540D02*
X224590D01*
Y149030D01*
X224986Y149109D01*
X226805Y150325D01*
X228021Y152144D01*
X228100Y152540D01*
D02*
G37*
G36*
X221090D02*
X217580D01*
X217659Y152144D01*
X218875Y150325D01*
X220694Y149109D01*
X221090Y149030D01*
Y152540D01*
D02*
G37*
G36*
X198710Y159898D02*
X196564Y159471D01*
X194745Y158255D01*
X193529Y156436D01*
X193102Y154290D01*
X193529Y152144D01*
X194745Y150325D01*
X196564Y149109D01*
X198710Y148682D01*
X200856Y149109D01*
X202675Y150325D01*
X203891Y152144D01*
X204318Y154290D01*
X203891Y156436D01*
X202675Y158255D01*
X200856Y159471D01*
X198710Y159898D01*
D02*
G37*
G36*
X266000Y148608D02*
X263854Y148181D01*
X262035Y146965D01*
X261896Y146757D01*
X261859Y146727D01*
X261786Y146674D01*
X261721Y146636D01*
X261665Y146608D01*
X261614Y146588D01*
X261563Y146573D01*
X261542Y146569D01*
X195000D01*
X193634Y146297D01*
X192477Y145523D01*
X189629Y142675D01*
X189611Y142664D01*
X189564Y142639D01*
X189514Y142617D01*
X189454Y142596D01*
X189382Y142578D01*
X189293Y142563D01*
X189246Y142559D01*
X189000Y142608D01*
X186854Y142181D01*
X185035Y140965D01*
X183819Y139146D01*
X183392Y137000D01*
X183819Y134854D01*
X185035Y133035D01*
X186854Y131819D01*
X189000Y131392D01*
X191146Y131819D01*
X192965Y133035D01*
X194181Y134854D01*
X194608Y137000D01*
X194559Y137246D01*
X194563Y137293D01*
X194578Y137382D01*
X194596Y137454D01*
X194617Y137514D01*
X194639Y137565D01*
X194664Y137611D01*
X194675Y137629D01*
X196478Y139431D01*
X261542D01*
X261563Y139427D01*
X261614Y139412D01*
X261665Y139392D01*
X261721Y139364D01*
X261786Y139326D01*
X261859Y139273D01*
X261896Y139243D01*
X262035Y139035D01*
X263854Y137819D01*
X266000Y137392D01*
X268146Y137819D01*
X269965Y139035D01*
X271181Y140854D01*
X271608Y143000D01*
X271181Y145146D01*
X269965Y146965D01*
X268146Y148181D01*
X266000Y148608D01*
D02*
G37*
G36*
X125260Y141150D02*
Y137640D01*
X128770D01*
X128691Y138036D01*
X127475Y139855D01*
X125656Y141071D01*
X125260Y141150D01*
D02*
G37*
G36*
X121760D02*
X121364Y141071D01*
X119545Y139855D01*
X118329Y138036D01*
X118250Y137640D01*
X121760D01*
Y141150D01*
D02*
G37*
G36*
X110020D02*
Y137640D01*
X113530D01*
X113451Y138036D01*
X112235Y139855D01*
X110416Y141071D01*
X110020Y141150D01*
D02*
G37*
G36*
X106520D02*
X106124Y141071D01*
X104305Y139855D01*
X103089Y138036D01*
X103010Y137640D01*
X106520D01*
Y141150D01*
D02*
G37*
G36*
X93510Y138610D02*
Y135100D01*
X97020D01*
X96941Y135496D01*
X95725Y137315D01*
X93906Y138531D01*
X93510Y138610D01*
D02*
G37*
G36*
X90010D02*
X89614Y138531D01*
X87795Y137315D01*
X86579Y135496D01*
X86500Y135100D01*
X90010D01*
Y138610D01*
D02*
G37*
G36*
X128770Y134140D02*
X125260D01*
Y130630D01*
X125656Y130709D01*
X127475Y131925D01*
X128691Y133744D01*
X128770Y134140D01*
D02*
G37*
G36*
X121760D02*
X118250D01*
X118329Y133744D01*
X119545Y131925D01*
X121364Y130709D01*
X121760Y130630D01*
Y134140D01*
D02*
G37*
G36*
X113530D02*
X110020D01*
Y130630D01*
X110416Y130709D01*
X112235Y131925D01*
X113451Y133744D01*
X113530Y134140D01*
D02*
G37*
G36*
X106520D02*
X103010D01*
X103089Y133744D01*
X104305Y131925D01*
X106124Y130709D01*
X106520Y130630D01*
Y134140D01*
D02*
G37*
G36*
X201140Y133530D02*
Y130020D01*
X204650D01*
X204571Y130416D01*
X203355Y132235D01*
X201536Y133451D01*
X201140Y133530D01*
D02*
G37*
G36*
X197640D02*
X197244Y133451D01*
X195425Y132235D01*
X194209Y130416D01*
X194130Y130020D01*
X197640D01*
Y133530D01*
D02*
G37*
G36*
X163250Y135334D02*
Y129750D01*
X168834D01*
X168807Y129958D01*
X168051Y131782D01*
X166849Y133349D01*
X165282Y134551D01*
X163458Y135307D01*
X163250Y135334D01*
D02*
G37*
G36*
X159750Y135334D02*
X159542Y135307D01*
X157718Y134551D01*
X156151Y133349D01*
X154949Y131782D01*
X154193Y129958D01*
X154166Y129750D01*
X159750D01*
Y135334D01*
D02*
G37*
G36*
X97020Y131600D02*
X93510D01*
Y128090D01*
X93906Y128169D01*
X95725Y129385D01*
X96941Y131204D01*
X97020Y131600D01*
D02*
G37*
G36*
X90010D02*
X86500D01*
X86579Y131204D01*
X87795Y129385D01*
X89614Y128169D01*
X90010Y128090D01*
Y131600D01*
D02*
G37*
G36*
X369750Y130260D02*
Y126750D01*
X373260D01*
X373181Y127146D01*
X371965Y128965D01*
X370146Y130181D01*
X369750Y130260D01*
D02*
G37*
G36*
X366250D02*
X365854Y130181D01*
X364035Y128965D01*
X362819Y127146D01*
X362740Y126750D01*
X366250D01*
Y130260D01*
D02*
G37*
G36*
X204650Y126520D02*
X201140D01*
Y123010D01*
X201536Y123089D01*
X203355Y124305D01*
X204571Y126124D01*
X204650Y126520D01*
D02*
G37*
G36*
X197640D02*
X194130D01*
X194209Y126124D01*
X195425Y124305D01*
X197244Y123089D01*
X197640Y123010D01*
Y126520D01*
D02*
G37*
G36*
X432750Y126260D02*
Y122750D01*
X436260D01*
X436181Y123146D01*
X434965Y124965D01*
X433146Y126181D01*
X432750Y126260D01*
D02*
G37*
G36*
X429250D02*
X428854Y126181D01*
X427035Y124965D01*
X425819Y123146D01*
X425740Y122750D01*
X429250D01*
Y126260D01*
D02*
G37*
G36*
X168834Y126250D02*
X163250D01*
Y120666D01*
X163458Y120693D01*
X165282Y121449D01*
X166849Y122651D01*
X168051Y124218D01*
X168807Y126042D01*
X168834Y126250D01*
D02*
G37*
G36*
X159750D02*
X154166D01*
X154193Y126042D01*
X154949Y124218D01*
X156151Y122651D01*
X157718Y121449D01*
X159542Y120693D01*
X159750Y120666D01*
Y126250D01*
D02*
G37*
G36*
X373260Y123250D02*
X369750D01*
Y119740D01*
X370146Y119819D01*
X371965Y121035D01*
X373181Y122854D01*
X373260Y123250D01*
D02*
G37*
G36*
X366250D02*
X362740D01*
X362819Y122854D01*
X364035Y121035D01*
X365854Y119819D01*
X366250Y119740D01*
Y123250D01*
D02*
G37*
G36*
X436260Y119250D02*
X432750D01*
Y115740D01*
X433146Y115819D01*
X434965Y117035D01*
X436181Y118854D01*
X436260Y119250D01*
D02*
G37*
G36*
X429250D02*
X425740D01*
X425819Y118854D01*
X427035Y117035D01*
X428854Y115819D01*
X429250Y115740D01*
Y119250D01*
D02*
G37*
G36*
X234160Y118290D02*
Y114780D01*
X237670D01*
X237591Y115176D01*
X236375Y116995D01*
X234556Y118211D01*
X234160Y118290D01*
D02*
G37*
G36*
X230660D02*
X230264Y118211D01*
X228445Y116995D01*
X227229Y115176D01*
X227150Y114780D01*
X230660D01*
Y118290D01*
D02*
G37*
G36*
X237670Y111280D02*
X234160D01*
Y107770D01*
X234556Y107849D01*
X236375Y109065D01*
X237591Y110884D01*
X237670Y111280D01*
D02*
G37*
G36*
X251940Y108130D02*
Y104620D01*
X255450D01*
X255371Y105016D01*
X254155Y106835D01*
X252336Y108051D01*
X251940Y108130D01*
D02*
G37*
G36*
X248440D02*
X248044Y108051D01*
X246225Y106835D01*
X245009Y105016D01*
X244930Y104620D01*
X248440D01*
Y108130D01*
D02*
G37*
G36*
X33400Y103580D02*
X29890D01*
X29969Y103184D01*
X31185Y101365D01*
X33004Y100149D01*
X33400Y100070D01*
Y103580D01*
D02*
G37*
G36*
X255450Y101120D02*
X251940D01*
Y97610D01*
X252336Y97689D01*
X254155Y98905D01*
X255371Y100724D01*
X255450Y101120D01*
D02*
G37*
G36*
X248440D02*
X244930D01*
X245009Y100724D01*
X246225Y98905D01*
X248044Y97689D01*
X248440Y97610D01*
Y101120D01*
D02*
G37*
G36*
X153200Y96000D02*
Y92490D01*
X156710D01*
X156631Y92886D01*
X155415Y94705D01*
X153596Y95921D01*
X153200Y96000D01*
D02*
G37*
G36*
X149700D02*
X149304Y95921D01*
X147485Y94705D01*
X146269Y92886D01*
X146190Y92490D01*
X149700D01*
Y96000D01*
D02*
G37*
G36*
X90010Y94730D02*
X89614Y94651D01*
X87795Y93435D01*
X87126Y92435D01*
X86571Y91620D01*
X85499Y92111D01*
X84646Y92681D01*
X84250Y92760D01*
Y87500D01*
X82500D01*
Y85750D01*
X77240D01*
X77319Y85354D01*
X78535Y83535D01*
X79399Y82957D01*
X80163Y82020D01*
X79723Y81329D01*
X78959Y80186D01*
X78880Y79790D01*
X89400D01*
X89321Y80186D01*
X88105Y82005D01*
X87240Y82583D01*
X86477Y83520D01*
X86917Y84211D01*
X87134Y84535D01*
X87689Y85350D01*
X88761Y84859D01*
X89614Y84289D01*
X90010Y84210D01*
Y89470D01*
Y94730D01*
D02*
G37*
G36*
X93510D02*
Y91220D01*
X97020D01*
X96941Y91616D01*
X95725Y93435D01*
X93906Y94651D01*
X93510Y94730D01*
D02*
G37*
G36*
X369750Y94260D02*
Y90750D01*
X373260D01*
X373181Y91146D01*
X371965Y92965D01*
X370146Y94181D01*
X369750Y94260D01*
D02*
G37*
G36*
X366250D02*
X365854Y94181D01*
X364035Y92965D01*
X362819Y91146D01*
X362740Y90750D01*
X366250D01*
Y94260D01*
D02*
G37*
G36*
X80750Y92760D02*
X80354Y92681D01*
X78535Y91465D01*
X77319Y89646D01*
X77240Y89250D01*
X80750D01*
Y92760D01*
D02*
G37*
G36*
X389000Y97608D02*
X386854Y97181D01*
X385035Y95965D01*
X383819Y94146D01*
X383392Y92000D01*
X383819Y89854D01*
X385035Y88035D01*
X386854Y86819D01*
X389000Y86392D01*
X391146Y86819D01*
X392965Y88035D01*
X394181Y89854D01*
X394608Y92000D01*
X394181Y94146D01*
X392965Y95965D01*
X391146Y97181D01*
X389000Y97608D01*
D02*
G37*
G36*
X132960Y89650D02*
Y86140D01*
X136470D01*
X136391Y86536D01*
X135175Y88355D01*
X133356Y89571D01*
X132960Y89650D01*
D02*
G37*
G36*
X129460D02*
X129064Y89571D01*
X127245Y88355D01*
X126029Y86536D01*
X125950Y86140D01*
X129460D01*
Y89650D01*
D02*
G37*
G36*
X156710Y88990D02*
X153200D01*
Y85480D01*
X153596Y85559D01*
X155415Y86775D01*
X156631Y88594D01*
X156710Y88990D01*
D02*
G37*
G36*
X149700D02*
X146190D01*
X146269Y88594D01*
X147485Y86775D01*
X149304Y85559D01*
X149700Y85480D01*
Y88990D01*
D02*
G37*
G36*
X342000Y95608D02*
X339854Y95181D01*
X338035Y93965D01*
X336819Y92146D01*
X336392Y90000D01*
X336819Y87854D01*
X338035Y86035D01*
X339854Y84819D01*
X342000Y84392D01*
X344146Y84819D01*
X345965Y86035D01*
X347181Y87854D01*
X347608Y90000D01*
X347181Y92146D01*
X345965Y93965D01*
X344146Y95181D01*
X342000Y95608D01*
D02*
G37*
G36*
X97020Y87720D02*
X93510D01*
Y84210D01*
X93906Y84289D01*
X95725Y85505D01*
X96941Y87324D01*
X97020Y87720D01*
D02*
G37*
G36*
X373260Y87250D02*
X369750D01*
Y83740D01*
X370146Y83819D01*
X371965Y85035D01*
X373181Y86854D01*
X373260Y87250D01*
D02*
G37*
G36*
X366250D02*
X362740D01*
X362819Y86854D01*
X364035Y85035D01*
X365854Y83819D01*
X366250Y83740D01*
Y87250D01*
D02*
G37*
G36*
X44520Y85190D02*
Y81680D01*
X48030D01*
X47951Y82076D01*
X46735Y83895D01*
X44916Y85111D01*
X44520Y85190D01*
D02*
G37*
G36*
X41020D02*
X40624Y85111D01*
X38805Y83895D01*
X37589Y82076D01*
X37510Y81680D01*
X41020D01*
Y85190D01*
D02*
G37*
G36*
X19910Y91888D02*
X17764Y91461D01*
X15945Y90245D01*
X14729Y88426D01*
X14302Y86280D01*
X14729Y84134D01*
X15945Y82315D01*
X17764Y81099D01*
X19910Y80672D01*
X22056Y81099D01*
X23875Y82315D01*
X25091Y84134D01*
X25518Y86280D01*
X25091Y88426D01*
X23875Y90245D01*
X22056Y91461D01*
X19910Y91888D01*
D02*
G37*
G36*
X136470Y82640D02*
X132960D01*
Y79130D01*
X133356Y79209D01*
X135175Y80425D01*
X136391Y82244D01*
X136470Y82640D01*
D02*
G37*
G36*
X129460D02*
X125950D01*
X126029Y82244D01*
X127245Y80425D01*
X129064Y79209D01*
X129460Y79130D01*
Y82640D01*
D02*
G37*
G36*
X48030Y78180D02*
X44520D01*
Y74670D01*
X44916Y74749D01*
X46735Y75965D01*
X47951Y77784D01*
X48030Y78180D01*
D02*
G37*
G36*
X41020D02*
X37510D01*
X37589Y77784D01*
X38805Y75965D01*
X40624Y74749D01*
X41020Y74670D01*
Y78180D01*
D02*
G37*
G36*
X89400Y76290D02*
X85890D01*
Y72780D01*
X86286Y72859D01*
X88105Y74075D01*
X89321Y75894D01*
X89400Y76290D01*
D02*
G37*
G36*
X82390D02*
X78880D01*
X78959Y75894D01*
X80175Y74075D01*
X81994Y72859D01*
X82390Y72780D01*
Y76290D01*
D02*
G37*
G36*
X381020Y74470D02*
Y70960D01*
X384530D01*
X384451Y71356D01*
X383235Y73175D01*
X381416Y74391D01*
X381020Y74470D01*
D02*
G37*
G36*
X377520D02*
X377124Y74391D01*
X375305Y73175D01*
X374089Y71356D01*
X374010Y70960D01*
X377520D01*
Y74470D01*
D02*
G37*
G36*
X148120Y74410D02*
Y70900D01*
X151630D01*
X151551Y71296D01*
X150335Y73115D01*
X148516Y74331D01*
X148120Y74410D01*
D02*
G37*
G36*
X144620D02*
X144224Y74331D01*
X142405Y73115D01*
X141189Y71296D01*
X141110Y70900D01*
X144620D01*
Y74410D01*
D02*
G37*
G36*
X421660Y73200D02*
Y69690D01*
X425170D01*
X425091Y70086D01*
X423875Y71905D01*
X422056Y73121D01*
X421660Y73200D01*
D02*
G37*
G36*
X418160D02*
X417764Y73121D01*
X415945Y71905D01*
X414729Y70086D01*
X414650Y69690D01*
X418160D01*
Y73200D01*
D02*
G37*
G36*
X384530Y67460D02*
X381020D01*
Y63950D01*
X381416Y64029D01*
X383235Y65245D01*
X384451Y67064D01*
X384530Y67460D01*
D02*
G37*
G36*
X377520D02*
X374010D01*
X374089Y67064D01*
X375305Y65245D01*
X377124Y64029D01*
X377520Y63950D01*
Y67460D01*
D02*
G37*
G36*
X151630Y67400D02*
X148120D01*
Y63890D01*
X148516Y63969D01*
X150335Y65185D01*
X151551Y67004D01*
X151630Y67400D01*
D02*
G37*
G36*
X144620D02*
X141110D01*
X141189Y67004D01*
X142405Y65185D01*
X144224Y63969D01*
X144620Y63890D01*
Y67400D01*
D02*
G37*
G36*
X18640Y74108D02*
X16494Y73681D01*
X14675Y72465D01*
X13459Y70646D01*
X13032Y68500D01*
X13459Y66354D01*
X14675Y64535D01*
X16494Y63319D01*
X18640Y62892D01*
X20786Y63319D01*
X22605Y64535D01*
X23821Y66354D01*
X24248Y68500D01*
X23821Y70646D01*
X22605Y72465D01*
X20786Y73681D01*
X18640Y74108D01*
D02*
G37*
G36*
X425170Y66190D02*
X421660D01*
Y62680D01*
X422056Y62759D01*
X423875Y63975D01*
X425091Y65794D01*
X425170Y66190D01*
D02*
G37*
G36*
X418160D02*
X414650D01*
X414729Y65794D01*
X415945Y63975D01*
X417764Y62759D01*
X418160Y62680D01*
Y66190D01*
D02*
G37*
G36*
X353000Y63608D02*
X350854Y63181D01*
X349035Y61965D01*
X348895Y61757D01*
X348859Y61726D01*
X348786Y61674D01*
X348721Y61636D01*
X348665Y61608D01*
X348614Y61588D01*
X348563Y61573D01*
X348542Y61569D01*
X328458D01*
X328437Y61573D01*
X328386Y61588D01*
X328335Y61608D01*
X328278Y61636D01*
X328214Y61674D01*
X328141Y61727D01*
X328105Y61757D01*
X327965Y61965D01*
X326146Y63181D01*
X324000Y63608D01*
X321854Y63181D01*
X320035Y61965D01*
X318819Y60146D01*
X318392Y58000D01*
X318819Y55854D01*
X320035Y54035D01*
X321854Y52819D01*
X324000Y52392D01*
X326146Y52819D01*
X327965Y54035D01*
X328105Y54243D01*
X328141Y54274D01*
X328214Y54325D01*
X328279Y54364D01*
X328335Y54392D01*
X328386Y54412D01*
X328437Y54427D01*
X328458Y54431D01*
X348542D01*
X348563Y54427D01*
X348614Y54412D01*
X348665Y54392D01*
X348722Y54364D01*
X348786Y54326D01*
X348859Y54273D01*
X348895Y54243D01*
X349035Y54035D01*
X350854Y52819D01*
X353000Y52392D01*
X355146Y52819D01*
X356965Y54035D01*
X358181Y55854D01*
X358608Y58000D01*
X358181Y60146D01*
X356965Y61965D01*
X355146Y63181D01*
X353000Y63608D01*
D02*
G37*
G36*
X417370Y48148D02*
X415224Y47721D01*
X413405Y46505D01*
X412189Y44686D01*
X411762Y42540D01*
X412189Y40394D01*
X413405Y38575D01*
X415224Y37359D01*
X417370Y36932D01*
X419516Y37359D01*
X421335Y38575D01*
X422551Y40394D01*
X422978Y42540D01*
X422551Y44686D01*
X421335Y46505D01*
X419516Y47721D01*
X417370Y48148D01*
D02*
G37*
%LPD*%
G36*
X257007Y439667D02*
X257034Y439376D01*
X257082Y439095D01*
X257149Y438825D01*
X257237Y438566D01*
X257345Y438318D01*
X257474Y438081D01*
X257622Y437854D01*
X257791Y437639D01*
X257980Y437434D01*
X256566Y436020D01*
X256361Y436209D01*
X256146Y436378D01*
X255919Y436526D01*
X255682Y436655D01*
X255434Y436763D01*
X255175Y436851D01*
X254905Y436918D01*
X254624Y436966D01*
X254333Y436993D01*
X254030Y437000D01*
X257000Y439970D01*
X257007Y439667D01*
D02*
G37*
G36*
X307005Y437678D02*
X307243Y434513D01*
X307396Y433645D01*
X307586Y432869D01*
X307812Y432187D01*
X308076Y431598D01*
X308376Y431103D01*
X308714Y430700D01*
X307299Y429286D01*
X306897Y429624D01*
X306402Y429924D01*
X305813Y430188D01*
X305131Y430414D01*
X304355Y430604D01*
X303487Y430757D01*
X302525Y430873D01*
X300322Y430995D01*
X299080Y431000D01*
X307000Y438920D01*
X307005Y437678D01*
D02*
G37*
G36*
X248007Y422667D02*
X248034Y422376D01*
X248082Y422095D01*
X248149Y421825D01*
X248237Y421566D01*
X248345Y421318D01*
X248474Y421081D01*
X248622Y420854D01*
X248791Y420639D01*
X248980Y420434D01*
X247566Y419020D01*
X247361Y419209D01*
X247146Y419378D01*
X246919Y419526D01*
X246682Y419655D01*
X246434Y419763D01*
X246175Y419851D01*
X245905Y419918D01*
X245624Y419966D01*
X245333Y419993D01*
X245030Y420000D01*
X248000Y422970D01*
X248007Y422667D01*
D02*
G37*
G36*
X306871Y415113D02*
X306936Y415005D01*
X307028Y414910D01*
X307146Y414828D01*
X307290Y414758D01*
X307460Y414701D01*
X307656Y414657D01*
X307878Y414625D01*
X308126Y414606D01*
X308400Y414600D01*
Y412600D01*
X308126Y412594D01*
X307878Y412575D01*
X307656Y412543D01*
X307460Y412499D01*
X307290Y412442D01*
X307146Y412372D01*
X307028Y412290D01*
X306936Y412195D01*
X306871Y412087D01*
X306831Y411967D01*
Y415233D01*
X306871Y415113D01*
D02*
G37*
G36*
X298637Y405608D02*
X297417Y405644D01*
X295245Y405590D01*
X294295Y405499D01*
X293434Y405366D01*
X292663Y405191D01*
X291982Y404972D01*
X291391Y404712D01*
X290890Y404410D01*
X290479Y404065D01*
X289115Y405529D01*
X289444Y405922D01*
X289741Y406411D01*
X290008Y406997D01*
X290243Y407679D01*
X290448Y408458D01*
X290621Y409334D01*
X290874Y411375D01*
X290954Y412541D01*
X291003Y413803D01*
X298637Y405608D01*
D02*
G37*
G36*
X224007Y400667D02*
X224034Y400376D01*
X224082Y400095D01*
X224149Y399825D01*
X224237Y399566D01*
X224345Y399318D01*
X224474Y399081D01*
X224622Y398854D01*
X224791Y398639D01*
X224980Y398434D01*
X223566Y397020D01*
X223361Y397209D01*
X223146Y397378D01*
X222919Y397526D01*
X222682Y397655D01*
X222434Y397763D01*
X222175Y397851D01*
X221905Y397918D01*
X221624Y397966D01*
X221333Y397993D01*
X221030Y398000D01*
X224000Y400970D01*
X224007Y400667D01*
D02*
G37*
G36*
X388820Y395666D02*
X389340Y395359D01*
X389924Y395132D01*
X390570Y394983D01*
X391280Y394915D01*
X392053Y394925D01*
X392890Y395014D01*
X393790Y395183D01*
X394753Y395431D01*
X395779Y395758D01*
X390791Y385730D01*
X390319Y387164D01*
X387629Y393906D01*
X387428Y394158D01*
X388363Y396051D01*
X388820Y395666D01*
D02*
G37*
G36*
X404995Y392926D02*
X407401Y390856D01*
X408124Y390350D01*
X408806Y389936D01*
X409449Y389614D01*
X410051Y389384D01*
X410614Y389246D01*
X411137Y389200D01*
Y387200D01*
X410614Y387154D01*
X410051Y387016D01*
X409449Y386786D01*
X408806Y386464D01*
X408124Y386050D01*
X407401Y385544D01*
X406639Y384946D01*
X404995Y383474D01*
X404113Y382600D01*
Y393800D01*
X404995Y392926D01*
D02*
G37*
G36*
X293859Y380230D02*
X293703Y380344D01*
X293519Y380400D01*
X293307D01*
X293067Y380344D01*
X292798Y380230D01*
X292501Y380061D01*
X292176Y379835D01*
X291822Y379552D01*
X291031Y378816D01*
X289616Y380230D01*
X290012Y380641D01*
X290634Y381376D01*
X290861Y381701D01*
X291031Y381998D01*
X291144Y382267D01*
X291200Y382507D01*
Y382719D01*
X291144Y382903D01*
X291031Y383059D01*
X293859Y380230D01*
D02*
G37*
G36*
X300810Y380210D02*
X300640Y380150D01*
X300490Y380051D01*
X300360Y379911D01*
X300250Y379730D01*
X300160Y379510D01*
X300090Y379250D01*
X300040Y378951D01*
X300010Y378610D01*
X300000Y378231D01*
X298000D01*
X297990Y378610D01*
X297960Y378951D01*
X297910Y379250D01*
X297840Y379510D01*
X297750Y379730D01*
X297640Y379911D01*
X297510Y380051D01*
X297360Y380150D01*
X297190Y380210D01*
X297000Y380230D01*
X301000D01*
X300810Y380210D01*
D02*
G37*
G36*
X465644Y371950D02*
X464828Y372757D01*
X463302Y374118D01*
X462592Y374670D01*
X461917Y375137D01*
X461277Y375520D01*
X460672Y375817D01*
X460102Y376030D01*
X459567Y376157D01*
X459067Y376200D01*
Y378200D01*
X459567Y378242D01*
X460102Y378370D01*
X460672Y378582D01*
X461277Y378880D01*
X461917Y379263D01*
X462592Y379730D01*
X463302Y380283D01*
X464828Y381642D01*
X465644Y382450D01*
Y371950D01*
D02*
G37*
G36*
X323011Y336350D02*
X323044Y336078D01*
X323099Y335813D01*
X323176Y335555D01*
X323275Y335303D01*
X323396Y335058D01*
X323539Y334819D01*
X323704Y334587D01*
X323891Y334361D01*
X324100Y334142D01*
X319900D01*
X320109Y334361D01*
X320296Y334587D01*
X320461Y334819D01*
X320604Y335058D01*
X320725Y335303D01*
X320824Y335555D01*
X320901Y335813D01*
X320956Y336078D01*
X320989Y336350D01*
X321000Y336628D01*
X323000D01*
X323011Y336350D01*
D02*
G37*
G36*
X414858Y273900D02*
X414639Y274109D01*
X414413Y274296D01*
X414181Y274461D01*
X413942Y274604D01*
X413697Y274725D01*
X413445Y274824D01*
X413187Y274901D01*
X412921Y274956D01*
X412650Y274989D01*
X412372Y275000D01*
Y277000D01*
X412650Y277011D01*
X412921Y277044D01*
X413187Y277099D01*
X413445Y277176D01*
X413697Y277275D01*
X413942Y277396D01*
X414181Y277539D01*
X414413Y277704D01*
X414639Y277891D01*
X414858Y278100D01*
Y273900D01*
D02*
G37*
G36*
X426261Y268100D02*
X426294Y267829D01*
X426349Y267563D01*
X426426Y267305D01*
X426525Y267053D01*
X426646Y266808D01*
X426789Y266569D01*
X426954Y266337D01*
X427141Y266111D01*
X427350Y265892D01*
X423150D01*
X423359Y266111D01*
X423546Y266337D01*
X423711Y266569D01*
X423854Y266808D01*
X423975Y267053D01*
X424074Y267305D01*
X424151Y267563D01*
X424206Y267829D01*
X424239Y268100D01*
X424250Y268378D01*
X426250D01*
X426261Y268100D01*
D02*
G37*
G36*
X365361Y266891D02*
X365587Y266704D01*
X365819Y266539D01*
X366058Y266396D01*
X366303Y266275D01*
X366555Y266176D01*
X366813Y266099D01*
X367079Y266044D01*
X367350Y266011D01*
X367628Y266000D01*
Y264000D01*
X367350Y263989D01*
X367079Y263956D01*
X366813Y263901D01*
X366555Y263824D01*
X366303Y263725D01*
X366058Y263604D01*
X365819Y263461D01*
X365587Y263296D01*
X365361Y263109D01*
X365142Y262900D01*
Y267100D01*
X365361Y266891D01*
D02*
G37*
G36*
X238891Y250639D02*
X238704Y250413D01*
X238539Y250181D01*
X238396Y249942D01*
X238275Y249697D01*
X238176Y249445D01*
X238099Y249187D01*
X238044Y248922D01*
X238011Y248650D01*
X238000Y248372D01*
X236000D01*
X235989Y248650D01*
X235956Y248922D01*
X235901Y249187D01*
X235824Y249445D01*
X235725Y249697D01*
X235604Y249942D01*
X235461Y250181D01*
X235296Y250413D01*
X235109Y250639D01*
X234900Y250858D01*
X239100D01*
X238891Y250639D01*
D02*
G37*
G36*
X403361Y233891D02*
X403587Y233704D01*
X403819Y233539D01*
X404058Y233396D01*
X404303Y233275D01*
X404555Y233176D01*
X404813Y233099D01*
X405079Y233044D01*
X405350Y233011D01*
X405628Y233000D01*
Y231000D01*
X405350Y230989D01*
X405079Y230956D01*
X404813Y230901D01*
X404555Y230824D01*
X404303Y230725D01*
X404058Y230604D01*
X403819Y230461D01*
X403587Y230296D01*
X403361Y230109D01*
X403142Y229900D01*
Y234100D01*
X403361Y233891D01*
D02*
G37*
G36*
X480145Y232531D02*
X479822Y232147D01*
X479534Y231679D01*
X479281Y231126D01*
X479063Y230487D01*
X478881Y229764D01*
X478734Y228956D01*
X478623Y228063D01*
X478505Y226023D01*
X478500Y224875D01*
X471075Y232300D01*
X472223Y232305D01*
X474263Y232423D01*
X475156Y232534D01*
X475964Y232681D01*
X476688Y232863D01*
X477326Y233081D01*
X477879Y233334D01*
X478347Y233622D01*
X478731Y233945D01*
X480145Y232531D01*
D02*
G37*
G36*
X273011Y226350D02*
X273044Y226078D01*
X273099Y225813D01*
X273176Y225555D01*
X273275Y225303D01*
X273396Y225058D01*
X273539Y224819D01*
X273704Y224587D01*
X273891Y224361D01*
X274100Y224142D01*
X269900D01*
X270109Y224361D01*
X270296Y224587D01*
X270461Y224819D01*
X270604Y225058D01*
X270725Y225303D01*
X270824Y225555D01*
X270901Y225813D01*
X270956Y226078D01*
X270989Y226350D01*
X271000Y226628D01*
X273000D01*
X273011Y226350D01*
D02*
G37*
G36*
X183007Y212667D02*
X183034Y212376D01*
X183082Y212095D01*
X183149Y211825D01*
X183237Y211566D01*
X183345Y211318D01*
X183474Y211081D01*
X183622Y210854D01*
X183791Y210639D01*
X183980Y210434D01*
X182566Y209020D01*
X182361Y209209D01*
X182146Y209378D01*
X181919Y209526D01*
X181682Y209655D01*
X181434Y209763D01*
X181175Y209851D01*
X180905Y209918D01*
X180624Y209966D01*
X180333Y209993D01*
X180030Y210000D01*
X183000Y212970D01*
X183007Y212667D01*
D02*
G37*
G36*
X315858Y205900D02*
X315639Y206109D01*
X315413Y206296D01*
X315181Y206461D01*
X314942Y206604D01*
X314697Y206725D01*
X314445Y206824D01*
X314187Y206901D01*
X313922Y206956D01*
X313650Y206989D01*
X313372Y207000D01*
Y209000D01*
X313650Y209011D01*
X313922Y209044D01*
X314187Y209099D01*
X314445Y209176D01*
X314697Y209275D01*
X314942Y209396D01*
X315181Y209539D01*
X315413Y209704D01*
X315639Y209891D01*
X315858Y210100D01*
Y205900D01*
D02*
G37*
G36*
X421970Y206000D02*
X421667Y205993D01*
X421376Y205966D01*
X421095Y205918D01*
X420825Y205851D01*
X420566Y205763D01*
X420318Y205655D01*
X420081Y205526D01*
X419854Y205378D01*
X419639Y205209D01*
X419434Y205020D01*
X418020Y206434D01*
X418209Y206639D01*
X418378Y206854D01*
X418526Y207081D01*
X418655Y207318D01*
X418763Y207566D01*
X418851Y207825D01*
X418918Y208095D01*
X418966Y208376D01*
X418993Y208667D01*
X419000Y208970D01*
X421970Y206000D01*
D02*
G37*
G36*
X436011Y184350D02*
X436044Y184079D01*
X436099Y183813D01*
X436176Y183555D01*
X436275Y183303D01*
X436396Y183058D01*
X436539Y182819D01*
X436704Y182587D01*
X436891Y182361D01*
X437100Y182142D01*
X432900D01*
X433109Y182361D01*
X433296Y182587D01*
X433461Y182819D01*
X433604Y183058D01*
X433725Y183303D01*
X433824Y183555D01*
X433901Y183813D01*
X433956Y184079D01*
X433989Y184350D01*
X434000Y184628D01*
X436000D01*
X436011Y184350D01*
D02*
G37*
G36*
X326361Y177891D02*
X326587Y177704D01*
X326819Y177539D01*
X327058Y177396D01*
X327303Y177275D01*
X327555Y177176D01*
X327813Y177099D01*
X328078Y177044D01*
X328350Y177011D01*
X328628Y177000D01*
Y175000D01*
X328350Y174989D01*
X328078Y174956D01*
X327813Y174901D01*
X327555Y174824D01*
X327303Y174725D01*
X327058Y174604D01*
X326819Y174461D01*
X326587Y174296D01*
X326361Y174109D01*
X326142Y173900D01*
Y178100D01*
X326361Y177891D01*
D02*
G37*
G36*
X296007Y165667D02*
X296034Y165376D01*
X296082Y165095D01*
X296149Y164825D01*
X296237Y164566D01*
X296345Y164318D01*
X296474Y164081D01*
X296622Y163854D01*
X296791Y163639D01*
X296980Y163434D01*
X295566Y162020D01*
X295361Y162209D01*
X295146Y162378D01*
X294919Y162526D01*
X294682Y162655D01*
X294434Y162763D01*
X294175Y162851D01*
X293905Y162918D01*
X293624Y162966D01*
X293333Y162993D01*
X293030Y163000D01*
X296000Y165970D01*
X296007Y165667D01*
D02*
G37*
G36*
X340149Y136281D02*
X340364Y136112D01*
X340591Y135964D01*
X340828Y135835D01*
X341076Y135727D01*
X341335Y135639D01*
X341605Y135572D01*
X341886Y135524D01*
X342177Y135497D01*
X342480Y135490D01*
X339510Y132520D01*
X339503Y132823D01*
X339476Y133114D01*
X339428Y133395D01*
X339361Y133665D01*
X339273Y133924D01*
X339165Y134172D01*
X339036Y134409D01*
X338888Y134636D01*
X338719Y134851D01*
X338530Y135056D01*
X339944Y136470D01*
X340149Y136281D01*
D02*
G37*
G36*
X322970Y118000D02*
X322667Y117993D01*
X322376Y117966D01*
X322095Y117918D01*
X321825Y117851D01*
X321566Y117763D01*
X321318Y117655D01*
X321081Y117526D01*
X320854Y117378D01*
X320639Y117209D01*
X320434Y117020D01*
X319020Y118434D01*
X319209Y118639D01*
X319378Y118854D01*
X319526Y119081D01*
X319655Y119318D01*
X319763Y119566D01*
X319851Y119825D01*
X319918Y120095D01*
X319966Y120376D01*
X319993Y120667D01*
X320000Y120970D01*
X322970Y118000D01*
D02*
G37*
G36*
X212231Y109021D02*
X212457Y108834D01*
X212689Y108669D01*
X212928Y108526D01*
X213173Y108405D01*
X213425Y108306D01*
X213683Y108229D01*
X213948Y108174D01*
X214220Y108141D01*
X214498Y108130D01*
Y106130D01*
X214220Y106119D01*
X213948Y106086D01*
X213683Y106031D01*
X213425Y105954D01*
X213173Y105855D01*
X212928Y105734D01*
X212689Y105591D01*
X212457Y105426D01*
X212231Y105239D01*
X212012Y105030D01*
Y109230D01*
X212231Y109021D01*
D02*
G37*
G36*
X400858Y104900D02*
X400639Y105109D01*
X400413Y105296D01*
X400181Y105461D01*
X399942Y105604D01*
X399697Y105725D01*
X399445Y105824D01*
X399187Y105901D01*
X398922Y105956D01*
X398650Y105989D01*
X398372Y106000D01*
Y108000D01*
X398650Y108011D01*
X398922Y108044D01*
X399187Y108099D01*
X399445Y108176D01*
X399697Y108275D01*
X399942Y108396D01*
X400181Y108539D01*
X400413Y108704D01*
X400639Y108891D01*
X400858Y109100D01*
Y104900D01*
D02*
G37*
G36*
X233980Y441566D02*
X233791Y441361D01*
X233622Y441146D01*
X233474Y440919D01*
X233345Y440682D01*
X233237Y440434D01*
X233149Y440175D01*
X233082Y439905D01*
X233034Y439624D01*
X233007Y439333D01*
X233000Y439030D01*
X230030Y442000D01*
X230333Y442007D01*
X230624Y442034D01*
X230905Y442082D01*
X231175Y442149D01*
X231434Y442237D01*
X231682Y442345D01*
X231919Y442474D01*
X232146Y442622D01*
X232361Y442791D01*
X232566Y442980D01*
X233980Y441566D01*
D02*
G37*
G36*
X450639Y418791D02*
X450854Y418622D01*
X451081Y418474D01*
X451318Y418345D01*
X451566Y418237D01*
X451825Y418149D01*
X452095Y418082D01*
X452376Y418034D01*
X452667Y418007D01*
X452970Y418000D01*
X450000Y415030D01*
X449993Y415333D01*
X449966Y415624D01*
X449918Y415905D01*
X449851Y416175D01*
X449763Y416434D01*
X449655Y416682D01*
X449526Y416919D01*
X449378Y417146D01*
X449209Y417361D01*
X449020Y417566D01*
X450434Y418980D01*
X450639Y418791D01*
D02*
G37*
G36*
X41007Y397667D02*
X41034Y397376D01*
X41082Y397095D01*
X41149Y396825D01*
X41237Y396566D01*
X41345Y396318D01*
X41474Y396081D01*
X41622Y395854D01*
X41791Y395639D01*
X41980Y395434D01*
X40566Y394020D01*
X40361Y394209D01*
X40146Y394378D01*
X39919Y394526D01*
X39682Y394655D01*
X39434Y394763D01*
X39175Y394851D01*
X38905Y394918D01*
X38624Y394966D01*
X38333Y394993D01*
X38030Y395000D01*
X41000Y397970D01*
X41007Y397667D01*
D02*
G37*
G36*
X216858Y359900D02*
X216639Y360109D01*
X216413Y360296D01*
X216181Y360461D01*
X215942Y360604D01*
X215697Y360725D01*
X215445Y360824D01*
X215187Y360901D01*
X214921Y360956D01*
X214650Y360989D01*
X214372Y361000D01*
Y363000D01*
X214650Y363011D01*
X214921Y363044D01*
X215187Y363099D01*
X215445Y363176D01*
X215697Y363275D01*
X215942Y363396D01*
X216181Y363539D01*
X216413Y363704D01*
X216639Y363891D01*
X216858Y364100D01*
Y359900D01*
D02*
G37*
G36*
X59050Y243080D02*
X58747Y243073D01*
X58456Y243046D01*
X58175Y242998D01*
X57905Y242931D01*
X57646Y242843D01*
X57398Y242735D01*
X57161Y242606D01*
X56934Y242458D01*
X56719Y242289D01*
X56514Y242100D01*
X55100Y243514D01*
X55289Y243719D01*
X55458Y243934D01*
X55606Y244161D01*
X55735Y244398D01*
X55843Y244646D01*
X55931Y244905D01*
X55998Y245175D01*
X56046Y245456D01*
X56073Y245747D01*
X56080Y246050D01*
X59050Y243080D01*
D02*
G37*
G36*
X37416Y223164D02*
X37229Y222938D01*
X37064Y222706D01*
X36921Y222467D01*
X36800Y222222D01*
X36701Y221970D01*
X36624Y221712D01*
X36569Y221446D01*
X36536Y221175D01*
X36525Y220897D01*
X34525D01*
X34514Y221175D01*
X34481Y221446D01*
X34426Y221712D01*
X34349Y221970D01*
X34250Y222222D01*
X34129Y222467D01*
X33986Y222706D01*
X33821Y222938D01*
X33634Y223164D01*
X33425Y223383D01*
X37625D01*
X37416Y223164D01*
D02*
G37*
G36*
X40980Y169566D02*
X40791Y169361D01*
X40622Y169146D01*
X40474Y168919D01*
X40345Y168682D01*
X40237Y168434D01*
X40149Y168175D01*
X40082Y167905D01*
X40034Y167624D01*
X40007Y167333D01*
X40000Y167030D01*
X37030Y170000D01*
X37333Y170007D01*
X37624Y170034D01*
X37905Y170082D01*
X38175Y170149D01*
X38434Y170237D01*
X38682Y170345D01*
X38919Y170474D01*
X39146Y170622D01*
X39361Y170791D01*
X39566Y170980D01*
X40980Y169566D01*
D02*
G37*
G36*
X22980D02*
X22791Y169361D01*
X22622Y169146D01*
X22474Y168919D01*
X22345Y168682D01*
X22237Y168434D01*
X22149Y168175D01*
X22082Y167905D01*
X22034Y167624D01*
X22007Y167333D01*
X22000Y167030D01*
X19030Y170000D01*
X19333Y170007D01*
X19624Y170034D01*
X19905Y170082D01*
X20175Y170149D01*
X20434Y170237D01*
X20682Y170345D01*
X20919Y170474D01*
X21146Y170622D01*
X21361Y170791D01*
X21566Y170980D01*
X22980Y169566D01*
D02*
G37*
G36*
X81951Y113415D02*
X81578Y113028D01*
X80950Y112287D01*
X80695Y111934D01*
X80481Y111592D01*
X80305Y111261D01*
X80169Y110941D01*
X80073Y110633D01*
X80017Y110336D01*
X80000Y110050D01*
X75050Y115000D01*
X75336Y115017D01*
X75633Y115073D01*
X75941Y115169D01*
X76261Y115305D01*
X76592Y115481D01*
X76934Y115695D01*
X77287Y115950D01*
X77652Y116244D01*
X78415Y116951D01*
X81951Y113415D01*
D02*
G37*
G36*
X71429Y106500D02*
X71215Y106690D01*
X70965Y106860D01*
X70679Y107010D01*
X70357Y107140D01*
X69999Y107250D01*
X69605Y107340D01*
X69176Y107410D01*
X68710Y107460D01*
X67670Y107500D01*
Y112500D01*
X68208Y112510D01*
X69176Y112590D01*
X69605Y112660D01*
X69999Y112750D01*
X70357Y112860D01*
X70679Y112990D01*
X70965Y113140D01*
X71215Y113310D01*
X71429Y113500D01*
Y106500D01*
D02*
G37*
G36*
X349396Y238159D02*
X349259Y238179D01*
X349115Y238174D01*
X348964Y238147D01*
X348806Y238095D01*
X348640Y238021D01*
X348468Y237922D01*
X348288Y237800D01*
X348102Y237655D01*
X347908Y237486D01*
X347707Y237293D01*
X346293Y238707D01*
X346486Y238908D01*
X346800Y239288D01*
X346922Y239468D01*
X347021Y239640D01*
X347095Y239806D01*
X347147Y239964D01*
X347174Y240115D01*
X347178Y240259D01*
X347159Y240396D01*
X349396Y238159D01*
D02*
G37*
G36*
X306361Y239891D02*
X306587Y239704D01*
X306819Y239539D01*
X307058Y239396D01*
X307303Y239275D01*
X307555Y239176D01*
X307813Y239099D01*
X308078Y239044D01*
X308350Y239011D01*
X308628Y239000D01*
Y237000D01*
X308350Y236989D01*
X308078Y236956D01*
X307813Y236901D01*
X307555Y236824D01*
X307303Y236725D01*
X307058Y236604D01*
X306819Y236461D01*
X306587Y236296D01*
X306361Y236109D01*
X306142Y235900D01*
Y240100D01*
X306361Y239891D01*
D02*
G37*
G36*
X87970Y196000D02*
X87667Y195993D01*
X87376Y195966D01*
X87095Y195918D01*
X86825Y195851D01*
X86566Y195763D01*
X86318Y195655D01*
X86081Y195526D01*
X85854Y195378D01*
X85639Y195209D01*
X85434Y195020D01*
X84020Y196434D01*
X84209Y196639D01*
X84378Y196854D01*
X84526Y197081D01*
X84655Y197318D01*
X84763Y197566D01*
X84851Y197825D01*
X84918Y198095D01*
X84966Y198376D01*
X84993Y198667D01*
X85000Y198970D01*
X87970Y196000D01*
D02*
G37*
G36*
X53830Y137716D02*
X53641Y137511D01*
X53472Y137296D01*
X53324Y137069D01*
X53195Y136832D01*
X53087Y136584D01*
X52999Y136325D01*
X52932Y136055D01*
X52884Y135774D01*
X52857Y135483D01*
X52850Y135180D01*
X49880Y138150D01*
X50183Y138157D01*
X50474Y138184D01*
X50755Y138232D01*
X51025Y138299D01*
X51284Y138387D01*
X51532Y138495D01*
X51769Y138624D01*
X51996Y138772D01*
X52211Y138941D01*
X52416Y139130D01*
X53830Y137716D01*
D02*
G37*
G36*
X103774Y186581D02*
X101434Y184020D01*
X99552Y184967D01*
X99759Y185189D01*
X99927Y185403D01*
X100057Y185610D01*
X100149Y185810D01*
X100203Y186003D01*
X100218Y186188D01*
X100196Y186367D01*
X100135Y186537D01*
X100037Y186701D01*
X99900Y186858D01*
X103774Y186581D01*
D02*
G37*
G36*
X97980Y180566D02*
X97791Y180361D01*
X97622Y180146D01*
X97474Y179919D01*
X97345Y179682D01*
X97237Y179434D01*
X97149Y179175D01*
X97082Y178905D01*
X97034Y178624D01*
X97007Y178333D01*
X97000Y178030D01*
X94030Y181000D01*
X94333Y181007D01*
X94624Y181034D01*
X94905Y181082D01*
X95175Y181149D01*
X95434Y181237D01*
X95682Y181345D01*
X95919Y181474D01*
X96146Y181622D01*
X96361Y181791D01*
X96566Y181980D01*
X97980Y180566D01*
D02*
G37*
G36*
X263858Y140900D02*
X263639Y141109D01*
X263413Y141296D01*
X263181Y141461D01*
X262942Y141604D01*
X262697Y141725D01*
X262445Y141824D01*
X262187Y141901D01*
X261922Y141956D01*
X261650Y141989D01*
X261372Y142000D01*
Y144000D01*
X261650Y144011D01*
X261922Y144044D01*
X262187Y144099D01*
X262445Y144176D01*
X262697Y144275D01*
X262942Y144396D01*
X263181Y144539D01*
X263413Y144704D01*
X263639Y144891D01*
X263858Y145100D01*
Y140900D01*
D02*
G37*
G36*
X192980Y139566D02*
X192791Y139361D01*
X192622Y139146D01*
X192474Y138919D01*
X192345Y138682D01*
X192237Y138434D01*
X192149Y138175D01*
X192082Y137905D01*
X192034Y137624D01*
X192007Y137333D01*
X192000Y137030D01*
X189030Y140000D01*
X189333Y140007D01*
X189624Y140034D01*
X189905Y140082D01*
X190175Y140149D01*
X190434Y140237D01*
X190682Y140345D01*
X190919Y140474D01*
X191146Y140622D01*
X191361Y140791D01*
X191566Y140980D01*
X192980Y139566D01*
D02*
G37*
G36*
X350858Y55900D02*
X350639Y56109D01*
X350413Y56296D01*
X350181Y56461D01*
X349942Y56604D01*
X349697Y56725D01*
X349445Y56824D01*
X349187Y56901D01*
X348922Y56956D01*
X348650Y56989D01*
X348372Y57000D01*
Y59000D01*
X348650Y59011D01*
X348922Y59044D01*
X349187Y59099D01*
X349445Y59176D01*
X349697Y59275D01*
X349942Y59396D01*
X350181Y59539D01*
X350413Y59704D01*
X350639Y59891D01*
X350858Y60100D01*
Y55900D01*
D02*
G37*
G36*
X326361Y59891D02*
X326587Y59704D01*
X326819Y59539D01*
X327058Y59396D01*
X327303Y59275D01*
X327555Y59176D01*
X327813Y59099D01*
X328078Y59044D01*
X328350Y59011D01*
X328628Y59000D01*
Y57000D01*
X328350Y56989D01*
X328078Y56956D01*
X327813Y56901D01*
X327555Y56824D01*
X327303Y56725D01*
X327058Y56604D01*
X326819Y56461D01*
X326587Y56296D01*
X326361Y56109D01*
X326142Y55900D01*
Y60100D01*
X326361Y59891D01*
D02*
G37*
D10*
X488497Y72250D02*
X476500D01*
Y65394D01*
X488497Y58367D02*
X480499Y64080D01*
Y55511D01*
X488497Y58367D02*
X476500D01*
D12*
X250500Y81500D02*
X283500D01*
X224870Y107130D02*
X250500Y81500D01*
X283500D02*
X323000Y121000D01*
X209870Y107130D02*
X224870D01*
X317000Y158000D02*
X342510Y132490D01*
X317000Y158000D02*
Y185000D01*
X325000Y193000D01*
X389000Y176000D02*
X422000Y209000D01*
X324000Y176000D02*
X389000D01*
X325000Y193000D02*
Y212000D01*
X322000Y215000D02*
X325000Y212000D01*
X313000Y215000D02*
X322000D01*
X311000Y213000D02*
X313000Y215000D01*
X259000Y213000D02*
X311000D01*
X237000Y235000D02*
X259000Y213000D01*
X237000Y235000D02*
Y253000D01*
X352000Y107000D02*
X403000D01*
X293000Y166000D02*
X352000Y107000D01*
X272000Y341000D02*
X299000Y368000D01*
X272000Y222000D02*
Y341000D01*
X180000Y213000D02*
X185000Y208000D01*
X318000D01*
X221000Y401000D02*
X250000Y372000D01*
X282800D01*
X299000Y388200D01*
X322000Y332000D02*
Y400000D01*
X308400Y413600D02*
X322000Y400000D01*
X299000Y413600D02*
X308400D01*
X402000Y466000D02*
X453000Y415000D01*
X267000Y427000D02*
X304000D01*
X254000Y440000D02*
X267000Y427000D01*
X245000Y423000D02*
X267000Y401000D01*
X286000D01*
X298600Y413600D01*
X299000D01*
X304000Y427000D02*
X331000Y400000D01*
Y343000D02*
Y400000D01*
Y343000D02*
X366000Y308000D01*
X407000D01*
X425250Y289750D01*
Y263750D02*
Y289750D01*
X400000Y276000D02*
X417000D01*
X389000Y265000D02*
X400000Y276000D01*
X299000Y368000D02*
Y388200D01*
X304000Y238000D02*
X347000D01*
X350080Y241080D01*
X299000Y439000D02*
X337000Y401000D01*
X382000D01*
X394800Y388200D01*
X398400D01*
X484000Y237800D02*
Y382000D01*
X477800Y388200D02*
X484000Y382000D01*
X398400Y388200D02*
X477800D01*
X471000Y224800D02*
X484000Y237800D01*
X363000Y265000D02*
X389000D01*
X324000Y58000D02*
X353000D01*
X401000Y232000D02*
X439000D01*
X453000Y246000D01*
Y373000D01*
X457200Y377200D01*
X471000D01*
X463200Y250200D02*
X471000D01*
X435000Y222000D02*
X463200Y250200D01*
X435000Y180000D02*
Y222000D01*
X195000Y143000D02*
X266000D01*
X189000Y137000D02*
X195000Y143000D01*
X38000Y398000D02*
X61000Y375000D01*
X94000D01*
X107000Y362000D01*
X219000D01*
X80000Y191000D02*
X88000Y199000D01*
X80000Y165300D02*
Y191000D01*
X49850Y135150D02*
X80000Y165300D01*
X94000Y178000D02*
X102000Y186000D01*
Y189000D01*
X37000Y167000D02*
X43000Y173000D01*
Y230000D01*
X59080Y246080D01*
X19000Y167000D02*
X35525Y183525D01*
Y225525D01*
X230000Y439000D02*
X257000Y466000D01*
X402000D01*
D42*
X21000Y380400D02*
D03*
Y355000D02*
D03*
X28800Y472000D02*
D03*
X373000Y337400D02*
D03*
X398400Y362800D02*
D03*
X373000D02*
D03*
X398400Y388200D02*
D03*
X373000D02*
D03*
X398400Y413600D02*
D03*
Y439000D02*
D03*
X373000Y413600D02*
D03*
Y439000D02*
D03*
X273600D02*
D03*
X299000D02*
D03*
X273600Y413600D02*
D03*
X299000D02*
D03*
X273600Y388200D02*
D03*
D67*
X281500Y94000D02*
D03*
X161500Y128000D02*
D03*
X75000Y110000D02*
D03*
D68*
X12000Y247000D02*
Y320600D01*
X81140Y116140D02*
X131210D01*
X75000Y110000D02*
X81140Y116140D01*
X11976Y138437D02*
Y246976D01*
Y138437D02*
X40413Y110000D01*
X11976Y246976D02*
X12000Y247000D01*
X48000D02*
X57540Y256540D01*
X12000Y247000D02*
X48000D01*
X40413Y110000D02*
X75000D01*
X12000Y320600D02*
X21000Y329600D01*
X57540Y256540D02*
X65090D01*
D77*
X21000Y329600D02*
D03*
D78*
X54200Y472000D02*
D03*
D79*
X25000Y25000D02*
D03*
X470000Y470000D02*
D03*
Y25000D02*
D03*
X111000Y430000D02*
D03*
X207000D02*
D03*
D80*
X398400Y337400D02*
D03*
X299000Y388200D02*
D03*
D81*
X471000Y428000D02*
D03*
Y402600D02*
D03*
Y377200D02*
D03*
Y351800D02*
D03*
Y326400D02*
D03*
Y301000D02*
D03*
Y275600D02*
D03*
Y224800D02*
D03*
Y250200D02*
D03*
D82*
Y199400D02*
D03*
D83*
X82500Y87500D02*
D03*
X282500Y138500D02*
D03*
X324000Y176000D02*
D03*
X237000Y253000D02*
D03*
X422000Y209000D02*
D03*
X293000Y196000D02*
D03*
X277880Y196120D02*
D03*
X403000Y107000D02*
D03*
X293000Y166000D02*
D03*
X272000Y222000D02*
D03*
X342510Y132490D02*
D03*
X318000Y208000D02*
D03*
X221000Y401000D02*
D03*
X322000Y332000D02*
D03*
X453000Y415000D02*
D03*
X230000Y439000D02*
D03*
X254000Y440000D02*
D03*
X245000Y423000D02*
D03*
X200000Y476999D02*
D03*
X425250Y263750D02*
D03*
X417000Y276000D02*
D03*
X304000Y238000D02*
D03*
X363000Y265000D02*
D03*
X353000Y58000D02*
D03*
X324000D02*
D03*
X401000Y232000D02*
D03*
X350080Y241080D02*
D03*
X435000Y180000D02*
D03*
X323000Y121000D02*
D03*
X209870Y107130D02*
D03*
X266000Y143000D02*
D03*
X189000Y137000D02*
D03*
X180000Y213000D02*
D03*
X38000Y398000D02*
D03*
X219000Y362000D02*
D03*
X125000Y375000D02*
D03*
X131210Y116140D02*
D03*
X123510Y135890D02*
D03*
X120970Y190500D02*
D03*
X102000Y189000D02*
D03*
X94000Y178000D02*
D03*
X88000Y199000D02*
D03*
X49850Y135150D02*
D03*
X37000Y167000D02*
D03*
X59080Y246080D02*
D03*
X19000Y167000D02*
D03*
X35525Y225525D02*
D03*
X125000Y402000D02*
D03*
X104460Y303530D02*
D03*
X193000Y457000D02*
D03*
X197000Y403000D02*
D03*
Y375000D02*
D03*
X198710Y154290D02*
D03*
X227000Y91000D02*
D03*
X49000Y212000D02*
D03*
X298000Y220000D02*
D03*
X332000Y195000D02*
D03*
X416000Y160000D02*
D03*
X344000Y155000D02*
D03*
X348000Y196000D02*
D03*
X372000Y190000D02*
D03*
X415000Y218000D02*
D03*
X379000Y245000D02*
D03*
Y220000D02*
D03*
X374000Y271000D02*
D03*
X435000Y239000D02*
D03*
X342000Y90000D02*
D03*
X368000Y89000D02*
D03*
Y125000D02*
D03*
X431000Y121000D02*
D03*
X389000Y92000D02*
D03*
X379270Y69210D02*
D03*
X419910Y67940D02*
D03*
X417370Y42540D02*
D03*
X248240Y196200D02*
D03*
X48260Y435610D02*
D03*
X224110Y191120D02*
D03*
X222840Y154290D02*
D03*
X297000Y311000D02*
D03*
X199390Y128270D02*
D03*
X232410Y113030D02*
D03*
X250190Y102870D02*
D03*
X263210Y259080D02*
D03*
X218760Y289560D02*
D03*
X188280Y269240D02*
D03*
Y278130D02*
D03*
X146370Y69150D02*
D03*
X151450Y90740D02*
D03*
X84140Y78040D02*
D03*
X131210Y84390D02*
D03*
X42770Y79930D02*
D03*
X18640Y68500D02*
D03*
X19910Y86280D02*
D03*
X35150Y105330D02*
D03*
X66360Y171450D02*
D03*
X48580Y170180D02*
D03*
X108270Y135890D02*
D03*
X91760Y133350D02*
D03*
X159070Y177800D02*
D03*
X176850Y179070D02*
D03*
X169230Y193040D02*
D03*
X156530D02*
D03*
X147640Y194310D02*
D03*
X88900Y363220D02*
D03*
X204470Y300670D02*
D03*
Y314640D02*
D03*
X85410Y323850D02*
D03*
X71440Y209550D02*
D03*
X77790Y219710D02*
D03*
Y229870D02*
D03*
X91760Y89470D02*
D03*
X39690Y267970D02*
D03*
X77790Y254000D02*
D03*
X65090Y256540D02*
D03*
X68900Y267970D02*
D03*
X42230Y299720D02*
D03*
Y289560D02*
D03*
Y279400D02*
D03*
Y256540D02*
D03*
D85*
X283000Y105000D02*
Y156000D01*
X248240Y190760D02*
X283000Y156000D01*
X281500Y103500D02*
X283000Y105000D01*
X281500Y94000D02*
Y103500D01*
X248240Y190760D02*
Y196200D01*
D86*
X86750Y84000D02*
D03*
M02*
