G04*
G04 #@! TF.GenerationSoftware,Altium Limited,Altium Designer,24.1.2 (44)*
G04*
G04 Layer_Physical_Order=3*
G04 Layer_Color=16440176*
%FSLAX44Y44*%
%MOMM*%
G71*
G04*
G04 #@! TF.SameCoordinates,635B94A0-59F8-49C6-AB40-AA6DFF865303*
G04*
G04*
G04 #@! TF.FilePolarity,Positive*
G04*
G01*
G75*
%ADD10C,0.1500*%
%ADD42C,1.6000*%
%ADD67C,1.0000*%
G04:AMPARAMS|DCode=78|XSize=1.6mm|YSize=1.6mm|CornerRadius=0.24mm|HoleSize=0mm|Usage=FLASHONLY|Rotation=180.000|XOffset=0mm|YOffset=0mm|HoleType=Round|Shape=RoundedRectangle|*
%AMROUNDEDRECTD78*
21,1,1.6000,1.1200,0,0,180.0*
21,1,1.1200,1.6000,0,0,180.0*
1,1,0.4800,-0.5600,0.5600*
1,1,0.4800,0.5600,0.5600*
1,1,0.4800,0.5600,-0.5600*
1,1,0.4800,-0.5600,-0.5600*
%
%ADD78ROUNDEDRECTD78*%
G04:AMPARAMS|DCode=82|XSize=1.5mm|YSize=1.5mm|CornerRadius=0.375mm|HoleSize=0mm|Usage=FLASHONLY|Rotation=90.000|XOffset=0mm|YOffset=0mm|HoleType=Round|Shape=RoundedRectangle|*
%AMROUNDEDRECTD82*
21,1,1.5000,0.7500,0,0,90.0*
21,1,0.7500,1.5000,0,0,90.0*
1,1,0.7500,0.3750,0.3750*
1,1,0.7500,0.3750,-0.3750*
1,1,0.7500,-0.3750,-0.3750*
1,1,0.7500,-0.3750,0.3750*
%
%ADD82ROUNDEDRECTD82*%
%ADD83C,0.6000*%
%ADD85C,1.0000*%
G36*
X112000Y372000D02*
X147000Y337000D01*
X199000D01*
X223000Y313000D01*
X237000Y299000D01*
X290112D01*
X290597Y297827D01*
X289127Y296356D01*
X287925Y294789D01*
X287169Y292965D01*
X286911Y291007D01*
Y234055D01*
X287169Y232097D01*
X287925Y230273D01*
X289127Y228706D01*
X290435Y227398D01*
Y220000D01*
X290693Y218042D01*
X291449Y216218D01*
X292651Y214651D01*
X294218Y213449D01*
X296042Y212693D01*
X298000Y212435D01*
X299958Y212693D01*
X301782Y213449D01*
X303349Y214651D01*
X304551Y216218D01*
X305307Y218042D01*
X305565Y220000D01*
Y230531D01*
X305307Y232489D01*
X305405Y232672D01*
X306146Y232819D01*
X307965Y234035D01*
X309181Y235854D01*
X309608Y238000D01*
X309181Y240146D01*
X307965Y241965D01*
X306146Y243181D01*
X304000Y243608D01*
X303022Y243413D01*
X302041Y244219D01*
Y287874D01*
X313167Y299000D01*
X369000D01*
X408161Y259839D01*
Y259805D01*
X408419Y257847D01*
X409175Y256023D01*
X410377Y254456D01*
X415956Y248877D01*
X417523Y247675D01*
X419347Y246919D01*
X421305Y246661D01*
X421339D01*
X429490Y238510D01*
X429819Y236854D01*
X431035Y235035D01*
X432854Y233819D01*
X433000Y233790D01*
X433000Y185210D01*
X432854Y185181D01*
X431035Y183965D01*
X429819Y182146D01*
X429392Y180000D01*
X429819Y177854D01*
X431035Y176035D01*
X432854Y174819D01*
X433000Y174790D01*
X433000Y127211D01*
X432018Y126405D01*
X431000Y126608D01*
X428854Y126181D01*
X427035Y124965D01*
X425819Y123146D01*
X425392Y121000D01*
X425819Y118854D01*
X427035Y117035D01*
X428854Y115819D01*
X431000Y115392D01*
X432018Y115595D01*
X433000Y114789D01*
X433000Y100565D01*
X405349D01*
X405146Y101819D01*
X406965Y103035D01*
X408181Y104854D01*
X408608Y107000D01*
X408181Y109146D01*
X406965Y110965D01*
X405146Y112181D01*
X403000Y112608D01*
X400854Y112181D01*
X399035Y110965D01*
X397819Y109146D01*
X397392Y107000D01*
X397819Y104854D01*
X399035Y103035D01*
X400854Y101819D01*
X400651Y100565D01*
X391133D01*
X386825Y104873D01*
X385258Y106075D01*
X383434Y106831D01*
X381476Y107089D01*
X287024D01*
X287024Y107089D01*
X285066Y106831D01*
X283242Y106075D01*
X281675Y104873D01*
X281675Y104873D01*
X278019Y101217D01*
X277465Y100988D01*
X275794Y99706D01*
X274512Y98034D01*
X273706Y96088D01*
X273431Y94000D01*
X273706Y91912D01*
X274512Y89965D01*
X275794Y88294D01*
X277465Y87012D01*
X279412Y86206D01*
X281500Y85931D01*
X283588Y86206D01*
X285534Y87012D01*
X287206Y88294D01*
X288488Y89965D01*
X288717Y90519D01*
X290157Y91959D01*
X335781D01*
X335953Y91750D01*
X348047D01*
X348219Y91959D01*
X361951D01*
X362728Y90689D01*
X362392Y89000D01*
X362819Y86854D01*
X364035Y85035D01*
X365854Y83819D01*
X368000Y83392D01*
X370146Y83819D01*
X371965Y85035D01*
X373181Y86854D01*
X373608Y89000D01*
X373272Y90689D01*
X374049Y91959D01*
X378343D01*
X383651Y86651D01*
X383651Y86651D01*
X385218Y85449D01*
X387042Y84693D01*
X389000Y84435D01*
X390958Y84693D01*
X392750Y85435D01*
X433000D01*
Y76000D01*
X426374Y69374D01*
X425159Y69743D01*
X425091Y70086D01*
X423875Y71905D01*
X422056Y73121D01*
X419910Y73548D01*
X417764Y73121D01*
X415945Y71905D01*
X414729Y70086D01*
X414302Y67940D01*
X414729Y65794D01*
X415945Y63975D01*
X417764Y62759D01*
X418107Y62691D01*
X418475Y61476D01*
X364000Y7000D01*
X218000Y7000D01*
X68500Y7000D01*
X53500Y22000D01*
X52901Y22647D01*
X53087Y25000D01*
X52741Y29394D01*
X51712Y33679D01*
X50025Y37751D01*
X47723Y41509D01*
X44860Y44860D01*
X41509Y47723D01*
X37751Y50025D01*
X33679Y51712D01*
X29394Y52741D01*
X25000Y53087D01*
X20606Y52741D01*
X16321Y51712D01*
X12249Y50025D01*
X8491Y47723D01*
X6219Y45781D01*
X5098Y46902D01*
Y396859D01*
X12000Y401000D01*
X31979D01*
X32736Y399730D01*
X32392Y398000D01*
X32819Y395854D01*
X34035Y394035D01*
X35854Y392819D01*
X38000Y392392D01*
X40146Y392819D01*
X41965Y394035D01*
X43181Y395854D01*
X43608Y398000D01*
X43264Y399730D01*
X44021Y401000D01*
X83000D01*
X112000Y372000D01*
D02*
G37*
G36*
X449091Y488632D02*
X447277Y486509D01*
X444975Y482751D01*
X443288Y478679D01*
X442259Y474394D01*
X441913Y470000D01*
X442259Y465606D01*
X443288Y461321D01*
X444975Y457249D01*
X447277Y453491D01*
X450140Y450140D01*
X453491Y447277D01*
X457249Y444975D01*
X461321Y443288D01*
X465606Y442259D01*
X470000Y441913D01*
X474394Y442259D01*
X478679Y443288D01*
X482751Y444975D01*
X486509Y447277D01*
X488632Y449091D01*
X489902Y448506D01*
Y148064D01*
X472500D01*
X471232Y147811D01*
X470157Y147093D01*
X469439Y146018D01*
X469186Y144750D01*
X469211Y144625D01*
X469186Y144500D01*
Y53023D01*
X465606Y52741D01*
X461321Y51712D01*
X457249Y50025D01*
X453491Y47723D01*
X450140Y44860D01*
X447277Y41509D01*
X444975Y37751D01*
X443288Y33679D01*
X442259Y29394D01*
X441913Y25000D01*
X442259Y20606D01*
X443288Y16321D01*
X444975Y12249D01*
X447277Y8491D01*
X449091Y6368D01*
X448506Y5098D01*
X397902D01*
X392000Y11000D01*
X382523Y20477D01*
X420999Y58952D01*
X421290Y59388D01*
X421623Y59793D01*
X421674Y59963D01*
X421772Y60110D01*
X421875Y60624D01*
X422027Y61126D01*
X422010Y61302D01*
X422044Y61476D01*
X422056Y62759D01*
X423875Y63975D01*
X425091Y65794D01*
X426375Y65806D01*
X426548Y65841D01*
X426724Y65823D01*
X427226Y65975D01*
X427740Y66078D01*
X427887Y66176D01*
X428057Y66227D01*
X428462Y66560D01*
X428898Y66851D01*
X435523Y73477D01*
X436297Y74634D01*
X436568Y76000D01*
Y85435D01*
X436297Y86801D01*
X435651Y87767D01*
X434900Y87900D01*
X433000Y88000D01*
Y89004D01*
X433000Y89004D01*
X395024D01*
X394279Y90250D01*
X389000D01*
Y93750D01*
X394260D01*
X394181Y94146D01*
X393125Y95726D01*
X393535Y96996D01*
X400651D01*
X401057Y97077D01*
X401471Y97092D01*
X401734Y97212D01*
X402016Y97268D01*
X402361Y97498D01*
X402738Y97670D01*
X403262D01*
X403639Y97498D01*
X403984Y97268D01*
X404267Y97212D01*
X404529Y97092D01*
X404943Y97077D01*
X405349Y96996D01*
X433000D01*
X433000Y96996D01*
Y98000D01*
X434900Y98100D01*
X435651Y98232D01*
X436297Y99199D01*
X436568Y100565D01*
X436568Y114789D01*
X436534Y114963D01*
X436551Y115139D01*
X436399Y115641D01*
X436297Y116155D01*
X436199Y116302D01*
X436147Y116471D01*
X435815Y116877D01*
X435523Y117312D01*
X435941Y118495D01*
X436181Y118854D01*
X436608Y121000D01*
X436181Y123146D01*
X435941Y123505D01*
X435523Y124688D01*
X435815Y125123D01*
X436147Y125529D01*
X436199Y125698D01*
X436297Y125845D01*
X436399Y126359D01*
X436551Y126861D01*
X436534Y127037D01*
X436568Y127211D01*
X436569Y174704D01*
X437146Y174819D01*
X438965Y176035D01*
X440181Y177854D01*
X440608Y180000D01*
X440181Y182146D01*
X438965Y183965D01*
X437146Y185181D01*
X436568Y185296D01*
X436568Y233704D01*
X437146Y233819D01*
X438965Y235035D01*
X440181Y236854D01*
X440608Y239000D01*
X440181Y241146D01*
X438965Y242965D01*
X437146Y244181D01*
X435000Y244608D01*
X432854Y244181D01*
X431035Y242965D01*
X430167Y242880D01*
X423862Y249185D01*
X423333Y249538D01*
X423089Y249752D01*
X422934Y249804D01*
X422704Y249958D01*
X422165Y250065D01*
X421771Y250199D01*
X420279Y250396D01*
X419322Y250792D01*
X418314Y251566D01*
X413066Y256814D01*
X412292Y257822D01*
X411896Y258779D01*
X411699Y260271D01*
X411565Y260665D01*
X411458Y261204D01*
X411304Y261435D01*
X411252Y261589D01*
X411038Y261833D01*
X410685Y262362D01*
X410685Y262362D01*
X371523Y301523D01*
X370366Y302297D01*
X369000Y302569D01*
X313167D01*
X311801Y302297D01*
X310644Y301523D01*
X299517Y290397D01*
X298744Y289239D01*
X298472Y287874D01*
Y244219D01*
X298507Y244045D01*
X298489Y243869D01*
X298641Y243367D01*
X298744Y242853D01*
X298842Y242706D01*
X298894Y242537D01*
X299226Y242132D01*
X299517Y241696D01*
X299069Y240520D01*
X298819Y240146D01*
X298392Y238000D01*
X298819Y235854D01*
X300035Y234035D01*
X301767Y232877D01*
X301756Y232839D01*
X301796Y232432D01*
X301769Y232023D01*
X301996Y230297D01*
Y225472D01*
X300726Y224793D01*
X300146Y225181D01*
X299750Y225260D01*
Y220000D01*
X296250D01*
Y225260D01*
X295854Y225181D01*
X295274Y224793D01*
X294004Y225472D01*
Y227398D01*
X293732Y228763D01*
X292959Y229921D01*
X291816Y231064D01*
X291042Y232072D01*
X290646Y233029D01*
X290480Y234289D01*
Y290773D01*
X290646Y292033D01*
X291042Y292990D01*
X291816Y293998D01*
X293121Y295303D01*
X293894Y296461D01*
X294166Y297827D01*
X293894Y299192D01*
X293408Y300366D01*
X293021Y300945D01*
X292635Y301523D01*
X291477Y302297D01*
X290112Y302569D01*
X238478D01*
X237000Y304047D01*
Y305000D01*
X233000Y309000D01*
X198000Y344000D01*
X149000D01*
X124755Y368245D01*
X125337Y369459D01*
X127146Y369819D01*
X128965Y371035D01*
X130181Y372854D01*
X130260Y373250D01*
X125000D01*
Y375000D01*
X123250D01*
Y380260D01*
X122854Y380181D01*
X121035Y378965D01*
X119819Y377146D01*
X119459Y375337D01*
X118245Y374755D01*
X86000Y407000D01*
X81000Y412000D01*
X24000D01*
X11000Y425000D01*
X9000Y427000D01*
Y483000D01*
Y485000D01*
X13902Y489902D01*
X448506D01*
X449091Y488632D01*
D02*
G37*
G36*
X382502Y103354D02*
X383459Y102958D01*
X384467Y102184D01*
X387956Y98695D01*
X387538Y97317D01*
X386854Y97181D01*
X385035Y95965D01*
X383819Y94146D01*
X383683Y93462D01*
X382305Y93044D01*
X380866Y94483D01*
X379708Y95256D01*
X378343Y95528D01*
X374049D01*
X373634Y95445D01*
X373213Y95429D01*
X372958Y95311D01*
X372683Y95256D01*
X372332Y95022D01*
X371949Y94845D01*
X371758Y94639D01*
X371525Y94483D01*
X370146Y94181D01*
X368000Y94608D01*
X365854Y94181D01*
X364475Y94483D01*
X364242Y94639D01*
X364051Y94845D01*
X363668Y95022D01*
X363317Y95256D01*
X363042Y95311D01*
X362787Y95429D01*
X362365Y95445D01*
X361951Y95528D01*
X348219D01*
X348045Y95493D01*
X347869Y95511D01*
X347368Y95358D01*
X347167Y95319D01*
X343454D01*
X342000Y95608D01*
X340546Y95319D01*
X336833D01*
X336632Y95358D01*
X336131Y95511D01*
X335955Y95493D01*
X335781Y95528D01*
X290157D01*
X289570Y95411D01*
X288807Y95958D01*
X288051Y97782D01*
X286849Y99349D01*
X285282Y100551D01*
X284514Y100869D01*
X284216Y101686D01*
X284252Y102353D01*
X285041Y102958D01*
X285998Y103354D01*
X287258Y103520D01*
X381242D01*
X382502Y103354D01*
D02*
G37*
%LPC*%
G36*
X22750Y390760D02*
Y382150D01*
X31360D01*
X31230Y383141D01*
X30172Y385695D01*
X28489Y387889D01*
X26295Y389572D01*
X23741Y390630D01*
X22750Y390760D01*
D02*
G37*
G36*
X19250Y390760D02*
X18259Y390630D01*
X15705Y389572D01*
X13511Y387889D01*
X11828Y385695D01*
X10770Y383141D01*
X10640Y382150D01*
X19250D01*
Y390760D01*
D02*
G37*
G36*
Y378650D02*
X10640D01*
X10770Y377659D01*
X11828Y375105D01*
X13511Y372911D01*
X15705Y371228D01*
X18259Y370170D01*
X19250Y370040D01*
Y378650D01*
D02*
G37*
G36*
X31360D02*
X22750D01*
Y370040D01*
X23741Y370170D01*
X26295Y371228D01*
X28489Y372911D01*
X30172Y375105D01*
X31230Y377659D01*
X31360Y378650D01*
D02*
G37*
G36*
X88900Y368828D02*
X86754Y368401D01*
X84935Y367185D01*
X83719Y365366D01*
X83292Y363220D01*
X83719Y361074D01*
X84935Y359255D01*
X86754Y358039D01*
X88900Y357612D01*
X91046Y358039D01*
X92865Y359255D01*
X94081Y361074D01*
X94508Y363220D01*
X94081Y365366D01*
X92865Y367185D01*
X91046Y368401D01*
X88900Y368828D01*
D02*
G37*
G36*
X21000Y366095D02*
X18128Y365717D01*
X15453Y364608D01*
X13155Y362845D01*
X11392Y360547D01*
X10283Y357872D01*
X9905Y355000D01*
X10283Y352128D01*
X11392Y349453D01*
X13155Y347155D01*
X15453Y345392D01*
X18128Y344283D01*
X21000Y343905D01*
X23872Y344283D01*
X26548Y345392D01*
X28845Y347155D01*
X30608Y349453D01*
X31717Y352128D01*
X32095Y355000D01*
X31717Y357872D01*
X30608Y360547D01*
X28845Y362845D01*
X26548Y364608D01*
X23872Y365717D01*
X21000Y366095D01*
D02*
G37*
G36*
X87160Y329110D02*
Y325600D01*
X90670D01*
X90591Y325996D01*
X89375Y327815D01*
X87556Y329031D01*
X87160Y329110D01*
D02*
G37*
G36*
X83660D02*
X83264Y329031D01*
X81445Y327815D01*
X80229Y325996D01*
X80150Y325600D01*
X83660D01*
Y329110D01*
D02*
G37*
G36*
X90670Y322100D02*
X87160D01*
Y318590D01*
X87556Y318669D01*
X89375Y319885D01*
X90591Y321704D01*
X90670Y322100D01*
D02*
G37*
G36*
X83660D02*
X80150D01*
X80229Y321704D01*
X81445Y319885D01*
X83264Y318669D01*
X83660Y318590D01*
Y322100D01*
D02*
G37*
G36*
X26600Y340706D02*
X15400D01*
X13293Y340287D01*
X11507Y339093D01*
X10313Y337307D01*
X9894Y335200D01*
Y324000D01*
X10313Y321893D01*
X11507Y320107D01*
X13293Y318913D01*
X15400Y318494D01*
X26600D01*
X28707Y318913D01*
X30493Y320107D01*
X31687Y321893D01*
X32106Y324000D01*
Y335200D01*
X31687Y337307D01*
X30493Y339093D01*
X28707Y340287D01*
X26600Y340706D01*
D02*
G37*
G36*
X204470Y320248D02*
X202324Y319821D01*
X200505Y318605D01*
X199289Y316786D01*
X198862Y314640D01*
X199289Y312494D01*
X200505Y310675D01*
X202324Y309459D01*
X204470Y309032D01*
X206616Y309459D01*
X208435Y310675D01*
X209651Y312494D01*
X210078Y314640D01*
X209651Y316786D01*
X208435Y318605D01*
X206616Y319821D01*
X204470Y320248D01*
D02*
G37*
G36*
X104460Y309138D02*
X102314Y308711D01*
X100495Y307495D01*
X99279Y305676D01*
X98852Y303530D01*
X99279Y301384D01*
X100495Y299565D01*
X102314Y298349D01*
X104460Y297922D01*
X106606Y298349D01*
X108425Y299565D01*
X109641Y301384D01*
X110068Y303530D01*
X109641Y305676D01*
X108425Y307495D01*
X106606Y308711D01*
X104460Y309138D01*
D02*
G37*
G36*
X204470Y306278D02*
X202324Y305851D01*
X200505Y304635D01*
X199289Y302816D01*
X198862Y300670D01*
X199289Y298524D01*
X200505Y296705D01*
X202324Y295489D01*
X204470Y295062D01*
X206616Y295489D01*
X208435Y296705D01*
X209651Y298524D01*
X210078Y300670D01*
X209651Y302816D01*
X208435Y304635D01*
X206616Y305851D01*
X204470Y306278D01*
D02*
G37*
G36*
X218760Y295168D02*
X216614Y294741D01*
X214795Y293525D01*
X213579Y291706D01*
X213152Y289560D01*
X213579Y287414D01*
X214795Y285595D01*
X216614Y284379D01*
X218760Y283952D01*
X220906Y284379D01*
X222725Y285595D01*
X223941Y287414D01*
X224368Y289560D01*
X223941Y291706D01*
X222725Y293525D01*
X220906Y294741D01*
X218760Y295168D01*
D02*
G37*
G36*
X190030Y283390D02*
Y279880D01*
X193540D01*
X193461Y280276D01*
X192245Y282095D01*
X190426Y283311D01*
X190030Y283390D01*
D02*
G37*
G36*
X186530D02*
X186134Y283311D01*
X184315Y282095D01*
X183099Y280276D01*
X183020Y279880D01*
X186530D01*
Y283390D01*
D02*
G37*
G36*
X70650Y273230D02*
Y269720D01*
X74160D01*
X74081Y270116D01*
X72865Y271935D01*
X71046Y273151D01*
X70650Y273230D01*
D02*
G37*
G36*
X67150D02*
X66754Y273151D01*
X64935Y271935D01*
X63719Y270116D01*
X63640Y269720D01*
X67150D01*
Y273230D01*
D02*
G37*
G36*
X374000Y276608D02*
X371854Y276181D01*
X370035Y274965D01*
X368819Y273146D01*
X368392Y271000D01*
X368819Y268854D01*
X370035Y267035D01*
X371854Y265819D01*
X374000Y265392D01*
X376146Y265819D01*
X377965Y267035D01*
X379181Y268854D01*
X379608Y271000D01*
X379181Y273146D01*
X377965Y274965D01*
X376146Y276181D01*
X374000Y276608D01*
D02*
G37*
G36*
X193540Y276380D02*
X183020D01*
X183099Y275984D01*
X184052Y274557D01*
X184222Y273685D01*
X184052Y272813D01*
X183099Y271386D01*
X182672Y269240D01*
X183099Y267094D01*
X184315Y265275D01*
X186134Y264059D01*
X188280Y263632D01*
X190426Y264059D01*
X192245Y265275D01*
X193461Y267094D01*
X193888Y269240D01*
X193461Y271386D01*
X192508Y272813D01*
X192338Y273685D01*
X192508Y274557D01*
X193461Y275984D01*
X193540Y276380D01*
D02*
G37*
G36*
X74160Y266220D02*
X63640D01*
X63719Y265824D01*
X64935Y264005D01*
X66067Y263248D01*
X65571Y262052D01*
X65090Y262148D01*
X62944Y261721D01*
X61125Y260505D01*
X59909Y258686D01*
X59482Y256540D01*
X59909Y254394D01*
X61124Y252576D01*
X61122Y252569D01*
X60627Y251380D01*
X59080Y251688D01*
X56934Y251261D01*
X55115Y250045D01*
X53899Y248226D01*
X53472Y246080D01*
X53899Y243934D01*
X55115Y242115D01*
X56934Y240899D01*
X59080Y240472D01*
X61226Y240899D01*
X63045Y242115D01*
X64261Y243934D01*
X64688Y246080D01*
X64261Y248226D01*
X63046Y250044D01*
X63047Y250051D01*
X63543Y251240D01*
X65090Y250932D01*
X67236Y251359D01*
X69055Y252575D01*
X70271Y254394D01*
X70698Y256540D01*
X70271Y258686D01*
X69055Y260505D01*
X67923Y261262D01*
X68419Y262458D01*
X68900Y262362D01*
X71046Y262789D01*
X72865Y264005D01*
X74081Y265824D01*
X74160Y266220D01*
D02*
G37*
G36*
X363000Y270608D02*
X360854Y270181D01*
X359035Y268965D01*
X357819Y267146D01*
X357392Y265000D01*
X357819Y262854D01*
X359035Y261035D01*
X360854Y259819D01*
X363000Y259392D01*
X365146Y259819D01*
X366965Y261035D01*
X368181Y262854D01*
X368608Y265000D01*
X368181Y267146D01*
X366965Y268965D01*
X365146Y270181D01*
X363000Y270608D01*
D02*
G37*
G36*
X263210Y264688D02*
X261064Y264261D01*
X259245Y263045D01*
X258029Y261226D01*
X257602Y259080D01*
X258029Y256934D01*
X259245Y255115D01*
X261064Y253899D01*
X263210Y253472D01*
X265356Y253899D01*
X267175Y255115D01*
X268391Y256934D01*
X268818Y259080D01*
X268391Y261226D01*
X267175Y263045D01*
X265356Y264261D01*
X263210Y264688D01*
D02*
G37*
G36*
X42230Y305328D02*
X40084Y304901D01*
X38265Y303685D01*
X37049Y301866D01*
X36622Y299720D01*
X37049Y297574D01*
X38265Y295755D01*
X38983Y295275D01*
Y294005D01*
X38265Y293525D01*
X37049Y291706D01*
X36622Y289560D01*
X37049Y287414D01*
X38265Y285595D01*
X38983Y285115D01*
Y283845D01*
X38265Y283365D01*
X37049Y281546D01*
X36622Y279400D01*
X37049Y277254D01*
X38265Y275435D01*
X39240Y274783D01*
X38972Y273435D01*
X37544Y273151D01*
X35725Y271935D01*
X34509Y270116D01*
X34082Y267970D01*
X34509Y265824D01*
X35725Y264005D01*
X37544Y262789D01*
X38972Y262505D01*
X39240Y261157D01*
X38265Y260505D01*
X37049Y258686D01*
X36622Y256540D01*
X37049Y254394D01*
X38265Y252575D01*
X40084Y251359D01*
X42230Y250932D01*
X44376Y251359D01*
X46195Y252575D01*
X47411Y254394D01*
X47838Y256540D01*
X47411Y258686D01*
X46195Y260505D01*
X44376Y261721D01*
X42948Y262005D01*
X42680Y263353D01*
X43655Y264005D01*
X44871Y265824D01*
X45298Y267970D01*
X44871Y270116D01*
X43655Y271935D01*
X42680Y272587D01*
X42948Y273935D01*
X44376Y274219D01*
X46195Y275435D01*
X47411Y277254D01*
X47838Y279400D01*
X47411Y281546D01*
X46195Y283365D01*
X45477Y283845D01*
Y285115D01*
X46195Y285595D01*
X47411Y287414D01*
X47838Y289560D01*
X47411Y291706D01*
X46195Y293525D01*
X45477Y294005D01*
Y295275D01*
X46195Y295755D01*
X47411Y297574D01*
X47838Y299720D01*
X47411Y301866D01*
X46195Y303685D01*
X44376Y304901D01*
X42230Y305328D01*
D02*
G37*
G36*
X77790Y259608D02*
X75644Y259181D01*
X73825Y257965D01*
X72609Y256146D01*
X72182Y254000D01*
X72609Y251854D01*
X73825Y250035D01*
X75644Y248819D01*
X77790Y248392D01*
X79936Y248819D01*
X81755Y250035D01*
X82971Y251854D01*
X83398Y254000D01*
X82971Y256146D01*
X81755Y257965D01*
X79936Y259181D01*
X77790Y259608D01*
D02*
G37*
G36*
X237000Y258608D02*
X234854Y258181D01*
X233035Y256965D01*
X231819Y255146D01*
X231392Y253000D01*
X231819Y250854D01*
X233035Y249035D01*
X234854Y247819D01*
X237000Y247392D01*
X239146Y247819D01*
X240965Y249035D01*
X242181Y250854D01*
X242608Y253000D01*
X242181Y255146D01*
X240965Y256965D01*
X239146Y258181D01*
X237000Y258608D01*
D02*
G37*
G36*
X380750Y250260D02*
Y246750D01*
X384260D01*
X384181Y247146D01*
X382965Y248965D01*
X381146Y250181D01*
X380750Y250260D01*
D02*
G37*
G36*
X377250D02*
X376854Y250181D01*
X375035Y248965D01*
X373819Y247146D01*
X373740Y246750D01*
X377250D01*
Y250260D01*
D02*
G37*
G36*
X384260Y243250D02*
X380750D01*
Y239740D01*
X381146Y239819D01*
X382965Y241035D01*
X384181Y242854D01*
X384260Y243250D01*
D02*
G37*
G36*
X377250D02*
X373740D01*
X373819Y242854D01*
X375035Y241035D01*
X376854Y239819D01*
X377250Y239740D01*
Y243250D01*
D02*
G37*
G36*
X350080Y246688D02*
X347934Y246261D01*
X346115Y245045D01*
X344899Y243226D01*
X344472Y241080D01*
X344899Y238934D01*
X346115Y237115D01*
X347934Y235899D01*
X350080Y235472D01*
X352226Y235899D01*
X354045Y237115D01*
X355261Y238934D01*
X355688Y241080D01*
X355261Y243226D01*
X354045Y245045D01*
X352226Y246261D01*
X350080Y246688D01*
D02*
G37*
G36*
X79540Y235130D02*
Y231620D01*
X83050D01*
X82971Y232016D01*
X81755Y233835D01*
X79936Y235051D01*
X79540Y235130D01*
D02*
G37*
G36*
X76040D02*
X75644Y235051D01*
X73825Y233835D01*
X72609Y232016D01*
X72530Y231620D01*
X76040D01*
Y235130D01*
D02*
G37*
G36*
X401000Y237608D02*
X398854Y237181D01*
X397035Y235965D01*
X395819Y234146D01*
X395392Y232000D01*
X395819Y229854D01*
X397035Y228035D01*
X398854Y226819D01*
X401000Y226392D01*
X403146Y226819D01*
X404965Y228035D01*
X406181Y229854D01*
X406608Y232000D01*
X406181Y234146D01*
X404965Y235965D01*
X403146Y237181D01*
X401000Y237608D01*
D02*
G37*
G36*
X35525Y231133D02*
X33379Y230706D01*
X31560Y229490D01*
X30344Y227671D01*
X29917Y225525D01*
X30344Y223379D01*
X31560Y221560D01*
X33379Y220344D01*
X35525Y219917D01*
X37671Y220344D01*
X39490Y221560D01*
X40706Y223379D01*
X41133Y225525D01*
X40706Y227671D01*
X39490Y229490D01*
X37671Y230706D01*
X35525Y231133D01*
D02*
G37*
G36*
X272000Y227608D02*
X269854Y227181D01*
X268035Y225965D01*
X266819Y224146D01*
X266392Y222000D01*
X266819Y219854D01*
X268035Y218035D01*
X269854Y216819D01*
X272000Y216392D01*
X274146Y216819D01*
X275965Y218035D01*
X277181Y219854D01*
X277608Y222000D01*
X277181Y224146D01*
X275965Y225965D01*
X274146Y227181D01*
X272000Y227608D01*
D02*
G37*
G36*
X83050Y228120D02*
X72530D01*
X72609Y227724D01*
X73825Y225905D01*
X74543Y225425D01*
Y224155D01*
X73825Y223675D01*
X72609Y221856D01*
X72182Y219710D01*
X72609Y217564D01*
X73645Y216014D01*
X73165Y215011D01*
X73015Y214844D01*
X71440Y215158D01*
X69294Y214731D01*
X67475Y213515D01*
X66259Y211696D01*
X65832Y209550D01*
X66259Y207404D01*
X67475Y205585D01*
X69294Y204369D01*
X71440Y203942D01*
X73586Y204369D01*
X75405Y205585D01*
X76621Y207404D01*
X77048Y209550D01*
X76621Y211696D01*
X75585Y213246D01*
X76065Y214249D01*
X76215Y214416D01*
X77790Y214102D01*
X79936Y214529D01*
X81755Y215745D01*
X82971Y217564D01*
X83398Y219710D01*
X82971Y221856D01*
X81755Y223675D01*
X81037Y224155D01*
Y225425D01*
X81755Y225905D01*
X82971Y227724D01*
X83050Y228120D01*
D02*
G37*
G36*
X379000Y225608D02*
X376854Y225181D01*
X375035Y223965D01*
X373819Y222146D01*
X373392Y220000D01*
X373819Y217854D01*
X375035Y216035D01*
X376854Y214819D01*
X379000Y214392D01*
X381146Y214819D01*
X382965Y216035D01*
X384181Y217854D01*
X384608Y220000D01*
X384181Y222146D01*
X382965Y223965D01*
X381146Y225181D01*
X379000Y225608D01*
D02*
G37*
G36*
X50750Y217260D02*
Y213750D01*
X54260D01*
X54181Y214146D01*
X52965Y215965D01*
X51146Y217181D01*
X50750Y217260D01*
D02*
G37*
G36*
X47250D02*
X46854Y217181D01*
X45035Y215965D01*
X43819Y214146D01*
X43740Y213750D01*
X47250D01*
Y217260D01*
D02*
G37*
G36*
X180000Y218608D02*
X177854Y218181D01*
X176035Y216965D01*
X174819Y215146D01*
X174392Y213000D01*
X174819Y210854D01*
X176035Y209035D01*
X177854Y207819D01*
X180000Y207392D01*
X182146Y207819D01*
X183965Y209035D01*
X185181Y210854D01*
X185608Y213000D01*
X185181Y215146D01*
X183965Y216965D01*
X182146Y218181D01*
X180000Y218608D01*
D02*
G37*
G36*
X54260Y210250D02*
X50750D01*
Y206740D01*
X51146Y206819D01*
X52965Y208035D01*
X54181Y209854D01*
X54260Y210250D01*
D02*
G37*
G36*
X47250D02*
X43740D01*
X43819Y209854D01*
X45035Y208035D01*
X46854Y206819D01*
X47250Y206740D01*
Y210250D01*
D02*
G37*
G36*
X415000Y223608D02*
X412854Y223181D01*
X411035Y221965D01*
X409819Y220146D01*
X409392Y218000D01*
X409819Y215854D01*
X411035Y214035D01*
X412854Y212819D01*
X415000Y212392D01*
X416297Y212650D01*
X417061Y211507D01*
X416819Y211146D01*
X416392Y209000D01*
X416819Y206854D01*
X418035Y205035D01*
X419854Y203819D01*
X422000Y203392D01*
X424146Y203819D01*
X425965Y205035D01*
X427181Y206854D01*
X427608Y209000D01*
X427181Y211146D01*
X425965Y212965D01*
X424146Y214181D01*
X422000Y214608D01*
X420703Y214350D01*
X419939Y215493D01*
X420181Y215854D01*
X420608Y218000D01*
X420181Y220146D01*
X418965Y221965D01*
X417146Y223181D01*
X415000Y223608D01*
D02*
G37*
G36*
X318000Y213608D02*
X315854Y213181D01*
X314035Y211965D01*
X312819Y210146D01*
X312392Y208000D01*
X312819Y205854D01*
X314035Y204035D01*
X315854Y202819D01*
X318000Y202392D01*
X320146Y202819D01*
X321965Y204035D01*
X323181Y205854D01*
X323608Y208000D01*
X323181Y210146D01*
X321965Y211965D01*
X320146Y213181D01*
X318000Y213608D01*
D02*
G37*
G36*
X170980Y198300D02*
Y194790D01*
X174490D01*
X174411Y195186D01*
X173195Y197005D01*
X171376Y198221D01*
X170980Y198300D01*
D02*
G37*
G36*
X167480D02*
X167084Y198221D01*
X165265Y197005D01*
X164049Y195186D01*
X163970Y194790D01*
X167480D01*
Y198300D01*
D02*
G37*
G36*
X88000Y204608D02*
X85854Y204181D01*
X84035Y202965D01*
X82819Y201146D01*
X82392Y199000D01*
X82819Y196854D01*
X84035Y195035D01*
X85854Y193819D01*
X88000Y193392D01*
X90146Y193819D01*
X91965Y195035D01*
X93181Y196854D01*
X93608Y199000D01*
X93181Y201146D01*
X91965Y202965D01*
X90146Y204181D01*
X88000Y204608D01*
D02*
G37*
G36*
X373750Y195260D02*
Y191750D01*
X377260D01*
X377181Y192146D01*
X375965Y193965D01*
X374146Y195181D01*
X373750Y195260D01*
D02*
G37*
G36*
X370250D02*
X369854Y195181D01*
X368035Y193965D01*
X366819Y192146D01*
X366740Y191750D01*
X370250D01*
Y195260D01*
D02*
G37*
G36*
X248240Y201808D02*
X246094Y201381D01*
X244275Y200165D01*
X243059Y198346D01*
X242632Y196200D01*
X243059Y194054D01*
X244275Y192235D01*
X246094Y191019D01*
X248240Y190592D01*
X250386Y191019D01*
X252205Y192235D01*
X253421Y194054D01*
X253848Y196200D01*
X253421Y198346D01*
X252205Y200165D01*
X250386Y201381D01*
X248240Y201808D01*
D02*
G37*
G36*
X277880Y201728D02*
X275734Y201301D01*
X273915Y200085D01*
X272699Y198266D01*
X272272Y196120D01*
X272699Y193974D01*
X273915Y192155D01*
X275734Y190939D01*
X277880Y190512D01*
X280026Y190939D01*
X281845Y192155D01*
X283061Y193974D01*
X283488Y196120D01*
X283061Y198266D01*
X281845Y200085D01*
X280026Y201301D01*
X277880Y201728D01*
D02*
G37*
G36*
X348000Y201608D02*
X345854Y201181D01*
X344035Y199965D01*
X342819Y198146D01*
X342392Y196000D01*
X342819Y193854D01*
X344035Y192035D01*
X345854Y190819D01*
X348000Y190392D01*
X350146Y190819D01*
X351965Y192035D01*
X353181Y193854D01*
X353608Y196000D01*
X353181Y198146D01*
X351965Y199965D01*
X350146Y201181D01*
X348000Y201608D01*
D02*
G37*
G36*
X293000D02*
X290854Y201181D01*
X289035Y199965D01*
X287819Y198146D01*
X287392Y196000D01*
X287819Y193854D01*
X289035Y192035D01*
X290854Y190819D01*
X293000Y190392D01*
X295146Y190819D01*
X296965Y192035D01*
X298181Y193854D01*
X298608Y196000D01*
X298181Y198146D01*
X296965Y199965D01*
X295146Y201181D01*
X293000Y201608D01*
D02*
G37*
G36*
X332000Y200608D02*
X329854Y200181D01*
X328035Y198965D01*
X326819Y197146D01*
X326392Y195000D01*
X326819Y192854D01*
X328035Y191035D01*
X329854Y189819D01*
X332000Y189392D01*
X334146Y189819D01*
X335965Y191035D01*
X337181Y192854D01*
X337608Y195000D01*
X337181Y197146D01*
X335965Y198965D01*
X334146Y200181D01*
X332000Y200608D01*
D02*
G37*
G36*
X174490Y191290D02*
X170980D01*
Y187780D01*
X171376Y187859D01*
X173195Y189075D01*
X174411Y190894D01*
X174490Y191290D01*
D02*
G37*
G36*
X167480D02*
X163970D01*
X164049Y190894D01*
X165265Y189075D01*
X167084Y187859D01*
X167480Y187780D01*
Y191290D01*
D02*
G37*
G36*
X147640Y199918D02*
X145494Y199491D01*
X143675Y198275D01*
X142459Y196456D01*
X142032Y194310D01*
X142459Y192164D01*
X143675Y190345D01*
X145494Y189129D01*
X147640Y188702D01*
X149786Y189129D01*
X151605Y190345D01*
X151716D01*
X152565Y189075D01*
X154384Y187859D01*
X156530Y187432D01*
X158676Y187859D01*
X160495Y189075D01*
X161711Y190894D01*
X162138Y193040D01*
X161711Y195186D01*
X160495Y197005D01*
X158676Y198221D01*
X156530Y198648D01*
X154384Y198221D01*
X152565Y197005D01*
X152454D01*
X151605Y198275D01*
X149786Y199491D01*
X147640Y199918D01*
D02*
G37*
G36*
X224110Y196728D02*
X221964Y196301D01*
X220145Y195085D01*
X218929Y193266D01*
X218502Y191120D01*
X218929Y188974D01*
X220145Y187155D01*
X221964Y185939D01*
X224110Y185512D01*
X226256Y185939D01*
X228075Y187155D01*
X229291Y188974D01*
X229718Y191120D01*
X229291Y193266D01*
X228075Y195085D01*
X226256Y196301D01*
X224110Y196728D01*
D02*
G37*
G36*
X120970Y196108D02*
X118824Y195681D01*
X117005Y194465D01*
X115789Y192646D01*
X115362Y190500D01*
X115789Y188354D01*
X117005Y186535D01*
X118824Y185319D01*
X120970Y184892D01*
X123116Y185319D01*
X124935Y186535D01*
X126151Y188354D01*
X126578Y190500D01*
X126151Y192646D01*
X124935Y194465D01*
X123116Y195681D01*
X120970Y196108D01*
D02*
G37*
G36*
X377260Y188250D02*
X373750D01*
Y184740D01*
X374146Y184819D01*
X375965Y186035D01*
X377181Y187854D01*
X377260Y188250D01*
D02*
G37*
G36*
X370250D02*
X366740D01*
X366819Y187854D01*
X368035Y186035D01*
X369854Y184819D01*
X370250Y184740D01*
Y188250D01*
D02*
G37*
G36*
X102000Y194608D02*
X99854Y194181D01*
X98035Y192965D01*
X96819Y191146D01*
X96392Y189000D01*
X96819Y186854D01*
X98035Y185035D01*
X99854Y183819D01*
X102000Y183392D01*
X104146Y183819D01*
X105965Y185035D01*
X107181Y186854D01*
X107608Y189000D01*
X107181Y191146D01*
X105965Y192965D01*
X104146Y194181D01*
X102000Y194608D01*
D02*
G37*
G36*
X178600Y184330D02*
Y180820D01*
X182110D01*
X182031Y181216D01*
X180815Y183035D01*
X178996Y184251D01*
X178600Y184330D01*
D02*
G37*
G36*
X175100D02*
X174704Y184251D01*
X172885Y183035D01*
X171669Y181216D01*
X171590Y180820D01*
X175100D01*
Y184330D01*
D02*
G37*
G36*
X182110Y177320D02*
X178600D01*
Y173810D01*
X178996Y173889D01*
X180815Y175105D01*
X182031Y176924D01*
X182110Y177320D01*
D02*
G37*
G36*
X175100D02*
X171590D01*
X171669Y176924D01*
X172885Y175105D01*
X174704Y173889D01*
X175100Y173810D01*
Y177320D01*
D02*
G37*
G36*
X94000Y183608D02*
X91854Y183181D01*
X90035Y181965D01*
X88819Y180146D01*
X88392Y178000D01*
X88819Y175854D01*
X90035Y174035D01*
X91854Y172819D01*
X94000Y172392D01*
X96146Y172819D01*
X97965Y174035D01*
X99181Y175854D01*
X99608Y178000D01*
X99181Y180146D01*
X97965Y181965D01*
X96146Y183181D01*
X94000Y183608D01*
D02*
G37*
G36*
X159070Y183408D02*
X156924Y182981D01*
X155105Y181765D01*
X153889Y179946D01*
X153462Y177800D01*
X153889Y175654D01*
X155105Y173835D01*
X156924Y172619D01*
X159070Y172192D01*
X161216Y172619D01*
X163035Y173835D01*
X164251Y175654D01*
X164678Y177800D01*
X164251Y179946D01*
X163035Y181765D01*
X161216Y182981D01*
X159070Y183408D01*
D02*
G37*
G36*
X324000Y181608D02*
X321854Y181181D01*
X320035Y179965D01*
X318819Y178146D01*
X318392Y176000D01*
X318819Y173854D01*
X320035Y172035D01*
X321854Y170819D01*
X324000Y170392D01*
X326146Y170819D01*
X327965Y172035D01*
X329181Y173854D01*
X329608Y176000D01*
X329181Y178146D01*
X327965Y179965D01*
X326146Y181181D01*
X324000Y181608D01*
D02*
G37*
G36*
X48580Y175788D02*
X46434Y175361D01*
X44615Y174145D01*
X43399Y172326D01*
X42983Y170232D01*
X42809Y170126D01*
X41757Y169781D01*
X40965Y170965D01*
X39146Y172181D01*
X37000Y172608D01*
X34854Y172181D01*
X33035Y170965D01*
X31819Y169146D01*
X31392Y167000D01*
X31819Y164854D01*
X33035Y163035D01*
X34854Y161819D01*
X37000Y161392D01*
X39146Y161819D01*
X40965Y163035D01*
X42181Y164854D01*
X42597Y166948D01*
X42771Y167054D01*
X43823Y167399D01*
X44615Y166215D01*
X46434Y164999D01*
X48580Y164572D01*
X50726Y164999D01*
X52545Y166215D01*
X53761Y168034D01*
X54188Y170180D01*
X53761Y172326D01*
X52545Y174145D01*
X50726Y175361D01*
X48580Y175788D01*
D02*
G37*
G36*
X66360Y177058D02*
X64214Y176631D01*
X62395Y175415D01*
X61179Y173596D01*
X60752Y171450D01*
X61179Y169304D01*
X62395Y167485D01*
X64214Y166269D01*
X66360Y165842D01*
X68506Y166269D01*
X70325Y167485D01*
X71541Y169304D01*
X71968Y171450D01*
X71541Y173596D01*
X70325Y175415D01*
X68506Y176631D01*
X66360Y177058D01*
D02*
G37*
G36*
X19000Y172608D02*
X16854Y172181D01*
X15035Y170965D01*
X13819Y169146D01*
X13392Y167000D01*
X13819Y164854D01*
X15035Y163035D01*
X16854Y161819D01*
X19000Y161392D01*
X21146Y161819D01*
X22965Y163035D01*
X24181Y164854D01*
X24608Y167000D01*
X24181Y169146D01*
X22965Y170965D01*
X21146Y172181D01*
X19000Y172608D01*
D02*
G37*
G36*
X293000Y171608D02*
X290854Y171181D01*
X289035Y169965D01*
X287819Y168146D01*
X287392Y166000D01*
X287819Y163854D01*
X289035Y162035D01*
X290854Y160819D01*
X293000Y160392D01*
X295146Y160819D01*
X296965Y162035D01*
X298181Y163854D01*
X298608Y166000D01*
X298181Y168146D01*
X296965Y169965D01*
X295146Y171181D01*
X293000Y171608D01*
D02*
G37*
G36*
X200460Y159550D02*
Y156040D01*
X203970D01*
X203891Y156436D01*
X202675Y158255D01*
X200856Y159471D01*
X200460Y159550D01*
D02*
G37*
G36*
X196960D02*
X196564Y159471D01*
X194745Y158255D01*
X193529Y156436D01*
X193450Y156040D01*
X196960D01*
Y159550D01*
D02*
G37*
G36*
X416000Y165608D02*
X413854Y165181D01*
X412035Y163965D01*
X410819Y162146D01*
X410392Y160000D01*
X410819Y157854D01*
X412035Y156035D01*
X413854Y154819D01*
X416000Y154392D01*
X418146Y154819D01*
X419965Y156035D01*
X421181Y157854D01*
X421608Y160000D01*
X421181Y162146D01*
X419965Y163965D01*
X418146Y165181D01*
X416000Y165608D01*
D02*
G37*
G36*
X344000Y160608D02*
X341854Y160181D01*
X340035Y158965D01*
X338819Y157146D01*
X338392Y155000D01*
X338819Y152854D01*
X340035Y151035D01*
X341854Y149819D01*
X344000Y149392D01*
X346146Y149819D01*
X347965Y151035D01*
X349181Y152854D01*
X349608Y155000D01*
X349181Y157146D01*
X347965Y158965D01*
X346146Y160181D01*
X344000Y160608D01*
D02*
G37*
G36*
X203970Y152540D02*
X200460D01*
Y149030D01*
X200856Y149109D01*
X202675Y150325D01*
X203891Y152144D01*
X203970Y152540D01*
D02*
G37*
G36*
X196960D02*
X193450D01*
X193529Y152144D01*
X194745Y150325D01*
X196564Y149109D01*
X196960Y149030D01*
Y152540D01*
D02*
G37*
G36*
X222840Y159898D02*
X220694Y159471D01*
X218875Y158255D01*
X217659Y156436D01*
X217232Y154290D01*
X217659Y152144D01*
X218875Y150325D01*
X220694Y149109D01*
X222840Y148682D01*
X224986Y149109D01*
X226805Y150325D01*
X228021Y152144D01*
X228448Y154290D01*
X228021Y156436D01*
X226805Y158255D01*
X224986Y159471D01*
X222840Y159898D01*
D02*
G37*
G36*
X266000Y148608D02*
X263854Y148181D01*
X262035Y146965D01*
X260819Y145146D01*
X260392Y143000D01*
X260819Y140854D01*
X262035Y139035D01*
X263854Y137819D01*
X266000Y137392D01*
X268146Y137819D01*
X269965Y139035D01*
X271181Y140854D01*
X271608Y143000D01*
X271181Y145146D01*
X269965Y146965D01*
X268146Y148181D01*
X266000Y148608D01*
D02*
G37*
G36*
X282500Y144108D02*
X280354Y143681D01*
X278535Y142465D01*
X277319Y140646D01*
X276892Y138500D01*
X277319Y136354D01*
X278535Y134535D01*
X280354Y133319D01*
X282500Y132892D01*
X284646Y133319D01*
X286465Y134535D01*
X287681Y136354D01*
X288108Y138500D01*
X287681Y140646D01*
X286465Y142465D01*
X284646Y143681D01*
X282500Y144108D01*
D02*
G37*
G36*
X189000Y142608D02*
X186854Y142181D01*
X185035Y140965D01*
X183819Y139146D01*
X183392Y137000D01*
X183819Y134854D01*
X185035Y133035D01*
X186854Y131819D01*
X189000Y131392D01*
X191146Y131819D01*
X192965Y133035D01*
X194181Y134854D01*
X194608Y137000D01*
X194181Y139146D01*
X192965Y140965D01*
X191146Y142181D01*
X189000Y142608D01*
D02*
G37*
G36*
X123510Y141498D02*
X121364Y141071D01*
X119545Y139855D01*
X118329Y138036D01*
X117902Y135890D01*
X118329Y133744D01*
X119545Y131925D01*
X121364Y130709D01*
X123510Y130282D01*
X125656Y130709D01*
X127475Y131925D01*
X128691Y133744D01*
X129118Y135890D01*
X128691Y138036D01*
X127475Y139855D01*
X125656Y141071D01*
X123510Y141498D01*
D02*
G37*
G36*
X108270D02*
X106124Y141071D01*
X104305Y139855D01*
X103089Y138036D01*
X102662Y135890D01*
X103089Y133744D01*
X104305Y131925D01*
X106124Y130709D01*
X108270Y130282D01*
X110416Y130709D01*
X112235Y131925D01*
X113451Y133744D01*
X113878Y135890D01*
X113451Y138036D01*
X112235Y139855D01*
X110416Y141071D01*
X108270Y141498D01*
D02*
G37*
G36*
X49850Y140758D02*
X47704Y140331D01*
X45885Y139115D01*
X44669Y137296D01*
X44242Y135150D01*
X44669Y133004D01*
X45885Y131185D01*
X47704Y129969D01*
X49850Y129542D01*
X51996Y129969D01*
X53815Y131185D01*
X55031Y133004D01*
X55458Y135150D01*
X55031Y137296D01*
X53815Y139115D01*
X51996Y140331D01*
X49850Y140758D01*
D02*
G37*
G36*
X91760Y138958D02*
X89614Y138531D01*
X87795Y137315D01*
X86579Y135496D01*
X86152Y133350D01*
X86579Y131204D01*
X87795Y129385D01*
X89614Y128169D01*
X91760Y127742D01*
X93906Y128169D01*
X95725Y129385D01*
X96941Y131204D01*
X97368Y133350D01*
X96941Y135496D01*
X95725Y137315D01*
X93906Y138531D01*
X91760Y138958D01*
D02*
G37*
G36*
X342510Y138098D02*
X340364Y137671D01*
X338545Y136455D01*
X337329Y134636D01*
X336902Y132490D01*
X337329Y130344D01*
X338545Y128525D01*
X340364Y127309D01*
X342510Y126882D01*
X344656Y127309D01*
X346475Y128525D01*
X347691Y130344D01*
X348118Y132490D01*
X347691Y134636D01*
X346475Y136455D01*
X344656Y137671D01*
X342510Y138098D01*
D02*
G37*
G36*
X199390Y133878D02*
X197244Y133451D01*
X195425Y132235D01*
X194209Y130416D01*
X193782Y128270D01*
X194209Y126124D01*
X195425Y124305D01*
X197244Y123089D01*
X199390Y122662D01*
X201536Y123089D01*
X203355Y124305D01*
X204571Y126124D01*
X204998Y128270D01*
X204571Y130416D01*
X203355Y132235D01*
X201536Y133451D01*
X199390Y133878D01*
D02*
G37*
G36*
X161500Y136069D02*
X159412Y135794D01*
X157465Y134988D01*
X155794Y133706D01*
X154512Y132035D01*
X153706Y130088D01*
X153431Y128000D01*
X153706Y125912D01*
X154512Y123966D01*
X155794Y122294D01*
X157465Y121012D01*
X159412Y120206D01*
X161500Y119931D01*
X163588Y120206D01*
X165534Y121012D01*
X167206Y122294D01*
X168488Y123966D01*
X169294Y125912D01*
X169569Y128000D01*
X169294Y130088D01*
X168488Y132035D01*
X167206Y133706D01*
X165534Y134988D01*
X163588Y135794D01*
X161500Y136069D01*
D02*
G37*
G36*
X368000Y130608D02*
X365854Y130181D01*
X364035Y128965D01*
X362819Y127146D01*
X362392Y125000D01*
X362819Y122854D01*
X364035Y121035D01*
X365854Y119819D01*
X368000Y119392D01*
X370146Y119819D01*
X371965Y121035D01*
X373181Y122854D01*
X373608Y125000D01*
X373181Y127146D01*
X371965Y128965D01*
X370146Y130181D01*
X368000Y130608D01*
D02*
G37*
G36*
X323000Y126608D02*
X320854Y126181D01*
X319035Y124965D01*
X317819Y123146D01*
X317392Y121000D01*
X317819Y118854D01*
X319035Y117035D01*
X320854Y115819D01*
X323000Y115392D01*
X325146Y115819D01*
X326965Y117035D01*
X328181Y118854D01*
X328608Y121000D01*
X328181Y123146D01*
X326965Y124965D01*
X325146Y126181D01*
X323000Y126608D01*
D02*
G37*
G36*
X131210Y121748D02*
X129064Y121321D01*
X127245Y120105D01*
X126029Y118286D01*
X125602Y116140D01*
X126029Y113994D01*
X127245Y112175D01*
X129064Y110959D01*
X131210Y110532D01*
X133356Y110959D01*
X135175Y112175D01*
X136391Y113994D01*
X136818Y116140D01*
X136391Y118286D01*
X135175Y120105D01*
X133356Y121321D01*
X131210Y121748D01*
D02*
G37*
G36*
X232410Y118638D02*
X230264Y118211D01*
X228445Y116995D01*
X227229Y115176D01*
X226802Y113030D01*
X227229Y110884D01*
X228445Y109065D01*
X230264Y107849D01*
X232410Y107422D01*
X234556Y107849D01*
X236375Y109065D01*
X237591Y110884D01*
X238018Y113030D01*
X237591Y115176D01*
X236375Y116995D01*
X234556Y118211D01*
X232410Y118638D01*
D02*
G37*
G36*
X75000Y118069D02*
X72912Y117794D01*
X70965Y116988D01*
X69294Y115706D01*
X68012Y114035D01*
X67206Y112088D01*
X66931Y110000D01*
X67206Y107912D01*
X68012Y105965D01*
X69294Y104294D01*
X70965Y103012D01*
X72912Y102206D01*
X75000Y101931D01*
X77088Y102206D01*
X79035Y103012D01*
X80706Y104294D01*
X81988Y105965D01*
X82794Y107912D01*
X83069Y110000D01*
X82794Y112088D01*
X81988Y114035D01*
X80706Y115706D01*
X79035Y116988D01*
X77088Y117794D01*
X75000Y118069D01*
D02*
G37*
G36*
X209870Y112738D02*
X207724Y112311D01*
X205905Y111095D01*
X204689Y109276D01*
X204262Y107130D01*
X204689Y104984D01*
X205905Y103165D01*
X207724Y101949D01*
X209870Y101522D01*
X212016Y101949D01*
X213835Y103165D01*
X215051Y104984D01*
X215478Y107130D01*
X215051Y109276D01*
X213835Y111095D01*
X212016Y112311D01*
X209870Y112738D01*
D02*
G37*
G36*
X35150Y110938D02*
X33004Y110511D01*
X31185Y109295D01*
X29969Y107476D01*
X29542Y105330D01*
X29969Y103184D01*
X31185Y101365D01*
X33004Y100149D01*
X35150Y99722D01*
X37296Y100149D01*
X39115Y101365D01*
X40331Y103184D01*
X40758Y105330D01*
X40331Y107476D01*
X39115Y109295D01*
X37296Y110511D01*
X35150Y110938D01*
D02*
G37*
G36*
X250190Y108478D02*
X248044Y108051D01*
X246225Y106835D01*
X245009Y105016D01*
X244582Y102870D01*
X245009Y100724D01*
X246225Y98905D01*
X248044Y97689D01*
X250190Y97262D01*
X252336Y97689D01*
X254155Y98905D01*
X255371Y100724D01*
X255798Y102870D01*
X255371Y105016D01*
X254155Y106835D01*
X252336Y108051D01*
X250190Y108478D01*
D02*
G37*
G36*
X228750Y96260D02*
Y92750D01*
X232260D01*
X232181Y93146D01*
X230965Y94965D01*
X229146Y96181D01*
X228750Y96260D01*
D02*
G37*
G36*
X225250D02*
X224854Y96181D01*
X223035Y94965D01*
X221819Y93146D01*
X221740Y92750D01*
X225250D01*
Y96260D01*
D02*
G37*
G36*
X91760Y95078D02*
X89614Y94651D01*
X87795Y93435D01*
X87126Y92435D01*
X86571Y91620D01*
X85499Y92111D01*
X84646Y92681D01*
X82500Y93108D01*
X80354Y92681D01*
X78535Y91465D01*
X77319Y89646D01*
X76892Y87500D01*
X77319Y85354D01*
X78535Y83535D01*
X79399Y82957D01*
X80163Y82020D01*
X79723Y81329D01*
X78959Y80186D01*
X78532Y78040D01*
X78959Y75894D01*
X80175Y74075D01*
X81994Y72859D01*
X84140Y72432D01*
X86286Y72859D01*
X88105Y74075D01*
X89321Y75894D01*
X89748Y78040D01*
X89321Y80186D01*
X88105Y82005D01*
X87240Y82583D01*
X86477Y83520D01*
X86917Y84211D01*
X87134Y84535D01*
X87689Y85350D01*
X88761Y84859D01*
X89614Y84289D01*
X91760Y83862D01*
X93906Y84289D01*
X95725Y85505D01*
X96941Y87324D01*
X97368Y89470D01*
X96941Y91616D01*
X95725Y93435D01*
X93906Y94651D01*
X91760Y95078D01*
D02*
G37*
G36*
X21660Y91540D02*
Y88030D01*
X25170D01*
X25091Y88426D01*
X23875Y90245D01*
X22056Y91461D01*
X21660Y91540D01*
D02*
G37*
G36*
X18160D02*
X17764Y91461D01*
X15945Y90245D01*
X14729Y88426D01*
X14650Y88030D01*
X18160D01*
Y91540D01*
D02*
G37*
G36*
X232260Y89250D02*
X228750D01*
Y85740D01*
X229146Y85819D01*
X230965Y87035D01*
X232181Y88854D01*
X232260Y89250D01*
D02*
G37*
G36*
X225250D02*
X221740D01*
X221819Y88854D01*
X223035Y87035D01*
X224854Y85819D01*
X225250Y85740D01*
Y89250D01*
D02*
G37*
G36*
X151450Y96348D02*
X149304Y95921D01*
X147485Y94705D01*
X146269Y92886D01*
X145842Y90740D01*
X146269Y88594D01*
X147485Y86775D01*
X149304Y85559D01*
X151450Y85132D01*
X153596Y85559D01*
X155415Y86775D01*
X156631Y88594D01*
X157058Y90740D01*
X156631Y92886D01*
X155415Y94705D01*
X153596Y95921D01*
X151450Y96348D01*
D02*
G37*
G36*
X347260Y88250D02*
X343750D01*
Y84740D01*
X344146Y84819D01*
X345965Y86035D01*
X347181Y87854D01*
X347260Y88250D01*
D02*
G37*
G36*
X340250D02*
X336740D01*
X336819Y87854D01*
X338035Y86035D01*
X339854Y84819D01*
X340250Y84740D01*
Y88250D01*
D02*
G37*
G36*
X25170Y84530D02*
X21660D01*
Y81020D01*
X22056Y81099D01*
X23875Y82315D01*
X25091Y84134D01*
X25170Y84530D01*
D02*
G37*
G36*
X18160D02*
X14650D01*
X14729Y84134D01*
X15945Y82315D01*
X17764Y81099D01*
X18160Y81020D01*
Y84530D01*
D02*
G37*
G36*
X131210Y89998D02*
X129064Y89571D01*
X127245Y88355D01*
X126029Y86536D01*
X125602Y84390D01*
X126029Y82244D01*
X127245Y80425D01*
X129064Y79209D01*
X131210Y78782D01*
X133356Y79209D01*
X135175Y80425D01*
X136391Y82244D01*
X136818Y84390D01*
X136391Y86536D01*
X135175Y88355D01*
X133356Y89571D01*
X131210Y89998D01*
D02*
G37*
G36*
X42770Y85538D02*
X40624Y85111D01*
X38805Y83895D01*
X37589Y82076D01*
X37162Y79930D01*
X37589Y77784D01*
X38805Y75965D01*
X40624Y74749D01*
X42770Y74322D01*
X44916Y74749D01*
X46735Y75965D01*
X47951Y77784D01*
X48378Y79930D01*
X47951Y82076D01*
X46735Y83895D01*
X44916Y85111D01*
X42770Y85538D01*
D02*
G37*
G36*
X20390Y73760D02*
Y70250D01*
X23900D01*
X23821Y70646D01*
X22605Y72465D01*
X20786Y73681D01*
X20390Y73760D01*
D02*
G37*
G36*
X16890D02*
X16494Y73681D01*
X14675Y72465D01*
X13459Y70646D01*
X13380Y70250D01*
X16890D01*
Y73760D01*
D02*
G37*
G36*
X379270Y74818D02*
X377124Y74391D01*
X375305Y73175D01*
X374089Y71356D01*
X373662Y69210D01*
X374089Y67064D01*
X375305Y65245D01*
X377124Y64029D01*
X379270Y63602D01*
X381416Y64029D01*
X383235Y65245D01*
X384451Y67064D01*
X384878Y69210D01*
X384451Y71356D01*
X383235Y73175D01*
X381416Y74391D01*
X379270Y74818D01*
D02*
G37*
G36*
X146370Y74758D02*
X144224Y74331D01*
X142405Y73115D01*
X141189Y71296D01*
X140762Y69150D01*
X141189Y67004D01*
X142405Y65185D01*
X144224Y63969D01*
X146370Y63542D01*
X148516Y63969D01*
X150335Y65185D01*
X151551Y67004D01*
X151978Y69150D01*
X151551Y71296D01*
X150335Y73115D01*
X148516Y74331D01*
X146370Y74758D01*
D02*
G37*
G36*
X23900Y66750D02*
X20390D01*
Y63240D01*
X20786Y63319D01*
X22605Y64535D01*
X23821Y66354D01*
X23900Y66750D01*
D02*
G37*
G36*
X16890D02*
X13380D01*
X13459Y66354D01*
X14675Y64535D01*
X16494Y63319D01*
X16890Y63240D01*
Y66750D01*
D02*
G37*
G36*
X353000Y63608D02*
X350854Y63181D01*
X349035Y61965D01*
X347819Y60146D01*
X347392Y58000D01*
X347819Y55854D01*
X349035Y54035D01*
X350854Y52819D01*
X353000Y52392D01*
X355146Y52819D01*
X356965Y54035D01*
X358181Y55854D01*
X358608Y58000D01*
X358181Y60146D01*
X356965Y61965D01*
X355146Y63181D01*
X353000Y63608D01*
D02*
G37*
G36*
X324000D02*
X321854Y63181D01*
X320035Y61965D01*
X318819Y60146D01*
X318392Y58000D01*
X318819Y55854D01*
X320035Y54035D01*
X321854Y52819D01*
X324000Y52392D01*
X326146Y52819D01*
X327965Y54035D01*
X329181Y55854D01*
X329608Y58000D01*
X329181Y60146D01*
X327965Y61965D01*
X326146Y63181D01*
X324000Y63608D01*
D02*
G37*
G36*
X59800Y482596D02*
X55950D01*
Y473750D01*
X61508D01*
Y479308D01*
X61893Y478870D01*
X62430Y478477D01*
X63120Y478131D01*
X63962Y477831D01*
X64792Y477619D01*
X64416Y479512D01*
X63333Y481133D01*
X61712Y482216D01*
X59800Y482596D01*
D02*
G37*
G36*
X52450D02*
X48600D01*
X46688Y482216D01*
X45067Y481133D01*
X43984Y479512D01*
X43604Y477600D01*
Y473750D01*
X52450D01*
Y482596D01*
D02*
G37*
G36*
X200000Y482607D02*
X197854Y482180D01*
X196034Y480964D01*
X194819Y479145D01*
X194392Y476999D01*
X194819Y474853D01*
X196034Y473034D01*
X197854Y471818D01*
X200000Y471391D01*
X202146Y471818D01*
X203965Y473034D01*
X205180Y474853D01*
X205607Y476999D01*
X205180Y479145D01*
X203965Y480964D01*
X202146Y482180D01*
X200000Y482607D01*
D02*
G37*
G36*
X61508Y470250D02*
X55950D01*
Y461404D01*
X59800D01*
X61712Y461784D01*
X63333Y462867D01*
X64416Y464488D01*
X64792Y466381D01*
X63962Y466169D01*
X63120Y465869D01*
X62430Y465523D01*
X61893Y465130D01*
X61508Y464692D01*
Y470250D01*
D02*
G37*
G36*
X52450D02*
X43604D01*
Y466400D01*
X43984Y464488D01*
X45067Y462867D01*
X46688Y461784D01*
X48600Y461404D01*
X52450D01*
Y470250D01*
D02*
G37*
G36*
X28800Y483095D02*
X25928Y482717D01*
X23252Y481609D01*
X20955Y479845D01*
X19191Y477547D01*
X18083Y474872D01*
X17705Y472000D01*
X18083Y469128D01*
X19191Y466453D01*
X20955Y464155D01*
X23252Y462392D01*
X25928Y461283D01*
X28800Y460905D01*
X31672Y461283D01*
X34348Y462392D01*
X36645Y464155D01*
X38409Y466453D01*
X39517Y469128D01*
X39895Y472000D01*
X39517Y474872D01*
X38409Y477547D01*
X36645Y479845D01*
X34348Y481609D01*
X31672Y482717D01*
X28800Y483095D01*
D02*
G37*
G36*
X193000Y462608D02*
X190854Y462181D01*
X189035Y460965D01*
X187819Y459146D01*
X187392Y457000D01*
X187819Y454854D01*
X189035Y453035D01*
X190854Y451819D01*
X193000Y451392D01*
X195146Y451819D01*
X196965Y453035D01*
X198181Y454854D01*
X198608Y457000D01*
X198181Y459146D01*
X196965Y460965D01*
X195146Y462181D01*
X193000Y462608D01*
D02*
G37*
G36*
X254000Y445608D02*
X251854Y445181D01*
X250035Y443965D01*
X248819Y442146D01*
X248392Y440000D01*
X248819Y437854D01*
X250035Y436035D01*
X251854Y434819D01*
X254000Y434392D01*
X256146Y434819D01*
X257965Y436035D01*
X259181Y437854D01*
X259608Y440000D01*
X259181Y442146D01*
X257965Y443965D01*
X256146Y445181D01*
X254000Y445608D01*
D02*
G37*
G36*
X230000Y444608D02*
X227854Y444181D01*
X226035Y442965D01*
X224819Y441146D01*
X224392Y439000D01*
X224819Y436854D01*
X226035Y435035D01*
X227854Y433819D01*
X230000Y433392D01*
X232146Y433819D01*
X233965Y435035D01*
X235181Y436854D01*
X235608Y439000D01*
X235181Y441146D01*
X233965Y442965D01*
X232146Y444181D01*
X230000Y444608D01*
D02*
G37*
G36*
X48260Y441218D02*
X46114Y440791D01*
X44295Y439575D01*
X43079Y437756D01*
X42652Y435610D01*
X43079Y433464D01*
X44295Y431645D01*
X46114Y430429D01*
X48260Y430002D01*
X50406Y430429D01*
X52225Y431645D01*
X53441Y433464D01*
X53868Y435610D01*
X53441Y437756D01*
X52225Y439575D01*
X50406Y440791D01*
X48260Y441218D01*
D02*
G37*
G36*
X398400Y450095D02*
X395528Y449717D01*
X392853Y448609D01*
X390555Y446845D01*
X388792Y444547D01*
X387683Y441872D01*
X387305Y439000D01*
X387683Y436128D01*
X388792Y433453D01*
X390555Y431155D01*
X392853Y429392D01*
X395528Y428283D01*
X398400Y427905D01*
X401272Y428283D01*
X403947Y429392D01*
X406245Y431155D01*
X408008Y433453D01*
X409117Y436128D01*
X409495Y439000D01*
X409117Y441872D01*
X408008Y444547D01*
X406245Y446845D01*
X403947Y448609D01*
X401272Y449717D01*
X398400Y450095D01*
D02*
G37*
G36*
X373000D02*
X370128Y449717D01*
X367453Y448609D01*
X365155Y446845D01*
X363391Y444547D01*
X362283Y441872D01*
X361905Y439000D01*
X362283Y436128D01*
X363391Y433453D01*
X365155Y431155D01*
X367453Y429392D01*
X370128Y428283D01*
X373000Y427905D01*
X375872Y428283D01*
X378547Y429392D01*
X380845Y431155D01*
X382608Y433453D01*
X383717Y436128D01*
X384095Y439000D01*
X383717Y441872D01*
X382608Y444547D01*
X380845Y446845D01*
X378547Y448609D01*
X375872Y449717D01*
X373000Y450095D01*
D02*
G37*
G36*
X299000D02*
X296128Y449717D01*
X293453Y448609D01*
X291155Y446845D01*
X289391Y444548D01*
X288283Y441872D01*
X287905Y439000D01*
X288283Y436128D01*
X289391Y433452D01*
X291155Y431155D01*
X293453Y429392D01*
X296128Y428283D01*
X299000Y427905D01*
X301872Y428283D01*
X304547Y429392D01*
X306845Y431155D01*
X308608Y433452D01*
X309717Y436128D01*
X310095Y439000D01*
X309717Y441872D01*
X308608Y444548D01*
X306845Y446845D01*
X304547Y448609D01*
X301872Y449717D01*
X299000Y450095D01*
D02*
G37*
G36*
X273600D02*
X270728Y449717D01*
X268053Y448609D01*
X265755Y446845D01*
X263992Y444548D01*
X262883Y441872D01*
X262505Y439000D01*
X262883Y436128D01*
X263992Y433452D01*
X265755Y431155D01*
X268053Y429392D01*
X270728Y428283D01*
X273600Y427905D01*
X276472Y428283D01*
X279147Y429392D01*
X281445Y431155D01*
X283209Y433452D01*
X284317Y436128D01*
X284695Y439000D01*
X284317Y441872D01*
X283209Y444548D01*
X281445Y446845D01*
X279147Y448609D01*
X276472Y449717D01*
X273600Y450095D01*
D02*
G37*
G36*
X207000Y441095D02*
X204128Y440717D01*
X201453Y439608D01*
X199155Y437845D01*
X197391Y435547D01*
X196283Y432872D01*
X195905Y430000D01*
X196283Y427128D01*
X197391Y424453D01*
X199155Y422155D01*
X201453Y420392D01*
X204128Y419283D01*
X207000Y418905D01*
X209872Y419283D01*
X212547Y420392D01*
X214845Y422155D01*
X216609Y424453D01*
X217717Y427128D01*
X218095Y430000D01*
X217717Y432872D01*
X216609Y435547D01*
X214845Y437845D01*
X212547Y439608D01*
X209872Y440717D01*
X207000Y441095D01*
D02*
G37*
G36*
X111000D02*
X108128Y440717D01*
X105453Y439608D01*
X103155Y437845D01*
X101391Y435547D01*
X100283Y432872D01*
X99905Y430000D01*
X100283Y427128D01*
X101391Y424453D01*
X103155Y422155D01*
X105453Y420392D01*
X108128Y419283D01*
X111000Y418905D01*
X113872Y419283D01*
X116547Y420392D01*
X118845Y422155D01*
X120609Y424453D01*
X121717Y427128D01*
X122095Y430000D01*
X121717Y432872D01*
X120609Y435547D01*
X118845Y437845D01*
X116547Y439608D01*
X113872Y440717D01*
X111000Y441095D01*
D02*
G37*
G36*
X471000Y438591D02*
X468259Y438230D01*
X465705Y437172D01*
X463511Y435489D01*
X461828Y433295D01*
X460770Y430741D01*
X460409Y428000D01*
X460770Y425259D01*
X461828Y422705D01*
X463511Y420511D01*
X465705Y418828D01*
X468259Y417770D01*
X471000Y417409D01*
X473741Y417770D01*
X476295Y418828D01*
X478489Y420511D01*
X480172Y422705D01*
X481230Y425259D01*
X481591Y428000D01*
X481230Y430741D01*
X480172Y433295D01*
X478489Y435489D01*
X476295Y437172D01*
X473741Y438230D01*
X471000Y438591D01*
D02*
G37*
G36*
X245000Y428608D02*
X242854Y428181D01*
X241035Y426965D01*
X239819Y425146D01*
X239392Y423000D01*
X239819Y420854D01*
X241035Y419035D01*
X242854Y417819D01*
X245000Y417392D01*
X247146Y417819D01*
X248965Y419035D01*
X250181Y420854D01*
X250608Y423000D01*
X250181Y425146D01*
X248965Y426965D01*
X247146Y428181D01*
X245000Y428608D01*
D02*
G37*
G36*
X453000Y420608D02*
X450854Y420181D01*
X449035Y418965D01*
X447819Y417146D01*
X447392Y415000D01*
X447819Y412854D01*
X449035Y411035D01*
X450854Y409819D01*
X453000Y409392D01*
X455146Y409819D01*
X456965Y411035D01*
X458181Y412854D01*
X458608Y415000D01*
X458181Y417146D01*
X456965Y418965D01*
X455146Y420181D01*
X453000Y420608D01*
D02*
G37*
G36*
X126750Y407260D02*
Y403750D01*
X130260D01*
X130181Y404146D01*
X128965Y405965D01*
X127146Y407181D01*
X126750Y407260D01*
D02*
G37*
G36*
X123250D02*
X122854Y407181D01*
X121035Y405965D01*
X119819Y404146D01*
X119740Y403750D01*
X123250D01*
Y407260D01*
D02*
G37*
G36*
X398400Y424695D02*
X395528Y424317D01*
X392853Y423209D01*
X390555Y421445D01*
X388792Y419147D01*
X387683Y416472D01*
X387305Y413600D01*
X387683Y410728D01*
X388792Y408053D01*
X390555Y405755D01*
X392853Y403992D01*
X395528Y402883D01*
X398400Y402505D01*
X401272Y402883D01*
X403947Y403992D01*
X406245Y405755D01*
X408008Y408053D01*
X409117Y410728D01*
X409495Y413600D01*
X409117Y416472D01*
X408008Y419147D01*
X406245Y421445D01*
X403947Y423209D01*
X401272Y424317D01*
X398400Y424695D01*
D02*
G37*
G36*
X373000D02*
X370128Y424317D01*
X367453Y423209D01*
X365155Y421445D01*
X363391Y419147D01*
X362283Y416472D01*
X361905Y413600D01*
X362283Y410728D01*
X363391Y408053D01*
X365155Y405755D01*
X367453Y403992D01*
X370128Y402883D01*
X373000Y402505D01*
X375872Y402883D01*
X378547Y403992D01*
X380845Y405755D01*
X382608Y408053D01*
X383717Y410728D01*
X384095Y413600D01*
X383717Y416472D01*
X382608Y419147D01*
X380845Y421445D01*
X378547Y423209D01*
X375872Y424317D01*
X373000Y424695D01*
D02*
G37*
G36*
X299000D02*
X296128Y424317D01*
X293453Y423209D01*
X291155Y421445D01*
X289391Y419147D01*
X288283Y416472D01*
X287905Y413600D01*
X288283Y410728D01*
X289391Y408052D01*
X291155Y405755D01*
X293453Y403992D01*
X296128Y402883D01*
X299000Y402505D01*
X301872Y402883D01*
X304547Y403992D01*
X306845Y405755D01*
X308608Y408052D01*
X309717Y410728D01*
X310095Y413600D01*
X309717Y416472D01*
X308608Y419147D01*
X306845Y421445D01*
X304547Y423209D01*
X301872Y424317D01*
X299000Y424695D01*
D02*
G37*
G36*
X273600D02*
X270728Y424317D01*
X268053Y423209D01*
X265755Y421445D01*
X263992Y419147D01*
X262883Y416472D01*
X262505Y413600D01*
X262883Y410728D01*
X263992Y408052D01*
X265755Y405755D01*
X268053Y403992D01*
X270728Y402883D01*
X273600Y402505D01*
X276472Y402883D01*
X279147Y403992D01*
X281445Y405755D01*
X283209Y408052D01*
X284317Y410728D01*
X284695Y413600D01*
X284317Y416472D01*
X283209Y419147D01*
X281445Y421445D01*
X279147Y423209D01*
X276472Y424317D01*
X273600Y424695D01*
D02*
G37*
G36*
X197000Y408608D02*
X194854Y408181D01*
X193035Y406965D01*
X191819Y405146D01*
X191392Y403000D01*
X191819Y400854D01*
X193035Y399035D01*
X194854Y397819D01*
X197000Y397392D01*
X199146Y397819D01*
X200965Y399035D01*
X202181Y400854D01*
X202608Y403000D01*
X202181Y405146D01*
X200965Y406965D01*
X199146Y408181D01*
X197000Y408608D01*
D02*
G37*
G36*
X130260Y400250D02*
X126750D01*
Y396740D01*
X127146Y396819D01*
X128965Y398035D01*
X130181Y399854D01*
X130260Y400250D01*
D02*
G37*
G36*
X123250D02*
X119740D01*
X119819Y399854D01*
X121035Y398035D01*
X122854Y396819D01*
X123250Y396740D01*
Y400250D01*
D02*
G37*
G36*
X221000Y406608D02*
X218854Y406181D01*
X217035Y404965D01*
X215819Y403146D01*
X215392Y401000D01*
X215819Y398854D01*
X217035Y397035D01*
X218854Y395819D01*
X221000Y395392D01*
X223146Y395819D01*
X224965Y397035D01*
X226181Y398854D01*
X226608Y401000D01*
X226181Y403146D01*
X224965Y404965D01*
X223146Y406181D01*
X221000Y406608D01*
D02*
G37*
G36*
X471000Y413191D02*
X468259Y412830D01*
X465705Y411772D01*
X463511Y410089D01*
X461828Y407895D01*
X460770Y405341D01*
X460409Y402600D01*
X460770Y399859D01*
X461828Y397305D01*
X463511Y395111D01*
X465705Y393428D01*
X468259Y392370D01*
X471000Y392009D01*
X473741Y392370D01*
X476295Y393428D01*
X478489Y395111D01*
X480172Y397305D01*
X481230Y399859D01*
X481591Y402600D01*
X481230Y405341D01*
X480172Y407895D01*
X478489Y410089D01*
X476295Y411772D01*
X473741Y412830D01*
X471000Y413191D01*
D02*
G37*
G36*
X275350Y398560D02*
Y389950D01*
X283960D01*
X283830Y390941D01*
X282772Y393495D01*
X281089Y395689D01*
X278895Y397372D01*
X276341Y398430D01*
X275350Y398560D01*
D02*
G37*
G36*
X271850Y398560D02*
X270859Y398430D01*
X268305Y397372D01*
X266111Y395689D01*
X264428Y393495D01*
X264331Y393261D01*
X266751Y393416D01*
X267160Y393494D01*
X267485Y393584D01*
X267728Y393686D01*
X267887Y393800D01*
Y389950D01*
X271850D01*
Y398560D01*
D02*
G37*
G36*
Y386450D02*
X267887D01*
Y382600D01*
X267728Y382714D01*
X267485Y382816D01*
X267160Y382906D01*
X266751Y382984D01*
X266260Y383050D01*
X265027Y383146D01*
X264322Y383161D01*
X264428Y382905D01*
X266111Y380711D01*
X268305Y379028D01*
X270859Y377970D01*
X271850Y377840D01*
Y386450D01*
D02*
G37*
G36*
X283960D02*
X275350D01*
Y377840D01*
X276341Y377970D01*
X278895Y379028D01*
X281089Y380711D01*
X282772Y382905D01*
X283830Y385459D01*
X283960Y386450D01*
D02*
G37*
G36*
X310000Y399200D02*
X288000D01*
Y377200D01*
X310000D01*
Y399200D01*
D02*
G37*
G36*
X398400Y399295D02*
X395528Y398917D01*
X392853Y397808D01*
X390555Y396045D01*
X388792Y393747D01*
X387683Y391072D01*
X387305Y388200D01*
X387683Y385328D01*
X388792Y382653D01*
X390555Y380355D01*
X392853Y378591D01*
X395528Y377483D01*
X398400Y377105D01*
X401272Y377483D01*
X403947Y378591D01*
X406245Y380355D01*
X408008Y382653D01*
X409117Y385328D01*
X409495Y388200D01*
X409117Y391072D01*
X408008Y393747D01*
X406245Y396045D01*
X403947Y397808D01*
X401272Y398917D01*
X398400Y399295D01*
D02*
G37*
G36*
X373000D02*
X370128Y398917D01*
X367453Y397808D01*
X365155Y396045D01*
X363391Y393747D01*
X362283Y391072D01*
X361905Y388200D01*
X362283Y385328D01*
X363391Y382653D01*
X365155Y380355D01*
X367453Y378591D01*
X370128Y377483D01*
X373000Y377105D01*
X375872Y377483D01*
X378547Y378591D01*
X380845Y380355D01*
X382608Y382653D01*
X383717Y385328D01*
X384095Y388200D01*
X383717Y391072D01*
X382608Y393747D01*
X380845Y396045D01*
X378547Y397808D01*
X375872Y398917D01*
X373000Y399295D01*
D02*
G37*
G36*
X126750Y380260D02*
Y376750D01*
X130260D01*
X130181Y377146D01*
X128965Y378965D01*
X127146Y380181D01*
X126750Y380260D01*
D02*
G37*
G36*
X197000Y380608D02*
X194854Y380181D01*
X193035Y378965D01*
X191819Y377146D01*
X191392Y375000D01*
X191819Y372854D01*
X193035Y371035D01*
X194854Y369819D01*
X197000Y369392D01*
X199146Y369819D01*
X200965Y371035D01*
X202181Y372854D01*
X202608Y375000D01*
X202181Y377146D01*
X200965Y378965D01*
X199146Y380181D01*
X197000Y380608D01*
D02*
G37*
G36*
X471000Y387791D02*
X468259Y387430D01*
X465705Y386372D01*
X463511Y384689D01*
X461828Y382495D01*
X460770Y379941D01*
X460409Y377200D01*
X460770Y374459D01*
X461828Y371905D01*
X463511Y369711D01*
X465705Y368028D01*
X468259Y366970D01*
X471000Y366609D01*
X473741Y366970D01*
X476295Y368028D01*
X478489Y369711D01*
X480172Y371905D01*
X481230Y374459D01*
X481591Y377200D01*
X481230Y379941D01*
X480172Y382495D01*
X478489Y384689D01*
X476295Y386372D01*
X473741Y387430D01*
X471000Y387791D01*
D02*
G37*
G36*
X219000Y367608D02*
X216854Y367181D01*
X215035Y365965D01*
X213819Y364146D01*
X213392Y362000D01*
X213819Y359854D01*
X215035Y358035D01*
X216854Y356819D01*
X219000Y356392D01*
X221146Y356819D01*
X222965Y358035D01*
X224181Y359854D01*
X224608Y362000D01*
X224181Y364146D01*
X222965Y365965D01*
X221146Y367181D01*
X219000Y367608D01*
D02*
G37*
G36*
X398400Y373895D02*
X395528Y373517D01*
X392853Y372408D01*
X390555Y370645D01*
X388792Y368347D01*
X387683Y365672D01*
X387305Y362800D01*
X387683Y359928D01*
X388792Y357253D01*
X390555Y354955D01*
X392853Y353191D01*
X395528Y352083D01*
X398400Y351705D01*
X401272Y352083D01*
X403947Y353191D01*
X406245Y354955D01*
X408008Y357253D01*
X409117Y359928D01*
X409495Y362800D01*
X409117Y365672D01*
X408008Y368347D01*
X406245Y370645D01*
X403947Y372408D01*
X401272Y373517D01*
X398400Y373895D01*
D02*
G37*
G36*
X373000D02*
X370128Y373517D01*
X367453Y372408D01*
X365155Y370645D01*
X363391Y368347D01*
X362283Y365672D01*
X361905Y362800D01*
X362283Y359928D01*
X363391Y357253D01*
X365155Y354955D01*
X367453Y353191D01*
X370128Y352083D01*
X373000Y351705D01*
X375872Y352083D01*
X378547Y353191D01*
X380845Y354955D01*
X382608Y357253D01*
X383717Y359928D01*
X384095Y362800D01*
X383717Y365672D01*
X382608Y368347D01*
X380845Y370645D01*
X378547Y372408D01*
X375872Y373517D01*
X373000Y373895D01*
D02*
G37*
G36*
X471000Y362391D02*
X468259Y362030D01*
X465705Y360972D01*
X463511Y359289D01*
X461828Y357095D01*
X460770Y354541D01*
X460409Y351800D01*
X460770Y349059D01*
X461828Y346505D01*
X463511Y344311D01*
X465705Y342628D01*
X468259Y341570D01*
X471000Y341209D01*
X473741Y341570D01*
X476295Y342628D01*
X478489Y344311D01*
X480172Y346505D01*
X481230Y349059D01*
X481591Y351800D01*
X481230Y354541D01*
X480172Y357095D01*
X478489Y359289D01*
X476295Y360972D01*
X473741Y362030D01*
X471000Y362391D01*
D02*
G37*
G36*
X374750Y347760D02*
Y339150D01*
X383360D01*
X383230Y340141D01*
X382172Y342695D01*
X380489Y344889D01*
X378295Y346572D01*
X375741Y347630D01*
X374750Y347760D01*
D02*
G37*
G36*
X371250D02*
X370259Y347630D01*
X367705Y346572D01*
X365511Y344889D01*
X363828Y342695D01*
X363731Y342462D01*
X366152Y342616D01*
X366560Y342694D01*
X366885Y342784D01*
X367128Y342886D01*
X367287Y343000D01*
Y339150D01*
X371250D01*
Y347760D01*
D02*
G37*
G36*
Y335650D02*
X367287D01*
Y331800D01*
X367128Y331914D01*
X366885Y332016D01*
X366560Y332106D01*
X366152Y332184D01*
X365660Y332250D01*
X364427Y332346D01*
X363722Y332361D01*
X363828Y332105D01*
X365511Y329911D01*
X367705Y328228D01*
X367938Y328131D01*
X367784Y330551D01*
X367706Y330960D01*
X367616Y331285D01*
X367514Y331528D01*
X367400Y331687D01*
X371250D01*
Y335650D01*
D02*
G37*
G36*
X383360D02*
X374750D01*
Y331687D01*
X378600D01*
X378486Y331528D01*
X378384Y331285D01*
X378294Y330960D01*
X378216Y330551D01*
X378150Y330060D01*
X378054Y328827D01*
X378039Y328122D01*
X378295Y328228D01*
X380489Y329911D01*
X382172Y332105D01*
X383230Y334659D01*
X383360Y335650D01*
D02*
G37*
G36*
X409400Y348400D02*
X387400D01*
Y326400D01*
X409400D01*
Y348400D01*
D02*
G37*
G36*
X322000Y337608D02*
X319854Y337181D01*
X318035Y335965D01*
X316819Y334146D01*
X316392Y332000D01*
X316819Y329854D01*
X318035Y328035D01*
X319854Y326819D01*
X322000Y326392D01*
X324146Y326819D01*
X325965Y328035D01*
X327181Y329854D01*
X327608Y332000D01*
X327181Y334146D01*
X325965Y335965D01*
X324146Y337181D01*
X322000Y337608D01*
D02*
G37*
G36*
X471000Y336991D02*
X468259Y336630D01*
X465705Y335572D01*
X463511Y333889D01*
X461828Y331695D01*
X460770Y329141D01*
X460409Y326400D01*
X460770Y323659D01*
X461828Y321105D01*
X463511Y318911D01*
X465705Y317228D01*
X468259Y316170D01*
X471000Y315809D01*
X473741Y316170D01*
X476295Y317228D01*
X478489Y318911D01*
X480172Y321105D01*
X481230Y323659D01*
X481591Y326400D01*
X481230Y329141D01*
X480172Y331695D01*
X478489Y333889D01*
X476295Y335572D01*
X473741Y336630D01*
X471000Y336991D01*
D02*
G37*
G36*
X297000Y316608D02*
X294854Y316181D01*
X293035Y314965D01*
X291819Y313146D01*
X291392Y311000D01*
X291819Y308854D01*
X293035Y307035D01*
X294854Y305819D01*
X297000Y305392D01*
X299146Y305819D01*
X300965Y307035D01*
X302181Y308854D01*
X302608Y311000D01*
X302181Y313146D01*
X300965Y314965D01*
X299146Y316181D01*
X297000Y316608D01*
D02*
G37*
G36*
X471000Y311591D02*
X468259Y311230D01*
X465705Y310172D01*
X463511Y308489D01*
X461828Y306295D01*
X460770Y303741D01*
X460409Y301000D01*
X460770Y298259D01*
X461828Y295705D01*
X463511Y293511D01*
X465705Y291828D01*
X468259Y290770D01*
X471000Y290409D01*
X473741Y290770D01*
X476295Y291828D01*
X478489Y293511D01*
X480172Y295705D01*
X481230Y298259D01*
X481591Y301000D01*
X481230Y303741D01*
X480172Y306295D01*
X478489Y308489D01*
X476295Y310172D01*
X473741Y311230D01*
X471000Y311591D01*
D02*
G37*
G36*
X417000Y281608D02*
X414854Y281181D01*
X413035Y279965D01*
X411819Y278146D01*
X411392Y276000D01*
X411819Y273854D01*
X413035Y272035D01*
X414854Y270819D01*
X417000Y270392D01*
X419146Y270819D01*
X420965Y272035D01*
X422181Y273854D01*
X422608Y276000D01*
X422181Y278146D01*
X420965Y279965D01*
X419146Y281181D01*
X417000Y281608D01*
D02*
G37*
G36*
X471000Y286191D02*
X468259Y285830D01*
X465705Y284772D01*
X463511Y283089D01*
X461828Y280895D01*
X460770Y278341D01*
X460409Y275600D01*
X460770Y272859D01*
X461828Y270305D01*
X463511Y268111D01*
X465705Y266428D01*
X468259Y265370D01*
X471000Y265009D01*
X473741Y265370D01*
X476295Y266428D01*
X478489Y268111D01*
X480172Y270305D01*
X481230Y272859D01*
X481591Y275600D01*
X481230Y278341D01*
X480172Y280895D01*
X478489Y283089D01*
X476295Y284772D01*
X473741Y285830D01*
X471000Y286191D01*
D02*
G37*
G36*
X425250Y269358D02*
X423104Y268931D01*
X421285Y267715D01*
X420069Y265896D01*
X419642Y263750D01*
X420069Y261604D01*
X421285Y259785D01*
X423104Y258569D01*
X425250Y258142D01*
X427396Y258569D01*
X429215Y259785D01*
X430431Y261604D01*
X430858Y263750D01*
X430431Y265896D01*
X429215Y267715D01*
X427396Y268931D01*
X425250Y269358D01*
D02*
G37*
G36*
X471000Y260791D02*
X468259Y260430D01*
X465705Y259372D01*
X463511Y257689D01*
X461828Y255495D01*
X460770Y252941D01*
X460409Y250200D01*
X460770Y247459D01*
X461828Y244905D01*
X463511Y242711D01*
X465705Y241028D01*
X468259Y239970D01*
X471000Y239609D01*
X473741Y239970D01*
X476295Y241028D01*
X478489Y242711D01*
X480172Y244905D01*
X481230Y247459D01*
X481591Y250200D01*
X481230Y252941D01*
X480172Y255495D01*
X478489Y257689D01*
X476295Y259372D01*
X473741Y260430D01*
X471000Y260791D01*
D02*
G37*
G36*
Y235391D02*
X468259Y235030D01*
X465705Y233972D01*
X463511Y232289D01*
X461828Y230095D01*
X460770Y227541D01*
X460409Y224800D01*
X460770Y222059D01*
X461828Y219505D01*
X463511Y217311D01*
X465705Y215628D01*
X468259Y214570D01*
X471000Y214209D01*
X473741Y214570D01*
X476295Y215628D01*
X478489Y217311D01*
X480172Y219505D01*
X481230Y222059D01*
X481591Y224800D01*
X481230Y227541D01*
X480172Y230095D01*
X478489Y232289D01*
X476295Y233972D01*
X473741Y235030D01*
X471000Y235391D01*
D02*
G37*
G36*
X474750Y209522D02*
X472750D01*
Y201150D01*
X481122D01*
Y203150D01*
X480637Y205589D01*
X479256Y207656D01*
X477189Y209037D01*
X474750Y209522D01*
D02*
G37*
G36*
X469250D02*
X467250D01*
X464811Y209037D01*
X462744Y207656D01*
X461363Y205589D01*
X461171Y204622D01*
X461202Y204625D01*
X462060Y204751D01*
X462801Y204905D01*
X463425Y205087D01*
X463933Y205298D01*
X464324Y205536D01*
X464597Y205803D01*
Y201150D01*
X469250D01*
Y209522D01*
D02*
G37*
G36*
Y197650D02*
X464597D01*
Y192997D01*
X464324Y193264D01*
X463933Y193502D01*
X463425Y193713D01*
X462801Y193895D01*
X462060Y194049D01*
X461202Y194176D01*
X461170Y194178D01*
X461363Y193211D01*
X462744Y191144D01*
X464811Y189763D01*
X467250Y189278D01*
X469250D01*
Y197650D01*
D02*
G37*
G36*
X481122D02*
X472750D01*
Y189278D01*
X474750D01*
X477189Y189763D01*
X479256Y191144D01*
X480637Y193211D01*
X481122Y195650D01*
Y197650D01*
D02*
G37*
G36*
X419120Y47800D02*
Y44290D01*
X422630D01*
X422551Y44686D01*
X421335Y46505D01*
X419516Y47721D01*
X419120Y47800D01*
D02*
G37*
G36*
X415620D02*
X415224Y47721D01*
X413405Y46505D01*
X412189Y44686D01*
X412110Y44290D01*
X415620D01*
Y47800D01*
D02*
G37*
G36*
X422630Y40790D02*
X419120D01*
Y37280D01*
X419516Y37359D01*
X421335Y38575D01*
X422551Y40394D01*
X422630Y40790D01*
D02*
G37*
G36*
X415620D02*
X412110D01*
X412189Y40394D01*
X413405Y38575D01*
X415224Y37359D01*
X415620Y37280D01*
Y40790D01*
D02*
G37*
%LPD*%
D10*
X488497Y96750D02*
X476500D01*
Y89894D01*
X488497Y87438D02*
Y81153D01*
X483927Y84581D01*
Y82867D01*
X483356Y81725D01*
X482784Y81153D01*
X481071Y80582D01*
X479928D01*
X478214Y81153D01*
X477071Y82296D01*
X476500Y84010D01*
Y85724D01*
X477071Y87438D01*
X477643Y88009D01*
X478785Y88580D01*
D42*
X21000Y380400D02*
D03*
X373000Y337400D02*
D03*
X273600Y388200D02*
D03*
D67*
X281500Y94000D02*
D03*
D78*
X54200Y472000D02*
D03*
D82*
X471000Y199400D02*
D03*
D83*
X125000Y375000D02*
D03*
Y402000D02*
D03*
X198710Y154290D02*
D03*
X227000Y91000D02*
D03*
X49000Y212000D02*
D03*
X298000Y220000D02*
D03*
X372000Y190000D02*
D03*
X379000Y245000D02*
D03*
X342000Y90000D02*
D03*
X389000Y92000D02*
D03*
X417370Y42540D02*
D03*
X188280Y278130D02*
D03*
X18640Y68500D02*
D03*
X19910Y86280D02*
D03*
X176850Y179070D02*
D03*
X169230Y193040D02*
D03*
X85410Y323850D02*
D03*
X77790Y229870D02*
D03*
X68900Y267970D02*
D03*
D85*
X54000Y472000D02*
X54200D01*
X190476D01*
X287024Y99524D02*
X381476D01*
X281500Y94000D02*
X287024Y99524D01*
X381476D02*
X389000Y92000D01*
X294476Y291007D02*
X331524Y328055D01*
X294476Y234055D02*
Y291007D01*
X331524Y328055D02*
Y340524D01*
X338000Y347000D01*
X231000Y451469D02*
X239524Y442945D01*
X231000Y451469D02*
Y472000D01*
X235476Y431007D02*
X239524Y435055D01*
X235476Y409524D02*
Y431007D01*
Y409524D02*
X256800Y388200D01*
X239524Y435055D02*
Y442945D01*
X204999Y467475D02*
X209524Y472000D01*
X195001Y467475D02*
X204999D01*
X190476Y472000D02*
X195001Y467475D01*
X209524Y472000D02*
X231000D01*
X421305Y254226D02*
X433243D01*
X373000Y306531D02*
X415726Y263805D01*
Y259805D02*
Y263805D01*
X433243Y254226D02*
X448000Y239469D01*
X415726Y259805D02*
X421305Y254226D01*
X373000Y306531D02*
Y337400D01*
X448000Y208000D02*
Y239469D01*
X294476Y234055D02*
X298000Y230531D01*
Y220000D02*
Y230531D01*
X448000Y93000D02*
Y208000D01*
Y63000D02*
Y93000D01*
X389000Y92000D02*
X390000Y93000D01*
X448000D01*
X417370Y42540D02*
X427540D01*
X448000Y63000D01*
X456600Y199400D02*
X471000D01*
X448000Y208000D02*
X456600Y199400D01*
X231000Y472000D02*
X316000D01*
X256800Y388200D02*
X273600D01*
X347600Y337400D02*
X373000D01*
X338000Y347000D02*
X347600Y337400D01*
X338000Y347000D02*
Y450000D01*
X316000Y472000D02*
X338000Y450000D01*
M02*
