M48
;Layer_Color=9474304
;FILE_FORMAT=4:4
METRIC,TZ
;TYPE=PLATED
T01F00S00C0.3000
T02F00S00C0.5000
T03F00S00C0.9000
T04F00S00C1.0000
T05F00S00C1.1000
;TYPE=NON_PLATED
T06F00S00C1.6000
T07F00S00C2.6000
%
T01
X18640Y68500
X19910Y86280
X42770Y79930
X35150Y105330
X82500Y87500
X84140Y78040
X91760Y89470
X131210Y84390
X151450Y90740
X146370Y69150
X131210Y116140
X209870Y107130
X232410Y113030
X227000Y91000
X250190Y102870
X323000Y121000
X342000Y90000
X324000Y58000
X353000
X379270Y69210
X368000Y89000
X389000Y92000
X403000Y107000
X431000Y121000
X419910Y67940
X417370Y42540
X368000Y125000
X372000Y190000
X348000Y196000
X350080Y241080
X379000Y245000
Y220000
X401000Y232000
X415000Y218000
X422000Y209000
X435000Y180000
X416000Y160000
X435000Y239000
X425250Y263750
X417000Y276000
X374000Y271000
X363000Y265000
X453000Y415000
X322000Y332000
X297000Y311000
X304000Y238000
X298000Y220000
X272000Y222000
X277880Y196120
X293000Y196000
Y166000
X282500Y138500
X266000Y143000
X222840Y154290
X198710
X199390Y128270
X189000Y137000
X176850Y179070
X159070Y177800
X156530Y193040
X147640Y194310
X169230Y193040
X180000Y213000
X188280Y269240
Y278130
X204470Y300670
Y314640
X218760Y289560
X237000Y253000
X263210Y259080
X248240Y196200
X224110Y191120
X120970Y190500
X102000Y189000
X94000Y178000
X88000Y199000
X71440Y209550
X77790Y219710
Y229870
Y254000
X65090Y256540
X68900Y267970
X39690
X42230Y279400
Y289560
Y299720
Y256540
X59080Y246080
X35525Y225525
X49000Y212000
X48580Y170180
X37000Y167000
X19000
X66360Y171450
X49850Y135150
X91760Y133350
X108270Y135890
X123510
X104460Y303530
X85410Y323850
X88900Y363220
X125000Y375000
Y402000
X197000Y403000
X221000Y401000
X219000Y362000
X197000Y375000
X193000Y457000
X200000Y476999
X230000Y439000
X254000Y440000
X245000Y423000
X48260Y435610
X38000Y398000
X318000Y208000
X332000Y195000
X324000Y176000
X344000Y155000
X342510Y132490
T02
X75000Y110000
X281500Y94000
X161500Y128000
T03
X471000Y199400
Y224800
Y250200
Y275600
Y301000
Y326400
Y351800
Y377200
Y402600
Y428000
T04
X21000Y329600
Y355000
Y380400
X28800Y472000
X54200
T05
X373000Y337400
X398400
Y362800
X373000
Y388200
X398400
Y413600
Y439000
X373000
Y413600
X299000
Y439000
X273600
Y413600
Y388200
X299000
T06
X111000Y430000
X207000
T07
X25000Y25000
X470000
Y470000
M30
